M48
METRIC,TZ
T01C.4
T02C1.
T03C3.
T04C3.2
;LEADER: 12 
;HEADER: 
;CODE  : ASCII 
;FILE  : BSK_02v4-1-4.drl for  ... layers TOP and BOTTOM
;DESIGN: BSK_02v4.brd
;T01 Holesize 1. = 0.400000 Tolerance = +0.000000/-0.000000 PLATED MM Quantity = 492
;T02 Holesize 2. = 1.000000 Tolerance = +0.000000/-0.000000 PLATED MM Quantity = 263
;T03 Holesize 3. = 3.000000 Tolerance = +0.100000/-0.100000 PLATED MM Quantity = 4
;T04 Holesize 4. = 3.200000 Tolerance = +0.000000/-0.000000 PLATED MM Quantity = 4
%
G90
T01
X9700000Y19800000
R04X-300000
X9940000Y17040000
X9780000Y16920000
X9100000Y19360000
X8800000Y19180000
X8500000Y18991700
X7780000Y18320000
X2800000Y381000
X3040000Y1778000
X2800000Y1397000
X3040000Y254000
X5236000Y15380000
X7380000Y15440000
X2800000Y1651000
X2800000Y0
X2800000Y1905000
X2800000Y2160000
X1800000Y6350000
X1700000Y6477000
X7380000Y16100000
X6640000Y16880000
X8000000Y16840000
X7540000Y17160000
X7540000Y16920000
X7340000Y17400000
X10325000Y14140000
X3040000Y2032000
X1800000Y6604000
X4400000Y19860000
X1700000Y6985000
X3040000Y1270000
X10430000Y13940000
X4103200Y15596800
X3040000Y1016000
X7940000Y16060000
X5920000Y18060000
X5400000Y18060000
X4720000Y15740000
X6482000Y16289000
X7100000Y16140000
X6941000Y15880000
X8240000Y16220000
X7841000Y15880000
X6720000Y16460000
X6760000Y16640000
X6480000Y17220000
X8020000Y17360000
X8240000Y17220000
X7041000Y17648000
X7841000Y17640000
X7860000Y19260000
X8060000Y16180000
X10535000Y14140000
X2800000Y889000
X1800000Y6858000
X3040000Y762000
X9170000Y13940000
X2800000Y1143000
X1800000Y7112000
X2800000Y635000
X9905000Y14140000
X3040000Y1524000
X9695000Y14140000
X9275000Y14140000
X3040000Y508000
X1700000Y7239000
X9065000Y14140000
X10115000Y14140000
X1700000Y6731000
X8855000Y14140000
X10010000Y13940000
X4300000Y15600000
X3740000Y20200000
X9800000Y13940000
X9485000Y14140000
X3100000Y125000
X3280000Y6080000
X1080000Y7620000
X1040000Y7960000
X3520000Y2140000
X1800000Y2540000
X1240000Y2540000
X-480000Y9000000
X0Y9000000
X500000Y9000000
R02X500000
X2500000Y9000000
X2000000Y9000000
X3000000Y9000000
X3520000Y9000000
X4000000Y9000000
R17X500000
X900000Y7925000
X8875000Y525000
X8875000Y925000
X8475000Y925000
X8475000Y525000
X900000Y8050000
X3600000Y15360000
X10220000Y13940000
X9590000Y13940000
X3800000Y15360000
X3900000Y15600000
X4200000Y15360000
X8960000Y13940000
X3700000Y15600000
X4000000Y15360000
X12200000Y8650000
X3550000Y125000
X3720000Y6080000
X1440000Y7620000
X1480000Y7960000
X4060000Y2140000
X2240000Y2540000
X1640000Y2540000
X12480000Y8840000
X13270500Y8940000
X11700000Y8900000
X900000Y7550000
X10900000Y2500000
X10900000Y1500000
X9100000Y2000000
X10300000Y1500000
X9700000Y1500000
X10300000Y2000000
X10900000Y2000000
X9100000Y2500000
R02X600000
X9100000Y1500000
X9700000Y2000000
X8875000Y200000
X10000000Y150000
X9800000Y225000
X10200000Y225000
X11500000Y200000
X900000Y7425000
X9380000Y13940000
X7620000Y18240000
X7480000Y18160000
X6120000Y19000000
X5900000Y18900000
X3850000Y20380000
X11525000Y925000
X11350000Y925000
X11350000Y700000
X11525000Y700000
X12740000Y8700000
X571500Y17653000
X444500Y17780000
X571500Y16383000
X444500Y17526000
X444500Y16510000
X571500Y17145000
X444500Y17272000
X444500Y17018000
X571500Y16891000
X571500Y16637000
X444500Y16764000
X2760000Y16380000
X7300000Y18060000
X2760000Y16180000
X5240000Y15860000
X2480000Y19620000
X444500Y18796000
X2420000Y18900000
X571500Y19177000
X2400000Y18280000
X571500Y19431000
X2420000Y19140000
X571500Y18415000
X2480000Y19380000
X444500Y19558000
X2540000Y18020000
X571500Y18161000
X2400000Y18100000
X444500Y19304000
X2540000Y18380000
X571500Y18923000
X444500Y19050000
X2540000Y19020000
X571500Y17907000
X2420000Y18720000
X571500Y18669000
X2400000Y18480000
X444500Y19812000
X2560000Y18200000
X444500Y18542000
X2340000Y19500000
X444500Y18288000
X2340000Y19700000
X444500Y18034000
X2340000Y19280000
X2560000Y18580000
X571500Y19685000
X1960000Y16418500
X2480000Y17840000
X3060000Y19000000
X571500Y17399000
X12980000Y11920000
X13980000Y20160000
X900000Y16140000
X900000Y20440000
X4000000Y20500000
X760000Y14260000
X760000Y14080000
X13920000Y13940000
X11840000Y15180000
X11239500Y15180000
X1300000Y15720000
X12840000Y15800000
X1180000Y16340000
X1300000Y16820000
X1220000Y17340000
X1300000Y17900000
X11440000Y18420000
X1300000Y18820000
X1300000Y19820000
X900000Y20160000
X900000Y15840000
X13980000Y19860000
X12980000Y11600000
X5460000Y14725000
X6280000Y14725000
X1600000Y14320000
X1600000Y14600000
X1600000Y14860000
X1600000Y14060000
X1820000Y14740000
X2000000Y14600000
X1820000Y14180000
X2000000Y14320000
X1925000Y15100000
X1920000Y13820000
X13000000Y10080000
X12500000Y10080000
X3500000Y10080000
R14X500000
X11500000Y10080000
X11000000Y10080000
X3200000Y19920000
X2660000Y19900000
X4440000Y15320000
X3420000Y15340000
X3800000Y16140000
X3360000Y16120000
X3960000Y18900000
X8780000Y14520000
X10580000Y14280000
X-640000Y11420000
X13520000Y10120000
X3600000Y19880000
X-480000Y9740000
X0Y9668800
R06X500000
X3500000Y9740000
X13016500Y9880000
X13680000Y10720000
X13680000Y10480000
X-480000Y10660000
X-480000Y10900000
X2620000Y14320000
X2340000Y14600000
X2340000Y14320000
X2620000Y14600000
X2480000Y14460000
X8320000Y15020000
X8320000Y15260000
X2460000Y15720000
X2440000Y16760000
X3080000Y17800000
X3620000Y17700000
X1640000Y18380000
X3040000Y18820000
X1640000Y19320000
X13520000Y9820000
X-640000Y11120000
X3520000Y18920000
X3240000Y18920000
X3720000Y18900000
X3080000Y16120000
X3560000Y16140000
X3420000Y15060000
X4440000Y15080000
X2960000Y19920000
X2380000Y19900000
X12000000Y9775000
X9700000Y20500000
R04X-300000
X3450000Y20360000
X13925000Y17625000
X3200000Y20080000
X2660000Y20100000
X4600000Y15320000
X3220000Y15340000
X3800000Y16300000
X3360000Y16320000
X3960000Y18740000
X3520000Y18720000
X8780000Y14320000
X10580000Y14440000
X13180000Y11920000
X14180000Y20160000
X-440000Y11120000
X13720000Y10120000
X1100000Y16140000
X1100000Y20440000
X4130000Y20180000
X2800000Y14580000
X8220000Y15900000
X4800000Y18740000
X1025000Y14675000
X7100000Y16480000
X7780000Y16100000
X7560000Y17520000
X7700000Y17160000
X7000000Y17100000
X1773500Y16613500
X1460000Y16680000
X2340000Y16580000
X1618800Y17718800
X8000000Y16480000
X7180000Y17640000
X1280000Y19380000
X3760000Y9668800
R15X500000
X12280000Y9775800
X12780000Y9775800
X13520000Y10720000
X13520000Y10480000
X-640000Y10900000
X-640000Y10660000
X2460000Y14140000
X2460000Y14780000
X14320000Y13940000
X14320000Y14180000
X5980000Y14720000
X6100000Y14840000
X5780000Y14720000
X5640000Y14840000
X12320000Y14600000
X8480000Y15260000
X8480000Y15020000
X11720000Y14900000
X11460000Y14900000
X1920000Y15720000
X2100000Y15720000
X5064000Y15380000
X4840000Y15460000
X7220000Y15880000
X6460000Y16580000
X8280000Y17500000
X7460000Y15880000
X8240000Y16860000
X8240000Y16600000
X6480000Y17600000
X8220000Y17660000
X6660000Y17640000
X6480000Y15920000
X6680000Y16000000
X12680000Y15800000
X12890500Y15580000
X14033500Y15580000
X1780000Y15980000
X1780000Y16160000
X2360000Y15963500
X12680000Y16300000
X1900000Y16760000
X2080000Y16760000
X10096500Y16460000
X11239500Y16460000
X14100000Y16383000
X1440000Y16940000
X1780000Y17044500
X2020000Y16979500
X10020000Y17272000
X1440000Y17780000
X2340000Y17580000
X2280000Y17800000
X2660000Y17800000
X13280000Y17780000
X1280000Y18360000
X1640000Y17980000
X7180000Y18420000
X7480000Y18400000
X7580000Y18460000
X7940000Y18460000
X8080000Y18600000
X8080000Y19260000
X8000000Y19400000
X7280000Y19400000
X7180000Y19300000
X7180000Y19020000
X7180000Y18640000
X8080000Y19020000
X7640000Y19400000
X10020000Y18415000
X1640000Y18820000
X2260000Y18820000
X2680000Y18820000
X11020000Y18760000
X11580000Y18760000
X7380000Y19260000
X1640000Y19740000
X2160000Y19760000
X2920000Y19640000
X2760000Y19760000
X1780000Y16340000
X7700000Y16920000
X1460000Y16140000
X2460000Y15100000
X2460000Y13820000
X2140000Y15100000
X2140000Y13820000
X775000Y14675000
X775000Y15050000
X7340000Y16900000
X6500000Y17040000
X7200000Y16900000
X2800000Y14340000
X1080000Y13860000
X1100000Y20160000
X1100000Y15840000
X13720000Y9820000
X-440000Y11420000
X14180000Y19860000
X13180000Y11600000
X3240000Y18720000
X3720000Y18740000
X3080000Y16320000
X3560000Y16300000
X3220000Y15060000
X4600000Y15080000
X2960000Y20080000
X2380000Y20100000
X1200000Y15050000
T02
X760000Y12680000
X1014000Y12680000
X3040000Y2560000
X3294000Y2560000
X4480000Y20260000
R04X254000
X5900000Y20260000
R04X254000
X12050000Y1200000
R04Y-254000
X7480000Y20260000
X7734000Y20260000
X0Y21209000
R31Y-254000
X-254000Y21209000
R31Y-254000
X-508000Y21209000
R31Y-254000
X0Y7874000
R31Y-254000
X-254000Y7874000
R31Y-254000
X-508000Y7874000
R31Y-254000
X11938000Y18288000
X12192000Y18288000
X11938000Y18034000
X12192000Y18034000
X11938000Y17780000
X12192000Y17780000
X11938000Y17526000
X12192000Y17526000
X11938000Y17272000
X12192000Y17272000
X11938000Y17018000
X12192000Y17018000
X11938000Y16764000
X12192000Y16764000
X11938000Y16510000
X12192000Y16510000
X11938000Y16256000
X12192000Y16256000
X11938000Y16002000
X12192000Y16002000
X11938000Y13843000
X12192000Y13843000
X11938000Y13589000
X12192000Y13589000
X11938000Y13335000
X12192000Y13335000
X11938000Y13081000
X12192000Y13081000
X11938000Y12827000
X12192000Y12827000
X11938000Y12573000
X12192000Y12573000
X11938000Y12319000
X12192000Y12319000
X11938000Y12065000
X12192000Y12065000
X11938000Y11811000
X12192000Y11811000
X11938000Y11557000
X12192000Y11557000
X5180000Y18380000
X5180000Y18634000
X5434000Y18380000
X5434000Y18634000
X5688000Y18380000
X5688000Y18634000
X5942000Y18380000
X5942000Y18634000
X6196000Y18380000
X6196000Y18634000
T03
X-762000Y21717000
X-762000Y12827000
X-762000Y8382000
X-762000Y-508000
T04
X14605000Y21717000
X14605000Y12827000
X14605000Y8382000
X14605000Y-508000
M30
