G04 ================== begin FILE IDENTIFICATION RECORD ==================*
G04 Layout Name:  D:/BSK/02v4/pcb/BSK_02v4.brd*
G04 Film Name:    IN1_GND*
G04 File Format:  Gerber RS274X*
G04 File Origin:  Cadence Allegro 16.6-2015-S105*
G04 Origin Date:  Wed Mar 20 11:12:46 2019*
G04 *
G04 Layer:  ETCH/IN1_GND*
G04 Layer:  PIN/IN1_GND*
G04 Layer:  VIA CLASS/IN1_GND*
G04 *
G04 Offset:    (0.000 0.000)*
G04 Mirror:    No*
G04 Mode:      Positive*
G04 Rotation:  0*
G04 FullContactRelief:  No*
G04 UndefLineWidth:     0.000*
G04 ================== end FILE IDENTIFICATION RECORD ====================*
%FSLAX35Y35*MOMM*%
%IR0*IPPOS*OFA0.00000B0.00000*MIA0B0*SFA1.00000B1.00000*%
%ADD11C,1.7*%
%ADD10R,1.7X1.7*%
%ADD12C,.8*%
%ADD13C,.5*%
%ADD14C,.35*%
%ADD17C,2.204*%
%ADD18C,2.304*%
%ADD15C,1.404*%
%ADD19C,2.404*%
%ADD16C,4.404*%
G75*
%LPD*%
G75*
G36*
G01X-617300Y-696500D02*
X-618400Y-693500D01*
X-626100Y-673200D01*
X-624700Y-667300D01*
X-622400Y-665200D01*
X-622300Y-665100D01*
X-622100Y-664900D01*
G03X-778600Y-298400I-139875J156935D01*
G01X-780700Y-298600D01*
X-784600Y-297200D01*
X-796800Y-285800D01*
G02X-800000Y-278500I6790J7328D01*
G01Y8151400D01*
G02X-799800Y8153500I10005J107D01*
G01X-799200Y8156500D01*
X-798300Y8158400D01*
X-796800Y8159800D01*
X-786100Y8169800D01*
G02X-783700Y8171400I6677J-7415D01*
G02X-779700Y8172500I4593J-8879D01*
G03X-778600Y8591600I17688J209505D01*
G01X-780700Y8591400D01*
X-784600Y8592800D01*
X-796800Y8604200D01*
G02X-800000Y8611500I6790J7328D01*
G01Y9130000D01*
G02X-797100Y9137100I10014J52D01*
G02X-790000Y9140000I7048J-7114D01*
G01X13515300D01*
G02X13522400Y9137100I52J-10014D01*
G02X13525300Y9130000I-7114J-7048D01*
G01Y7937500D01*
G03X13589000Y7873800I63700J0D01*
G01X14690000D01*
G02X14697100Y7870900I52J-10014D01*
G02X14700000Y7863800I-7114J-7048D01*
G01Y581700D01*
G02X14690000Y571700I-10000J0D01*
G01X13589000D01*
G03X13525300Y508000I0J-63700D01*
G01Y-690000D01*
G02X13515300Y-700000I-10000J0D01*
G01X-609000D01*
X-612200D01*
X-617300Y-696500D01*
G37*
G36*
G01X-50000Y9583600D02*
X-55100Y9580000D01*
X-749900D01*
G02X-799900Y9630000I2J50002D01*
G01X-800100Y12596000D01*
X-800200Y12597300D01*
X-799700Y12599600D01*
G02X-797000Y12604700I9806J-1927D01*
G01X-796600Y12605100D01*
X-786100Y12614800D01*
G02X-779300Y12617500I6835J-7300D01*
G01X-774500D01*
G03X-774900Y13036500I13792J209513D01*
G01X-779300D01*
G02X-786000Y13039100I26J10000D01*
G01X-796900Y13049100D01*
G02X-800100Y13056400I6800J7332D01*
G01X-800600Y19850000D01*
G02X-790600Y19860000I10000J0D01*
G01X-606200D01*
G02X-604200Y19859800I10J-10000D01*
G01X-601800Y19859300D01*
X-600300Y19859000D01*
X-595600Y19856600D01*
X-594200Y19855200D01*
G03X-421800I86200J83800D01*
G01X-421400Y19855600D01*
G02X-418100Y19857800I7090J-7060D01*
G01X-414500Y19859300D01*
G02X-410700Y19860000I3680J-9312D01*
G01X-352200D01*
G02X-350200Y19859800I10J-10000D01*
G01X-347800Y19859300D01*
X-346300Y19859000D01*
X-341700Y19856700D01*
X-340500Y19855400D01*
G03X-307300Y19831000I86797J83314D01*
G01X-306100Y19830400D01*
X-304200Y19828800D01*
X-300800Y19823800D01*
G02X-299200Y19819500I-8328J-5546D01*
G02X-299100Y19818100I-9915J-1412D01*
G01Y19803800D01*
G02X-302000Y19796800I-10000J42D01*
G01X-304800Y19794000D01*
X-306300Y19793300D01*
G03Y19576700I52300J-108300D01*
G01X-304800Y19576000D01*
X-302000Y19573200D01*
G02X-299100Y19566200I-7100J-7042D01*
G01Y19549800D01*
G02X-302000Y19542800I-10000J42D01*
G01X-304800Y19540000D01*
X-306300Y19539300D01*
G03Y19322700I52300J-108300D01*
G01X-304800Y19322000D01*
X-302000Y19319200D01*
G02X-299100Y19312200I-7100J-7042D01*
G01Y19295800D01*
G02X-302000Y19288800I-10000J42D01*
G01X-304800Y19286000D01*
X-306300Y19285300D01*
G03Y19068700I52300J-108300D01*
G01X-304800Y19068000D01*
X-302000Y19065200D01*
G02X-299100Y19058200I-7100J-7042D01*
G01Y19041800D01*
G02X-302000Y19034800I-10000J42D01*
G01X-304800Y19032000D01*
X-306300Y19031300D01*
G03Y18814700I52300J-108300D01*
G01X-304800Y18814000D01*
X-302000Y18811200D01*
G02X-299100Y18804200I-7100J-7042D01*
G01Y18787800D01*
G02X-302000Y18780800I-10000J42D01*
G01X-304800Y18778000D01*
X-306300Y18777300D01*
G03Y18560700I52300J-108300D01*
G01X-304800Y18560000D01*
X-302000Y18557200D01*
G02X-299100Y18550200I-7100J-7042D01*
G01Y18533800D01*
G02X-302000Y18526800I-10000J42D01*
G01X-304900Y18523900D01*
X-306400Y18523200D01*
G03X-324200Y18317400I52385J-108201D01*
G01X-321500Y18315500D01*
X-319500Y18309300D01*
X-326400Y18288100D01*
G02X-335900Y18281200I-9507J3100D01*
G01X-364200D01*
G03X-374200Y18271200I0J-10000D01*
G01Y18050800D01*
G03X-364200Y18040800I10000J0D01*
G01X-335900D01*
G02X-326400Y18033900I-7J-10000D01*
G01X-319500Y18012700D01*
X-321500Y18006500D01*
X-324200Y18004600D01*
G03X-306400Y17798800I70185J-97599D01*
G01X-304900Y17798100D01*
X-302000Y17795200D01*
G02X-299100Y17788200I-7100J-7042D01*
G01Y17771800D01*
G02X-302000Y17764800I-10000J42D01*
G01X-304800Y17762000D01*
X-306300Y17761300D01*
G03Y17544700I52300J-108300D01*
G01X-304800Y17544000D01*
X-302000Y17541200D01*
G02X-299100Y17534200I-7100J-7042D01*
G01Y17517800D01*
G02X-302000Y17510800I-10000J42D01*
G01X-304800Y17508000D01*
X-306300Y17507300D01*
G03Y17290700I52300J-108300D01*
G01X-304800Y17290000D01*
X-302000Y17287200D01*
G02X-299100Y17280200I-7100J-7042D01*
G01Y17263800D01*
G02X-302000Y17256800I-10000J42D01*
G01X-304800Y17254000D01*
X-306300Y17253300D01*
G03Y17036700I52300J-108300D01*
G01X-304800Y17036000D01*
X-302000Y17033200D01*
G02X-299100Y17026200I-7100J-7042D01*
G01Y17009800D01*
G02X-302000Y17002800I-10000J42D01*
G01X-304800Y17000000D01*
X-306300Y16999300D01*
G03Y16782700I52300J-108300D01*
G01X-304800Y16782000D01*
X-302000Y16779200D01*
G02X-299100Y16772200I-7100J-7042D01*
G01Y16755800D01*
G02X-302000Y16748800I-10000J42D01*
G01X-304800Y16746000D01*
X-306300Y16745300D01*
G03Y16528700I52300J-108300D01*
G01X-304800Y16528000D01*
X-302000Y16525200D01*
G02X-299100Y16518200I-7100J-7042D01*
G01Y16501800D01*
G02X-302000Y16494800I-10000J42D01*
G01X-304800Y16492000D01*
X-306300Y16491300D01*
G03Y16274700I52300J-108300D01*
G01X-304800Y16274000D01*
X-302000Y16271200D01*
G02X-299100Y16264200I-7100J-7042D01*
G01Y16247800D01*
G02X-302000Y16240800I-10000J42D01*
G01X-304800Y16238000D01*
X-306300Y16237300D01*
G03Y16020700I52300J-108300D01*
G01X-304800Y16020000D01*
X-302000Y16017200D01*
G02X-299100Y16010200I-7100J-7042D01*
G01Y15993800D01*
G02X-302000Y15986800I-10000J42D01*
G01X-304900Y15983900D01*
X-306400Y15983200D01*
G03X-324200Y15777400I52385J-108201D01*
G01X-321500Y15775500D01*
X-319500Y15769300D01*
X-326400Y15748100D01*
G02X-335900Y15741200I-9507J3100D01*
G01X-364200D01*
G03X-374200Y15731200I0J-10000D01*
G01Y15510800D01*
G03X-364200Y15500800I10000J0D01*
G01X-335900D01*
G02X-326400Y15493900I-7J-10000D01*
G01X-319500Y15472700D01*
X-321500Y15466500D01*
X-324200Y15464600D01*
G03X-306400Y15258800I70185J-97599D01*
G01X-304900Y15258100D01*
X-302000Y15255200D01*
G02X-299100Y15248200I-7100J-7042D01*
G01Y15231800D01*
G02X-302000Y15224800I-10000J42D01*
G01X-304800Y15222000D01*
X-306300Y15221300D01*
G03Y15004700I52300J-108300D01*
G01X-304800Y15004000D01*
X-302000Y15001200D01*
G02X-299100Y14994200I-7100J-7042D01*
G01Y14977800D01*
G02X-302000Y14970800I-10000J42D01*
G01X-304800Y14968000D01*
X-306300Y14967300D01*
G03Y14750700I52300J-108300D01*
G01X-304800Y14750000D01*
X-302000Y14747200D01*
G02X-299100Y14740200I-7100J-7042D01*
G01Y14723800D01*
G02X-302000Y14716800I-10000J42D01*
G01X-304800Y14714000D01*
X-306300Y14713300D01*
G03Y14496700I52300J-108300D01*
G01X-304800Y14496000D01*
X-302000Y14493200D01*
G02X-299100Y14486200I-7100J-7042D01*
G01Y14469800D01*
G02X-302000Y14462800I-10000J42D01*
G01X-304800Y14460000D01*
X-306300Y14459300D01*
G03Y14242700I52300J-108300D01*
G01X-304800Y14242000D01*
X-302000Y14239200D01*
G02X-299100Y14232200I-7100J-7042D01*
G01Y14215800D01*
G02X-302000Y14208800I-10000J42D01*
G01X-304800Y14206000D01*
X-306300Y14205300D01*
G03Y13988700I52300J-108300D01*
G01X-304800Y13988000D01*
X-302000Y13985200D01*
G02X-299100Y13978200I-7100J-7042D01*
G01Y13961800D01*
G02X-302000Y13954800I-10000J42D01*
G01X-304800Y13952000D01*
X-306300Y13951300D01*
G03X-362900Y13893900I52354J-108230D01*
G02X-372000Y13888100I-9075J4200D01*
G01X-390000D01*
G02X-399100Y13893900I-25J10000D01*
G03X-399900Y13790400I-108898J-50911D01*
G01X-398900Y13792400D01*
G02X-390000Y13797900I8930J-4500D01*
G01X-371200D01*
X-368900Y13797200D01*
G02X-365500Y13795300I-3082J-9507D01*
G01X-363800Y13793900D01*
X-362800Y13791900D01*
Y13791800D01*
G03X-145900Y13790400I108785J51215D01*
G01X-144900Y13792400D01*
G02X-136000Y13797900I8930J-4500D01*
G01X-118300D01*
G02X-117300I500J-10018D01*
G02X-110200Y13793800I-1016J-9958D01*
G01X-109000Y13792200D01*
X-108500Y13791300D01*
X-108400Y13791000D01*
G03X-108900Y13893900I108397J51978D01*
G02X-118000Y13888100I-9075J4200D01*
G01X-136000D01*
G02X-145100Y13893900I-25J10000D01*
G03X-201700Y13951300I-108954J-50830D01*
G01X-203200Y13952000D01*
X-206000Y13954800D01*
G02X-208900Y13961800I7100J7042D01*
G01Y13978200D01*
G02X-206000Y13985200I10000J-42D01*
G01X-203200Y13988000D01*
X-201700Y13988700D01*
G03Y14205300I-52300J108300D01*
G01X-203200Y14206000D01*
X-206000Y14208800D01*
G02X-208900Y14215800I7100J7042D01*
G01Y14232200D01*
G02X-206000Y14239200I10000J-42D01*
G01X-203200Y14242000D01*
X-201700Y14242700D01*
G03Y14459300I-52300J108300D01*
G01X-203200Y14460000D01*
X-206000Y14462800D01*
G02X-208900Y14469800I7100J7042D01*
G01Y14486200D01*
G02X-206000Y14493200I10000J-42D01*
G01X-203200Y14496000D01*
X-201700Y14496700D01*
G03Y14713300I-52300J108300D01*
G01X-203200Y14714000D01*
X-206000Y14716800D01*
G02X-208900Y14723800I7100J7042D01*
G01Y14740200D01*
G02X-206000Y14747200I10000J-42D01*
G01X-203200Y14750000D01*
X-201700Y14750700D01*
G03Y14967300I-52300J108300D01*
G01X-203200Y14968000D01*
X-206000Y14970800D01*
G02X-208900Y14977800I7100J7042D01*
G01Y14994200D01*
G02X-206000Y15001200I10000J-42D01*
G01X-203200Y15004000D01*
X-201700Y15004700D01*
G03Y15221300I-52300J108300D01*
G01X-203200Y15222000D01*
X-206000Y15224800D01*
G02X-208900Y15231800I7100J7042D01*
G01Y15248200D01*
G02X-206000Y15255200I10000J-42D01*
G01X-203100Y15258100D01*
X-201600Y15258800D01*
G03X-183800Y15464600I-52385J108201D01*
G01X-186500Y15466500D01*
X-188500Y15472700D01*
X-181600Y15493900D01*
G02X-172100Y15500800I9507J-3100D01*
G01X-143800D01*
G03X-133800Y15510800I0J10000D01*
G01Y15731200D01*
G03X-143800Y15741200I-10000J0D01*
G01X-172100D01*
G02X-181600Y15748100I7J10000D01*
G01X-188500Y15769300D01*
X-186500Y15775500D01*
X-183800Y15777400D01*
G03X-201600Y15983200I-70185J97599D01*
G01X-203100Y15983900D01*
X-206000Y15986800D01*
G02X-208900Y15993800I7100J7042D01*
G01Y16010200D01*
G02X-206000Y16017200I10000J-42D01*
G01X-203200Y16020000D01*
X-201700Y16020700D01*
G03Y16237300I-52300J108300D01*
G01X-203200Y16238000D01*
X-206000Y16240800D01*
G02X-208900Y16247800I7100J7042D01*
G01Y16264200D01*
G02X-206000Y16271200I10000J-42D01*
G01X-203200Y16274000D01*
X-201700Y16274700D01*
G03Y16491300I-52300J108300D01*
G01X-203200Y16492000D01*
X-206000Y16494800D01*
G02X-208900Y16501800I7100J7042D01*
G01Y16518200D01*
G02X-206000Y16525200I10000J-42D01*
G01X-203200Y16528000D01*
X-201700Y16528700D01*
G03Y16745300I-52300J108300D01*
G01X-203200Y16746000D01*
X-206000Y16748800D01*
G02X-208900Y16755800I7100J7042D01*
G01Y16772200D01*
G02X-206000Y16779200I10000J-42D01*
G01X-203200Y16782000D01*
X-201700Y16782700D01*
G03Y16999300I-52300J108300D01*
G01X-203200Y17000000D01*
X-206000Y17002800D01*
G02X-208900Y17009800I7100J7042D01*
G01Y17026200D01*
G02X-206000Y17033200I10000J-42D01*
G01X-203200Y17036000D01*
X-201700Y17036700D01*
G03Y17253300I-52300J108300D01*
G01X-203200Y17254000D01*
X-206000Y17256800D01*
G02X-208900Y17263800I7100J7042D01*
G01Y17280200D01*
G02X-206000Y17287200I10000J-42D01*
G01X-203200Y17290000D01*
X-201700Y17290700D01*
G03Y17507300I-52300J108300D01*
G01X-203200Y17508000D01*
X-206000Y17510800D01*
G02X-208900Y17517800I7100J7042D01*
G01Y17534200D01*
G02X-206000Y17541200I10000J-42D01*
G01X-203200Y17544000D01*
X-201700Y17544700D01*
G03Y17761300I-52300J108300D01*
G01X-203200Y17762000D01*
X-206000Y17764800D01*
G02X-208900Y17771800I7100J7042D01*
G01Y17788200D01*
G02X-206000Y17795200I10000J-42D01*
G01X-203100Y17798100D01*
X-201600Y17798800D01*
G03X-183800Y18004600I-52385J108201D01*
G01X-186500Y18006500D01*
X-188500Y18012700D01*
X-181600Y18033900D01*
G02X-172100Y18040800I9507J-3100D01*
G01X-143800D01*
G03X-133800Y18050800I0J10000D01*
G01Y18271200D01*
G03X-143800Y18281200I-10000J0D01*
G01X-172100D01*
G02X-181600Y18288100I7J10000D01*
G01X-188500Y18309300D01*
X-186500Y18315500D01*
X-183800Y18317400D01*
G03X-201600Y18523200I-70185J97599D01*
G01X-203100Y18523900D01*
X-206000Y18526800D01*
G02X-208900Y18533800I7100J7042D01*
G01Y18550200D01*
G02X-206000Y18557200I10000J-42D01*
G01X-203200Y18560000D01*
X-201700Y18560700D01*
G03Y18777300I-52300J108300D01*
G01X-203200Y18778000D01*
X-206000Y18780800D01*
G02X-208900Y18787800I7100J7042D01*
G01Y18804200D01*
G02X-206000Y18811200I10000J-42D01*
G01X-203200Y18814000D01*
X-201700Y18814700D01*
G03Y19031300I-52300J108300D01*
G01X-203200Y19032000D01*
X-206000Y19034800D01*
G02X-208900Y19041800I7100J7042D01*
G01Y19058200D01*
G02X-206000Y19065200I10000J-42D01*
G01X-203200Y19068000D01*
X-201700Y19068700D01*
G03Y19285300I-52300J108300D01*
G01X-203200Y19286000D01*
X-206000Y19288800D01*
G02X-208900Y19295800I7100J7042D01*
G01Y19312200D01*
G02X-206000Y19319200I10000J-42D01*
G01X-203200Y19322000D01*
X-201700Y19322700D01*
G03Y19539300I-52300J108300D01*
G01X-203200Y19540000D01*
X-206000Y19542800D01*
G02X-208900Y19549800I7100J7042D01*
G01Y19566200D01*
G02X-206000Y19573200I10000J-42D01*
G01X-203200Y19576000D01*
X-201700Y19576700D01*
G03Y19793300I-52300J108300D01*
G01X-203200Y19794000D01*
X-206000Y19796800D01*
G02X-208900Y19803800I7100J7042D01*
G01Y19820200D01*
G02X-206000Y19827200I10000J-42D01*
G01X-203300Y19829900D01*
X-201800Y19830600D01*
G03X-171000Y19852000I-52376J108246D01*
G01X-167400Y19855600D01*
G02X-164100Y19857800I7090J-7060D01*
G01X-160500Y19859300D01*
G02X-156700Y19860000I3680J-9312D01*
G01X-98200D01*
G02X-96200Y19859800I10J-10000D01*
G01X-93800Y19859300D01*
X-92300Y19859000D01*
X-87600Y19856600D01*
X-86200Y19855200D01*
G03X86200I86200J83800D01*
G01X86600Y19855600D01*
G02X89900Y19857800I7090J-7060D01*
G01X93500Y19859300D01*
G02X97300Y19860000I3680J-9312D01*
G01X290000D01*
G03X300000Y19870000I0J10000D01*
G01Y21890000D01*
G02X310000Y21900000I10000J0D01*
G01X13350000D01*
G02X13400000Y21850000I0J-50000D01*
G01Y20550000D01*
G03X13450000Y20500000I50000J0D01*
G01X14650000D01*
G02X14700000Y20450000I0J-50000D01*
G01Y13450000D01*
G02X14650000Y13400000I-50000J0D01*
G01X13550000D01*
G03X13500000Y13350000I0J-50000D01*
G01Y11750000D01*
G03X13550000Y11700000I50000J0D01*
G01X14650000D01*
G02X14700000Y11650000I0J-50000D01*
G01Y9630000D01*
G02X14650000Y9580000I-50000J0D01*
G01X3058300D01*
G02X3048900Y9586600I4J10000D01*
G01X3042800Y9603400D01*
G02X3042200Y9606800I9400J3412D01*
G01Y9610100D01*
X3044000Y9614100D01*
X3045700Y9615500D01*
G03X2951900Y9617600I-45731J53272D01*
G01X2954400Y9615400D01*
G02X2956900Y9612000I-6624J-7490D01*
G01X2957800Y9610000D01*
Y9606700D01*
G02X2957200Y9603300I-10000J12D01*
G01X2951100Y9586600D01*
X2950000Y9583600D01*
X2944900Y9580000D01*
X2558300D01*
G02X2548900Y9586600I4J10000D01*
G01X2542800Y9603400D01*
G02X2542200Y9606800I9400J3412D01*
G01Y9610100D01*
X2544000Y9614100D01*
X2545700Y9615500D01*
G03X2451900Y9617600I-45731J53272D01*
G01X2454400Y9615400D01*
G02X2456900Y9612000I-6624J-7490D01*
G01X2457800Y9610000D01*
Y9606700D01*
G02X2457200Y9603300I-10000J12D01*
G01X2451100Y9586600D01*
X2450000Y9583600D01*
X2444900Y9580000D01*
X2058300D01*
G02X2048900Y9586600I4J10000D01*
G01X2042800Y9603400D01*
G02X2042200Y9606800I9400J3412D01*
G01Y9610100D01*
X2044000Y9614100D01*
X2045700Y9615500D01*
G03X1951900Y9617600I-45731J53272D01*
G01X1954400Y9615400D01*
G02X1956900Y9612000I-6624J-7490D01*
G01X1957800Y9610000D01*
Y9606700D01*
G02X1957200Y9603300I-10000J12D01*
G01X1951100Y9586600D01*
X1950000Y9583600D01*
X1944900Y9580000D01*
X1558300D01*
G02X1548900Y9586600I4J10000D01*
G01X1542800Y9603400D01*
G02X1542200Y9606800I9400J3412D01*
G01Y9610100D01*
X1544000Y9614100D01*
X1545700Y9615500D01*
G03X1451900Y9617600I-45731J53272D01*
G01X1454400Y9615400D01*
G02X1456900Y9612000I-6624J-7490D01*
G01X1457800Y9610000D01*
Y9606700D01*
G02X1457200Y9603300I-10000J12D01*
G01X1451100Y9586600D01*
X1450000Y9583600D01*
X1444900Y9580000D01*
X1058300D01*
G02X1048900Y9586600I4J10000D01*
G01X1042800Y9603400D01*
G02X1042200Y9606800I9400J3412D01*
G01Y9610100D01*
X1044000Y9614100D01*
X1045700Y9615500D01*
G03X951900Y9617600I-45731J53272D01*
G01X954400Y9615400D01*
G02X956900Y9612000I-6624J-7490D01*
G01X957800Y9610000D01*
Y9606700D01*
G02X957200Y9603300I-10000J12D01*
G01X951100Y9586600D01*
X950000Y9583600D01*
X944900Y9580000D01*
X558300D01*
G02X548900Y9586600I4J10000D01*
G01X542800Y9603400D01*
G02X542200Y9606800I9400J3412D01*
G01Y9610100D01*
X544000Y9614100D01*
X545700Y9615500D01*
G03X451900Y9617600I-45731J53272D01*
G01X454400Y9615400D01*
G02X456900Y9612000I-6624J-7490D01*
G01X457800Y9610000D01*
Y9606700D01*
G02X457200Y9603300I-10000J12D01*
G01X451100Y9586600D01*
X450000Y9583600D01*
X444900Y9580000D01*
X58300D01*
G02X48900Y9586600I4J10000D01*
G01X42800Y9603400D01*
G02X42200Y9606800I9400J3412D01*
G01Y9610100D01*
X44000Y9614100D01*
X45700Y9615500D01*
G03X-48100Y9617600I-45731J53272D01*
G01X-45600Y9615400D01*
G02X-43100Y9612000I-6624J-7490D01*
G01X-42200Y9610000D01*
Y9606700D01*
G02X-42800Y9603300I-10000J12D01*
G01X-48900Y9586600D01*
X-50000Y9583600D01*
G37*
%LPC*%
G75*
G36*
G01X3115800Y193400D02*
G02X3037500Y157000I-15812J-68402D01*
G03X3024200Y185600I-17790J9120D01*
G02X3102500Y222000I15812J68402D01*
G03X3115800Y193400I17790J-9120D01*
G37*
G36*
G01X965600Y7900000D02*
X964700Y7897800D01*
G02X849400Y7973600I-64717J27150D01*
G03Y8001400I-14433J13900D01*
G02X950600I50600J48600D01*
G03Y7973600I14433J-13900D01*
G02X953800Y7970000I-50812J-48388D01*
G03X971300Y7974400I7687J6430D01*
G02X995700Y7905500I68708J-14438D01*
G01X993900Y7907000D01*
X989300Y7908000D01*
X969200Y7903000D01*
X965600Y7900000D01*
G37*
G36*
G01X-359200Y7481200D02*
X-148800D01*
G02X-138800Y7471200I0J-10000D01*
G01Y7260800D01*
G02X-148800Y7250800I-10000J0D01*
G01X-359200D01*
G02X-369200Y7260800I0J10000D01*
G01Y7471200D01*
G02X-359200Y7481200I10000J0D01*
G37*
G36*
G01Y4941200D02*
X-148800D01*
G02X-138800Y4931200I0J-10000D01*
G01Y4720800D01*
G02X-148800Y4710800I-10000J0D01*
G01X-359200D01*
G02X-369200Y4720800I0J10000D01*
G01Y4931200D01*
G02X-359200Y4941200I10000J0D01*
G37*
G36*
G01Y2401200D02*
X-148800D01*
G02X-138800Y2391200I0J-10000D01*
G01Y2180800D01*
G02X-148800Y2170800I-10000J0D01*
G01X-359200D01*
G02X-369200Y2180800I0J10000D01*
G01Y2391200D01*
G02X-359200Y2401200I10000J0D01*
G37*
G36*
G01Y115200D02*
X-148800D01*
G02X-138800Y105200I0J-10000D01*
G01Y-105200D01*
G02X-148800Y-115200I-10000J0D01*
G01X-359200D01*
G02X-369200Y-105200I0J10000D01*
G01Y105200D01*
G02X-359200Y115200I10000J0D01*
G37*
G36*
G01X8194800Y1615200D02*
X8405200D01*
G02X8415200Y1605200I0J-10000D01*
G01Y1394800D01*
G02X8405200Y1384800I-10000J0D01*
G01X8194800D01*
G02X8184800Y1394800I0J10000D01*
G01Y1605200D01*
G02X8194800Y1615200I10000J0D01*
G37*
G36*
G01X890200Y12539800D02*
X669800D01*
G02X659800Y12549800I0J10000D01*
G01Y12770200D01*
G02X669800Y12780200I10000J0D01*
G01X890200D01*
G02X900200Y12770200I0J-10000D01*
G01Y12741900D01*
G03X907100Y12732400I9991J1D01*
G01X928400Y12725500D01*
X934500Y12727500D01*
X936400Y12730200D01*
G02Y12589800I97600J-70200D01*
G01X934500Y12592500D01*
X928400Y12594500D01*
X907100Y12587600D01*
G03X900200Y12578100I3091J-9501D01*
G01Y12549800D01*
G02X890200Y12539800I-10000J0D01*
G37*
G36*
G01X10591200Y14182000D02*
G02X10513800Y14206900I-56219J-42007D01*
G03X10523800Y14238000I-6016J19092D01*
G02X10601200Y14213100I56219J42007D01*
G03X10591200Y14182000I6016J-19092D01*
G37*
G36*
G01X7470000Y17920000D02*
X7465000D01*
G02X7440000Y17945000I0J25000D01*
G01Y17975000D01*
G02X7457700Y18017700I60580J-93D01*
G01X7482300Y18042300D01*
G03X7500000Y18084900I-42592J42674D01*
G01Y18415000D01*
G02X7525000Y18440000I25000J0D01*
G01X8035200D01*
G03X8077700Y18457700I-116J60152D01*
G01X8082300Y18462300D01*
G03X8100000Y18505000I-42288J42548D01*
G01Y19335000D01*
G03X8082300Y19377700I-60312J18D01*
G01X8057700Y19402300D01*
G03X8015100Y19420000I-42674J-42592D01*
G01X7245000D01*
G03X7202300Y19402300I-18J-60312D01*
G01X7177700Y19377700D01*
G03X7160000Y19335100I42592J-42674D01*
G01Y18325000D01*
G03X7177700Y18282300I60422J28D01*
G01X7262300Y18197700D01*
G03X7304800Y18180000I42626J42475D01*
G01X7315000D01*
G02X7340000Y18155000I0J-25000D01*
G01Y18150000D01*
G02X7338000Y18144100I-9969J90D01*
G01X7336800Y18142400D01*
X7335900Y18138700D01*
X7338500Y18120700D01*
X7340500Y18117400D01*
X7342100Y18116200D01*
G02X7256700Y18115300I-42113J-56189D01*
G01X7258700Y18116800D01*
X7260700Y18121400D01*
X7259500Y18140300D01*
G03X7254600Y18148300I-10010J-630D01*
G01X7254500D01*
G02X7242300Y18157700I30462J52153D01*
G01X7137700Y18262300D01*
G02X7120000Y18305000I42657J42701D01*
G01Y19355000D01*
G02X7137700Y19397700I60317J16D01*
G01X7182300Y19442300D01*
G02X7225000Y19460000I42719J-42701D01*
G01X8035000D01*
G02X8077700Y19442300I16J-60317D01*
G01X8122300Y19397700D01*
G02X8140000Y19355000I-42701J-42719D01*
G01Y18485000D01*
G02X8122300Y18442300I-60312J-18D01*
G01X8097700Y18417700D01*
G02X8055100Y18400000I-42674J42592D01*
G01X7565000D01*
G03X7540000Y18375000I0J-25000D01*
G01Y18328000D01*
G03X7543800Y18320100I10001J-53D01*
G01X7557800Y18308900D01*
X7562200Y18307900D01*
X7564400Y18308500D01*
G02X7630900Y18191700I15590J-68455D01*
G01X7629300Y18190000D01*
X7627900Y18185700D01*
X7630800Y18165500D01*
X7633300Y18161800D01*
X7635300Y18160600D01*
G02X7560600Y18041800I-35404J-60624D01*
G01X7558800Y18043100D01*
X7554900Y18043800D01*
X7538600Y18040000D01*
G03X7534700Y18038100I2315J-9705D01*
G01X7533200Y18037000D01*
X7532100Y18035200D01*
X7532000Y18035100D01*
G02X7522300Y18022300I-52472J29689D01*
G01X7497700Y17997700D01*
G03X7480000Y17955100I42592J-42674D01*
G01Y17930000D01*
G02X7470000Y17920000I-10000J0D01*
G37*
G54D17*
X0Y7874000D03*
Y7366000D03*
Y7112000D03*
Y6858000D03*
Y6604000D03*
Y6350000D03*
Y6096000D03*
Y5842000D03*
Y5588000D03*
Y5334000D03*
Y5080000D03*
Y4826000D03*
Y4572000D03*
Y4318000D03*
Y4064000D03*
Y3810000D03*
Y3556000D03*
Y3302000D03*
Y3048000D03*
Y2794000D03*
Y2540000D03*
Y2286000D03*
Y2032000D03*
Y1778000D03*
Y1524000D03*
Y1270000D03*
Y1016000D03*
Y762000D03*
Y508000D03*
Y254000D03*
Y0D03*
X-254000Y7874000D03*
X-508000D03*
Y7366000D03*
Y7112000D03*
Y6858000D03*
Y6604000D03*
Y6350000D03*
Y6096000D03*
Y5842000D03*
Y5588000D03*
Y5334000D03*
Y5080000D03*
Y4826000D03*
Y4572000D03*
Y4318000D03*
Y4064000D03*
Y3810000D03*
Y3556000D03*
Y3302000D03*
Y3048000D03*
Y2794000D03*
Y2540000D03*
Y2286000D03*
Y2032000D03*
Y1778000D03*
Y1524000D03*
Y1270000D03*
Y1016000D03*
Y762000D03*
Y508000D03*
Y254000D03*
Y0D03*
Y13335000D03*
Y13589000D03*
X-254000Y13335000D03*
Y13589000D03*
X-508000Y14097000D03*
Y14351000D03*
Y14605000D03*
Y14859000D03*
Y15113000D03*
Y15367000D03*
Y15621000D03*
Y15875000D03*
Y16129000D03*
Y16383000D03*
Y16637000D03*
Y16891000D03*
Y17145000D03*
Y17399000D03*
Y17653000D03*
Y17907000D03*
Y18161000D03*
Y18415000D03*
Y18669000D03*
Y18923000D03*
Y19177000D03*
Y19431000D03*
Y19685000D03*
X0Y13335000D03*
Y13589000D03*
Y14097000D03*
Y14351000D03*
Y14605000D03*
Y14859000D03*
Y15113000D03*
Y15367000D03*
Y15621000D03*
Y15875000D03*
Y16129000D03*
Y16383000D03*
Y16637000D03*
Y16891000D03*
Y17145000D03*
Y17399000D03*
Y17653000D03*
Y17907000D03*
Y18161000D03*
Y18415000D03*
Y18669000D03*
Y18923000D03*
Y19177000D03*
Y19431000D03*
Y19685000D03*
X5180000Y18380000D03*
X5688000D03*
X5434000D03*
X5688000Y18634000D03*
X5434000D03*
X11938000Y11557000D03*
Y11811000D03*
Y12065000D03*
Y12319000D03*
Y12573000D03*
Y12827000D03*
Y13081000D03*
Y13335000D03*
Y13589000D03*
Y13843000D03*
Y16002000D03*
Y16256000D03*
Y16510000D03*
Y16764000D03*
Y17018000D03*
Y17272000D03*
Y17526000D03*
Y17780000D03*
Y18034000D03*
Y18288000D03*
X12192000Y11557000D03*
Y11811000D03*
Y12065000D03*
Y12319000D03*
Y12573000D03*
Y12827000D03*
Y13081000D03*
Y13335000D03*
Y13589000D03*
Y13843000D03*
Y16002000D03*
Y16256000D03*
Y16510000D03*
Y16764000D03*
Y17018000D03*
Y17272000D03*
Y17526000D03*
Y17780000D03*
Y18034000D03*
Y18288000D03*
X6196000Y18380000D03*
X5942000D03*
Y18634000D03*
G54D18*
X0Y7620000D03*
X-254000D03*
X-508000D03*
X-254000Y7112000D03*
Y6858000D03*
Y6604000D03*
Y6350000D03*
Y6096000D03*
Y5842000D03*
Y5588000D03*
Y5334000D03*
Y5080000D03*
Y4572000D03*
Y4318000D03*
Y4064000D03*
Y3810000D03*
Y3556000D03*
Y3302000D03*
Y3048000D03*
Y2794000D03*
Y2540000D03*
Y2032000D03*
Y1778000D03*
Y1524000D03*
Y1270000D03*
Y1016000D03*
Y762000D03*
Y508000D03*
Y254000D03*
X8554000Y1500000D03*
G54D15*
X12740000Y8700000D03*
X12500000Y9000000D03*
X11500000D03*
X12000000D03*
X11525000Y925000D03*
Y700000D03*
X11000000Y9000000D03*
X11350000Y925000D03*
Y700000D03*
X10500000Y9000000D03*
X10000000D03*
X9500000D03*
X9000000D03*
X9280000Y920000D03*
Y700000D03*
X9080000D03*
X8500000Y9000000D03*
X8000000D03*
X7500000D03*
X7000000D03*
X6500000D03*
X6000000D03*
X5500000D03*
X5000000D03*
X4500000D03*
X4000000D03*
X3520000D03*
X3280000Y6080000D03*
X3520000Y2140000D03*
X3000000Y9000000D03*
X2800000Y2160000D03*
X3040000Y1778000D03*
X2800000Y1651000D03*
Y1905000D03*
X3040000Y2032000D03*
X2800000Y1397000D03*
X3040000Y1270000D03*
X2800000Y1143000D03*
X3040000Y1524000D03*
Y1016000D03*
X2800000Y889000D03*
X3040000Y762000D03*
X2800000Y635000D03*
Y381000D03*
X3040000Y508000D03*
X2800000Y0D03*
X2500000Y9000000D03*
X2000000D03*
X1500000D03*
X1700000Y6985000D03*
X1800000Y7112000D03*
X1700000Y7239000D03*
X1800000Y6350000D03*
X1700000Y6477000D03*
X1800000Y6604000D03*
Y6858000D03*
X1700000Y6731000D03*
X1800000Y2540000D03*
X1000000Y9000000D03*
X1080000Y7620000D03*
X1240000Y2540000D03*
X500000Y9000000D03*
X0D03*
X-480000D03*
X9080000Y920000D03*
X-480000Y9740000D03*
Y10900000D03*
Y10660000D03*
X-640000Y11120000D03*
Y11420000D03*
X760000Y14080000D03*
Y14260000D03*
X900000Y15840000D03*
Y16140000D03*
X444500Y16764000D03*
X571500Y16637000D03*
Y16891000D03*
X444500Y16510000D03*
X571500Y16383000D03*
Y17399000D03*
X444500Y17018000D03*
Y17272000D03*
X571500Y17145000D03*
Y17907000D03*
X444500Y17526000D03*
Y17780000D03*
X571500Y17653000D03*
X444500Y18034000D03*
Y18288000D03*
X571500Y18161000D03*
Y18415000D03*
X444500Y18542000D03*
X571500Y18669000D03*
Y18923000D03*
X444500Y18796000D03*
Y19050000D03*
Y19304000D03*
X571500Y19431000D03*
Y19177000D03*
Y19685000D03*
X444500Y19812000D03*
Y19558000D03*
X900000Y20160000D03*
Y20440000D03*
X1300000Y15720000D03*
X1180000Y16340000D03*
X1300000Y16820000D03*
X1220000Y17340000D03*
X1300000Y17900000D03*
Y18820000D03*
Y19820000D03*
X1920000Y13820000D03*
X1820000Y14180000D03*
X1600000Y14060000D03*
X1820000Y14740000D03*
X1600000Y14600000D03*
Y14320000D03*
X1925000Y15100000D03*
X1600000Y14860000D03*
X1960000Y16418500D03*
X1640000Y18380000D03*
Y19320000D03*
X2480000Y14460000D03*
X2340000Y14320000D03*
Y14600000D03*
X2000000Y14320000D03*
Y14600000D03*
X2460000Y15720000D03*
X2440000Y16760000D03*
X2480000Y17840000D03*
X2400000Y18100000D03*
Y18280000D03*
Y18480000D03*
X2420000Y18720000D03*
Y18900000D03*
X2340000Y19280000D03*
Y19500000D03*
X2480000Y19380000D03*
X2420000Y19140000D03*
X2380000Y19900000D03*
X2340000Y19700000D03*
X2480000Y19620000D03*
X2620000Y14600000D03*
Y14320000D03*
X2760000Y16180000D03*
Y16380000D03*
X2560000Y18200000D03*
X2540000Y18380000D03*
Y18020000D03*
X3040000Y18820000D03*
X2560000Y18580000D03*
X2540000Y19020000D03*
X2960000Y19920000D03*
X2660000Y19900000D03*
X3500000Y9740000D03*
Y10080000D03*
X3420000Y15060000D03*
Y15340000D03*
X3560000Y16140000D03*
X3080000Y16120000D03*
X3360000D03*
X3080000Y17800000D03*
X3240000Y18920000D03*
X3520000D03*
X3060000Y19000000D03*
X3200000Y19920000D03*
X4000000Y10080000D03*
Y15360000D03*
X3700000Y15600000D03*
X3900000D03*
X3800000Y15360000D03*
X3600000D03*
X3800000Y16140000D03*
X3620000Y17700000D03*
X3720000Y18900000D03*
X3960000D03*
X3600000Y19880000D03*
X4500000Y10080000D03*
X4440000Y15080000D03*
Y15320000D03*
X4200000Y15360000D03*
X4300000Y15600000D03*
X4103200Y15596800D03*
X5000000Y10080000D03*
X4720000Y15740000D03*
X5500000Y10080000D03*
Y15160000D03*
X5236000Y15380000D03*
X5240000Y15860000D03*
X5400000Y18060000D03*
X6000000Y10080000D03*
X5920000Y18060000D03*
X6500000Y10080000D03*
X6240000Y15160000D03*
X6482000Y16289000D03*
X6720000Y16460000D03*
X6640000Y16880000D03*
X6480000Y17220000D03*
X7000000Y10080000D03*
X6941000Y15880000D03*
X7100000Y16140000D03*
X6760000Y16640000D03*
X7041000Y17648000D03*
X7500000Y10080000D03*
X7380000Y15440000D03*
Y16100000D03*
X7340000Y17400000D03*
X7540000Y16920000D03*
Y17160000D03*
X8000000Y10080000D03*
X8320000Y15260000D03*
Y15020000D03*
X8060000Y16180000D03*
X7841000Y15880000D03*
X8240000Y16220000D03*
X7940000Y16060000D03*
X8000000Y16840000D03*
X8240000Y17220000D03*
X8020000Y17360000D03*
X7841000Y17640000D03*
X7860000Y19260000D03*
X8500000Y10080000D03*
X8780000Y14520000D03*
X8500000Y18991700D03*
X8800000Y19180000D03*
X8500000Y19800000D03*
X8800000D03*
X9000000Y10080000D03*
X8960000Y13940000D03*
X8855000Y14140000D03*
X9065000D03*
X9275000D03*
X9170000Y13940000D03*
X9100000Y19360000D03*
Y19800000D03*
X9500000Y10080000D03*
X9380000Y13940000D03*
X9590000D03*
X9485000Y14140000D03*
X9800000Y13940000D03*
X9695000Y14140000D03*
X10000000Y10080000D03*
X10220000Y13940000D03*
X10010000D03*
X10115000Y14140000D03*
X9905000D03*
X10430000Y13940000D03*
X10325000Y14140000D03*
X10500000Y10080000D03*
X11000000D03*
X11239500Y15180000D03*
X11440000Y18420000D03*
X12000000Y9775000D03*
X11500000Y10080000D03*
X11840000Y15180000D03*
X12500000Y10080000D03*
X13016500Y9880000D03*
X13000000Y10080000D03*
X12980000Y11600000D03*
Y11920000D03*
X12840000Y15800000D03*
X13520000Y9820000D03*
Y10120000D03*
X13220000Y17400000D03*
X13680000Y10480000D03*
Y10720000D03*
X13920000Y13940000D03*
X13980000Y19860000D03*
Y20160000D03*
X4000000Y20500000D03*
X3850000Y20380000D03*
X3740000Y20200000D03*
X6480000Y18800000D03*
G54D19*
X5180000Y18634000D03*
X6196000D03*
G54D16*
X8400000Y700000D03*
X7600000D03*
X6700000Y20900000D03*
X7500000D03*
X4400000D03*
X3200000D03*
%LPD*%
G75*
G54D10*
X-254000Y0D03*
Y2286000D03*
Y4826000D03*
Y7366000D03*
Y15621000D03*
Y18161000D03*
X780000Y12660000D03*
X8300000Y1500000D03*
G54D11*
X-254000Y254000D03*
Y508000D03*
Y762000D03*
Y1016000D03*
Y1270000D03*
Y1524000D03*
Y1778000D03*
Y2032000D03*
Y2540000D03*
Y2794000D03*
Y3048000D03*
Y3302000D03*
Y3556000D03*
Y3810000D03*
Y4064000D03*
Y4318000D03*
Y4572000D03*
Y5080000D03*
Y5334000D03*
Y5588000D03*
Y5842000D03*
Y6096000D03*
Y6350000D03*
Y6604000D03*
Y6858000D03*
Y7112000D03*
X-508000Y7620000D03*
X-254000D03*
X-508000Y13843000D03*
X-254000D03*
Y14097000D03*
Y14351000D03*
Y14605000D03*
Y14859000D03*
Y15113000D03*
Y15367000D03*
Y15875000D03*
Y16129000D03*
Y16383000D03*
Y16637000D03*
Y16891000D03*
Y17145000D03*
Y17399000D03*
Y17653000D03*
Y17907000D03*
Y18415000D03*
Y18669000D03*
Y18923000D03*
Y19177000D03*
Y19431000D03*
X-508000Y19939000D03*
X-254000Y19685000D03*
Y19939000D03*
X0Y7620000D03*
Y13843000D03*
Y19939000D03*
X1034000Y12660000D03*
X5180000Y18634000D03*
X6196000D03*
X8554000Y1500000D03*
G54D12*
X-640000Y10660000D03*
Y10900000D03*
X-440000Y11420000D03*
Y11120000D03*
X900000Y7425000D03*
Y7550000D03*
X775000Y14675000D03*
Y15050000D03*
X1440000Y7620000D03*
X1080000Y13860000D03*
X1025000Y14675000D03*
X1200000Y15050000D03*
X1100000Y15840000D03*
X1460000Y16140000D03*
X1100000D03*
X1460000Y16680000D03*
X1440000Y16940000D03*
Y17780000D03*
X1280000Y18360000D03*
Y19380000D03*
X1100000Y20160000D03*
Y20440000D03*
X1640000Y2540000D03*
X1480000Y7960000D03*
X1920000Y15720000D03*
X1780000Y16340000D03*
Y16160000D03*
Y15980000D03*
X1900000Y16760000D03*
X1773500Y16613500D03*
X1780000Y17044500D03*
X1618800Y17718800D03*
X1640000Y17980000D03*
Y18820000D03*
Y19740000D03*
X2240000Y2540000D03*
X2140000Y13820000D03*
X2460000D03*
Y14140000D03*
Y14780000D03*
X2140000Y15100000D03*
X2460000D03*
X2100000Y15720000D03*
X2360000Y15963500D03*
X2080000Y16760000D03*
X2340000Y16580000D03*
X2020000Y16979500D03*
X2280000Y17800000D03*
X2340000Y17580000D03*
X2260000Y18820000D03*
X2160000Y19760000D03*
X2380000Y20100000D03*
X2800000Y14340000D03*
Y14580000D03*
X2660000Y17800000D03*
X2680000Y18820000D03*
X2760000Y19760000D03*
X2920000Y19640000D03*
X2960000Y20080000D03*
X2660000Y20100000D03*
X3550000Y125000D03*
X3220000Y15060000D03*
Y15340000D03*
X3560000Y16300000D03*
X3080000Y16320000D03*
X3360000D03*
X3240000Y18720000D03*
X3520000D03*
X3200000Y20080000D03*
X3450000Y20360000D03*
X4060000Y2140000D03*
X3720000Y6080000D03*
X3760000Y9668800D03*
X3800000Y16300000D03*
X3720000Y18740000D03*
X3960000D03*
X4260000Y9668800D03*
X4600000Y15080000D03*
Y15320000D03*
X4130000Y20180000D03*
X4760000Y9668800D03*
X4840000Y15460000D03*
X5064000Y15380000D03*
X4800000Y18740000D03*
X5260000Y9668800D03*
X5760000D03*
X5813000Y14700000D03*
X5940000D03*
X6260000Y9668800D03*
X6680000Y16000000D03*
X6480000Y15920000D03*
X6460000Y16580000D03*
X6500000Y17040000D03*
X6660000Y17640000D03*
X6480000Y17600000D03*
X7260000Y9668800D03*
X6760000D03*
X7220000Y15880000D03*
X7100000Y16480000D03*
X7200000Y16900000D03*
X7000000Y17100000D03*
X7180000Y17640000D03*
Y18420000D03*
Y18640000D03*
Y19020000D03*
Y19300000D03*
X7760000Y9668800D03*
X7360000Y14860000D03*
X7460000Y15880000D03*
X7780000Y16100000D03*
X7340000Y16900000D03*
X7700000Y16920000D03*
Y17160000D03*
X7560000Y17520000D03*
X7580000Y18460000D03*
X7480000Y18400000D03*
X7380000Y19260000D03*
X7640000Y19400000D03*
X7280000D03*
X8260000Y9668800D03*
X8220000Y15900000D03*
X8240000Y16600000D03*
Y16860000D03*
X8000000Y16480000D03*
X8220000Y17660000D03*
X8280000Y17500000D03*
X7940000Y18460000D03*
X8080000Y18600000D03*
Y19020000D03*
X8000000Y19400000D03*
X8080000Y19260000D03*
X8760000Y9668800D03*
X8780000Y14320000D03*
X8480000Y15020000D03*
Y15260000D03*
X8500000Y20500000D03*
X8800000D03*
X9080000Y200000D03*
X9100000Y1500000D03*
Y2000000D03*
Y2500000D03*
X9260000Y9668800D03*
X9100000Y20500000D03*
X9800000Y225000D03*
X9700000Y1500000D03*
Y2000000D03*
Y2500000D03*
X9760000Y9668800D03*
X10200000Y225000D03*
X10000000Y150000D03*
X10300000Y1500000D03*
Y2000000D03*
Y2500000D03*
X10260000Y9668800D03*
X10096500Y16460000D03*
X10020000Y17272000D03*
Y18415000D03*
X10900000Y1500000D03*
Y2000000D03*
Y2500000D03*
X10760000Y9668800D03*
X10580000Y14440000D03*
X11440000Y200000D03*
X11260000Y9668800D03*
X11460000Y14900000D03*
X11239500Y16460000D03*
X11020000Y18760000D03*
X11700000Y8900000D03*
X11720000Y14900000D03*
X11580000Y18760000D03*
X12480000Y8840000D03*
X12200000Y8650000D03*
X12280000Y9775800D03*
X12320000Y14600000D03*
X12780000Y9775800D03*
X12890500Y15580000D03*
X12680000Y15800000D03*
Y16300000D03*
X13270500Y8940000D03*
X13520000Y10480000D03*
Y10720000D03*
X13180000Y11600000D03*
Y11920000D03*
X13280000Y17780000D03*
X13720000Y9820000D03*
Y10120000D03*
X14033500Y15580000D03*
X14100000Y16383000D03*
X13925000Y17625000D03*
X14320000Y14180000D03*
Y13940000D03*
X14180000Y19860000D03*
Y20160000D03*
G54D13*
G01X-356100Y14248900D02*
X-254000Y14351000D01*
G01X-356100Y13994900D02*
X-254000Y14097000D01*
G01D02*
X-151900Y14199100D01*
G01X-356100Y13740900D02*
X-254000Y13843000D01*
G01D02*
X-151900Y13945100D01*
G01X-638200Y13843000D02*
X-508000D01*
G01X-610100Y13740900D02*
X-508000Y13843000D01*
G01X-356100Y14756900D02*
X-254000Y14859000D01*
G01X-356100Y14502900D02*
X-254000Y14605000D01*
G01D02*
X-151900Y14707100D01*
G01X-254000Y14351000D02*
X-151900Y14453100D01*
G01X-356100Y15264900D02*
X-254000Y15367000D01*
G01X-356100Y15010900D02*
X-254000Y15113000D01*
G01D02*
X-151900Y15215100D01*
G01X-254000Y14859000D02*
X-151900Y14961100D01*
G01X-356100Y15772900D02*
X-254000Y15875000D01*
G01X-384200Y15490800D02*
X-254000Y15621000D01*
G01D02*
X-123800Y15751200D01*
G01X-254000Y15367000D02*
X-151900Y15469100D01*
G01X-356100Y16280900D02*
X-254000Y16383000D01*
G01X-356100Y16026900D02*
X-254000Y16129000D01*
G01D02*
X-151900Y16231100D01*
G01X-254000Y15875000D02*
X-151900Y15977100D01*
G01X-356100Y16788900D02*
X-254000Y16891000D01*
G01X-356100Y16534900D02*
X-254000Y16637000D01*
G01D02*
X-151900Y16739100D01*
G01X-254000Y16383000D02*
X-151900Y16485100D01*
G01X-356100Y17296900D02*
X-254000Y17399000D01*
G01D02*
X-151900Y17501100D01*
G01X-356100Y17042900D02*
X-254000Y17145000D01*
G01D02*
X-151900Y17247100D01*
G01X-254000Y16891000D02*
X-151900Y16993100D01*
G01X-356100Y17804900D02*
X-254000Y17907000D01*
G01D02*
X-151900Y18009100D01*
G01X-356100Y17550900D02*
X-254000Y17653000D01*
G01D02*
X-151900Y17755100D01*
G01X-356100Y18312900D02*
X-254000Y18415000D01*
G01D02*
X-151900Y18517100D01*
G01X-384200Y18030800D02*
X-254000Y18161000D01*
G01D02*
X-123800Y18291200D01*
G01X-356100Y18820900D02*
X-254000Y18923000D01*
G01D02*
X-151900Y19025100D01*
G01X-356100Y18566900D02*
X-254000Y18669000D01*
G01D02*
X-151900Y18771100D01*
G01X-356100Y19328900D02*
X-254000Y19431000D01*
G01D02*
X-151900Y19533100D01*
G01X-356100Y19074900D02*
X-254000Y19177000D01*
G01D02*
X-151900Y19279100D01*
G01X-356100Y19836900D02*
X-254000Y19939000D01*
G01D02*
X-151900Y19836900D01*
G01X-356100Y19582900D02*
X-254000Y19685000D01*
G01D02*
X-151900Y19787100D01*
G01X-610100Y19836900D02*
X-508000Y19939000D01*
G01D02*
X-405900Y19836900D01*
G01X0Y13843000D02*
X130200D01*
G01X-102100Y13740900D02*
X0Y13843000D01*
G01X-102100Y19836900D02*
X0Y19939000D01*
G01D02*
X102100Y19836900D01*
G01X780000Y12529800D02*
Y12660000D01*
G01D02*
Y12790200D01*
G01X649800Y12660000D02*
X780000D01*
G01X1034000Y12529800D02*
Y12660000D01*
G01D02*
Y12790200D01*
G01Y12660000D02*
X1164200D01*
G01X5049800Y18634000D02*
X5180000D01*
G01D02*
Y18764200D01*
G01X6196000Y18634000D02*
Y18764200D01*
G01Y18634000D02*
X6326200D01*
G54D14*
G01X-254000Y-125200D02*
Y0D01*
G01Y382800D02*
Y508000D01*
G01D02*
Y633200D01*
G01X-379200Y508000D02*
X-254000D01*
G01D02*
X-128800D01*
G01X-254000Y128800D02*
Y254000D01*
G01D02*
Y379200D01*
G01X-379200Y254000D02*
X-254000D01*
G01D02*
X-128800D01*
G01X-254000Y0D02*
Y125200D01*
G01X-379200Y0D02*
X-254000D01*
G01D02*
X-128800D01*
G01X-254000Y890800D02*
Y1016000D01*
G01D02*
Y1141200D01*
G01X-379200Y1016000D02*
X-254000D01*
G01D02*
X-128800D01*
G01X-254000Y636800D02*
Y762000D01*
G01D02*
Y887200D01*
G01X-379200Y762000D02*
X-254000D01*
G01D02*
X-128800D01*
G01X-254000Y1398800D02*
Y1524000D01*
G01D02*
Y1649200D01*
G01X-379200Y1524000D02*
X-254000D01*
G01D02*
X-128800D01*
G01X-254000Y1144800D02*
Y1270000D01*
G01D02*
Y1395200D01*
G01X-379200Y1270000D02*
X-254000D01*
G01D02*
X-128800D01*
G01X-254000Y1906800D02*
Y2032000D01*
G01D02*
Y2157200D01*
G01X-379200Y2032000D02*
X-254000D01*
G01D02*
X-128800D01*
G01X-254000Y1652800D02*
Y1778000D01*
G01D02*
Y1903200D01*
G01X-379200Y1778000D02*
X-254000D01*
G01D02*
X-128800D01*
G01X-254000Y2414800D02*
Y2540000D01*
G01D02*
Y2665200D01*
G01X-379200Y2540000D02*
X-254000D01*
G01D02*
X-128800D01*
G01X-254000Y2160800D02*
Y2286000D01*
G01D02*
Y2411200D01*
G01X-379200Y2286000D02*
X-254000D01*
G01D02*
X-128800D01*
G01X-254000Y2922800D02*
Y3048000D01*
G01D02*
Y3173200D01*
G01X-379200Y3048000D02*
X-254000D01*
G01D02*
X-128800D01*
G01X-254000Y2668800D02*
Y2794000D01*
G01D02*
Y2919200D01*
G01X-379200Y2794000D02*
X-254000D01*
G01D02*
X-128800D01*
G01X-254000Y3430800D02*
Y3556000D01*
G01D02*
Y3681200D01*
G01X-379200Y3556000D02*
X-254000D01*
G01D02*
X-128800D01*
G01X-254000Y3176800D02*
Y3302000D01*
G01D02*
Y3427200D01*
G01X-379200Y3302000D02*
X-254000D01*
G01D02*
X-128800D01*
G01X-254000Y4192800D02*
Y4318000D01*
G01Y3938800D02*
Y4064000D01*
G01D02*
Y4189200D01*
G01X-379200Y4064000D02*
X-254000D01*
G01D02*
X-128800D01*
G01X-254000Y3684800D02*
Y3810000D01*
G01D02*
Y3935200D01*
G01X-379200Y3810000D02*
X-254000D01*
G01D02*
X-128800D01*
G01X-254000Y4700800D02*
Y4826000D01*
G01Y4446800D02*
Y4572000D01*
G01D02*
Y4697200D01*
G01X-379200Y4572000D02*
X-254000D01*
G01D02*
X-128800D01*
G01X-254000Y4318000D02*
Y4443200D01*
G01X-379200Y4318000D02*
X-254000D01*
G01D02*
X-128800D01*
G01X-254000Y5208800D02*
Y5334000D01*
G01Y4954800D02*
Y5080000D01*
G01D02*
Y5205200D01*
G01X-379200Y5080000D02*
X-254000D01*
G01D02*
X-128800D01*
G01X-254000Y4826000D02*
Y4951200D01*
G01X-379200Y4826000D02*
X-254000D01*
G01D02*
X-128800D01*
G01X-254000Y5716800D02*
Y5842000D01*
G01Y5462800D02*
Y5588000D01*
G01D02*
Y5713200D01*
G01X-379200Y5588000D02*
X-254000D01*
G01D02*
X-128800D01*
G01X-254000Y5334000D02*
Y5459200D01*
G01X-379200Y5334000D02*
X-254000D01*
G01D02*
X-128800D01*
G01X-254000Y6224800D02*
Y6350000D01*
G01Y5970800D02*
Y6096000D01*
G01D02*
Y6221200D01*
G01X-379200Y6096000D02*
X-254000D01*
G01D02*
X-128800D01*
G01X-254000Y5842000D02*
Y5967200D01*
G01X-379200Y5842000D02*
X-254000D01*
G01D02*
X-128800D01*
G01X-254000Y6732800D02*
Y6858000D01*
G01Y6478800D02*
Y6604000D01*
G01D02*
Y6729200D01*
G01X-379200Y6604000D02*
X-254000D01*
G01D02*
X-128800D01*
G01X-254000Y6350000D02*
Y6475200D01*
G01X-379200Y6350000D02*
X-254000D01*
G01D02*
X-128800D01*
G01X-254000Y7240800D02*
Y7366000D01*
G01D02*
Y7491200D01*
G01X-379200Y7366000D02*
X-254000D01*
G01D02*
X-128800D01*
G01X-254000Y6986800D02*
Y7112000D01*
G01D02*
Y7237200D01*
G01X-379200Y7112000D02*
X-254000D01*
G01D02*
X-128800D01*
G01X-254000Y6858000D02*
Y6983200D01*
G01X-379200Y6858000D02*
X-254000D01*
G01D02*
X-128800D01*
G01X-254000Y7494800D02*
Y7620000D01*
G01D02*
Y7745200D01*
G01X-379200Y7620000D02*
X-254000D01*
G01D02*
X-128800D01*
G01X-508000Y7494800D02*
Y7620000D01*
G01D02*
Y7745200D01*
G01X-633200Y7620000D02*
X-508000D01*
G01D02*
X-382800D01*
G01X0Y7494800D02*
Y7620000D01*
G01D02*
Y7745200D01*
G01X-125200Y7620000D02*
X0D01*
G01D02*
X125200D01*
G01X8174800Y1500000D02*
X8300000D01*
G01Y1374800D02*
Y1500000D01*
G01D02*
Y1625200D01*
G01Y1500000D02*
X8425200D01*
G01X8554000Y1374800D02*
Y1500000D01*
G01D02*
Y1625200D01*
G01X8428800Y1500000D02*
X8554000D01*
G01D02*
X8679200D01*
M02*
