G04 ================== begin FILE IDENTIFICATION RECORD ==================*
G04 Layout Name:  D:/BSK/02v4/pcb/BSK_02v4.brd*
G04 Film Name:    IN2_PWR*
G04 File Format:  Gerber RS274X*
G04 File Origin:  Cadence Allegro 16.6-2015-S105*
G04 Origin Date:  Wed Mar 20 11:12:46 2019*
G04 *
G04 Layer:  ETCH/IN2_PWR*
G04 Layer:  PIN/IN2_PWR*
G04 Layer:  VIA CLASS/IN2_PWR*
G04 *
G04 Offset:    (0.000 0.000)*
G04 Mirror:    No*
G04 Mode:      Positive*
G04 Rotation:  0*
G04 FullContactRelief:  No*
G04 UndefLineWidth:     0.000*
G04 ================== end FILE IDENTIFICATION RECORD ====================*
%FSLAX35Y35*MOMM*%
%IR0*IPPOS*OFA0.00000B0.00000*MIA0B0*SFA1.00000B1.00000*%
%ADD13C,6.*%
%ADD10C,1.7*%
%ADD12R,1.7X1.7*%
%ADD11C,.8*%
%ADD14C,.5*%
%ADD15C,.35*%
%ADD19C,2.204*%
%ADD18C,2.304*%
%ADD16C,1.404*%
%ADD17C,4.404*%
%ADD20C,6.604*%
%ADD21C,6.704*%
G75*
%LPD*%
G75*
G36*
G01X-582200Y-654700D02*
X-590400Y-639000D01*
G02X-590500Y-629900I8854J4648D01*
G01X-589900Y-628600D01*
X-589400Y-628000D01*
G03X-746700Y-298300I-172588J120032D01*
G01X-748600Y-298200D01*
X-751800Y-296600D01*
X-757200Y-291000D01*
G02X-760000Y-284100I7200J6940D01*
G01Y8158100D01*
G02X-757200Y8165000I10000J-40D01*
G01X-751800Y8170600D01*
X-748600Y8172200D01*
X-746700Y8172300D01*
G03Y8591700I-15300J209700D01*
G01X-748600Y8591800D01*
X-751800Y8593400D01*
X-757200Y8599000D01*
G02X-760000Y8605900I7200J6940D01*
G01Y9050000D01*
G02X-710000Y9100000I50000J0D01*
G01X13430000D01*
G02X13480000Y9050000I0J-50000D01*
G01Y8825700D01*
G02X13475500Y8817400I-9981J42D01*
G01X13475300Y8817200D01*
X13461000Y8808200D01*
X13458800Y8806800D01*
X13453600Y8806500D01*
X13451200Y8807700D01*
G03X13375000Y8825200I-76295J-157562D01*
G01X12568000D01*
X12564600Y8826600D01*
X12563100Y8828000D01*
X12551800Y8838700D01*
X12550200Y8842100D01*
X12550100Y8844100D01*
G03X12409900I-70100J-4100D01*
G01X12409800Y8842100D01*
X12408200Y8838700D01*
X12396800Y8827900D01*
G02X12390000Y8825200I-6835J7301D01*
G01X11771700D01*
G02X11762700Y8830800I-20J10000D01*
G01X11754800Y8846600D01*
G02X11753800Y8851100I9014J4364D01*
G01Y8853000D01*
X11754800Y8856000D01*
X11755900Y8857400D01*
G03X11644200Y8857300I-55888J42595D01*
G01X11645100Y8856200D01*
X11646100Y8853500D01*
X11646200Y8851900D01*
G02X11645200Y8846700I-9962J-780D01*
G01X11637300Y8830800D01*
X11636000Y8828200D01*
X11631300Y8825200D01*
X10250000D01*
G03X10074800Y8650000I0J-175200D01*
G01Y550000D01*
G03X10250000Y374800I175200J0D01*
G01X13470000D01*
G02X13477100Y371900I52J-10014D01*
G02X13480000Y364800I-7114J-7048D01*
G01Y-610000D01*
G02X13430000Y-660000I-50000J0D01*
G01X-573300D01*
G02X-582200Y-654700I-64J10015D01*
G37*
G36*
G01X1470000Y12980000D02*
G03X1520000Y13030000I0J50000D01*
G01Y13630000D01*
G02X1570000Y13680000I50000J0D01*
G01X2170000D01*
G03X2220000Y13730000I0J50000D01*
G01Y15190000D01*
G03X2170000Y15240000I-50000J0D01*
G01X1570000D01*
G02X1520000Y15290000I0J50000D01*
G01Y16099700D01*
G02X1520400Y16102400I9989J-100D01*
G01X1521300Y16105700D01*
X1521800Y16106600D01*
G03Y16173400I-61800J33400D01*
G01X1521300Y16174300D01*
X1520400Y16177600D01*
G02X1520000Y16180300I9589J2800D01*
G01Y16639700D01*
G02X1520400Y16642400I9989J-100D01*
G01X1521300Y16645700D01*
X1521800Y16646600D01*
G03Y16713400I-61800J33400D01*
G01X1521300Y16714300D01*
X1520400Y16717600D01*
G02X1520000Y16720300I9589J2800D01*
G01Y19910000D01*
G02X1570000Y19960000I50000J0D01*
G01X4470000D01*
G02X4520000Y19910000I0J-50000D01*
G01Y15610000D01*
G03X4570000Y15560000I50000J0D01*
G01X11280000D01*
G02X11380000Y15460000I0J-100000D01*
G01Y11020000D01*
G03X11480000Y10920000I100000J0D01*
G01X14610000D01*
G02X14660000Y10870000I0J-50000D01*
G01Y9670000D01*
G02X14610000Y9620000I-50000J0D01*
G01X11344500D01*
X11343500Y9620200D01*
G02X11337300Y9624200I1939J9810D01*
G01X11326400Y9639500D01*
X11325700Y9644100D01*
X11326500Y9646500D01*
G03X11193500I-66500J22300D01*
G01X11194300Y9644100D01*
X11193600Y9639500D01*
X11182700Y9624200D01*
G02X11176500Y9620200I-8139J5810D01*
G01X11175500Y9620000D01*
X10845400D01*
G02X10837300Y9624200I46J10000D01*
G01X10826400Y9639500D01*
X10825700Y9644100D01*
X10826500Y9646500D01*
G03X10693500I-66500J22300D01*
G01X10694300Y9644100D01*
X10693600Y9639500D01*
X10682700Y9624200D01*
G02X10676500Y9620200I-8139J5810D01*
G01X10675500Y9620000D01*
X10345400D01*
G02X10337300Y9624200I46J10000D01*
G01X10326400Y9639500D01*
X10325700Y9644100D01*
X10326500Y9646500D01*
G03X10193500I-66500J22300D01*
G01X10194300Y9644100D01*
X10193600Y9639500D01*
X10182700Y9624200D01*
G02X10176500Y9620200I-8139J5810D01*
G01X10175500Y9620000D01*
X9845400D01*
G02X9837300Y9624200I46J10000D01*
G01X9826400Y9639500D01*
X9825700Y9644100D01*
X9826500Y9646500D01*
G03X9693500I-66500J22300D01*
G01X9694300Y9644100D01*
X9693600Y9639500D01*
X9682700Y9624200D01*
G02X9676500Y9620200I-8139J5810D01*
G01X9675500Y9620000D01*
X9345400D01*
G02X9337300Y9624200I46J10000D01*
G01X9326400Y9639500D01*
X9325700Y9644100D01*
X9326500Y9646500D01*
G03X9193500I-66500J22300D01*
G01X9194300Y9644100D01*
X9193600Y9639500D01*
X9182700Y9624200D01*
G02X9176500Y9620200I-8139J5810D01*
G01X9175500Y9620000D01*
X8845400D01*
G02X8837300Y9624200I46J10000D01*
G01X8826400Y9639500D01*
X8825700Y9644100D01*
X8826500Y9646500D01*
G03X8693500I-66500J22300D01*
G01X8694300Y9644100D01*
X8693600Y9639500D01*
X8682700Y9624200D01*
G02X8676500Y9620200I-8139J5810D01*
G01X8675500Y9620000D01*
X8345400D01*
G02X8337300Y9624200I46J10000D01*
G01X8326400Y9639500D01*
X8325700Y9644100D01*
X8326500Y9646500D01*
G03X8193500I-66500J22300D01*
G01X8194300Y9644100D01*
X8193600Y9639500D01*
X8182700Y9624200D01*
G02X8176500Y9620200I-8139J5810D01*
G01X8175500Y9620000D01*
X7845400D01*
G02X7837300Y9624200I46J10000D01*
G01X7826400Y9639500D01*
X7825700Y9644100D01*
X7826500Y9646500D01*
G03X7693500I-66500J22300D01*
G01X7694300Y9644100D01*
X7693600Y9639500D01*
X7682700Y9624200D01*
G02X7676500Y9620200I-8139J5810D01*
G01X7675500Y9620000D01*
X7345400D01*
G02X7337300Y9624200I46J10000D01*
G01X7326400Y9639500D01*
X7325700Y9644100D01*
X7326500Y9646500D01*
G03X7193500I-66500J22300D01*
G01X7194300Y9644100D01*
X7193600Y9639500D01*
X7182700Y9624200D01*
G02X7176500Y9620200I-8139J5810D01*
G01X7175500Y9620000D01*
X6845400D01*
G02X6837300Y9624200I46J10000D01*
G01X6826400Y9639500D01*
X6825700Y9644100D01*
X6826500Y9646500D01*
G03X6693500I-66500J22300D01*
G01X6694300Y9644100D01*
X6693600Y9639500D01*
X6682700Y9624200D01*
G02X6676500Y9620200I-8139J5810D01*
G01X6675500Y9620000D01*
X6345400D01*
G02X6337300Y9624200I46J10000D01*
G01X6326400Y9639500D01*
X6325700Y9644100D01*
X6326500Y9646500D01*
G03X6193500I-66500J22300D01*
G01X6194300Y9644100D01*
X6193600Y9639500D01*
X6182700Y9624200D01*
G02X6176500Y9620200I-8139J5810D01*
G01X6175500Y9620000D01*
X5845400D01*
G02X5837300Y9624200I46J10000D01*
G01X5826400Y9639500D01*
X5825700Y9644100D01*
X5826500Y9646500D01*
G03X5693500I-66500J22300D01*
G01X5694300Y9644100D01*
X5693600Y9639500D01*
X5682700Y9624200D01*
G02X5676500Y9620200I-8139J5810D01*
G01X5675500Y9620000D01*
X5345400D01*
G02X5337300Y9624200I46J10000D01*
G01X5326400Y9639500D01*
X5325700Y9644100D01*
X5326500Y9646500D01*
G03X5193500I-66500J22300D01*
G01X5194300Y9644100D01*
X5193600Y9639500D01*
X5182700Y9624200D01*
G02X5176500Y9620200I-8139J5810D01*
G01X5175500Y9620000D01*
X4845400D01*
G02X4837300Y9624200I46J10000D01*
G01X4826400Y9639500D01*
X4825700Y9644100D01*
X4826500Y9646500D01*
G03X4693500I-66500J22300D01*
G01X4694300Y9644100D01*
X4693600Y9639500D01*
X4682700Y9624200D01*
G02X4676500Y9620200I-8139J5810D01*
G01X4675500Y9620000D01*
X4345400D01*
G02X4337300Y9624200I46J10000D01*
G01X4326400Y9639500D01*
X4325700Y9644100D01*
X4326500Y9646500D01*
G03X4193500I-66500J22300D01*
G01X4194300Y9644100D01*
X4193600Y9639500D01*
X4182700Y9624200D01*
G02X4176500Y9620200I-8139J5810D01*
G01X4175500Y9620000D01*
X3845400D01*
G02X3837300Y9624200I46J10000D01*
G01X3826400Y9639500D01*
X3825700Y9644100D01*
X3826500Y9646500D01*
G03X3693500I-66500J22300D01*
G01X3694300Y9644100D01*
X3693600Y9639500D01*
X3682700Y9624200D01*
G02X3676500Y9620200I-8139J5810D01*
G01X3675500Y9620000D01*
X-710000D01*
G02X-760000Y9670000I0J50000D01*
G01Y12603100D01*
G02X-757200Y12610000I10000J-40D01*
G01X-751700Y12615700D01*
X-748500Y12617200D01*
X-746600Y12617300D01*
G03X-590500Y12948500I-15409J209649D01*
G02X-592300Y12953500I8173J5766D01*
G01Y12953600D01*
G02X-591200Y12958900I9977J693D01*
G01X-583000Y12974600D01*
G02X-579300Y12978500I8826J-4668D01*
G02X-574100Y12980000I5264J-8484D01*
G01X1470000D01*
G37*
G36*
G01X11620000Y11080000D02*
G02X11520000Y11180000I0J100000D01*
G01Y14861100D01*
X11521300Y14865700D01*
X11521800Y14866700D01*
X11521900Y14866800D01*
G03Y14933200I-61900J33200D01*
G01X11521800Y14933300D01*
X11521300Y14934300D01*
X11520000Y14938900D01*
Y15600000D01*
G03X11420000Y15700000I-100000J0D01*
G01X8820000D01*
G02X8720000Y15800000I0J100000D01*
G01Y19112700D01*
G02X8721600Y19118100I9999J-26D01*
G01X8722400Y19119300D01*
X8724600Y19121200D01*
X8725900Y19121800D01*
X8741900Y19129000D01*
G02X8750200I4150J-9078D01*
G01X8753300Y19127600D01*
X8754300Y19126700D01*
G03Y19233300I45700J53300D01*
G01X8753300Y19232400D01*
X8750200Y19231000D01*
G02X8741900I-4150J9078D01*
G01X8725900Y19238200D01*
X8723200Y19239400D01*
X8720000Y19244400D01*
Y19735600D01*
X8723200Y19740600D01*
X8725900Y19741800D01*
X8741900Y19749000D01*
G02X8750200I4150J-9078D01*
G01X8753300Y19747600D01*
X8754300Y19746700D01*
G03Y19853300I45700J53300D01*
G01X8753300Y19852400D01*
X8750200Y19851000D01*
G02X8741900I-4150J9078D01*
G01X8725900Y19858200D01*
X8723200Y19859400D01*
X8720000Y19864400D01*
Y20050000D01*
G03X8670000Y20100000I-50000J0D01*
G01X4194400D01*
X4189400Y20103200D01*
X4188200Y20105900D01*
X4180200Y20123700D01*
X4179800Y20126500D01*
X4180000Y20128000D01*
X4180200Y20129500D01*
X4181400Y20132100D01*
X4182400Y20133300D01*
G03X4077600I-52400J46700D01*
G01X4078600Y20132100D01*
X4079800Y20129500D01*
X4080000Y20128000D01*
X4080200Y20126500D01*
X4079800Y20123700D01*
X4071800Y20105900D01*
X4070600Y20103200D01*
X4065600Y20100000D01*
X3271200D01*
X3266300Y20103300D01*
X3265100Y20106300D01*
G03X3134900I-65100J-26300D01*
G01X3133700Y20103300D01*
X3128800Y20100000D01*
X3031200D01*
X3026300Y20103300D01*
X3025100Y20106300D01*
G03X2894900I-65100J-26300D01*
G01X2893700Y20103300D01*
X2888800Y20100000D01*
X2739600D01*
G02X2729800Y20108400I61J9988D01*
G01X2729700Y20108800D01*
Y20108900D01*
G03X2590300Y20108800I-69694J-8883D01*
G01X2589800Y20105000D01*
X2584200Y20100000D01*
X2459600D01*
G02X2449800Y20108400I61J9988D01*
G01X2449700Y20108800D01*
Y20108900D01*
G03X2310300Y20108800I-69694J-8883D01*
G01X2309800Y20105000D01*
X2304200Y20100000D01*
X1430000D01*
G03X1380000Y20050000I0J-50000D01*
G01Y17818900D01*
X1378700Y17814300D01*
X1378200Y17813300D01*
X1378100Y17813200D01*
G03Y17746800I61900J-33200D01*
G01X1378200Y17746700D01*
X1378700Y17745700D01*
X1380000Y17741100D01*
Y16978900D01*
X1378700Y16974300D01*
X1378200Y16973300D01*
X1378100Y16973200D01*
G03Y16906800I61900J-33200D01*
G01X1378200Y16906700D01*
X1378700Y16905700D01*
X1380000Y16901100D01*
Y14630000D01*
G02X1330000Y14580000I-50000J0D01*
G01X1090000D01*
G03X1040000Y14530000I0J-50000D01*
G01Y14390000D01*
G03X1090000Y14340000I50000J0D01*
G01X1330000D01*
G02X1380000Y14290000I0J-50000D01*
G01Y13190000D01*
G02X1330000Y13140000I-50000J0D01*
G01X-710000D01*
G02X-760000Y13190000I0J50000D01*
G01Y19720000D01*
G02X-660000Y19820000I100000J0D01*
G01X240000D01*
G03X340000Y19920000I0J100000D01*
G01Y21760000D01*
G02X440000Y21860000I100000J0D01*
G01X13310000D01*
G02X13360000Y21810000I0J-50000D01*
G01Y20510000D01*
G03X13410000Y20460000I50000J0D01*
G01X14610000D01*
G02X14660000Y20410000I0J-50000D01*
G01Y13490000D01*
G02X14610000Y13440000I-50000J0D01*
G01X13510000D01*
G03X13460000Y13390000I0J-50000D01*
G01Y11710000D01*
G03X13510000Y11660000I50000J0D01*
G01X14610000D01*
G02X14660000Y11610000I0J-50000D01*
G01Y11130000D01*
G02X14610000Y11080000I-50000J0D01*
G01X11620000D01*
G37*
G36*
G01X2030000Y14260000D02*
G03X1980000Y14210000I0J-50000D01*
G01Y13810000D01*
G02X1930000Y13760000I-50000J0D01*
G01X1590000D01*
G02X1540000Y13810000I0J50000D01*
G01Y15110000D01*
G02X1590000Y15160000I50000J0D01*
G01X1930000D01*
G02X1980000Y15110000I0J-50000D01*
G01Y14710000D01*
G03X2030000Y14660000I50000J0D01*
G01X2070000D01*
G02X2120000Y14610000I0J-50000D01*
G01Y14310000D01*
G02X2070000Y14260000I-50000J0D01*
G01X2030000D01*
G37*
G36*
G01X8530000Y19960000D02*
G02X8580000Y19910000I0J-50000D01*
G01Y19867300D01*
G02X8574100Y19858200I-10000J21D01*
G01X8557500Y19850700D01*
G02X8552000Y19850000I-3964J9186D01*
G01X8551900D01*
G02X8546700Y19852400I1413J9895D01*
G03Y19747600I-46700J-52400D01*
G02X8551900Y19750000I6613J-7495D01*
G01X8552000D01*
G02X8557500Y19749300I1536J-9886D01*
G01X8574100Y19741800D01*
G02X8580000Y19732700I-4100J-9121D01*
G01Y19059000D01*
G02X8574100Y19049900I-10000J21D01*
G01X8557500Y19042400D01*
G02X8552000Y19041700I-3964J9186D01*
G01X8551900D01*
G02X8546700Y19044100I1413J9895D01*
G03Y18939300I-46700J-52400D01*
G02X8551900Y18941700I6613J-7495D01*
G01X8552000D01*
G02X8557500Y18941000I1536J-9886D01*
G01X8574100Y18933500D01*
G02X8576500Y18932000I-4050J-9150D01*
G02X8579600Y18927200I-6508J-7604D01*
G01X8580000Y18925800D01*
Y15750000D01*
G02X8530000Y15700000I-50000J0D01*
G01X4710000D01*
G02X4660000Y15750000I0J50000D01*
G01Y19910000D01*
G02X4710000Y19960000I50000J0D01*
G01X8530000D01*
G37*
G36*
G01X14550000Y7825000D02*
G02X14650000Y7725000I0J-100000D01*
G01Y581700D01*
G02X14640000Y571700I-10000J0D01*
G01X13589000D01*
G03X13525300Y508000I0J-63700D01*
G01Y460000D01*
G02X13515300Y450000I-10000J0D01*
G01X10250000D01*
G02X10150000Y550000I0J100000D01*
G01Y8650000D01*
G02X10250000Y8750000I100000J0D01*
G01X13375000D01*
G02X13475000Y8650000I0J-100000D01*
G01Y7925000D01*
G03X13575000Y7825000I100000J0D01*
G01X14550000D01*
G37*
%LPC*%
G75*
G36*
G01X950600Y7501400D02*
G03Y7473600I14433J-13900D01*
G02X849400I-50600J-48600D01*
G03Y7501400I-14433J13900D01*
G02X950600I50600J48600D01*
G37*
G36*
G01X5890600Y14650100D02*
G03X5862400I-14100J-14156D01*
G02Y14749900I-49400J49900D01*
G03X5890600I14100J14156D01*
G02Y14650100I49400J-49900D01*
G37*
G36*
G01X12046900Y15951100D02*
G02Y16052900I-108900J50900D01*
G03X12083100I18100J8482D01*
G02Y15951100I108900J-50900D01*
G03X12046900I-18100J-8482D01*
G37*
G36*
G01X110200Y13214800D02*
X-618200D01*
G02X-628200Y13224800I0J10000D01*
G01Y13445200D01*
G02X-618200Y13455200I10000J0D01*
G01X-589900D01*
G03X-580400Y13462100I-1J9991D01*
G01X-573500Y13483400D01*
X-575500Y13489500D01*
X-578200Y13491400D01*
G02X-399100Y13639900I70207J97578D01*
G03X-390100Y13634100I9084J4213D01*
G01X-371900D01*
G03X-362900Y13639900I-84J10013D01*
G02X-145100I108900J-50900D01*
G03X-136100Y13634100I9084J4213D01*
G01X-117900D01*
G03X-108900Y13639900I-84J10013D01*
G02X70200Y13491400I108893J-50922D01*
G01X67500Y13489500D01*
X65500Y13483400D01*
X72400Y13462100D01*
G03X81900Y13455200I9501J3091D01*
G01X110200D01*
G02X120200Y13445200I0J-10000D01*
G01Y13224800D01*
G02X110200Y13214800I-10000J0D01*
G37*
G36*
G01X12046900Y11506100D02*
G02Y11607900I-108900J50900D01*
G03X12083100I18100J8482D01*
G02Y11506100I108900J-50900D01*
G03X12046900I-18100J-8482D01*
G37*
G36*
G01X7490200Y16090000D02*
G02X7390000Y15989800I-100200J0D01*
G01X7370000D01*
G02X7269800Y16090000I0J100200D01*
G01Y16230000D01*
G03X7259800Y16240000I-10000J0D01*
G01X6870000D01*
G02X6820000Y16290000I0J50000D01*
G01Y16759800D01*
G03X6810000Y16769800I-10000J0D01*
G01X6630000D01*
G02X6529800Y16870000I0J100200D01*
G01Y16890000D01*
G02X6630000Y16990200I100200J0D01*
G01X6810000D01*
G03X6820000Y17000200I0J10000D01*
G01Y17330000D01*
G02X6870000Y17380000I50000J0D01*
G01X7219800D01*
G03X7229800Y17390000I0J10000D01*
G01Y17410000D01*
G02X7330000Y17510200I100200J0D01*
G01X7350000D01*
G02X7450200Y17410000I0J-100200D01*
G01Y17390000D01*
G03X7460200Y17380000I10000J0D01*
G01X7830000D01*
G02X7880000Y17330000I0J-50000D01*
G01Y16960200D01*
G03X7890000Y16950200I10000J0D01*
G01X8010000D01*
G02X8110200Y16850000I0J-100200D01*
G01Y16830000D01*
G02X8010000Y16729800I-100200J0D01*
G01X7890000D01*
G03X7880000Y16719800I0J-10000D01*
G01Y16290000D01*
G02X7830000Y16240000I-50000J0D01*
G01X7500200D01*
G03X7490200Y16230000I0J-10000D01*
G01Y16090000D01*
G37*
G36*
G01X7361700Y18093500D02*
X7362900Y18091100D01*
G02X7237100I-62900J-31100D01*
G01X7238300Y18093500D01*
X7238000Y18098500D01*
X7227700Y18115200D01*
G03X7226800Y18116600I-8816J-4678D01*
G03X7219500Y18120000I-7531J-6634D01*
G03X7219200I-150J-10000D01*
G01X7130000D01*
G02X7080000Y18170000I0J50000D01*
G01Y19330000D01*
G02X7115400Y19415400I120845J-56D01*
G01X7164600Y19464600D01*
G02X7249900Y19500000I85347J-85184D01*
G01X7750000D01*
G02X7800000Y19450000I0J-50000D01*
G01Y19250000D01*
G03X7850000Y19200000I50000J0D01*
G01X7870000D01*
G03X7920000Y19250000I0J50000D01*
G01Y19450000D01*
G02X7970000Y19500000I50000J0D01*
G01X8110000D01*
G02X8160000Y19450000I0J-50000D01*
G01Y18430000D01*
G02X8110000Y18380000I-50000J0D01*
G01X7740400D01*
G03X7660400Y18340100I71J-100293D01*
G01X7628500Y18297800D01*
X7628800Y18290600D01*
X7631400Y18287900D01*
G02X7630900Y18191700I-51393J-47834D01*
G01X7629300Y18190000D01*
X7628000Y18185700D01*
X7630800Y18165600D01*
X7633300Y18161800D01*
X7635400Y18160600D01*
G02X7558500Y18156600I-35402J-60607D01*
G03X7556000Y18174000I-5959J8023D01*
G02X7548100Y18177500I24431J65809D01*
G01X7544800Y18179100D01*
X7537800Y18177500D01*
X7524500Y18159900D01*
G02X7444500Y18120000I-80068J60387D01*
G01X7380800D01*
G03X7380500I-150J-10000D01*
G03X7373200Y18116600I231J-10034D01*
G03X7372300Y18115200I7916J-6078D01*
G01X7362000Y18098500D01*
X7361700Y18093500D01*
G37*
G54D19*
X0Y7620000D03*
Y7366000D03*
Y7112000D03*
Y6858000D03*
Y6604000D03*
Y6350000D03*
Y6096000D03*
Y5842000D03*
Y5588000D03*
Y5334000D03*
Y5080000D03*
Y4826000D03*
Y4572000D03*
Y4318000D03*
Y4064000D03*
Y3810000D03*
Y3556000D03*
Y3302000D03*
Y3048000D03*
Y2794000D03*
Y2540000D03*
Y2286000D03*
Y2032000D03*
Y1778000D03*
Y1524000D03*
Y1270000D03*
Y1016000D03*
Y762000D03*
Y508000D03*
Y254000D03*
Y0D03*
X-254000Y7620000D03*
X-508000D03*
X-254000Y7366000D03*
Y7112000D03*
X-508000Y7366000D03*
Y7112000D03*
X-254000Y6858000D03*
Y6604000D03*
X-508000Y6858000D03*
Y6604000D03*
X-254000Y6350000D03*
Y6096000D03*
X-508000Y6350000D03*
Y6096000D03*
X-254000Y5842000D03*
Y5588000D03*
X-508000Y5842000D03*
Y5588000D03*
X-254000Y5334000D03*
Y5080000D03*
Y4826000D03*
X-508000Y5334000D03*
Y5080000D03*
Y4826000D03*
X-254000Y4572000D03*
Y4318000D03*
X-508000Y4572000D03*
Y4318000D03*
X-254000Y4064000D03*
Y3810000D03*
X-508000Y4064000D03*
Y3810000D03*
X-254000Y3556000D03*
Y3302000D03*
X-508000Y3556000D03*
Y3302000D03*
X-254000Y3048000D03*
Y2794000D03*
X-508000Y3048000D03*
Y2794000D03*
X-254000Y2540000D03*
Y2286000D03*
X-508000Y2540000D03*
Y2286000D03*
X-254000Y2032000D03*
Y1778000D03*
X-508000Y2032000D03*
Y1778000D03*
X-254000Y1524000D03*
Y1270000D03*
X-508000Y1524000D03*
Y1270000D03*
X-254000Y1016000D03*
Y762000D03*
X-508000Y1016000D03*
Y762000D03*
X-254000Y508000D03*
Y254000D03*
X-508000Y508000D03*
Y254000D03*
X-254000Y0D03*
X-508000D03*
X8554000Y1500000D03*
X8300000D03*
X780000Y12660000D03*
X1034000D03*
X-508000Y13843000D03*
Y14097000D03*
X-254000Y13843000D03*
Y14097000D03*
X-508000Y14351000D03*
Y14605000D03*
X-254000Y14351000D03*
Y14605000D03*
X-508000Y14859000D03*
Y15113000D03*
X-254000Y14859000D03*
Y15113000D03*
X-508000Y15367000D03*
Y15621000D03*
Y15875000D03*
X-254000Y15367000D03*
Y15621000D03*
Y15875000D03*
X-508000Y16129000D03*
Y16383000D03*
X-254000Y16129000D03*
Y16383000D03*
X-508000Y16637000D03*
Y16891000D03*
X-254000Y16637000D03*
Y16891000D03*
X-508000Y17145000D03*
Y17399000D03*
X-254000Y17145000D03*
Y17399000D03*
X-508000Y17653000D03*
Y17907000D03*
X-254000Y17653000D03*
Y17907000D03*
X-508000Y18161000D03*
Y18415000D03*
X-254000Y18161000D03*
Y18415000D03*
X-508000Y18669000D03*
Y18923000D03*
X-254000Y18669000D03*
Y18923000D03*
X-508000Y19177000D03*
Y19431000D03*
X-254000Y19177000D03*
Y19431000D03*
X-508000Y19685000D03*
X-254000D03*
X0Y13843000D03*
Y14097000D03*
Y14351000D03*
Y14605000D03*
Y14859000D03*
Y15113000D03*
Y15367000D03*
Y15621000D03*
Y15875000D03*
Y16129000D03*
Y16383000D03*
Y16637000D03*
Y16891000D03*
Y17145000D03*
Y17399000D03*
Y17653000D03*
Y17907000D03*
Y18161000D03*
Y18415000D03*
Y18669000D03*
Y18923000D03*
Y19177000D03*
Y19431000D03*
Y19685000D03*
X11938000Y11811000D03*
Y12065000D03*
Y12319000D03*
Y12573000D03*
Y12827000D03*
Y13081000D03*
Y13335000D03*
Y13589000D03*
Y13843000D03*
Y16256000D03*
Y16510000D03*
Y16764000D03*
Y17018000D03*
Y17272000D03*
Y17526000D03*
Y17780000D03*
Y18034000D03*
Y18288000D03*
X12192000Y11811000D03*
Y12065000D03*
Y12319000D03*
Y12573000D03*
Y12827000D03*
Y13081000D03*
Y13335000D03*
Y13589000D03*
Y13843000D03*
Y16256000D03*
Y16510000D03*
Y16764000D03*
Y17018000D03*
Y17272000D03*
Y17526000D03*
Y17780000D03*
Y18034000D03*
Y18288000D03*
X5180000Y18380000D03*
Y18634000D03*
X5688000Y18380000D03*
X5434000D03*
X5688000Y18634000D03*
X6196000Y18380000D03*
X5942000D03*
X6196000Y18634000D03*
X5942000D03*
G54D18*
X0Y7874000D03*
X-254000D03*
X-508000D03*
X5434000Y18634000D03*
G54D16*
X13270500Y8940000D03*
X11440000Y200000D03*
X10000000Y150000D03*
X10200000Y225000D03*
X9700000Y2500000D03*
Y2000000D03*
Y1500000D03*
X9800000Y225000D03*
X9100000Y2500000D03*
X9080000Y200000D03*
X3720000Y6080000D03*
X4060000Y2140000D03*
X3550000Y125000D03*
X2800000Y2160000D03*
X3040000Y1778000D03*
X2800000Y1651000D03*
Y1905000D03*
X3040000Y2032000D03*
X2800000Y1397000D03*
X3040000Y1270000D03*
X2800000Y1143000D03*
X3040000Y1524000D03*
Y1016000D03*
X2800000Y889000D03*
X3040000Y762000D03*
X2800000Y635000D03*
Y381000D03*
X3040000Y254000D03*
Y508000D03*
X2800000Y0D03*
X2240000Y2540000D03*
X1700000Y6985000D03*
X1800000Y7112000D03*
X1700000Y7239000D03*
X1800000Y6350000D03*
X1700000Y6477000D03*
X1800000Y6604000D03*
Y6858000D03*
X1700000Y6731000D03*
X1640000Y2540000D03*
X1440000Y7620000D03*
X1480000Y7960000D03*
X9100000Y1500000D03*
Y2000000D03*
X-640000Y10660000D03*
Y10900000D03*
X-440000Y11420000D03*
Y11120000D03*
X1920000Y15720000D03*
X1780000Y16340000D03*
Y16160000D03*
Y15980000D03*
X1900000Y16760000D03*
X1773500Y16613500D03*
X1960000Y16418500D03*
X1780000Y17044500D03*
X1618800Y17718800D03*
X1640000Y17980000D03*
Y18820000D03*
Y19740000D03*
X2460000Y13820000D03*
Y14140000D03*
Y14780000D03*
Y15100000D03*
X2100000Y15720000D03*
X2360000Y15963500D03*
X2080000Y16760000D03*
X2340000Y16580000D03*
X2020000Y16979500D03*
X2280000Y17800000D03*
X2340000Y17580000D03*
X2480000Y17840000D03*
X2400000Y18100000D03*
Y18280000D03*
X2260000Y18820000D03*
X2400000Y18480000D03*
X2420000Y18720000D03*
Y18900000D03*
X2340000Y19280000D03*
Y19500000D03*
X2480000Y19380000D03*
X2420000Y19140000D03*
X2160000Y19760000D03*
X2340000Y19700000D03*
X2480000Y19620000D03*
X2800000Y14340000D03*
Y14580000D03*
X2760000Y16180000D03*
Y16380000D03*
X2660000Y17800000D03*
X2560000Y18200000D03*
X2540000Y18380000D03*
Y18020000D03*
X2680000Y18820000D03*
X2560000Y18580000D03*
X2540000Y19020000D03*
X2760000Y19760000D03*
X2920000Y19640000D03*
X3220000Y15060000D03*
Y15340000D03*
X3560000Y16300000D03*
X3080000Y16320000D03*
X3360000D03*
X3240000Y18720000D03*
X3520000D03*
X3060000Y19000000D03*
X4000000Y15360000D03*
X3700000Y15600000D03*
X3900000D03*
X3800000Y15360000D03*
X3600000D03*
X3800000Y16300000D03*
X3720000Y18740000D03*
X3960000D03*
X4600000Y15080000D03*
Y15320000D03*
X4200000Y15360000D03*
X4300000Y15600000D03*
X4103200Y15596800D03*
X4840000Y15460000D03*
X5064000Y15380000D03*
X5236000D03*
X7380000Y15440000D03*
X8780000Y14320000D03*
X8480000Y15020000D03*
Y15260000D03*
X8960000Y13940000D03*
X8855000Y14140000D03*
X9065000D03*
X9275000D03*
X9170000Y13940000D03*
X9380000D03*
X9590000D03*
X9485000Y14140000D03*
X9800000Y13940000D03*
X9695000Y14140000D03*
X10220000Y13940000D03*
X10010000D03*
X10115000Y14140000D03*
X9905000D03*
X10430000Y13940000D03*
X10325000Y14140000D03*
X10535000D03*
X10580000Y14440000D03*
X11239500Y15180000D03*
X12280000Y9775800D03*
X12780000D03*
X13520000Y10480000D03*
Y10720000D03*
X13720000Y9820000D03*
Y10120000D03*
X7360000Y14860000D03*
X775000Y14675000D03*
Y15050000D03*
X444500Y16764000D03*
X571500Y16637000D03*
Y16891000D03*
X444500Y16510000D03*
X571500Y16383000D03*
Y17399000D03*
X444500Y17018000D03*
Y17272000D03*
X571500Y17145000D03*
Y17907000D03*
X444500Y17526000D03*
Y17780000D03*
X571500Y17653000D03*
X444500Y18034000D03*
Y18288000D03*
X571500Y18161000D03*
Y18415000D03*
X444500Y18542000D03*
X571500Y18669000D03*
Y18923000D03*
X444500Y18796000D03*
Y19050000D03*
Y19304000D03*
X571500Y19431000D03*
Y19177000D03*
Y19685000D03*
X444500Y19812000D03*
Y19558000D03*
X1080000Y13860000D03*
X1025000Y14675000D03*
X1200000Y15050000D03*
X1100000Y15840000D03*
Y16140000D03*
X1280000Y18360000D03*
Y19380000D03*
X1100000Y20160000D03*
Y20440000D03*
X8500000Y20500000D03*
X8800000D03*
X9100000Y19360000D03*
Y19800000D03*
Y20500000D03*
X10096500Y16460000D03*
X10020000Y17272000D03*
Y18415000D03*
X11239500Y16460000D03*
X11020000Y18760000D03*
X11720000Y14900000D03*
X11580000Y18760000D03*
X12320000Y14600000D03*
X12890500Y15580000D03*
X12680000Y15800000D03*
Y16300000D03*
X13180000Y11600000D03*
Y11920000D03*
X13220000Y17400000D03*
X13280000Y17780000D03*
X14033500Y15580000D03*
X14100000Y16383000D03*
X13925000Y17625000D03*
X14320000Y14180000D03*
Y13940000D03*
X14180000Y19860000D03*
Y20160000D03*
X3450000Y20360000D03*
X3850000Y20380000D03*
X3740000Y20200000D03*
X4800000Y18740000D03*
X5240000Y15860000D03*
X6680000Y16000000D03*
X6480000Y15920000D03*
X6460000Y16580000D03*
X6500000Y17040000D03*
X6660000Y17640000D03*
X6480000Y17600000D03*
X7220000Y15880000D03*
X7180000Y17640000D03*
X7460000Y15880000D03*
X7780000Y16100000D03*
X7560000Y17520000D03*
X8220000Y15900000D03*
X8240000Y16600000D03*
Y16860000D03*
X8000000Y16480000D03*
X8220000Y17660000D03*
X8280000Y17500000D03*
X6480000Y18800000D03*
X10300000Y1500000D03*
Y2000000D03*
Y2500000D03*
X10900000Y1500000D03*
Y2000000D03*
Y2500000D03*
X12200000Y8650000D03*
G54D17*
X7600000Y700000D03*
X6700000Y20900000D03*
X7500000D03*
X3200000D03*
G54D20*
X8400000Y700000D03*
G54D21*
X4400000Y20900000D03*
%LPD*%
G75*
G36*
G01X6880000Y16990000D02*
Y17270000D01*
G02X6930000Y17320000I50000J0D01*
G01X7230000D01*
G03X7280000Y17370000I0J50000D01*
G01Y17410000D01*
G02X7330000Y17460000I50000J0D01*
G01X7350000D01*
G02X7400000Y17410000I0J-50000D01*
G01Y17370000D01*
G03X7450000Y17320000I50000J0D01*
G01X7770000D01*
G02X7820000Y17270000I0J-50000D01*
G01Y16950000D01*
G03X7870000Y16900000I50000J0D01*
G01X8010000D01*
G02X8060000Y16850000I0J-50000D01*
G01Y16830000D01*
G02X8010000Y16780000I-50000J0D01*
G01X7870000D01*
G03X7820000Y16730000I0J-50000D01*
G01Y16350000D01*
G02X7770000Y16300000I-50000J0D01*
G01X7490000D01*
G03X7440000Y16250000I0J-50000D01*
G01Y16090000D01*
G02X7390000Y16040000I-50000J0D01*
G01X7370000D01*
G02X7320000Y16090000I0J50000D01*
G01Y16250000D01*
G03X7270000Y16300000I-50000J0D01*
G01X6930000D01*
G02X6880000Y16350000I0J50000D01*
G01Y16770000D01*
G03X6830000Y16820000I-50000J0D01*
G01X6630000D01*
G02X6580000Y16870000I0J50000D01*
G01Y16890000D01*
G02X6630000Y16940000I50000J0D01*
G01X6830000D01*
G03X6880000Y16990000I0J50000D01*
G37*
%LPC*%
G75*
G36*
G01X7285500Y16855700D02*
G03X7254500I-15500J-12581D01*
G02Y16944300I-54500J44300D01*
G03X7285500I15500J12581D01*
G02Y16855700I54500J-44300D01*
G37*
G54D16*
X7100000Y16480000D03*
X7000000Y17100000D03*
X7700000Y17160000D03*
Y16920000D03*
%LPD*%
G75*
G54D10*
X-508000Y7874000D03*
X-254000D03*
X-508000Y13589000D03*
X-254000D03*
X0Y7874000D03*
Y13589000D03*
X5434000Y18634000D03*
X11938000Y11557000D03*
Y16002000D03*
X12192000Y11557000D03*
Y16002000D03*
G54D11*
X-480000Y9000000D03*
Y9740000D03*
Y10900000D03*
Y10660000D03*
X-640000Y11120000D03*
Y11420000D03*
X0Y9000000D03*
Y9668800D03*
X900000Y7925000D03*
Y8050000D03*
X500000Y9000000D03*
Y9668800D03*
X760000Y14080000D03*
Y14260000D03*
X900000Y15840000D03*
Y16140000D03*
Y20160000D03*
Y20440000D03*
X1240000Y2540000D03*
X1080000Y7620000D03*
X1040000Y7960000D03*
X1000000Y9000000D03*
Y9668800D03*
X1300000Y15720000D03*
X1180000Y16340000D03*
X1300000Y16820000D03*
X1220000Y17340000D03*
X1300000Y17900000D03*
Y18820000D03*
Y19820000D03*
X1800000Y2540000D03*
X1500000Y9000000D03*
Y9668800D03*
X1920000Y13820000D03*
X1820000Y14180000D03*
X1600000Y14060000D03*
X1820000Y14740000D03*
X1600000Y14600000D03*
Y14320000D03*
X1925000Y15100000D03*
X1600000Y14860000D03*
X1640000Y18380000D03*
Y19320000D03*
X2000000Y9000000D03*
X2500000D03*
Y9668800D03*
X2000000D03*
X2480000Y14460000D03*
X2340000Y14320000D03*
Y14600000D03*
X2000000Y14320000D03*
Y14600000D03*
X2460000Y15720000D03*
X2440000Y16760000D03*
X2380000Y19900000D03*
X3000000Y9000000D03*
Y9668800D03*
X2620000Y14600000D03*
Y14320000D03*
X3040000Y18820000D03*
X2960000Y19920000D03*
X2660000Y19900000D03*
X3100000Y125000D03*
X3520000Y2140000D03*
X3280000Y6080000D03*
X3520000Y9000000D03*
X3500000Y9740000D03*
Y10080000D03*
X3420000Y15060000D03*
Y15340000D03*
X3560000Y16140000D03*
X3080000Y16120000D03*
X3360000D03*
X3080000Y17800000D03*
X3240000Y18920000D03*
X3520000D03*
X3200000Y19920000D03*
X4000000Y9000000D03*
Y10080000D03*
X3800000Y16140000D03*
X3620000Y17700000D03*
X3720000Y18900000D03*
X3960000D03*
X3600000Y19880000D03*
X4000000Y20500000D03*
X4500000Y9000000D03*
Y10080000D03*
X4440000Y15080000D03*
Y15320000D03*
X5000000Y9000000D03*
Y10080000D03*
X4720000Y15740000D03*
X5500000Y9000000D03*
Y10080000D03*
Y15160000D03*
X5400000Y18060000D03*
X6000000Y9000000D03*
Y10080000D03*
X5920000Y18060000D03*
X6500000Y9000000D03*
Y10080000D03*
X6240000Y15160000D03*
X6482000Y16289000D03*
X6720000Y16460000D03*
X6640000Y16880000D03*
X6480000Y17220000D03*
X7000000Y9000000D03*
Y10080000D03*
X6941000Y15880000D03*
X7100000Y16140000D03*
X6760000Y16640000D03*
X7041000Y17648000D03*
X7500000Y9000000D03*
Y10080000D03*
X7380000Y16100000D03*
X7340000Y17400000D03*
X7540000Y16920000D03*
Y17160000D03*
X8000000Y9000000D03*
Y10080000D03*
X8320000Y15260000D03*
Y15020000D03*
X8060000Y16180000D03*
X7841000Y15880000D03*
X8240000Y16220000D03*
X7940000Y16060000D03*
X8000000Y16840000D03*
X8240000Y17220000D03*
X8020000Y17360000D03*
X7841000Y17640000D03*
X7860000Y19260000D03*
X8500000Y9000000D03*
Y10080000D03*
X8780000Y14520000D03*
X9080000Y700000D03*
Y920000D03*
X9280000D03*
Y700000D03*
X9000000Y9000000D03*
Y10080000D03*
X9500000Y9000000D03*
Y10080000D03*
X10000000Y9000000D03*
Y10080000D03*
X10500000Y9000000D03*
Y10080000D03*
X10580000Y14280000D03*
X11350000Y700000D03*
Y925000D03*
X11000000Y9000000D03*
Y10080000D03*
X11440000Y18420000D03*
X11525000Y700000D03*
Y925000D03*
X12000000Y9000000D03*
X11500000D03*
X12000000Y9775000D03*
X11500000Y10080000D03*
X11840000Y15180000D03*
X12500000Y9000000D03*
Y10080000D03*
X12740000Y8700000D03*
X13016500Y9880000D03*
X13000000Y10080000D03*
X12980000Y11600000D03*
Y11920000D03*
X12840000Y15800000D03*
X13520000Y9820000D03*
Y10120000D03*
X13680000Y10480000D03*
Y10720000D03*
X13920000Y13940000D03*
X13980000Y19860000D03*
Y20160000D03*
G54D12*
X-508000Y13335000D03*
X-254000D03*
X0D03*
G54D13*
X4400000Y20900000D03*
X8400000Y700000D03*
G54D14*
G01X-254000Y13589000D02*
X-151900Y13691100D01*
G01X-356100D02*
X-254000Y13589000D01*
G01X-638200D02*
X-508000D01*
G01X-610100Y13486900D02*
X-508000Y13589000D01*
G01X-254000Y13204800D02*
Y13335000D01*
G01X-384200Y13204800D02*
X-254000Y13335000D01*
G01X-508000Y13204800D02*
Y13335000D01*
G01X-638200D02*
X-508000D01*
G01X0Y13589000D02*
X130200D01*
G01X0D02*
X102100Y13691100D01*
G01X0Y13204800D02*
Y13335000D01*
G01D02*
X130200D01*
G01X4054800Y20900000D02*
X4400000D01*
G01Y20554800D02*
Y20900000D01*
G01D02*
Y21245200D01*
G01Y20900000D02*
X4745200D01*
G01X11938000Y11426800D02*
Y11557000D01*
G01X11807800D02*
X11938000D01*
G01Y15871800D02*
Y16002000D01*
G01X11807800D02*
X11938000D01*
G01X12192000Y11426800D02*
Y11557000D01*
G01D02*
X12322200D01*
G01X12192000Y15871800D02*
Y16002000D01*
G01D02*
X12322200D01*
G54D15*
G01X-254000Y7748800D02*
Y7874000D01*
G01D02*
Y7999200D01*
G01X-379200Y7874000D02*
X-254000D01*
G01D02*
X-128800D01*
G01X-508000Y7748800D02*
Y7874000D01*
G01D02*
Y7999200D01*
G01X-633200Y7874000D02*
X-508000D01*
G01D02*
X-382800D01*
G01X0Y7748800D02*
Y7874000D01*
G01D02*
Y7999200D01*
G01X-125200Y7874000D02*
X0D01*
G01D02*
X125200D01*
G01X5434000Y18508800D02*
Y18634000D01*
G01D02*
Y18759200D01*
G01X5308800Y18634000D02*
X5434000D01*
G01D02*
X5559200D01*
G01X8059800Y700000D02*
X8400000D01*
G01Y359800D02*
Y700000D01*
G01D02*
Y1040200D01*
G01Y700000D02*
X8740200D01*
M02*
