G04 ================== begin FILE IDENTIFICATION RECORD ==================*
G04 Layout Name:  D:/BSK/02v4/pcb/BSK_02v4.brd*
G04 Film Name:    PASTE_BOT*
G04 File Format:  Gerber RS274X*
G04 File Origin:  Cadence Allegro 16.6-2015-S105*
G04 Origin Date:  Tue Oct 16 13:56:02 2018*
G04 *
G04 Layer:  PACKAGE GEOMETRY/PASTEMASK_BOTTOM*
G04 Layer:  PIN/PASTEMASK_BOTTOM*
G04 *
G04 Offset:    (0.000 0.000)*
G04 Mirror:    No*
G04 Mode:      Positive*
G04 Rotation:  0*
G04 FullContactRelief:  No*
G04 UndefLineWidth:     0.000*
G04 ================== end FILE IDENTIFICATION RECORD ====================*
%FSLAX35Y35*MOMM*%
%IR0*IPPOS*OFA0.00000B0.00000*MIA0B0*SFA1.00000B1.00000*%
%ADD20O,.55X1.*%
%ADD15R,1.X.8*%
%ADD17R,.8X1.*%
%ADD21R,.55X1.*%
%ADD10O,.64X1.9*%
%ADD11R,.64X1.9*%
%ADD16R,1.4X1.*%
%ADD12R,1.X1.4*%
%ADD13R,2.3X1.8*%
%ADD14R,.9X.5*%
%ADD22R,.9X.9*%
%ADD18R,.95X.8*%
%ADD19R,.8X.95*%
%LPD*%
G75*
G54D10*
X-367000Y9091200D03*
X-113000D03*
X133000D03*
X387000D03*
X-113000Y9668800D03*
X387000D03*
X633000Y9091200D03*
X887000D03*
Y9668800D03*
X1133000Y9091200D03*
X1387000D03*
Y9668800D03*
X1633000Y9091200D03*
X1887000D03*
Y9668800D03*
X2133000Y9091200D03*
X2387000D03*
Y9668800D03*
X2633000Y9091200D03*
X2887000D03*
Y9668800D03*
X3133000Y9091200D03*
X3387000D03*
Y9668800D03*
X3633000Y9091200D03*
X3887000Y9668800D03*
X3633000D03*
X4133000Y9091200D03*
X4387000Y9668800D03*
X4133000D03*
X4633000Y9091200D03*
X5133000D03*
X4887000Y9668800D03*
X4633000D03*
X5133000D03*
X5633000Y9091200D03*
X5387000Y9668800D03*
X5633000D03*
X6133000Y9091200D03*
Y9668800D03*
X5887000D03*
X6633000Y9091200D03*
X6387000Y9668800D03*
X6633000D03*
X7133000Y9091200D03*
X6887000Y9668800D03*
X7133000D03*
X7633000Y9091200D03*
X7387000Y9668800D03*
X7633000D03*
X8133000Y9091200D03*
X7887000Y9668800D03*
X8133000D03*
X8633000Y9091200D03*
X8387000Y9668800D03*
X8633000D03*
X9133000Y9091200D03*
X8887000Y9668800D03*
X9133000D03*
X9633000Y9091200D03*
X9387000Y9668800D03*
X9887000D03*
X9633000D03*
X10133000Y9091200D03*
X10387000Y9668800D03*
X10133000D03*
X10633000Y9091200D03*
X10887000Y9668800D03*
X10633000D03*
X11133000Y9091200D03*
X11387000Y9668800D03*
X11133000D03*
X12889500Y9104200D03*
X13016500D03*
Y9615800D03*
X13143500Y9104200D03*
X13270500D03*
Y9615800D03*
X13143500D03*
G54D11*
X-367000Y9668800D03*
X133000D03*
X633000D03*
X1133000D03*
X1633000D03*
X2133000D03*
X2633000D03*
X3133000D03*
X3887000Y9091200D03*
X4387000D03*
X4887000D03*
X5387000D03*
X5887000D03*
X6387000D03*
X6887000D03*
X7387000D03*
X7887000D03*
X8387000D03*
X8887000D03*
X9387000D03*
X9887000D03*
X10387000D03*
X10887000D03*
X11387000D03*
X12889500Y9615800D03*
G54D20*
X7165000Y16765000D03*
X7260000D03*
X7165000Y17035000D03*
X7355000D03*
G54D12*
X-120000Y10380000D03*
X-320000D03*
X380000D03*
X180000D03*
X880000D03*
X680000D03*
X1380000D03*
X1180000D03*
X1880000D03*
X1680000D03*
X2380000D03*
X2180000D03*
X2880000D03*
X2680000D03*
X3380000D03*
X3180000D03*
X3220000Y15200000D03*
X3420000D03*
X3880000Y10380000D03*
X3680000D03*
Y10080000D03*
X3880000D03*
X4380000Y10380000D03*
X4180000D03*
Y10080000D03*
X4380000D03*
X4880000Y10380000D03*
X4680000D03*
Y10080000D03*
X4880000D03*
X5380000Y10380000D03*
X5180000D03*
Y10080000D03*
X5380000D03*
X5680000Y10380000D03*
Y10080000D03*
X5880000Y10380000D03*
Y10080000D03*
X6180000Y10380000D03*
Y10080000D03*
X6380000Y10380000D03*
Y10080000D03*
X6680000Y10380000D03*
Y10080000D03*
X6880000Y10380000D03*
Y10080000D03*
X7180000Y10380000D03*
Y10080000D03*
X7380000Y10380000D03*
Y10080000D03*
X7680000Y10380000D03*
Y10080000D03*
X7880000Y10380000D03*
Y10080000D03*
X8180000Y10380000D03*
Y10080000D03*
X8380000Y10380000D03*
Y10080000D03*
X8680000Y10380000D03*
Y10080000D03*
X8880000Y10380000D03*
Y10080000D03*
X9380000Y10380000D03*
X9180000D03*
Y10080000D03*
X9380000D03*
X9880000Y10380000D03*
X9680000D03*
Y10080000D03*
X9880000D03*
X10380000Y10380000D03*
X10180000D03*
Y10080000D03*
X10380000D03*
X10880000Y10380000D03*
X10680000D03*
Y10080000D03*
X10880000D03*
X11380000Y10380000D03*
X11180000D03*
Y10080000D03*
X11380000D03*
X12000000Y8800000D03*
X12200000D03*
X12800000Y10780000D03*
X12600000D03*
G54D21*
X7355000Y16765000D03*
G54D22*
X8060000Y15840000D03*
Y15680000D03*
G54D13*
X480000Y13369800D03*
Y13830200D03*
X700000Y7519800D03*
Y7980200D03*
G54D14*
X872500Y16693500D03*
Y16613500D03*
Y16533500D03*
Y16453500D03*
Y17201500D03*
Y17121500D03*
Y17041500D03*
Y16961500D03*
Y17709500D03*
Y17629500D03*
Y17549500D03*
Y17469500D03*
Y18217500D03*
Y18137500D03*
Y18057500D03*
Y17977500D03*
Y18725500D03*
Y18645500D03*
Y18565500D03*
Y18485500D03*
Y19501500D03*
Y19233500D03*
Y19153500D03*
Y19073500D03*
Y18993500D03*
Y19741500D03*
Y19661500D03*
Y19581500D03*
X1032500Y16453500D03*
Y16533500D03*
Y16613500D03*
Y16693500D03*
Y16961500D03*
Y17041500D03*
Y17121500D03*
Y17201500D03*
Y17469500D03*
Y17549500D03*
Y17629500D03*
Y17709500D03*
Y17977500D03*
Y18057500D03*
Y18137500D03*
Y18217500D03*
Y18485500D03*
Y18565500D03*
Y18645500D03*
Y18725500D03*
Y19501500D03*
Y18993500D03*
Y19073500D03*
Y19153500D03*
Y19233500D03*
Y19581500D03*
Y19661500D03*
Y19741500D03*
X1860000Y18280000D03*
Y18200000D03*
Y18120000D03*
Y18040000D03*
Y18720000D03*
Y18640000D03*
Y18560000D03*
Y18480000D03*
Y18980000D03*
Y19500000D03*
Y19420000D03*
Y19220000D03*
Y19140000D03*
Y19060000D03*
Y19660000D03*
Y19580000D03*
X2020000Y18040000D03*
Y18120000D03*
Y18200000D03*
Y18280000D03*
Y18480000D03*
Y18560000D03*
Y18640000D03*
Y18720000D03*
Y18980000D03*
Y19420000D03*
Y19500000D03*
Y19060000D03*
Y19140000D03*
Y19220000D03*
Y19580000D03*
Y19660000D03*
G54D15*
X1300000Y16660000D03*
Y16500000D03*
Y17000000D03*
Y17160000D03*
Y17680000D03*
Y17520000D03*
Y18180000D03*
Y18020000D03*
Y18520000D03*
Y18680000D03*
Y19200000D03*
Y19040000D03*
Y19540000D03*
Y19700000D03*
X1640000Y18080000D03*
Y18240000D03*
Y18700000D03*
Y18540000D03*
Y19460000D03*
Y19020000D03*
Y19180000D03*
Y19620000D03*
X3080000Y19920000D03*
Y20080000D03*
X3680000Y16300000D03*
Y16140000D03*
X3840000Y18740000D03*
Y18900000D03*
X6480000Y16020000D03*
Y16180000D03*
X6460000Y16700000D03*
Y16860000D03*
X6480000Y17340000D03*
Y17500000D03*
X7100000Y15880000D03*
Y16040000D03*
X6980000Y16480000D03*
Y16640000D03*
X8240000Y16320000D03*
X8000000Y16580000D03*
Y16740000D03*
X8240000Y16480000D03*
Y16960000D03*
Y17120000D03*
X10460000Y14440000D03*
Y14280000D03*
G54D16*
X2520000Y19900000D03*
Y20100000D03*
X3220000Y16320000D03*
Y16120000D03*
X3380000Y18720000D03*
Y18920000D03*
X3600000Y20360000D03*
Y20160000D03*
X4000000Y20380000D03*
Y20180000D03*
X8920000Y14320000D03*
Y14520000D03*
G54D17*
X2800000Y14460000D03*
X2640000D03*
X4600000Y15200000D03*
X4440000D03*
X6680000Y15880000D03*
X6460000Y16460000D03*
X6620000D03*
X6840000Y15880000D03*
X7000000Y17220000D03*
X7160000D03*
X6760000Y17640000D03*
X6920000D03*
X7180000Y17520000D03*
X7680000Y16100000D03*
X7520000D03*
X7560000Y15880000D03*
X7720000D03*
X7700000Y17040000D03*
X7540000D03*
X7560000Y17640000D03*
X7720000D03*
X7340000Y17520000D03*
X8320000Y15140000D03*
Y15380000D03*
X8220000Y16060000D03*
X8060000D03*
X8280000Y17380000D03*
X8120000D03*
Y17640000D03*
X7960000D03*
X8480000Y15140000D03*
Y15380000D03*
X12580000Y8840000D03*
X12740000D03*
G54D18*
X4800000Y18457500D03*
Y18622500D03*
X8800000Y19497500D03*
X8500000D03*
X8800000Y19662500D03*
X8500000D03*
X9100000Y19497500D03*
Y19662500D03*
X9700000Y19497500D03*
X9400000D03*
X9700000Y19662500D03*
X9400000D03*
G54D19*
X5517500Y18060000D03*
X5682500D03*
X6037500D03*
X6202500D03*
M02*
