G04 ================== begin FILE IDENTIFICATION RECORD ==================*
G04 Layout Name:  D:/BSK/02v4/pcb/BSK_02v4.brd*
G04 Film Name:    SILK_BOT*
G04 File Format:  Gerber RS274X*
G04 File Origin:  Cadence Allegro 16.6-2015-S105*
G04 Origin Date:  Wed Mar 20 11:12:46 2019*
G04 *
G04 Layer:  MANUFACTURING/AUTOSILK_BOTTOM*
G04 *
G04 Offset:    (0.000 0.000)*
G04 Mirror:    No*
G04 Mode:      Positive*
G04 Rotation:  0*
G04 FullContactRelief:  No*
G04 UndefLineWidth:     0.200*
G04 ================== end FILE IDENTIFICATION RECORD ====================*
%FSLAX35Y35*MOMM*%
%IR0*IPPOS*OFA0.00000B0.00000*MIA0B0*SFA1.00000B1.00000*%
%ADD10C,.2*%
%ADD11C,.3*%
%ADD12C,.4*%
%ADD13C,.15*%
G75*
%LPD*%
G75*
G54D10*
G01X-60000Y9525000D02*
X-420000D01*
Y9235000D01*
X-60000D01*
Y9525000D01*
G01Y10280000D02*
X-380000D01*
G01X-400000Y10300000D02*
Y10460000D01*
G01X-380000Y10480000D02*
X-60000D01*
G01X440000Y9525000D02*
X80000D01*
Y9235000D01*
X440000D01*
Y9525000D01*
G01X-40000Y10460000D02*
Y10300000D01*
G01X440000Y10280000D02*
X120000D01*
G01X100000Y10300000D02*
Y10460000D01*
G01X120000Y10480000D02*
X440000D01*
G01X335000Y13950000D02*
X280000D01*
Y13250000D01*
X335000D01*
G01X650000Y7310000D02*
X750000D01*
G01X700000Y7360000D02*
Y7260000D01*
G01X500000Y8100000D02*
Y7400000D01*
X555000D01*
G01X845000D02*
X900000D01*
Y8100000D01*
X845000D01*
G01X555000D02*
X500000D01*
G01X940000Y9525000D02*
X580000D01*
Y9235000D01*
X940000D01*
Y9525000D01*
G01Y10280000D02*
X620000D01*
G01X600000Y10300000D02*
Y10460000D01*
G01X620000Y10480000D02*
X940000D01*
G01X460000Y10460000D02*
Y10300000D01*
G01X680000Y13250000D02*
Y13950000D01*
X625000D01*
G01Y13250000D02*
X680000D01*
G01X530000Y14040000D02*
X430000D01*
G01X480000Y13990000D02*
Y14090000D01*
G01X832500Y16753500D02*
X802500D01*
G01Y16398600D02*
Y16393500D01*
G01D02*
X832500D01*
G01X802500Y16753500D02*
Y16748400D01*
G01X832500Y17261500D02*
X802500D01*
G01Y16906600D02*
Y16901500D01*
G01D02*
X832500D01*
G01X802500Y17261500D02*
Y17256400D01*
G01X832500Y17769500D02*
X802500D01*
G01Y17414600D02*
Y17409500D01*
G01D02*
X832500D01*
G01X802500Y17769500D02*
Y17764400D01*
G01Y18430600D02*
Y18425500D01*
G01D02*
X832500D01*
G01Y18277500D02*
X802500D01*
G01Y17922600D02*
Y17917500D01*
G01D02*
X832500D01*
G01X802500Y18277500D02*
Y18272400D01*
G01X832500Y18785500D02*
X802500D01*
G01D02*
Y18780400D01*
G01Y18938600D02*
Y18933500D01*
G01D02*
X832500D01*
G01X802500Y19446600D02*
Y19441500D01*
G01D02*
X832500D01*
G01Y19293500D02*
X802500D01*
G01D02*
Y19288400D01*
G01X832500Y19801500D02*
X802500D01*
G01D02*
Y19796400D01*
G01X1440000Y9525000D02*
X1080000D01*
Y9235000D01*
X1440000D01*
Y9525000D01*
G01X960000Y10460000D02*
Y10300000D01*
G01X1440000Y10280000D02*
X1120000D01*
G01X1100000Y10300000D02*
Y10460000D01*
G01X1120000Y10480000D02*
X1440000D01*
G01X1072500Y16753500D02*
X1102500D01*
G01Y16398600D02*
Y16393500D01*
G01D02*
X1072500D01*
G01X1102500Y16753500D02*
Y16748400D01*
G01X1211100Y16745100D02*
X1388900D01*
Y16414900D01*
X1211100D01*
Y16745100D01*
G01X1072500Y17261500D02*
X1102500D01*
G01Y16906600D02*
Y16901500D01*
G01D02*
X1072500D01*
G01X1102500Y17261500D02*
Y17256400D01*
G01X1388900Y16914900D02*
X1211100D01*
Y17245100D01*
X1388900D01*
Y16914900D01*
G01X1072500Y17769500D02*
X1102500D01*
G01Y17414600D02*
Y17409500D01*
G01D02*
X1072500D01*
G01X1102500Y17769500D02*
Y17764400D01*
G01X1211100Y17765100D02*
X1388900D01*
Y17434900D01*
X1211100D01*
Y17765100D01*
G01X1102500Y18430600D02*
Y18425500D01*
G01D02*
X1072500D01*
G01Y18277500D02*
X1102500D01*
G01Y17922600D02*
Y17917500D01*
G01D02*
X1072500D01*
G01X1102500Y18277500D02*
Y18272400D01*
G01X1211100Y18265100D02*
X1388900D01*
Y17934900D01*
X1211100D01*
Y18265100D01*
G01X1388900Y18434900D02*
X1211100D01*
Y18765100D01*
X1388900D01*
Y18434900D01*
G01X1072500Y18785500D02*
X1102500D01*
G01D02*
Y18780400D01*
G01Y18938600D02*
Y18933500D01*
G01D02*
X1072500D01*
G01X1211100Y19285100D02*
X1388900D01*
Y18954900D01*
X1211100D01*
Y19285100D01*
G01X1102500Y19446600D02*
Y19441500D01*
G01D02*
X1072500D01*
G01Y19293500D02*
X1102500D01*
G01D02*
Y19288400D01*
G01X1388900Y19454900D02*
X1211100D01*
Y19785100D01*
X1388900D01*
Y19454900D01*
G01X1072500Y19801500D02*
X1102500D01*
G01D02*
Y19796400D01*
G01X1990000Y21290000D02*
Y20710000D01*
X1410000D01*
Y21290000D01*
X1990000D01*
G01X1410000Y21070000D02*
X1990000D01*
G01X1410000Y21050000D02*
X1990000D01*
G01X1410000Y21030000D02*
X1990000D01*
G01X1410000Y21010000D02*
X1990000D01*
G01X1410000Y20990000D02*
X1990000D01*
G01X1410000Y20970000D02*
X1990000D01*
G01X1410000Y20950000D02*
X1990000D01*
G01X1410000Y20930000D02*
X1990000D01*
G01X1410000Y20910000D02*
X1990000D01*
G01X1410000Y20890000D02*
X1990000D01*
G01X1410000Y20870000D02*
X1990000D01*
G01X1410000Y20850000D02*
X1990000D01*
G01X1410000Y20830000D02*
X1990000D01*
G01X1410000Y20810000D02*
X1990000D01*
G01X1410000Y20790000D02*
X1990000D01*
G01X1410000Y20770000D02*
X1990000D01*
G01X1410000Y20750000D02*
X1990000D01*
G01X1410000Y20730000D02*
X1990000D01*
G01X1410000Y21270000D02*
X1990000D01*
G01X1410000Y21250000D02*
X1990000D01*
G01X1410000Y21230000D02*
X1990000D01*
G01X1410000Y21210000D02*
X1990000D01*
G01X1410000Y21190000D02*
X1990000D01*
G01X1410000Y21170000D02*
X1990000D01*
G01X1410000Y21150000D02*
X1990000D01*
G01X1410000Y21130000D02*
X1990000D01*
G01X1410000Y21110000D02*
X1990000D01*
G01X1410000Y21090000D02*
X1990000D01*
G01X1940000Y9525000D02*
X1580000D01*
Y9235000D01*
X1940000D01*
Y9525000D01*
G01Y10280000D02*
X1620000D01*
G01X1600000Y10300000D02*
Y10460000D01*
G01X1620000Y10480000D02*
X1940000D01*
G01X1960000Y10460000D02*
Y10300000D01*
G01X1460000Y10460000D02*
Y10300000D01*
G01X1820000Y18340000D02*
X1790000D01*
G01Y17985000D02*
Y17980000D01*
G01D02*
X1820000D01*
G01X1790000Y18340000D02*
Y18335000D01*
G01Y18425000D02*
Y18420000D01*
G01D02*
X1820000D01*
G01X1728900Y17994900D02*
X1551100D01*
Y18325100D01*
X1728900D01*
Y17994900D01*
G01X1820000Y18780000D02*
X1790000D01*
G01D02*
Y18775000D01*
G01Y18925000D02*
Y18920000D01*
G01D02*
X1820000D01*
G01X1551100Y18785100D02*
X1728900D01*
Y18454900D01*
X1551100D01*
Y18785100D01*
G01X1728900Y18934900D02*
X1551100D01*
Y19265100D01*
X1728900D01*
Y18934900D01*
G01X1790000Y19365000D02*
Y19360000D01*
G01D02*
X1820000D01*
G01Y19280000D02*
X1790000D01*
G01D02*
Y19275000D01*
G01X1551100Y19705100D02*
X1728900D01*
Y19374900D01*
X1551100D01*
Y19705100D01*
G01X1820000Y19720000D02*
X1790000D01*
G01D02*
Y19715000D01*
G01X2440000Y9525000D02*
X2080000D01*
Y9235000D01*
X2440000D01*
Y9525000D01*
G01Y10280000D02*
X2120000D01*
G01X2100000Y10300000D02*
Y10460000D01*
G01X2120000Y10480000D02*
X2440000D01*
G01X2460000Y10460000D02*
Y10300000D01*
G01X2060000Y18340000D02*
X2090000D01*
G01Y17985000D02*
Y17980000D01*
G01D02*
X2060000D01*
G01X2090000Y18340000D02*
Y18335000D01*
G01Y18425000D02*
Y18420000D01*
G01D02*
X2060000D01*
G01Y18780000D02*
X2090000D01*
G01D02*
Y18775000D01*
G01Y18925000D02*
Y18920000D01*
G01D02*
X2060000D01*
G01X2090000Y19365000D02*
Y19360000D01*
G01D02*
X2060000D01*
G01Y19280000D02*
X2090000D01*
G01D02*
Y19275000D01*
G01X2060000Y19720000D02*
X2090000D01*
G01D02*
Y19715000D01*
G01X2420000Y20180000D02*
Y19820000D01*
G01D02*
X2620000D01*
G01Y20180000D02*
X2420000D01*
G01X2940000Y9525000D02*
X2580000D01*
Y9235000D01*
X2940000D01*
Y9525000D01*
G01Y10280000D02*
X2620000D01*
G01X2600000Y10300000D02*
Y10460000D01*
G01X2620000Y10480000D02*
X2940000D01*
G01X2960000Y10460000D02*
Y10300000D01*
G01X2885100Y14548900D02*
Y14371100D01*
X2554900D01*
Y14548900D01*
X2885100D01*
G01X2620000Y19820000D02*
Y20180000D01*
G01X2991100Y20165100D02*
X3168900D01*
Y19834900D01*
X2991100D01*
Y20165100D01*
G01X3440000Y9525000D02*
X3080000D01*
Y9235000D01*
X3440000D01*
Y9525000D01*
G01Y10280000D02*
X3120000D01*
G01X3100000Y10300000D02*
Y10460000D01*
G01X3120000Y10480000D02*
X3440000D01*
G01X3460000Y10460000D02*
Y10300000D01*
G01X3140000Y15300000D02*
Y15100000D01*
G01D02*
X3500000D01*
G01D02*
Y15300000D01*
G01D02*
X3140000D01*
G01X3320000Y16040000D02*
Y16400000D01*
G01X3120000D02*
Y16040000D01*
G01D02*
X3320000D01*
G01Y16400000D02*
X3120000D01*
G01X3280000Y19000000D02*
Y18640000D01*
G01D02*
X3480000D01*
G01D02*
Y19000000D01*
G01D02*
X3280000D01*
G01X3680000Y20080000D02*
X3520000D01*
G01X3500000Y20100000D02*
Y20420000D01*
G01X3520000Y20440000D02*
X3680000D01*
G01X3580000Y9235000D02*
X3940000D01*
Y9525000D01*
X3580000D01*
Y9235000D01*
G01X3960000Y10160000D02*
Y10000000D01*
G01X3940000Y9980000D02*
X3620000D01*
G01X3600000Y10000000D02*
Y10160000D01*
G01X3940000Y10280000D02*
X3620000D01*
G01X3600000Y10300000D02*
Y10460000D01*
G01X3620000Y10480000D02*
X3940000D01*
G01X3960000Y10460000D02*
Y10300000D01*
G01X3620000Y10180000D02*
X3940000D01*
G01X3591100Y16385100D02*
X3768900D01*
Y16054900D01*
X3591100D01*
Y16385100D01*
G01X3928900Y18654900D02*
X3751100D01*
Y18985100D01*
X3928900D01*
Y18654900D01*
G01X3700000Y20420000D02*
Y20100000D01*
G01X4080000D02*
X3920000D01*
G01X3900000Y20120000D02*
Y20440000D01*
G01X3920000Y20460000D02*
X4080000D01*
G01Y9235000D02*
X4440000D01*
Y9525000D01*
X4080000D01*
Y9235000D01*
G01X4580000D02*
X4940000D01*
Y9525000D01*
X4580000D01*
Y9235000D01*
G01X4460000Y10160000D02*
Y10000000D01*
G01X4440000Y9980000D02*
X4120000D01*
G01X4100000Y10000000D02*
Y10160000D01*
G01X4440000Y10280000D02*
X4120000D01*
G01X4100000Y10300000D02*
Y10460000D01*
G01X4120000Y10480000D02*
X4440000D01*
G01X4460000Y10460000D02*
Y10300000D01*
G01X4120000Y10180000D02*
X4440000D01*
G01X4685100Y15288900D02*
Y15111100D01*
X4354900D01*
Y15288900D01*
X4685100D01*
G01X4100000Y20440000D02*
Y20120000D01*
G01X5080000Y9235000D02*
X5440000D01*
Y9525000D01*
X5080000D01*
Y9235000D01*
G01X4960000Y10160000D02*
Y10000000D01*
G01X4940000Y9980000D02*
X4620000D01*
G01X4600000Y10000000D02*
Y10160000D01*
G01X5440000Y9980000D02*
X5120000D01*
G01X5100000Y10000000D02*
Y10160000D01*
G01X4940000Y10280000D02*
X4620000D01*
G01X4600000Y10300000D02*
Y10460000D01*
G01X4620000Y10480000D02*
X4940000D01*
G01X4960000Y10460000D02*
Y10300000D01*
G01X4620000Y10180000D02*
X4940000D01*
G01X5440000Y10280000D02*
X5120000D01*
G01X5100000Y10300000D02*
Y10460000D01*
G01X5120000Y10480000D02*
X5440000D01*
G01X5120000Y10180000D02*
X5440000D01*
G01X4720000Y18380000D02*
Y18700000D01*
X4880000D01*
Y18380000D01*
X4720000D01*
G01X5580000Y9235000D02*
X5940000D01*
Y9525000D01*
X5580000D01*
Y9235000D01*
G01X5460000Y10160000D02*
Y10000000D01*
G01X5940000Y9980000D02*
X5620000D01*
G01X5600000Y10000000D02*
Y10160000D01*
G01X5460000Y10460000D02*
Y10300000D01*
G01X5940000Y10280000D02*
X5620000D01*
G01X5600000Y10300000D02*
Y10460000D01*
G01X5620000Y10480000D02*
X5940000D01*
G01X5620000Y10180000D02*
X5940000D01*
G01X5440000Y18140000D02*
X5760000D01*
Y17980000D01*
X5440000D01*
Y18140000D01*
G01X6080000Y9235000D02*
X6440000D01*
Y9525000D01*
X6080000D01*
Y9235000D01*
G01X5960000Y10160000D02*
Y10000000D01*
G01X6440000Y9980000D02*
X6120000D01*
G01X6100000Y10000000D02*
Y10160000D01*
G01X5960000Y10460000D02*
Y10300000D01*
G01X6440000Y10280000D02*
X6120000D01*
G01X6100000Y10300000D02*
Y10460000D01*
G01X6120000Y10480000D02*
X6440000D01*
G01X6120000Y10180000D02*
X6440000D01*
G01X5960000Y18140000D02*
X6280000D01*
Y17980000D01*
X5960000D01*
Y18140000D01*
G01X6580000Y9235000D02*
X6940000D01*
Y9525000D01*
X6580000D01*
Y9235000D01*
G01X6460000Y10160000D02*
Y10000000D01*
G01X6940000Y9980000D02*
X6620000D01*
G01X6600000Y10000000D02*
Y10160000D01*
G01X6460000Y10460000D02*
Y10300000D01*
G01X6940000Y10280000D02*
X6620000D01*
G01X6600000Y10300000D02*
Y10460000D01*
G01X6620000Y10480000D02*
X6940000D01*
G01X6620000Y10180000D02*
X6940000D01*
G01X6594900Y15791100D02*
Y15968900D01*
X6925100D01*
Y15791100D01*
X6594900D01*
G01X6568900Y15934900D02*
X6391100D01*
Y16265100D01*
X6568900D01*
Y15934900D01*
G01X6374900Y16371100D02*
Y16548900D01*
X6705100D01*
Y16371100D01*
X6374900D01*
G01X6548900Y16614900D02*
X6371100D01*
Y16945100D01*
X6548900D01*
Y16614900D01*
G01X6391100Y17585100D02*
X6568900D01*
Y17254900D01*
X6391100D01*
Y17585100D01*
G01X6674900Y17551100D02*
Y17728900D01*
X7005100D01*
Y17551100D01*
X6674900D01*
G01X7080000Y9235000D02*
X7440000D01*
Y9525000D01*
X7080000D01*
Y9235000D01*
G01X6960000Y10160000D02*
Y10000000D01*
G01X7440000Y9980000D02*
X7120000D01*
G01X7100000Y10000000D02*
Y10160000D01*
G01X6960000Y10460000D02*
Y10300000D01*
G01X7440000Y10280000D02*
X7120000D01*
G01X7100000Y10300000D02*
Y10460000D01*
G01X7120000Y10480000D02*
X7440000D01*
G01X7120000Y10180000D02*
X7440000D01*
G01X7188900Y15794900D02*
X7011100D01*
Y16125100D01*
X7188900D01*
Y15794900D01*
G01X7068900Y16394900D02*
X6891100D01*
Y16725100D01*
X7068900D01*
Y16394900D01*
G01X7410000Y16940000D02*
X7110000D01*
Y16860000D01*
X7410000D01*
Y16940000D01*
G01X6914900Y17131100D02*
Y17308900D01*
X7245100D01*
Y17131100D01*
X6914900D01*
G01X7094900Y17431100D02*
Y17608900D01*
X7425100D01*
Y17431100D01*
X7094900D01*
G01X7580000Y9235000D02*
X7940000D01*
Y9525000D01*
X7580000D01*
Y9235000D01*
G01X7460000Y10160000D02*
Y10000000D01*
G01X7940000Y9980000D02*
X7620000D01*
G01X7600000Y10000000D02*
Y10160000D01*
G01X7460000Y10460000D02*
Y10300000D01*
G01X7940000Y10280000D02*
X7620000D01*
G01X7600000Y10300000D02*
Y10460000D01*
G01X7620000Y10480000D02*
X7940000D01*
G01X7620000Y10180000D02*
X7940000D01*
G01X7474900Y15791100D02*
Y15968900D01*
X7805100D01*
Y15791100D01*
X7474900D01*
G01X7765100Y16188900D02*
Y16011100D01*
X7434900D01*
Y16188900D01*
X7765100D01*
G01X7785100Y17128900D02*
Y16951100D01*
X7454900D01*
Y17128900D01*
X7785100D01*
G01X7474900Y17551100D02*
Y17728900D01*
X7805100D01*
Y17551100D01*
X7474900D01*
G01X8080000Y9235000D02*
X8440000D01*
Y9525000D01*
X8080000D01*
Y9235000D01*
G01X7960000Y10160000D02*
Y10000000D01*
G01X8440000Y9980000D02*
X8120000D01*
G01X8100000Y10000000D02*
Y10160000D01*
G01X7960000Y10460000D02*
Y10300000D01*
G01X8440000Y10280000D02*
X8120000D01*
G01X8100000Y10300000D02*
Y10460000D01*
G01X8120000Y10480000D02*
X8440000D01*
G01X8120000Y10180000D02*
X8440000D01*
G01X8565100Y15228900D02*
Y15051100D01*
X8234900D01*
Y15228900D01*
X8565100D01*
G01Y15468900D02*
Y15291100D01*
X8234900D01*
Y15468900D01*
X8565100D01*
G01X8135000Y15605000D02*
Y15915000D01*
X7985000D01*
Y15605000D01*
X8135000D01*
G01X8151100Y16565100D02*
X8328900D01*
Y16234900D01*
X8151100D01*
Y16565100D01*
G01X8305100Y16148900D02*
Y15971100D01*
X7974900D01*
Y16148900D01*
X8305100D01*
G01X8088900Y16494900D02*
X7911100D01*
Y16825100D01*
X8088900D01*
Y16494900D01*
G01X8328900Y16874900D02*
X8151100D01*
Y17205100D01*
X8328900D01*
Y16874900D01*
G01X8365100Y17468900D02*
Y17291100D01*
X8034900D01*
Y17468900D01*
X8365100D01*
G01X8205100Y17728900D02*
Y17551100D01*
X7874900D01*
Y17728900D01*
X8205100D01*
G01X8580000Y9235000D02*
X8940000D01*
Y9525000D01*
X8580000D01*
Y9235000D01*
G01X8460000Y10160000D02*
Y10000000D01*
G01X8940000Y9980000D02*
X8620000D01*
G01X8600000Y10000000D02*
Y10160000D01*
G01X8460000Y10460000D02*
Y10300000D01*
G01X8940000Y10280000D02*
X8620000D01*
G01X8600000Y10300000D02*
Y10460000D01*
G01X8620000Y10480000D02*
X8940000D01*
G01X8620000Y10180000D02*
X8940000D01*
G01X8880000Y19740000D02*
Y19420000D01*
X8720000D01*
Y19740000D01*
X8880000D01*
G01X8580000D02*
Y19420000D01*
X8420000D01*
Y19740000D01*
X8580000D01*
G01X9080000Y9235000D02*
X9440000D01*
Y9525000D01*
X9080000D01*
Y9235000D01*
G01X8960000Y10160000D02*
Y10000000D01*
G01X9440000Y9980000D02*
X9120000D01*
G01X9100000Y10000000D02*
Y10160000D01*
G01X8960000Y10460000D02*
Y10300000D01*
G01X9440000Y10280000D02*
X9120000D01*
G01X9100000Y10300000D02*
Y10460000D01*
G01X9120000Y10480000D02*
X9440000D01*
G01X9120000Y10180000D02*
X9440000D01*
G01X8820000Y14600000D02*
Y14240000D01*
G01D02*
X9020000D01*
G01D02*
Y14600000D01*
G01D02*
X8820000D01*
G01X9180000Y19740000D02*
Y19420000D01*
X9020000D01*
Y19740000D01*
X9180000D01*
G01X9580000Y9235000D02*
X9940000D01*
Y9525000D01*
X9580000D01*
Y9235000D01*
G01X9460000Y10160000D02*
Y10000000D01*
G01X9940000Y9980000D02*
X9620000D01*
G01X9600000Y10000000D02*
Y10160000D01*
G01X9460000Y10460000D02*
Y10300000D01*
G01X9940000Y10280000D02*
X9620000D01*
G01X9600000Y10300000D02*
Y10460000D01*
G01X9620000Y10480000D02*
X9940000D01*
G01X9620000Y10180000D02*
X9940000D01*
G01X10080000Y9235000D02*
X10440000D01*
Y9525000D01*
X10080000D01*
Y9235000D01*
G01X9960000Y10160000D02*
Y10000000D01*
G01X10440000Y9980000D02*
X10120000D01*
G01X10100000Y10000000D02*
Y10160000D01*
G01X9960000Y10460000D02*
Y10300000D01*
G01X10440000Y10280000D02*
X10120000D01*
G01X10100000Y10300000D02*
Y10460000D01*
G01X10120000Y10480000D02*
X10440000D01*
G01X10120000Y10180000D02*
X10440000D01*
G01X10371100Y14525100D02*
X10548900D01*
Y14194900D01*
X10371100D01*
Y14525100D01*
G01X10580000Y9235000D02*
X10940000D01*
Y9525000D01*
X10580000D01*
Y9235000D01*
G01X10460000Y10160000D02*
Y10000000D01*
G01X10940000Y9980000D02*
X10620000D01*
G01X10600000Y10000000D02*
Y10160000D01*
G01X10460000Y10460000D02*
Y10300000D01*
G01X10940000Y10280000D02*
X10620000D01*
G01X10600000Y10300000D02*
Y10460000D01*
G01X10620000Y10480000D02*
X10940000D01*
G01X10620000Y10180000D02*
X10940000D01*
G01X11080000Y9235000D02*
X11440000D01*
Y9525000D01*
X11080000D01*
Y9235000D01*
G01X10960000Y10160000D02*
Y10000000D01*
G01X11440000Y9980000D02*
X11120000D01*
G01X11100000Y10000000D02*
Y10160000D01*
G01X10960000Y10460000D02*
Y10300000D01*
G01X11440000Y10280000D02*
X11120000D01*
G01X11100000Y10300000D02*
Y10460000D01*
G01X11120000Y10480000D02*
X11440000D01*
G01X11120000Y10180000D02*
X11440000D01*
G01X11920000Y8700000D02*
X12280000D01*
G01Y8900000D02*
X11920000D01*
G01D02*
Y8700000D01*
G01X11460000Y10160000D02*
Y10000000D01*
G01Y10460000D02*
Y10300000D01*
G01X12280000Y8700000D02*
Y8900000D01*
G01X12494900Y8751100D02*
Y8928900D01*
X12825100D01*
Y8751100D01*
X12494900D01*
G01X13340400Y9452000D02*
X12819600D01*
Y9268000D01*
X13340400D01*
Y9452000D01*
G01X12860000Y10680000D02*
X12540000D01*
G01X12520000Y10700000D02*
Y10860000D01*
G01X12540000Y10880000D02*
X12860000D01*
G01X12880000Y10860000D02*
Y10700000D01*
G54D11*
G01X7470000Y16720000D02*
G03I-20000J0D01*
G54D12*
G01X-449000Y9688800D02*
G03X-469000Y9708800I-20000J0D01*
G01D02*
G03X-489000Y9688800I0J-20000D01*
G01D02*
G03X-469000Y9668700I20000J-100D01*
G01D02*
G03X-449000Y9688800I0J20000D01*
G01X51000D02*
G03X31000Y9708800I-20000J0D01*
G01D02*
G03X11000Y9688800I0J-20000D01*
G01D02*
G03X31000Y9668700I20000J-100D01*
G01D02*
G03X51000Y9688800I0J20000D01*
G01X551000D02*
G03X531000Y9708800I-20000J0D01*
G01D02*
G03X511000Y9688800I0J-20000D01*
G01D02*
G03X531000Y9668700I20000J-100D01*
G01D02*
G03X551000Y9688800I0J20000D01*
G01X1051000D02*
G03X1031000Y9708800I-20000J0D01*
G01D02*
G03X1011000Y9688800I0J-20000D01*
G01D02*
G03X1031000Y9668700I20000J-100D01*
G01D02*
G03X1051000Y9688800I0J20000D01*
G01X1551000D02*
G03X1531000Y9708800I-20000J0D01*
G01D02*
G03X1511000Y9688800I0J-20000D01*
G01D02*
G03X1531000Y9668700I20000J-100D01*
G01D02*
G03X1551000Y9688800I0J20000D01*
G01X2051000D02*
G03X2031000Y9708800I-20000J0D01*
G01D02*
G03X2011000Y9688800I0J-20000D01*
G01D02*
G03X2031000Y9668700I20000J-100D01*
G01D02*
G03X2051000Y9688800I0J20000D01*
G01X2551000D02*
G03X2531000Y9708800I-20000J0D01*
G01D02*
G03X2511000Y9688800I0J-20000D01*
G01D02*
G03X2531000Y9668700I20000J-100D01*
G01D02*
G03X2551000Y9688800I0J20000D01*
G01X3031000Y9708800D02*
G03X3011000Y9688800I0J-20000D01*
G01D02*
G03X3031000Y9668700I20000J-100D01*
G01X3051000Y9688800D02*
G03X3031000Y9708800I-20000J0D01*
G01Y9668700D02*
G03X3051000Y9688800I0J20000D01*
G01X4009000Y9071200D02*
G03X3989000Y9091300I-20000J100D01*
G01D02*
G03X3969000Y9071200I0J-20000D01*
G01D02*
G03X3989000Y9051200I20000J0D01*
G01D02*
G03X4009000Y9071200I0J20000D01*
G01X4509000D02*
G03X4489000Y9091300I-20000J100D01*
G01D02*
G03X4469000Y9071200I0J-20000D01*
G01D02*
G03X4489000Y9051200I20000J0D01*
G01D02*
G03X4509000Y9071200I0J20000D01*
G01X5009000D02*
G03X4989000Y9091300I-20000J100D01*
G01D02*
G03X4969000Y9071200I0J-20000D01*
G01D02*
G03X4989000Y9051200I20000J0D01*
G01D02*
G03X5009000Y9071200I0J20000D01*
G01X5509000D02*
G03X5489000Y9091300I-20000J100D01*
G01D02*
G03X5469000Y9071200I0J-20000D01*
G01D02*
G03X5489000Y9051200I20000J0D01*
G01D02*
G03X5509000Y9071200I0J20000D01*
G01X6009000D02*
G03X5989000Y9091300I-20000J100D01*
G01D02*
G03X5969000Y9071200I0J-20000D01*
G01D02*
G03X5989000Y9051200I20000J0D01*
G01D02*
G03X6009000Y9071200I0J20000D01*
G01X6509000D02*
G03X6489000Y9091300I-20000J100D01*
G01D02*
G03X6469000Y9071200I0J-20000D01*
G01D02*
G03X6489000Y9051200I20000J0D01*
G01D02*
G03X6509000Y9071200I0J20000D01*
G01X7009000D02*
G03X6989000Y9091300I-20000J100D01*
G01D02*
G03X6969000Y9071200I0J-20000D01*
G01D02*
G03X6989000Y9051200I20000J0D01*
G01D02*
G03X7009000Y9071200I0J20000D01*
G01X7509000D02*
G03X7489000Y9091300I-20000J100D01*
G01D02*
G03X7469000Y9071200I0J-20000D01*
G01D02*
G03X7489000Y9051200I20000J0D01*
G01D02*
G03X7509000Y9071200I0J20000D01*
G01X8009000D02*
G03X7989000Y9091300I-20000J100D01*
G01D02*
G03X7969000Y9071200I0J-20000D01*
G01D02*
G03X7989000Y9051200I20000J0D01*
G01D02*
G03X8009000Y9071200I0J20000D01*
G01X8509000D02*
G03X8489000Y9091300I-20000J100D01*
G01D02*
G03X8469000Y9071200I0J-20000D01*
G01D02*
G03X8489000Y9051200I20000J0D01*
G01D02*
G03X8509000Y9071200I0J20000D01*
G01X9009000D02*
G03X8989000Y9091300I-20000J100D01*
G01D02*
G03X8969000Y9071200I0J-20000D01*
G01D02*
G03X8989000Y9051200I20000J0D01*
G01D02*
G03X9009000Y9071200I0J20000D01*
G01X9509000D02*
G03X9489000Y9091300I-20000J100D01*
G01D02*
G03X9469000Y9071200I0J-20000D01*
G01D02*
G03X9489000Y9051200I20000J0D01*
G01D02*
G03X9509000Y9071200I0J20000D01*
G01X10009000D02*
G03X9989000Y9091300I-20000J100D01*
G01D02*
G03X9969000Y9071200I0J-20000D01*
G01D02*
G03X9989000Y9051200I20000J0D01*
G01D02*
G03X10009000Y9071200I0J20000D01*
G01X10509000D02*
G03X10489000Y9091300I-20000J100D01*
G01D02*
G03X10469000Y9071200I0J-20000D01*
G01D02*
G03X10489000Y9051200I20000J0D01*
G01D02*
G03X10509000Y9071200I0J20000D01*
G01X11009000D02*
G03X10989000Y9091300I-20000J100D01*
G01D02*
G03X10969000Y9071200I0J-20000D01*
G01D02*
G03X10989000Y9051200I20000J0D01*
G01D02*
G03X11009000Y9071200I0J20000D01*
G01X11509000D02*
G03X11489000Y9091300I-20000J100D01*
G01D02*
G03X11469000Y9071200I0J-20000D01*
G01D02*
G03X11489000Y9051200I20000J0D01*
G01D02*
G03X11509000Y9071200I0J20000D01*
G01X12812400Y9670800D02*
G03X12792500Y9690700I-19900J0D01*
G01D02*
G03X12772600Y9670800I0J-19900D01*
G01D02*
G03X12792500Y9650800I19900J-100D01*
G01D02*
G03X12812400Y9670800I0J19900D01*
G54D13*
G01X-75100Y8927000D02*
Y8836000D01*
X-81500Y8816900D01*
X-94400Y8804200D01*
X-110400Y8800000D01*
X-126500Y8804200D01*
X-139400Y8816900D01*
X-145800Y8836000D01*
Y8927000D01*
G01X-209400Y8905800D02*
X-219000Y8918500D01*
X-230300Y8924900D01*
X-243200Y8927000D01*
X-259300Y8922800D01*
X-270500Y8912200D01*
X-273700Y8899500D01*
X-272100Y8886800D01*
X-265700Y8876200D01*
X-233500Y8855000D01*
X-219000Y8840200D01*
X-209400Y8819000D01*
X-206200Y8800000D01*
X-273700D01*
G01X-338900Y8852900D02*
X-350100Y8867700D01*
X-359800Y8876200D01*
X-372700Y8880400D01*
X-383900Y8876200D01*
X-392000Y8867700D01*
X-398400Y8855000D01*
X-400000Y8840200D01*
X-398400Y8827500D01*
X-392000Y8814800D01*
X-382300Y8804200D01*
X-371100Y8800000D01*
X-358200Y8804200D01*
X-346900Y8816900D01*
X-340500Y8836000D01*
X-338900Y8857100D01*
X-342100Y8884700D01*
X-346900Y8899500D01*
X-355000Y8914300D01*
X-366200Y8924900D01*
X-377500Y8927000D01*
X-388800Y8922800D01*
X-396800Y8912200D01*
G01X-58300Y10540000D02*
Y10667000D01*
X-98500D01*
X-111400Y10660600D01*
X-119400Y10652200D01*
X-122600Y10635200D01*
X-119400Y10618300D01*
X-109800Y10607700D01*
X-98500Y10601400D01*
X-58300D01*
G01X-98500D02*
X-122600Y10540000D01*
G01X-184600Y10559000D02*
X-194200Y10548500D01*
X-205500Y10542100D01*
X-219900Y10540000D01*
X-234400Y10544200D01*
X-245700Y10552700D01*
X-253700Y10567500D01*
X-255300Y10584400D01*
X-252100Y10601400D01*
X-244100Y10612000D01*
X-232800Y10620400D01*
X-221600Y10622500D01*
X-210300Y10620400D01*
X-195800Y10612000D01*
X-200600Y10667000D01*
X-244100D01*
G01X-322100Y10554800D02*
X-333400Y10544200D01*
X-346200Y10540000D01*
X-359100Y10544200D01*
X-370400Y10556900D01*
X-378400Y10576000D01*
X-381600Y10595000D01*
Y10618300D01*
X-378400Y10637400D01*
X-370400Y10654300D01*
X-360700Y10662800D01*
X-349400Y10667000D01*
X-336600Y10662800D01*
X-326900Y10654300D01*
X-320500Y10641600D01*
X-317300Y10624700D01*
X-320500Y10609900D01*
X-328500Y10595000D01*
X-338200Y10586600D01*
X-349400Y10584400D01*
X-362300Y10588700D01*
X-372000Y10599300D01*
X-381600Y10618300D01*
G01X424900Y8927000D02*
Y8836000D01*
X418500Y8816900D01*
X405600Y8804200D01*
X389600Y8800000D01*
X373500Y8804200D01*
X360600Y8816900D01*
X354200Y8836000D01*
Y8927000D01*
G01X295400Y8825400D02*
X285800Y8810600D01*
X272900Y8802100D01*
X258400Y8800000D01*
X245600Y8802100D01*
X232700Y8812700D01*
X224700Y8825400D01*
X223100Y8838100D01*
X226300Y8852900D01*
X237500Y8863500D01*
X248800Y8867700D01*
X263300D01*
G01X248800D02*
X239100Y8874100D01*
X231100Y8884700D01*
X227900Y8897400D01*
X231100Y8910100D01*
X239100Y8920600D01*
X253600Y8927000D01*
X268100Y8924900D01*
X282600Y8916400D01*
G01X111200Y8800000D02*
Y8927000D01*
X170800Y8836000D01*
X90300D01*
G01X441700Y10540000D02*
Y10667000D01*
X401500D01*
X388600Y10660600D01*
X380600Y10652200D01*
X377400Y10635200D01*
X380600Y10618300D01*
X390200Y10607700D01*
X401500Y10601400D01*
X441700D01*
G01X401500D02*
X377400Y10540000D01*
G01X283300D02*
X280100Y10567500D01*
X275200Y10590800D01*
X268800Y10612000D01*
X260700Y10635200D01*
X247900Y10667000D01*
X312200D01*
G01X185900Y10559000D02*
X176300Y10548500D01*
X165000Y10542100D01*
X150600Y10540000D01*
X136100Y10544200D01*
X124800Y10552700D01*
X116800Y10567500D01*
X115200Y10584400D01*
X118400Y10601400D01*
X126400Y10612000D01*
X137700Y10620400D01*
X148900Y10622500D01*
X160200Y10620400D01*
X174700Y10612000D01*
X169900Y10667000D01*
X126400D01*
G01X768900Y16513500D02*
Y16640500D01*
X728700D01*
X715800Y16634100D01*
X707800Y16625700D01*
X704600Y16608700D01*
X707800Y16591800D01*
X717400Y16581200D01*
X728700Y16574900D01*
X768900D01*
G01X728700D02*
X704600Y16513500D01*
G01X644200D02*
Y16640500D01*
X570300Y16513500D01*
Y16640500D01*
G01X477800Y16513500D02*
Y16640500D01*
X497100Y16615100D01*
G01Y16513500D02*
X458500D01*
G01X351500D02*
X348300Y16541000D01*
X343400Y16564300D01*
X337000Y16585500D01*
X328900Y16608700D01*
X316100Y16640500D01*
X380400D01*
G01X768900Y17021500D02*
Y17148500D01*
X728700D01*
X715800Y17142100D01*
X707800Y17133700D01*
X704600Y17116700D01*
X707800Y17099800D01*
X717400Y17089200D01*
X728700Y17082900D01*
X768900D01*
G01X728700D02*
X704600Y17021500D01*
G01X644200D02*
Y17148500D01*
X570300Y17021500D01*
Y17148500D01*
G01X477800Y17021500D02*
Y17148500D01*
X497100Y17123100D01*
G01Y17021500D02*
X458500D01*
G01X383600Y17040500D02*
X374000Y17030000D01*
X362700Y17023600D01*
X348300Y17021500D01*
X333800Y17025700D01*
X322500Y17034200D01*
X314500Y17049000D01*
X312900Y17065900D01*
X316100Y17082900D01*
X324100Y17093500D01*
X335400Y17101900D01*
X346600Y17104000D01*
X357900Y17101900D01*
X372400Y17093500D01*
X367600Y17148500D01*
X324100D01*
G01X768900Y17529500D02*
Y17656500D01*
X728700D01*
X715800Y17650100D01*
X707800Y17641700D01*
X704600Y17624700D01*
X707800Y17607800D01*
X717400Y17597200D01*
X728700Y17590900D01*
X768900D01*
G01X728700D02*
X704600Y17529500D01*
G01X644200D02*
Y17656500D01*
X570300Y17529500D01*
Y17656500D01*
G01X477800Y17529500D02*
Y17656500D01*
X497100Y17631100D01*
G01Y17529500D02*
X458500D01*
G01X383600Y17554900D02*
X374000Y17540100D01*
X361100Y17531600D01*
X346600Y17529500D01*
X333800Y17531600D01*
X320900Y17542200D01*
X312900Y17554900D01*
X311300Y17567600D01*
X314500Y17582400D01*
X325700Y17593000D01*
X337000Y17597200D01*
X351500D01*
G01X337000D02*
X327300Y17603600D01*
X319300Y17614200D01*
X316100Y17626900D01*
X319300Y17639600D01*
X327300Y17650100D01*
X341800Y17656500D01*
X356300Y17654400D01*
X370800Y17645900D01*
G01X768900Y18037500D02*
Y18164500D01*
X728700D01*
X715800Y18158100D01*
X707800Y18149700D01*
X704600Y18132700D01*
X707800Y18115800D01*
X717400Y18105200D01*
X728700Y18098900D01*
X768900D01*
G01X728700D02*
X704600Y18037500D01*
G01X644200D02*
Y18164500D01*
X570300Y18037500D01*
Y18164500D01*
G01X477800Y18037500D02*
Y18164500D01*
X497100Y18139100D01*
G01Y18037500D02*
X458500D01*
G01X348300Y18164500D02*
X361100Y18160300D01*
X370800Y18149700D01*
X377200Y18137000D01*
X382000Y18120000D01*
X383600Y18101000D01*
X382000Y18081900D01*
X377200Y18065000D01*
X370800Y18052300D01*
X361100Y18041700D01*
X348300Y18037500D01*
X335400Y18041700D01*
X325700Y18052300D01*
X319300Y18065000D01*
X314500Y18081900D01*
X312900Y18101000D01*
X314500Y18120000D01*
X319300Y18137000D01*
X325700Y18149700D01*
X335400Y18160300D01*
X348300Y18164500D01*
G01X704200Y18545500D02*
Y18672500D01*
X664000D01*
X651100Y18666100D01*
X643100Y18657700D01*
X639900Y18640700D01*
X643100Y18623800D01*
X652700Y18613200D01*
X664000Y18606900D01*
X704200D01*
G01X664000D02*
X639900Y18545500D01*
G01X579500D02*
Y18672500D01*
X505600Y18545500D01*
Y18672500D01*
G01X416300Y18545500D02*
X413100Y18573000D01*
X408200Y18596300D01*
X401800Y18617500D01*
X393700Y18640700D01*
X380900Y18672500D01*
X445200D01*
G01X704200Y19053500D02*
Y19180500D01*
X664000D01*
X651100Y19174100D01*
X643100Y19165700D01*
X639900Y19148700D01*
X643100Y19131800D01*
X652700Y19121200D01*
X664000Y19114900D01*
X704200D01*
G01X664000D02*
X639900Y19053500D01*
G01X579500D02*
Y19180500D01*
X505600Y19053500D01*
Y19180500D01*
G01X393700Y19053500D02*
Y19180500D01*
X453300Y19089500D01*
X372800D01*
G01X704200Y19561500D02*
Y19688500D01*
X664000D01*
X651100Y19682100D01*
X643100Y19673700D01*
X639900Y19656700D01*
X643100Y19639800D01*
X652700Y19629200D01*
X664000Y19622900D01*
X704200D01*
G01X664000D02*
X639900Y19561500D01*
G01X579500D02*
Y19688500D01*
X505600Y19561500D01*
Y19688500D01*
G01X413100Y19561500D02*
Y19688500D01*
X432400Y19663100D01*
G01Y19561500D02*
X393800D01*
G01X869800Y8277000D02*
X829600Y8150000D01*
X789300Y8277000D01*
G01X735400Y8150000D02*
Y8277000D01*
X703300D01*
X690400Y8270600D01*
X680700Y8262200D01*
X672700Y8249500D01*
X666300Y8234700D01*
X664700Y8213500D01*
X666300Y8192300D01*
X672700Y8177500D01*
X680700Y8164800D01*
X690400Y8156300D01*
X703300Y8150000D01*
X735400D01*
G01X601100Y8202900D02*
X589900Y8217700D01*
X580200Y8226200D01*
X567300Y8230400D01*
X556100Y8226200D01*
X548000Y8217700D01*
X541600Y8205000D01*
X540000Y8190200D01*
X541600Y8177500D01*
X548000Y8164800D01*
X557700Y8154200D01*
X568900Y8150000D01*
X581800Y8154200D01*
X593100Y8166900D01*
X599500Y8186000D01*
X601100Y8207100D01*
X597900Y8234700D01*
X593100Y8249500D01*
X585000Y8264300D01*
X573800Y8274900D01*
X562500Y8277000D01*
X551200Y8272800D01*
X543200Y8262200D01*
G01X924900Y8927000D02*
Y8836000D01*
X918500Y8816900D01*
X905600Y8804200D01*
X889600Y8800000D01*
X873500Y8804200D01*
X860600Y8816900D01*
X854200Y8836000D01*
Y8927000D01*
G01X790600Y8905800D02*
X781000Y8918500D01*
X769700Y8924900D01*
X756800Y8927000D01*
X740700Y8922800D01*
X729500Y8912200D01*
X726300Y8899500D01*
X727900Y8886800D01*
X734300Y8876200D01*
X766500Y8855000D01*
X781000Y8840200D01*
X790600Y8819000D01*
X793800Y8800000D01*
X726300D01*
G01X633800D02*
X630600Y8827500D01*
X625700Y8850800D01*
X619300Y8872000D01*
X611200Y8895200D01*
X598400Y8927000D01*
X662700D01*
G01X941700Y10540000D02*
Y10667000D01*
X901500D01*
X888600Y10660600D01*
X880600Y10652200D01*
X877400Y10635200D01*
X880600Y10618300D01*
X890200Y10607700D01*
X901500Y10601400D01*
X941700D01*
G01X901500D02*
X877400Y10540000D01*
G01X810600Y10592900D02*
X799400Y10607700D01*
X789700Y10616200D01*
X776800Y10620400D01*
X765600Y10616200D01*
X757500Y10607700D01*
X751100Y10595000D01*
X749500Y10580200D01*
X751100Y10567500D01*
X757500Y10554800D01*
X767200Y10544200D01*
X778400Y10540000D01*
X791300Y10544200D01*
X802600Y10556900D01*
X809000Y10576000D01*
X810600Y10597100D01*
X807400Y10624700D01*
X802600Y10639500D01*
X794500Y10654300D01*
X783300Y10664900D01*
X772000Y10667000D01*
X760700Y10662800D01*
X752700Y10652200D01*
G01X650600Y10540000D02*
Y10667000D01*
X669900Y10641600D01*
G01Y10540000D02*
X631300D01*
G01X1069800Y13927000D02*
X1029600Y13800000D01*
X989300Y13927000D01*
G01X935400Y13800000D02*
Y13927000D01*
X903300D01*
X890400Y13920600D01*
X880700Y13912200D01*
X872700Y13899500D01*
X866300Y13884700D01*
X864700Y13863500D01*
X866300Y13842300D01*
X872700Y13827500D01*
X880700Y13814800D01*
X890400Y13806300D01*
X903300Y13800000D01*
X935400D01*
G01X805900Y13819000D02*
X796300Y13808500D01*
X785000Y13802100D01*
X770600Y13800000D01*
X756100Y13804200D01*
X744800Y13812700D01*
X736800Y13827500D01*
X735200Y13844400D01*
X738400Y13861400D01*
X746400Y13872000D01*
X757700Y13880400D01*
X768900Y13882500D01*
X780200Y13880400D01*
X794700Y13872000D01*
X789900Y13927000D01*
X746400D01*
G01X1424900Y8927000D02*
Y8836000D01*
X1418500Y8816900D01*
X1405600Y8804200D01*
X1389600Y8800000D01*
X1373500Y8804200D01*
X1360600Y8816900D01*
X1354200Y8836000D01*
Y8927000D01*
G01X1295400Y8825400D02*
X1285800Y8810600D01*
X1272900Y8802100D01*
X1258400Y8800000D01*
X1245600Y8802100D01*
X1232700Y8812700D01*
X1224700Y8825400D01*
X1223100Y8838100D01*
X1226300Y8852900D01*
X1237500Y8863500D01*
X1248800Y8867700D01*
X1263300D01*
G01X1248800D02*
X1239100Y8874100D01*
X1231100Y8884700D01*
X1227900Y8897400D01*
X1231100Y8910100D01*
X1239100Y8920600D01*
X1253600Y8927000D01*
X1268100Y8924900D01*
X1282600Y8916400D01*
G01X1165900Y8819000D02*
X1156300Y8808500D01*
X1145000Y8802100D01*
X1130600Y8800000D01*
X1116100Y8804200D01*
X1104800Y8812700D01*
X1096800Y8827500D01*
X1095200Y8844400D01*
X1098400Y8861400D01*
X1106400Y8872000D01*
X1117700Y8880400D01*
X1128900Y8882500D01*
X1140200Y8880400D01*
X1154700Y8872000D01*
X1149900Y8927000D01*
X1106400D01*
G01X1441700Y10540000D02*
Y10667000D01*
X1401500D01*
X1388600Y10660600D01*
X1380600Y10652200D01*
X1377400Y10635200D01*
X1380600Y10618300D01*
X1390200Y10607700D01*
X1401500Y10601400D01*
X1441700D01*
G01X1401500D02*
X1377400Y10540000D01*
G01X1283300D02*
X1280100Y10567500D01*
X1275200Y10590800D01*
X1268800Y10612000D01*
X1260700Y10635200D01*
X1247900Y10667000D01*
X1312200D01*
G01X1153800Y10540000D02*
X1150600Y10567500D01*
X1145700Y10590800D01*
X1139300Y10612000D01*
X1131200Y10635200D01*
X1118400Y10667000D01*
X1182700D01*
G01X1357300Y16852100D02*
X1363100Y16856100D01*
X1369900Y16858700D01*
X1377700D01*
X1386500Y16854800D01*
X1393300Y16848200D01*
X1398200Y16840300D01*
X1402100Y16827200D01*
X1403000Y16815400D01*
X1401100Y16803600D01*
X1398200Y16795700D01*
X1392300Y16787900D01*
X1385500Y16782600D01*
X1378700Y16780000D01*
X1371900D01*
X1365100Y16782600D01*
X1359200Y16786600D01*
X1354400Y16791800D01*
G01X1318500Y16845600D02*
X1312700Y16853500D01*
X1305800Y16857400D01*
X1298100Y16858700D01*
X1288300Y16856100D01*
X1281500Y16849500D01*
X1279600Y16841600D01*
X1280500Y16833800D01*
X1284400Y16827200D01*
X1303900Y16814100D01*
X1312700Y16804900D01*
X1318500Y16791800D01*
X1320400Y16780000D01*
X1279600D01*
G01X1237800Y16789200D02*
X1231000Y16782600D01*
X1223200Y16780000D01*
X1215500Y16782600D01*
X1208600Y16790500D01*
X1203800Y16802300D01*
X1201800Y16814100D01*
Y16828500D01*
X1203800Y16840300D01*
X1208600Y16850800D01*
X1214500Y16856100D01*
X1221300Y16858700D01*
X1229100Y16856100D01*
X1234900Y16850800D01*
X1238800Y16843000D01*
X1240800Y16832500D01*
X1238800Y16823300D01*
X1234000Y16814100D01*
X1228100Y16808900D01*
X1221300Y16807500D01*
X1213500Y16810200D01*
X1207700Y16816700D01*
X1201800Y16828500D01*
G01X1357300Y17352100D02*
X1363100Y17356100D01*
X1369900Y17358700D01*
X1377700D01*
X1386500Y17354800D01*
X1393300Y17348200D01*
X1398200Y17340300D01*
X1402100Y17327200D01*
X1403000Y17315400D01*
X1401100Y17303600D01*
X1398200Y17295700D01*
X1392300Y17287900D01*
X1385500Y17282600D01*
X1378700Y17280000D01*
X1371900D01*
X1365100Y17282600D01*
X1359200Y17286600D01*
X1354400Y17291800D01*
G01X1321400Y17295700D02*
X1315600Y17286600D01*
X1307800Y17281300D01*
X1299000Y17280000D01*
X1291200Y17281300D01*
X1283500Y17287900D01*
X1278600Y17295700D01*
X1277600Y17303600D01*
X1279600Y17312800D01*
X1286400Y17319300D01*
X1293200Y17322000D01*
X1301900D01*
G01X1293200D02*
X1287300Y17325900D01*
X1282500Y17332500D01*
X1280500Y17340300D01*
X1282500Y17348200D01*
X1287300Y17354800D01*
X1296100Y17358700D01*
X1304900Y17357400D01*
X1313600Y17352100D01*
G01X1221300Y17280000D02*
Y17358700D01*
X1233000Y17343000D01*
G01Y17280000D02*
X1209600D01*
G01X1357300Y17872100D02*
X1363100Y17876100D01*
X1369900Y17878700D01*
X1377700D01*
X1386500Y17874800D01*
X1393300Y17868200D01*
X1398200Y17860300D01*
X1402100Y17847200D01*
X1403000Y17835400D01*
X1401100Y17823600D01*
X1398200Y17815700D01*
X1392300Y17807900D01*
X1385500Y17802600D01*
X1378700Y17800000D01*
X1371900D01*
X1365100Y17802600D01*
X1359200Y17806600D01*
X1354400Y17811800D01*
G01X1321400Y17815700D02*
X1315600Y17806600D01*
X1307800Y17801300D01*
X1299000Y17800000D01*
X1291200Y17801300D01*
X1283500Y17807900D01*
X1278600Y17815700D01*
X1277600Y17823600D01*
X1279600Y17832800D01*
X1286400Y17839300D01*
X1293200Y17842000D01*
X1301900D01*
G01X1293200D02*
X1287300Y17845900D01*
X1282500Y17852500D01*
X1280500Y17860300D01*
X1282500Y17868200D01*
X1287300Y17874800D01*
X1296100Y17878700D01*
X1304900Y17877400D01*
X1313600Y17872100D01*
G01X1221300Y17878700D02*
X1229100Y17876100D01*
X1234900Y17869500D01*
X1238800Y17861600D01*
X1241700Y17851200D01*
X1242700Y17839300D01*
X1241700Y17827500D01*
X1238800Y17817100D01*
X1234900Y17809200D01*
X1229100Y17802600D01*
X1221300Y17800000D01*
X1213500Y17802600D01*
X1207700Y17809200D01*
X1203800Y17817100D01*
X1200900Y17827500D01*
X1199900Y17839300D01*
X1200900Y17851200D01*
X1203800Y17861600D01*
X1207700Y17869500D01*
X1213500Y17876100D01*
X1221300Y17878700D01*
G01X1357300Y18372100D02*
X1363100Y18376100D01*
X1369900Y18378700D01*
X1377700D01*
X1386500Y18374800D01*
X1393300Y18368200D01*
X1398200Y18360300D01*
X1402100Y18347200D01*
X1403000Y18335400D01*
X1401100Y18323600D01*
X1398200Y18315700D01*
X1392300Y18307900D01*
X1385500Y18302600D01*
X1378700Y18300000D01*
X1371900D01*
X1365100Y18302600D01*
X1359200Y18306600D01*
X1354400Y18311800D01*
G01X1318500Y18365600D02*
X1312700Y18373500D01*
X1305800Y18377400D01*
X1298100Y18378700D01*
X1288300Y18376100D01*
X1281500Y18369500D01*
X1279600Y18361600D01*
X1280500Y18353800D01*
X1284400Y18347200D01*
X1303900Y18334100D01*
X1312700Y18324900D01*
X1318500Y18311800D01*
X1320400Y18300000D01*
X1279600D01*
G01X1221300D02*
X1214500Y18301300D01*
X1206700Y18305200D01*
X1201800Y18311800D01*
X1199900Y18321000D01*
X1201800Y18330200D01*
X1207700Y18338000D01*
X1216400Y18342000D01*
X1226200D01*
X1232000Y18344600D01*
X1236900Y18351200D01*
X1238800Y18360300D01*
X1235900Y18369500D01*
X1229100Y18376100D01*
X1221300Y18378700D01*
X1213500Y18376100D01*
X1206700Y18369500D01*
X1203800Y18360300D01*
X1205700Y18351200D01*
X1210600Y18344600D01*
X1216400Y18342000D01*
X1226200D01*
X1234900Y18338000D01*
X1240800Y18330200D01*
X1242700Y18321000D01*
X1240800Y18311800D01*
X1235900Y18305200D01*
X1228100Y18301300D01*
X1221300Y18300000D01*
G01X1497100Y18992700D02*
X1501100Y18986900D01*
X1503700Y18980100D01*
Y18972300D01*
X1499800Y18963500D01*
X1493200Y18956700D01*
X1485300Y18951800D01*
X1472200Y18947900D01*
X1460400Y18947000D01*
X1448600Y18948900D01*
X1440700Y18951800D01*
X1432900Y18957700D01*
X1427600Y18964500D01*
X1425000Y18971300D01*
Y18978100D01*
X1427600Y18984900D01*
X1431600Y18990800D01*
X1436800Y18995600D01*
G01Y19028600D02*
X1430200Y19034400D01*
X1426300Y19041200D01*
X1425000Y19050000D01*
X1427600Y19058800D01*
X1432900Y19065600D01*
X1442100Y19070400D01*
X1452500Y19071400D01*
X1463000Y19069500D01*
X1469600Y19064600D01*
X1474800Y19057800D01*
X1476200Y19051000D01*
X1474800Y19044200D01*
X1469600Y19035400D01*
X1503700Y19038300D01*
Y19064600D01*
G01Y19128700D02*
X1501100Y19120900D01*
X1494500Y19115100D01*
X1486600Y19111200D01*
X1476200Y19108300D01*
X1464300Y19107300D01*
X1452500Y19108300D01*
X1442100Y19111200D01*
X1434200Y19115100D01*
X1427600Y19120900D01*
X1425000Y19128700D01*
X1427600Y19136500D01*
X1434200Y19142300D01*
X1442100Y19146200D01*
X1452500Y19149100D01*
X1464300Y19150100D01*
X1476200Y19149100D01*
X1486600Y19146200D01*
X1494500Y19142300D01*
X1501100Y19136500D01*
X1503700Y19128700D01*
G01X1357300Y18872100D02*
X1363100Y18876100D01*
X1369900Y18878700D01*
X1377700D01*
X1386500Y18874800D01*
X1393300Y18868200D01*
X1398200Y18860300D01*
X1402100Y18847200D01*
X1403000Y18835400D01*
X1401100Y18823600D01*
X1398200Y18815700D01*
X1392300Y18807900D01*
X1385500Y18802600D01*
X1378700Y18800000D01*
X1371900D01*
X1365100Y18802600D01*
X1359200Y18806600D01*
X1354400Y18811800D01*
G01X1318500Y18865600D02*
X1312700Y18873500D01*
X1305800Y18877400D01*
X1298100Y18878700D01*
X1288300Y18876100D01*
X1281500Y18869500D01*
X1279600Y18861600D01*
X1280500Y18853800D01*
X1284400Y18847200D01*
X1303900Y18834100D01*
X1312700Y18824900D01*
X1318500Y18811800D01*
X1320400Y18800000D01*
X1279600D01*
G01X1223200D02*
X1221300Y18817100D01*
X1218400Y18831500D01*
X1214500Y18844600D01*
X1209600Y18859000D01*
X1201800Y18878700D01*
X1240800D01*
G01X1357300Y19392100D02*
X1363100Y19396100D01*
X1369900Y19398700D01*
X1377700D01*
X1386500Y19394800D01*
X1393300Y19388200D01*
X1398200Y19380300D01*
X1402100Y19367200D01*
X1403000Y19355400D01*
X1401100Y19343600D01*
X1398200Y19335700D01*
X1392300Y19327900D01*
X1385500Y19322600D01*
X1378700Y19320000D01*
X1371900D01*
X1365100Y19322600D01*
X1359200Y19326600D01*
X1354400Y19331800D01*
G01X1318500Y19385600D02*
X1312700Y19393500D01*
X1305800Y19397400D01*
X1298100Y19398700D01*
X1288300Y19396100D01*
X1281500Y19389500D01*
X1279600Y19381600D01*
X1280500Y19373800D01*
X1284400Y19367200D01*
X1303900Y19354100D01*
X1312700Y19344900D01*
X1318500Y19331800D01*
X1320400Y19320000D01*
X1279600D01*
G01X1239800Y19352800D02*
X1233000Y19362000D01*
X1227100Y19367200D01*
X1219400Y19369800D01*
X1212500Y19367200D01*
X1207700Y19362000D01*
X1203800Y19354100D01*
X1202800Y19344900D01*
X1203800Y19337100D01*
X1207700Y19329200D01*
X1213500Y19322600D01*
X1220300Y19320000D01*
X1228100Y19322600D01*
X1234900Y19330500D01*
X1238800Y19342300D01*
X1239800Y19355400D01*
X1237800Y19372500D01*
X1234900Y19381600D01*
X1230100Y19390800D01*
X1223200Y19397400D01*
X1216400Y19398700D01*
X1209600Y19396100D01*
X1204800Y19389500D01*
G01X1357300Y19892100D02*
X1363100Y19896100D01*
X1369900Y19898700D01*
X1377700D01*
X1386500Y19894800D01*
X1393300Y19888200D01*
X1398200Y19880300D01*
X1402100Y19867200D01*
X1403000Y19855400D01*
X1401100Y19843600D01*
X1398200Y19835700D01*
X1392300Y19827900D01*
X1385500Y19822600D01*
X1378700Y19820000D01*
X1371900D01*
X1365100Y19822600D01*
X1359200Y19826600D01*
X1354400Y19831800D01*
G01X1318500Y19885600D02*
X1312700Y19893500D01*
X1305800Y19897400D01*
X1298100Y19898700D01*
X1288300Y19896100D01*
X1281500Y19889500D01*
X1279600Y19881600D01*
X1280500Y19873800D01*
X1284400Y19867200D01*
X1303900Y19854100D01*
X1312700Y19844900D01*
X1318500Y19831800D01*
X1320400Y19820000D01*
X1279600D01*
G01X1242700Y19831800D02*
X1236900Y19825200D01*
X1230100Y19821300D01*
X1221300Y19820000D01*
X1212500Y19822600D01*
X1205700Y19827900D01*
X1200900Y19837100D01*
X1199900Y19847500D01*
X1201800Y19858000D01*
X1206700Y19864600D01*
X1213500Y19869800D01*
X1220300Y19871200D01*
X1227100Y19869800D01*
X1235900Y19864600D01*
X1233000Y19898700D01*
X1206700D01*
G01X1924900Y8927000D02*
Y8836000D01*
X1918500Y8816900D01*
X1905600Y8804200D01*
X1889600Y8800000D01*
X1873500Y8804200D01*
X1860600Y8816900D01*
X1854200Y8836000D01*
Y8927000D01*
G01X1790600Y8905800D02*
X1781000Y8918500D01*
X1769700Y8924900D01*
X1756800Y8927000D01*
X1740700Y8922800D01*
X1729500Y8912200D01*
X1726300Y8899500D01*
X1727900Y8886800D01*
X1734300Y8876200D01*
X1766500Y8855000D01*
X1781000Y8840200D01*
X1790600Y8819000D01*
X1793800Y8800000D01*
X1726300D01*
G01X1630600D02*
X1619300Y8802100D01*
X1606400Y8808500D01*
X1598400Y8819000D01*
X1595200Y8833900D01*
X1598400Y8848700D01*
X1608000Y8861400D01*
X1622500Y8867700D01*
X1638600D01*
X1648200Y8872000D01*
X1656300Y8882500D01*
X1659500Y8897400D01*
X1654700Y8912200D01*
X1643400Y8922800D01*
X1630600Y8927000D01*
X1617700Y8922800D01*
X1606400Y8912200D01*
X1601600Y8897400D01*
X1604800Y8882500D01*
X1612900Y8872000D01*
X1622500Y8867700D01*
X1638600D01*
X1653100Y8861400D01*
X1662700Y8848700D01*
X1665900Y8833900D01*
X1662700Y8819000D01*
X1654700Y8808500D01*
X1641800Y8802100D01*
X1630600Y8800000D01*
G01X1941700Y10540000D02*
Y10667000D01*
X1901500D01*
X1888600Y10660600D01*
X1880600Y10652200D01*
X1877400Y10635200D01*
X1880600Y10618300D01*
X1890200Y10607700D01*
X1901500Y10601400D01*
X1941700D01*
G01X1901500D02*
X1877400Y10540000D01*
G01X1810600Y10592900D02*
X1799400Y10607700D01*
X1789700Y10616200D01*
X1776800Y10620400D01*
X1765600Y10616200D01*
X1757500Y10607700D01*
X1751100Y10595000D01*
X1749500Y10580200D01*
X1751100Y10567500D01*
X1757500Y10554800D01*
X1767200Y10544200D01*
X1778400Y10540000D01*
X1791300Y10544200D01*
X1802600Y10556900D01*
X1809000Y10576000D01*
X1810600Y10597100D01*
X1807400Y10624700D01*
X1802600Y10639500D01*
X1794500Y10654300D01*
X1783300Y10664900D01*
X1772000Y10667000D01*
X1760700Y10662800D01*
X1752700Y10652200D01*
G01X1685900Y10565400D02*
X1676300Y10550600D01*
X1663400Y10542100D01*
X1648900Y10540000D01*
X1636100Y10542100D01*
X1623200Y10552700D01*
X1615200Y10565400D01*
X1613600Y10578100D01*
X1616800Y10592900D01*
X1628000Y10603500D01*
X1639300Y10607700D01*
X1653800D01*
G01X1639300D02*
X1629600Y10614100D01*
X1621600Y10624700D01*
X1618400Y10637400D01*
X1621600Y10650100D01*
X1629600Y10660600D01*
X1644100Y10667000D01*
X1658600Y10664900D01*
X1673100Y10656400D01*
G01X1707300Y17947100D02*
X1713100Y17951100D01*
X1719900Y17953700D01*
X1727700D01*
X1736500Y17949800D01*
X1743300Y17943200D01*
X1748200Y17935300D01*
X1752100Y17922200D01*
X1753000Y17910400D01*
X1751100Y17898600D01*
X1748200Y17890700D01*
X1742300Y17882900D01*
X1735500Y17877600D01*
X1728700Y17875000D01*
X1721900D01*
X1715100Y17877600D01*
X1709200Y17881600D01*
X1704400Y17886800D01*
G01X1671400D02*
X1665600Y17880200D01*
X1658800Y17876300D01*
X1650000Y17875000D01*
X1641200Y17877600D01*
X1634400Y17882900D01*
X1629600Y17892100D01*
X1628600Y17902500D01*
X1630500Y17913000D01*
X1635400Y17919600D01*
X1642200Y17924800D01*
X1649000Y17926200D01*
X1655800Y17924800D01*
X1664600Y17919600D01*
X1661700Y17953700D01*
X1635400D01*
G01X1589800Y17940600D02*
X1584000Y17948500D01*
X1577100Y17952400D01*
X1569400Y17953700D01*
X1559600Y17951100D01*
X1552800Y17944500D01*
X1550900Y17936600D01*
X1551800Y17928800D01*
X1555700Y17922200D01*
X1575200Y17909100D01*
X1584000Y17899900D01*
X1589800Y17886800D01*
X1591700Y17875000D01*
X1550900D01*
G01X1697300Y18892100D02*
X1703100Y18896100D01*
X1709900Y18898700D01*
X1717700D01*
X1726500Y18894800D01*
X1733300Y18888200D01*
X1738200Y18880300D01*
X1742100Y18867200D01*
X1743000Y18855400D01*
X1741100Y18843600D01*
X1738200Y18835700D01*
X1732300Y18827900D01*
X1725500Y18822600D01*
X1718700Y18820000D01*
X1711900D01*
X1705100Y18822600D01*
X1699200Y18826600D01*
X1694400Y18831800D01*
G01X1661400D02*
X1655600Y18825200D01*
X1648800Y18821300D01*
X1640000Y18820000D01*
X1631200Y18822600D01*
X1624400Y18827900D01*
X1619600Y18837100D01*
X1618600Y18847500D01*
X1620500Y18858000D01*
X1625400Y18864600D01*
X1632200Y18869800D01*
X1639000Y18871200D01*
X1645800Y18869800D01*
X1654600Y18864600D01*
X1651700Y18898700D01*
X1625400D01*
G01X1561300Y18820000D02*
Y18898700D01*
X1573000Y18883000D01*
G01Y18820000D02*
X1549600D01*
G01X1500000Y19225000D02*
X1475000Y19200000D01*
G01X1450000Y19175000D02*
Y19200000D01*
G02X1475000Y19225000I25000J0D01*
G01X1500000D01*
X1475000Y19250000D01*
G01X1697300Y19812100D02*
X1703100Y19816100D01*
X1709900Y19818700D01*
X1717700D01*
X1726500Y19814800D01*
X1733300Y19808200D01*
X1738200Y19800300D01*
X1742100Y19787200D01*
X1743000Y19775400D01*
X1741100Y19763600D01*
X1738200Y19755700D01*
X1732300Y19747900D01*
X1725500Y19742600D01*
X1718700Y19740000D01*
X1711900D01*
X1705100Y19742600D01*
X1699200Y19746600D01*
X1694400Y19751800D01*
G01X1661400D02*
X1655600Y19745200D01*
X1648800Y19741300D01*
X1640000Y19740000D01*
X1631200Y19742600D01*
X1624400Y19747900D01*
X1619600Y19757100D01*
X1618600Y19767500D01*
X1620500Y19778000D01*
X1625400Y19784600D01*
X1632200Y19789800D01*
X1639000Y19791200D01*
X1645800Y19789800D01*
X1654600Y19784600D01*
X1651700Y19818700D01*
X1625400D01*
G01X1582700Y19755700D02*
X1576900Y19746600D01*
X1569100Y19741300D01*
X1560300Y19740000D01*
X1552500Y19741300D01*
X1544800Y19747900D01*
X1539900Y19755700D01*
X1538900Y19763600D01*
X1540900Y19772800D01*
X1547700Y19779300D01*
X1554500Y19782000D01*
X1563200D01*
G01X1554500D02*
X1548600Y19785900D01*
X1543800Y19792500D01*
X1541800Y19800300D01*
X1543800Y19808200D01*
X1548600Y19814800D01*
X1557400Y19818700D01*
X1566200Y19817400D01*
X1574900Y19812100D01*
G01X2424900Y8927000D02*
Y8836000D01*
X2418500Y8816900D01*
X2405600Y8804200D01*
X2389600Y8800000D01*
X2373500Y8804200D01*
X2360600Y8816900D01*
X2354200Y8836000D01*
Y8927000D01*
G01X2295400Y8825400D02*
X2285800Y8810600D01*
X2272900Y8802100D01*
X2258400Y8800000D01*
X2245600Y8802100D01*
X2232700Y8812700D01*
X2224700Y8825400D01*
X2223100Y8838100D01*
X2226300Y8852900D01*
X2237500Y8863500D01*
X2248800Y8867700D01*
X2263300D01*
G01X2248800D02*
X2239100Y8874100D01*
X2231100Y8884700D01*
X2227900Y8897400D01*
X2231100Y8910100D01*
X2239100Y8920600D01*
X2253600Y8927000D01*
X2268100Y8924900D01*
X2282600Y8916400D01*
G01X2161100Y8852900D02*
X2149900Y8867700D01*
X2140200Y8876200D01*
X2127300Y8880400D01*
X2116100Y8876200D01*
X2108000Y8867700D01*
X2101600Y8855000D01*
X2100000Y8840200D01*
X2101600Y8827500D01*
X2108000Y8814800D01*
X2117700Y8804200D01*
X2128900Y8800000D01*
X2141800Y8804200D01*
X2153100Y8816900D01*
X2159500Y8836000D01*
X2161100Y8857100D01*
X2157900Y8884700D01*
X2153100Y8899500D01*
X2145000Y8914300D01*
X2133800Y8924900D01*
X2122500Y8927000D01*
X2111200Y8922800D01*
X2103200Y8912200D01*
G01X2441700Y10540000D02*
Y10667000D01*
X2401500D01*
X2388600Y10660600D01*
X2380600Y10652200D01*
X2377400Y10635200D01*
X2380600Y10618300D01*
X2390200Y10607700D01*
X2401500Y10601400D01*
X2441700D01*
G01X2401500D02*
X2377400Y10540000D01*
G01X2283300D02*
X2280100Y10567500D01*
X2275200Y10590800D01*
X2268800Y10612000D01*
X2260700Y10635200D01*
X2247900Y10667000D01*
X2312200D01*
G01X2177900Y10554800D02*
X2166600Y10544200D01*
X2153800Y10540000D01*
X2140900Y10544200D01*
X2129600Y10556900D01*
X2121600Y10576000D01*
X2118400Y10595000D01*
Y10618300D01*
X2121600Y10637400D01*
X2129600Y10654300D01*
X2139300Y10662800D01*
X2150600Y10667000D01*
X2163400Y10662800D01*
X2173100Y10654300D01*
X2179500Y10641600D01*
X2182700Y10624700D01*
X2179500Y10609900D01*
X2171500Y10595000D01*
X2161800Y10586600D01*
X2150600Y10584400D01*
X2137700Y10588700D01*
X2128000Y10599300D01*
X2118400Y10618300D01*
G01X2434200Y14516400D02*
X2443800Y14522800D01*
X2455100Y14527000D01*
X2467900D01*
X2482400Y14520600D01*
X2493700Y14510100D01*
X2501700Y14497400D01*
X2508200Y14476200D01*
X2509800Y14457100D01*
X2506500Y14438100D01*
X2501700Y14425400D01*
X2492100Y14412700D01*
X2480800Y14404200D01*
X2469600Y14400000D01*
X2458300D01*
X2447000Y14404200D01*
X2437400Y14410600D01*
X2429300Y14419000D01*
G01X2375400Y14425400D02*
X2365800Y14410600D01*
X2352900Y14402100D01*
X2338400Y14400000D01*
X2325600Y14402100D01*
X2312700Y14412700D01*
X2304700Y14425400D01*
X2303100Y14438100D01*
X2306300Y14452900D01*
X2317500Y14463500D01*
X2328800Y14467700D01*
X2343300D01*
G01X2328800D02*
X2319100Y14474100D01*
X2311100Y14484700D01*
X2307900Y14497400D01*
X2311100Y14510100D01*
X2319100Y14520600D01*
X2333600Y14527000D01*
X2348100Y14524900D01*
X2362600Y14516400D01*
G01X2210600Y14400000D02*
X2199300Y14402100D01*
X2186400Y14408500D01*
X2178400Y14419000D01*
X2175200Y14433900D01*
X2178400Y14448700D01*
X2188000Y14461400D01*
X2202500Y14467700D01*
X2218600D01*
X2228200Y14472000D01*
X2236300Y14482500D01*
X2239500Y14497400D01*
X2234700Y14512200D01*
X2223400Y14522800D01*
X2210600Y14527000D01*
X2197700Y14522800D01*
X2186400Y14512200D01*
X2181600Y14497400D01*
X2184800Y14482500D01*
X2192900Y14472000D01*
X2202500Y14467700D01*
X2218600D01*
X2233100Y14461400D01*
X2242700Y14448700D01*
X2245900Y14433900D01*
X2242700Y14419000D01*
X2234700Y14408500D01*
X2221800Y14402100D01*
X2210600Y14400000D01*
G01X2589900Y18096500D02*
Y18223500D01*
X2549700D01*
X2536800Y18217100D01*
X2528800Y18208700D01*
X2525600Y18191700D01*
X2528800Y18174800D01*
X2538400Y18164200D01*
X2549700Y18157900D01*
X2589900D01*
G01X2549700D02*
X2525600Y18096500D01*
G01X2465200D02*
Y18223500D01*
X2391300Y18096500D01*
Y18223500D01*
G01X2298800Y18096500D02*
Y18223500D01*
X2318100Y18198100D01*
G01Y18096500D02*
X2279500D01*
G01X2199800Y18202300D02*
X2190200Y18215000D01*
X2178900Y18221400D01*
X2166000Y18223500D01*
X2149900Y18219300D01*
X2138700Y18208700D01*
X2135500Y18196000D01*
X2137100Y18183300D01*
X2143500Y18172700D01*
X2175700Y18151500D01*
X2190200Y18136700D01*
X2199800Y18115500D01*
X2203000Y18096500D01*
X2135500D01*
G01X2525100Y18536400D02*
Y18663400D01*
X2484900D01*
X2472000Y18657000D01*
X2464000Y18648600D01*
X2460800Y18631600D01*
X2464000Y18614700D01*
X2473600Y18604100D01*
X2484900Y18597800D01*
X2525100D01*
G01X2484900D02*
X2460800Y18536400D01*
G01X2400400D02*
Y18663400D01*
X2326500Y18536400D01*
Y18663400D01*
G01X2261300Y18551200D02*
X2250000Y18540600D01*
X2237200Y18536400D01*
X2224300Y18540600D01*
X2213000Y18553300D01*
X2205000Y18572400D01*
X2201800Y18591400D01*
Y18614700D01*
X2205000Y18633800D01*
X2213000Y18650700D01*
X2222700Y18659200D01*
X2234000Y18663400D01*
X2246800Y18659200D01*
X2256500Y18650700D01*
X2262900Y18638000D01*
X2266100Y18621100D01*
X2262900Y18606300D01*
X2254900Y18591400D01*
X2245200Y18583000D01*
X2234000Y18580800D01*
X2221100Y18585100D01*
X2211400Y18595700D01*
X2201800Y18614700D01*
G01X2525100Y19476400D02*
Y19603400D01*
X2484900D01*
X2472000Y19597000D01*
X2464000Y19588600D01*
X2460800Y19571600D01*
X2464000Y19554700D01*
X2473600Y19544100D01*
X2484900Y19537800D01*
X2525100D01*
G01X2484900D02*
X2460800Y19476400D01*
G01X2400400D02*
Y19603400D01*
X2326500Y19476400D01*
Y19603400D01*
G01X2269300Y19501800D02*
X2259700Y19487000D01*
X2246800Y19478500D01*
X2232300Y19476400D01*
X2219500Y19478500D01*
X2206600Y19489100D01*
X2198600Y19501800D01*
X2197000Y19514500D01*
X2200200Y19529300D01*
X2211400Y19539900D01*
X2222700Y19544100D01*
X2237200D01*
G01X2222700D02*
X2213000Y19550500D01*
X2205000Y19561100D01*
X2201800Y19573800D01*
X2205000Y19586500D01*
X2213000Y19597000D01*
X2227500Y19603400D01*
X2242000Y19601300D01*
X2256500Y19592800D01*
G01X2525100Y19036400D02*
Y19163400D01*
X2484900D01*
X2472000Y19157000D01*
X2464000Y19148600D01*
X2460800Y19131600D01*
X2464000Y19114700D01*
X2473600Y19104100D01*
X2484900Y19097800D01*
X2525100D01*
G01X2484900D02*
X2460800Y19036400D01*
G01X2400400D02*
Y19163400D01*
X2326500Y19036400D01*
Y19163400D01*
G01X2264500Y19089300D02*
X2253300Y19104100D01*
X2243600Y19112600D01*
X2230700Y19116800D01*
X2219500Y19112600D01*
X2211400Y19104100D01*
X2205000Y19091400D01*
X2203400Y19076600D01*
X2205000Y19063900D01*
X2211400Y19051200D01*
X2221100Y19040600D01*
X2232300Y19036400D01*
X2245200Y19040600D01*
X2256500Y19053300D01*
X2262900Y19072400D01*
X2264500Y19093500D01*
X2261300Y19121100D01*
X2256500Y19135900D01*
X2248400Y19150700D01*
X2237200Y19161300D01*
X2225900Y19163400D01*
X2214600Y19159200D01*
X2206600Y19148600D01*
G01X2294200Y19956400D02*
X2303800Y19962800D01*
X2315100Y19967000D01*
X2327900D01*
X2342400Y19960600D01*
X2353700Y19950100D01*
X2361700Y19937400D01*
X2368200Y19916200D01*
X2369800Y19897100D01*
X2366500Y19878100D01*
X2361700Y19865400D01*
X2352100Y19852700D01*
X2340800Y19844200D01*
X2329600Y19840000D01*
X2318300D01*
X2307000Y19844200D01*
X2297400Y19850600D01*
X2289300Y19859000D01*
G01X2203300Y19840000D02*
X2200100Y19867500D01*
X2195200Y19890800D01*
X2188800Y19912000D01*
X2180700Y19935200D01*
X2167900Y19967000D01*
X2232200D01*
G01X2070600D02*
X2083400Y19962800D01*
X2093100Y19952200D01*
X2099500Y19939500D01*
X2104300Y19922500D01*
X2105900Y19903500D01*
X2104300Y19884400D01*
X2099500Y19867500D01*
X2093100Y19854800D01*
X2083400Y19844200D01*
X2070600Y19840000D01*
X2057700Y19844200D01*
X2048000Y19854800D01*
X2041600Y19867500D01*
X2036800Y19884400D01*
X2035200Y19903500D01*
X2036800Y19922500D01*
X2041600Y19939500D01*
X2048000Y19952200D01*
X2057700Y19962800D01*
X2070600Y19967000D01*
G01X2924900Y8927000D02*
Y8836000D01*
X2918500Y8816900D01*
X2905600Y8804200D01*
X2889600Y8800000D01*
X2873500Y8804200D01*
X2860600Y8816900D01*
X2854200Y8836000D01*
Y8927000D01*
G01X2790600Y8905800D02*
X2781000Y8918500D01*
X2769700Y8924900D01*
X2756800Y8927000D01*
X2740700Y8922800D01*
X2729500Y8912200D01*
X2726300Y8899500D01*
X2727900Y8886800D01*
X2734300Y8876200D01*
X2766500Y8855000D01*
X2781000Y8840200D01*
X2790600Y8819000D01*
X2793800Y8800000D01*
X2726300D01*
G01X2657900Y8814800D02*
X2646600Y8804200D01*
X2633800Y8800000D01*
X2620900Y8804200D01*
X2609600Y8816900D01*
X2601600Y8836000D01*
X2598400Y8855000D01*
Y8878300D01*
X2601600Y8897400D01*
X2609600Y8914300D01*
X2619300Y8922800D01*
X2630600Y8927000D01*
X2643400Y8922800D01*
X2653100Y8914300D01*
X2659500Y8901600D01*
X2662700Y8884700D01*
X2659500Y8869900D01*
X2651500Y8855000D01*
X2641800Y8846600D01*
X2630600Y8844400D01*
X2617700Y8848700D01*
X2608000Y8859300D01*
X2598400Y8878300D01*
G01X2941700Y10540000D02*
Y10667000D01*
X2901500D01*
X2888600Y10660600D01*
X2880600Y10652200D01*
X2877400Y10635200D01*
X2880600Y10618300D01*
X2890200Y10607700D01*
X2901500Y10601400D01*
X2941700D01*
G01X2901500D02*
X2877400Y10540000D01*
G01X2810600Y10592900D02*
X2799400Y10607700D01*
X2789700Y10616200D01*
X2776800Y10620400D01*
X2765600Y10616200D01*
X2757500Y10607700D01*
X2751100Y10595000D01*
X2749500Y10580200D01*
X2751100Y10567500D01*
X2757500Y10554800D01*
X2767200Y10544200D01*
X2778400Y10540000D01*
X2791300Y10544200D01*
X2802600Y10556900D01*
X2809000Y10576000D01*
X2810600Y10597100D01*
X2807400Y10624700D01*
X2802600Y10639500D01*
X2794500Y10654300D01*
X2783300Y10664900D01*
X2772000Y10667000D01*
X2760700Y10662800D01*
X2752700Y10652200D01*
G01X2685900Y10559000D02*
X2676300Y10548500D01*
X2665000Y10542100D01*
X2650600Y10540000D01*
X2636100Y10544200D01*
X2624800Y10552700D01*
X2616800Y10567500D01*
X2615200Y10584400D01*
X2618400Y10601400D01*
X2626400Y10612000D01*
X2637700Y10620400D01*
X2648900Y10622500D01*
X2660200Y10620400D01*
X2674700Y10612000D01*
X2669900Y10667000D01*
X2626400D01*
G01X3014200Y15256400D02*
X3023800Y15262800D01*
X3035100Y15267000D01*
X3047900D01*
X3062400Y15260600D01*
X3073700Y15250100D01*
X3081700Y15237400D01*
X3088200Y15216200D01*
X3089800Y15197100D01*
X3086500Y15178100D01*
X3081700Y15165400D01*
X3072100Y15152700D01*
X3060800Y15144200D01*
X3049600Y15140000D01*
X3038300D01*
X3027000Y15144200D01*
X3017400Y15150600D01*
X3009300Y15159000D01*
G01X2923300Y15140000D02*
X2920100Y15167500D01*
X2915200Y15190800D01*
X2908800Y15212000D01*
X2900700Y15235200D01*
X2887900Y15267000D01*
X2952200D01*
G01X2825900Y15165400D02*
X2816300Y15150600D01*
X2803400Y15142100D01*
X2788900Y15140000D01*
X2776100Y15142100D01*
X2763200Y15152700D01*
X2755200Y15165400D01*
X2753600Y15178100D01*
X2756800Y15192900D01*
X2768000Y15203500D01*
X2779300Y15207700D01*
X2793800D01*
G01X2779300D02*
X2769600Y15214100D01*
X2761600Y15224700D01*
X2758400Y15237400D01*
X2761600Y15250100D01*
X2769600Y15260600D01*
X2784100Y15267000D01*
X2798600Y15264900D01*
X2813100Y15256400D01*
G01X2994200Y16356400D02*
X3003800Y16362800D01*
X3015100Y16367000D01*
X3027900D01*
X3042400Y16360600D01*
X3053700Y16350100D01*
X3061700Y16337400D01*
X3068200Y16316200D01*
X3069800Y16297100D01*
X3066500Y16278100D01*
X3061700Y16265400D01*
X3052100Y16252700D01*
X3040800Y16244200D01*
X3029600Y16240000D01*
X3018300D01*
X3007000Y16244200D01*
X2997400Y16250600D01*
X2989300Y16259000D01*
G01X2903300Y16240000D02*
X2900100Y16267500D01*
X2895200Y16290800D01*
X2888800Y16312000D01*
X2880700Y16335200D01*
X2867900Y16367000D01*
X2932200D01*
G01X2801100Y16345800D02*
X2791500Y16358500D01*
X2780200Y16364900D01*
X2767300Y16367000D01*
X2751200Y16362800D01*
X2740000Y16352200D01*
X2736800Y16339500D01*
X2738400Y16326800D01*
X2744800Y16316200D01*
X2777000Y16295000D01*
X2791500Y16280200D01*
X2801100Y16259000D01*
X2804300Y16240000D01*
X2736800D01*
G01X3154200Y18956400D02*
X3163800Y18962800D01*
X3175100Y18967000D01*
X3187900D01*
X3202400Y18960600D01*
X3213700Y18950100D01*
X3221700Y18937400D01*
X3228200Y18916200D01*
X3229800Y18897100D01*
X3226500Y18878100D01*
X3221700Y18865400D01*
X3212100Y18852700D01*
X3200800Y18844200D01*
X3189600Y18840000D01*
X3178300D01*
X3167000Y18844200D01*
X3157400Y18850600D01*
X3149300Y18859000D01*
G01X3063300Y18840000D02*
X3060100Y18867500D01*
X3055200Y18890800D01*
X3048800Y18912000D01*
X3040700Y18935200D01*
X3027900Y18967000D01*
X3092200D01*
G01X2930600Y18840000D02*
Y18967000D01*
X2949900Y18941600D01*
G01Y18840000D02*
X2911300D01*
G01X3446400Y20280000D02*
Y20407000D01*
X3406200D01*
X3393300Y20400600D01*
X3385300Y20392200D01*
X3382100Y20375200D01*
X3385300Y20358300D01*
X3394900Y20347700D01*
X3406200Y20341400D01*
X3446400D01*
G01X3406200D02*
X3382100Y20280000D01*
G01X3284800D02*
Y20407000D01*
X3304100Y20381600D01*
G01Y20280000D02*
X3265500D01*
G01X3135900D02*
Y20407000D01*
X3195500Y20316000D01*
X3115000D01*
G01X3025800Y20280000D02*
X3014500Y20282100D01*
X3001600Y20288500D01*
X2993600Y20299000D01*
X2990400Y20313900D01*
X2993600Y20328700D01*
X3003200Y20341400D01*
X3017700Y20347700D01*
X3033800D01*
X3043400Y20352000D01*
X3051500Y20362500D01*
X3054700Y20377400D01*
X3049900Y20392200D01*
X3038600Y20402800D01*
X3025800Y20407000D01*
X3012900Y20402800D01*
X3001600Y20392200D01*
X2996800Y20377400D01*
X3000000Y20362500D01*
X3008100Y20352000D01*
X3017700Y20347700D01*
X3033800D01*
X3048300Y20341400D01*
X3057900Y20328700D01*
X3061100Y20313900D01*
X3057900Y20299000D01*
X3049900Y20288500D01*
X3037000Y20282100D01*
X3025800Y20280000D01*
G01X3424900Y8927000D02*
Y8836000D01*
X3418500Y8816900D01*
X3405600Y8804200D01*
X3389600Y8800000D01*
X3373500Y8804200D01*
X3360600Y8816900D01*
X3354200Y8836000D01*
Y8927000D01*
G01X3295400Y8825400D02*
X3285800Y8810600D01*
X3272900Y8802100D01*
X3258400Y8800000D01*
X3245600Y8802100D01*
X3232700Y8812700D01*
X3224700Y8825400D01*
X3223100Y8838100D01*
X3226300Y8852900D01*
X3237500Y8863500D01*
X3248800Y8867700D01*
X3263300D01*
G01X3248800D02*
X3239100Y8874100D01*
X3231100Y8884700D01*
X3227900Y8897400D01*
X3231100Y8910100D01*
X3239100Y8920600D01*
X3253600Y8927000D01*
X3268100Y8924900D01*
X3282600Y8916400D01*
G01X3133800Y8800000D02*
X3130600Y8827500D01*
X3125700Y8850800D01*
X3119300Y8872000D01*
X3111200Y8895200D01*
X3098400Y8927000D01*
X3162700D01*
G01X3441700Y10540000D02*
Y10667000D01*
X3401500D01*
X3388600Y10660600D01*
X3380600Y10652200D01*
X3377400Y10635200D01*
X3380600Y10618300D01*
X3390200Y10607700D01*
X3401500Y10601400D01*
X3441700D01*
G01X3401500D02*
X3377400Y10540000D01*
G01X3280100D02*
X3268800Y10542100D01*
X3255900Y10548500D01*
X3247900Y10559000D01*
X3244700Y10573900D01*
X3247900Y10588700D01*
X3257500Y10601400D01*
X3272000Y10607700D01*
X3288100D01*
X3297700Y10612000D01*
X3305800Y10622500D01*
X3309000Y10637400D01*
X3304200Y10652200D01*
X3292900Y10662800D01*
X3280100Y10667000D01*
X3267200Y10662800D01*
X3255900Y10652200D01*
X3251100Y10637400D01*
X3254300Y10622500D01*
X3262400Y10612000D01*
X3272000Y10607700D01*
X3288100D01*
X3302600Y10601400D01*
X3312200Y10588700D01*
X3315400Y10573900D01*
X3312200Y10559000D01*
X3304200Y10548500D01*
X3291300Y10542100D01*
X3280100Y10540000D01*
G01X3150600D02*
Y10667000D01*
X3169900Y10641600D01*
G01Y10540000D02*
X3131300D01*
G01X3474200Y19976400D02*
X3483800Y19982800D01*
X3495100Y19987000D01*
X3507900D01*
X3522400Y19980600D01*
X3533700Y19970100D01*
X3541700Y19957400D01*
X3548200Y19936200D01*
X3549800Y19917100D01*
X3546500Y19898100D01*
X3541700Y19885400D01*
X3532100Y19872700D01*
X3520800Y19864200D01*
X3509600Y19860000D01*
X3498300D01*
X3487000Y19864200D01*
X3477400Y19870600D01*
X3469300Y19879000D01*
G01X3415400Y19885400D02*
X3405800Y19870600D01*
X3392900Y19862100D01*
X3378400Y19860000D01*
X3365600Y19862100D01*
X3352700Y19872700D01*
X3344700Y19885400D01*
X3343100Y19898100D01*
X3346300Y19912900D01*
X3357500Y19923500D01*
X3368800Y19927700D01*
X3383300D01*
G01X3368800D02*
X3359100Y19934100D01*
X3351100Y19944700D01*
X3347900Y19957400D01*
X3351100Y19970100D01*
X3359100Y19980600D01*
X3373600Y19987000D01*
X3388100Y19984900D01*
X3402600Y19976400D01*
G01X3285900Y19885400D02*
X3276300Y19870600D01*
X3263400Y19862100D01*
X3248900Y19860000D01*
X3236100Y19862100D01*
X3223200Y19872700D01*
X3215200Y19885400D01*
X3213600Y19898100D01*
X3216800Y19912900D01*
X3228000Y19923500D01*
X3239300Y19927700D01*
X3253800D01*
G01X3239300D02*
X3229600Y19934100D01*
X3221600Y19944700D01*
X3218400Y19957400D01*
X3221600Y19970100D01*
X3229600Y19980600D01*
X3244100Y19987000D01*
X3258600Y19984900D01*
X3273100Y19976400D01*
G01X3840100Y8927000D02*
Y8836000D01*
X3833700Y8816900D01*
X3820800Y8804200D01*
X3804800Y8800000D01*
X3788700Y8804200D01*
X3775800Y8816900D01*
X3769400Y8836000D01*
Y8927000D01*
G01X3702600Y8814800D02*
X3691300Y8804200D01*
X3678500Y8800000D01*
X3665600Y8804200D01*
X3654300Y8816900D01*
X3646300Y8836000D01*
X3643100Y8855000D01*
Y8878300D01*
X3646300Y8897400D01*
X3654300Y8914300D01*
X3664000Y8922800D01*
X3675300Y8927000D01*
X3688100Y8922800D01*
X3697800Y8914300D01*
X3704200Y8901600D01*
X3707400Y8884700D01*
X3704200Y8869900D01*
X3696200Y8855000D01*
X3686500Y8846600D01*
X3675300Y8844400D01*
X3662400Y8848700D01*
X3652700Y8859300D01*
X3643100Y8878300D01*
G01X3941700Y9800000D02*
Y9927000D01*
X3901500D01*
X3888600Y9920600D01*
X3880600Y9912200D01*
X3877400Y9895200D01*
X3880600Y9878300D01*
X3890200Y9867700D01*
X3901500Y9861400D01*
X3941700D01*
G01X3901500D02*
X3877400Y9800000D01*
G01X3780100D02*
Y9927000D01*
X3799400Y9901600D01*
G01Y9800000D02*
X3760800D01*
G01X3650600Y9927000D02*
X3663400Y9922800D01*
X3673100Y9912200D01*
X3679500Y9899500D01*
X3684300Y9882500D01*
X3685900Y9863500D01*
X3684300Y9844400D01*
X3679500Y9827500D01*
X3673100Y9814800D01*
X3663400Y9804200D01*
X3650600Y9800000D01*
X3637700Y9804200D01*
X3628000Y9814800D01*
X3621600Y9827500D01*
X3616800Y9844400D01*
X3615200Y9863500D01*
X3616800Y9882500D01*
X3621600Y9899500D01*
X3628000Y9912200D01*
X3637700Y9922800D01*
X3650600Y9927000D01*
G01X3876900Y10540000D02*
Y10667000D01*
X3836700D01*
X3823800Y10660600D01*
X3815800Y10652200D01*
X3812600Y10635200D01*
X3815800Y10618300D01*
X3825400Y10607700D01*
X3836700Y10601400D01*
X3876900D01*
G01X3836700D02*
X3812600Y10540000D01*
G01X3742600Y10554800D02*
X3731300Y10544200D01*
X3718500Y10540000D01*
X3705600Y10544200D01*
X3694300Y10556900D01*
X3686300Y10576000D01*
X3683100Y10595000D01*
Y10618300D01*
X3686300Y10637400D01*
X3694300Y10654300D01*
X3704000Y10662800D01*
X3715300Y10667000D01*
X3728100Y10662800D01*
X3737800Y10654300D01*
X3744200Y10641600D01*
X3747400Y10624700D01*
X3744200Y10609900D01*
X3736200Y10595000D01*
X3726500Y10586600D01*
X3715300Y10584400D01*
X3702400Y10588700D01*
X3692700Y10599300D01*
X3683100Y10618300D01*
G01X4234200Y15256400D02*
X4243800Y15262800D01*
X4255100Y15267000D01*
X4267900D01*
X4282400Y15260600D01*
X4293700Y15250100D01*
X4301700Y15237400D01*
X4308200Y15216200D01*
X4309800Y15197100D01*
X4306500Y15178100D01*
X4301700Y15165400D01*
X4292100Y15152700D01*
X4280800Y15144200D01*
X4269600Y15140000D01*
X4258300D01*
X4247000Y15144200D01*
X4237400Y15150600D01*
X4229300Y15159000D01*
G01X4175400Y15165400D02*
X4165800Y15150600D01*
X4152900Y15142100D01*
X4138400Y15140000D01*
X4125600Y15142100D01*
X4112700Y15152700D01*
X4104700Y15165400D01*
X4103100Y15178100D01*
X4106300Y15192900D01*
X4117500Y15203500D01*
X4128800Y15207700D01*
X4143300D01*
G01X4128800D02*
X4119100Y15214100D01*
X4111100Y15224700D01*
X4107900Y15237400D01*
X4111100Y15250100D01*
X4119100Y15260600D01*
X4133600Y15267000D01*
X4148100Y15264900D01*
X4162600Y15256400D01*
G01X4041100Y15192900D02*
X4029900Y15207700D01*
X4020200Y15216200D01*
X4007300Y15220400D01*
X3996100Y15216200D01*
X3988000Y15207700D01*
X3981600Y15195000D01*
X3980000Y15180200D01*
X3981600Y15167500D01*
X3988000Y15154800D01*
X3997700Y15144200D01*
X4008900Y15140000D01*
X4021800Y15144200D01*
X4033100Y15156900D01*
X4039500Y15176000D01*
X4041100Y15197100D01*
X4037900Y15224700D01*
X4033100Y15239500D01*
X4025000Y15254300D01*
X4013800Y15264900D01*
X4002500Y15267000D01*
X3991200Y15262800D01*
X3983200Y15252200D01*
G01X4074200Y16356400D02*
X4083800Y16362800D01*
X4095100Y16367000D01*
X4107900D01*
X4122400Y16360600D01*
X4133700Y16350100D01*
X4141700Y16337400D01*
X4148200Y16316200D01*
X4149800Y16297100D01*
X4146500Y16278100D01*
X4141700Y16265400D01*
X4132100Y16252700D01*
X4120800Y16244200D01*
X4109600Y16240000D01*
X4098300D01*
X4087000Y16244200D01*
X4077400Y16250600D01*
X4069300Y16259000D01*
G01X4015400Y16265400D02*
X4005800Y16250600D01*
X3992900Y16242100D01*
X3978400Y16240000D01*
X3965600Y16242100D01*
X3952700Y16252700D01*
X3944700Y16265400D01*
X3943100Y16278100D01*
X3946300Y16292900D01*
X3957500Y16303500D01*
X3968800Y16307700D01*
X3983300D01*
G01X3968800D02*
X3959100Y16314100D01*
X3951100Y16324700D01*
X3947900Y16337400D01*
X3951100Y16350100D01*
X3959100Y16360600D01*
X3973600Y16367000D01*
X3988100Y16364900D01*
X4002600Y16356400D01*
G01X3885900Y16259000D02*
X3876300Y16248500D01*
X3865000Y16242100D01*
X3850600Y16240000D01*
X3836100Y16244200D01*
X3824800Y16252700D01*
X3816800Y16267500D01*
X3815200Y16284400D01*
X3818400Y16301400D01*
X3826400Y16312000D01*
X3837700Y16320400D01*
X3848900Y16322500D01*
X3860200Y16320400D01*
X3874700Y16312000D01*
X3869900Y16367000D01*
X3826400D01*
G01X4234200Y18956400D02*
X4243800Y18962800D01*
X4255100Y18967000D01*
X4267900D01*
X4282400Y18960600D01*
X4293700Y18950100D01*
X4301700Y18937400D01*
X4308200Y18916200D01*
X4309800Y18897100D01*
X4306500Y18878100D01*
X4301700Y18865400D01*
X4292100Y18852700D01*
X4280800Y18844200D01*
X4269600Y18840000D01*
X4258300D01*
X4247000Y18844200D01*
X4237400Y18850600D01*
X4229300Y18859000D01*
G01X4175400Y18865400D02*
X4165800Y18850600D01*
X4152900Y18842100D01*
X4138400Y18840000D01*
X4125600Y18842100D01*
X4112700Y18852700D01*
X4104700Y18865400D01*
X4103100Y18878100D01*
X4106300Y18892900D01*
X4117500Y18903500D01*
X4128800Y18907700D01*
X4143300D01*
G01X4128800D02*
X4119100Y18914100D01*
X4111100Y18924700D01*
X4107900Y18937400D01*
X4111100Y18950100D01*
X4119100Y18960600D01*
X4133600Y18967000D01*
X4148100Y18964900D01*
X4162600Y18956400D01*
G01X3991200Y18840000D02*
Y18967000D01*
X4050800Y18876000D01*
X3970300D01*
G01X4424900Y8927000D02*
Y8836000D01*
X4418500Y8816900D01*
X4405600Y8804200D01*
X4389600Y8800000D01*
X4373500Y8804200D01*
X4360600Y8816900D01*
X4354200Y8836000D01*
Y8927000D01*
G01X4260100Y8800000D02*
Y8927000D01*
X4279400Y8901600D01*
G01Y8800000D02*
X4240800D01*
G01X4130600Y8927000D02*
X4143400Y8922800D01*
X4153100Y8912200D01*
X4159500Y8899500D01*
X4164300Y8882500D01*
X4165900Y8863500D01*
X4164300Y8844400D01*
X4159500Y8827500D01*
X4153100Y8814800D01*
X4143400Y8804200D01*
X4130600Y8800000D01*
X4117700Y8804200D01*
X4108000Y8814800D01*
X4101600Y8827500D01*
X4096800Y8844400D01*
X4095200Y8863500D01*
X4096800Y8882500D01*
X4101600Y8899500D01*
X4108000Y8912200D01*
X4117700Y8922800D01*
X4130600Y8927000D01*
G01X4924900D02*
Y8836000D01*
X4918500Y8816900D01*
X4905600Y8804200D01*
X4889600Y8800000D01*
X4873500Y8804200D01*
X4860600Y8816900D01*
X4854200Y8836000D01*
Y8927000D01*
G01X4760100Y8800000D02*
Y8927000D01*
X4779400Y8901600D01*
G01Y8800000D02*
X4740800D01*
G01X4630600D02*
Y8927000D01*
X4649900Y8901600D01*
G01Y8800000D02*
X4611300D01*
G01X4441700Y9800000D02*
Y9927000D01*
X4401500D01*
X4388600Y9920600D01*
X4380600Y9912200D01*
X4377400Y9895200D01*
X4380600Y9878300D01*
X4390200Y9867700D01*
X4401500Y9861400D01*
X4441700D01*
G01X4401500D02*
X4377400Y9800000D01*
G01X4280100D02*
Y9927000D01*
X4299400Y9901600D01*
G01Y9800000D02*
X4260800D01*
G01X4185900Y9825400D02*
X4176300Y9810600D01*
X4163400Y9802100D01*
X4148900Y9800000D01*
X4136100Y9802100D01*
X4123200Y9812700D01*
X4115200Y9825400D01*
X4113600Y9838100D01*
X4116800Y9852900D01*
X4128000Y9863500D01*
X4139300Y9867700D01*
X4153800D01*
G01X4139300D02*
X4129600Y9874100D01*
X4121600Y9884700D01*
X4118400Y9897400D01*
X4121600Y9910100D01*
X4129600Y9920600D01*
X4144100Y9927000D01*
X4158600Y9924900D01*
X4173100Y9916400D01*
G01X4441700Y10540000D02*
Y10667000D01*
X4401500D01*
X4388600Y10660600D01*
X4380600Y10652200D01*
X4377400Y10635200D01*
X4380600Y10618300D01*
X4390200Y10607700D01*
X4401500Y10601400D01*
X4441700D01*
G01X4401500D02*
X4377400Y10540000D01*
G01X4280100D02*
Y10667000D01*
X4299400Y10641600D01*
G01Y10540000D02*
X4260800D01*
G01X4181100Y10645800D02*
X4171500Y10658500D01*
X4160200Y10664900D01*
X4147300Y10667000D01*
X4131200Y10662800D01*
X4120000Y10652200D01*
X4116800Y10639500D01*
X4118400Y10626800D01*
X4124800Y10616200D01*
X4157000Y10595000D01*
X4171500Y10580200D01*
X4181100Y10559000D01*
X4184300Y10540000D01*
X4116800D01*
G01X4656900Y18540000D02*
Y18667000D01*
X4616700D01*
X4603800Y18660600D01*
X4595800Y18652200D01*
X4592600Y18635200D01*
X4595800Y18618300D01*
X4605400Y18607700D01*
X4616700Y18601400D01*
X4656900D01*
G01X4616700D02*
X4592600Y18540000D01*
G01X4530600Y18559000D02*
X4521000Y18548500D01*
X4509700Y18542100D01*
X4495300Y18540000D01*
X4480800Y18544200D01*
X4469500Y18552700D01*
X4461500Y18567500D01*
X4459900Y18584400D01*
X4463100Y18601400D01*
X4471100Y18612000D01*
X4482400Y18620400D01*
X4493600Y18622500D01*
X4504900Y18620400D01*
X4519400Y18612000D01*
X4514600Y18667000D01*
X4471100D01*
G01X4606400Y20300000D02*
Y20427000D01*
X4566200D01*
X4553300Y20420600D01*
X4545300Y20412200D01*
X4542100Y20395200D01*
X4545300Y20378300D01*
X4554900Y20367700D01*
X4566200Y20361400D01*
X4606400D01*
G01X4566200D02*
X4542100Y20300000D01*
G01X4444800D02*
Y20427000D01*
X4464100Y20401600D01*
G01Y20300000D02*
X4425500D01*
G01X4295900D02*
Y20427000D01*
X4355500Y20336000D01*
X4275000D01*
G01X4189000Y20300000D02*
X4185800Y20327500D01*
X4180900Y20350800D01*
X4174500Y20372000D01*
X4166400Y20395200D01*
X4153600Y20427000D01*
X4217900D01*
G01X5424900Y8927000D02*
Y8836000D01*
X5418500Y8816900D01*
X5405600Y8804200D01*
X5389600Y8800000D01*
X5373500Y8804200D01*
X5360600Y8816900D01*
X5354200Y8836000D01*
Y8927000D01*
G01X5260100Y8800000D02*
Y8927000D01*
X5279400Y8901600D01*
G01Y8800000D02*
X5240800D01*
G01X5161100Y8905800D02*
X5151500Y8918500D01*
X5140200Y8924900D01*
X5127300Y8927000D01*
X5111200Y8922800D01*
X5100000Y8912200D01*
X5096800Y8899500D01*
X5098400Y8886800D01*
X5104800Y8876200D01*
X5137000Y8855000D01*
X5151500Y8840200D01*
X5161100Y8819000D01*
X5164300Y8800000D01*
X5096800D01*
G01X4941700Y9800000D02*
Y9927000D01*
X4901500D01*
X4888600Y9920600D01*
X4880600Y9912200D01*
X4877400Y9895200D01*
X4880600Y9878300D01*
X4890200Y9867700D01*
X4901500Y9861400D01*
X4941700D01*
G01X4901500D02*
X4877400Y9800000D01*
G01X4780100D02*
Y9927000D01*
X4799400Y9901600D01*
G01Y9800000D02*
X4760800D01*
G01X4681100Y9852900D02*
X4669900Y9867700D01*
X4660200Y9876200D01*
X4647300Y9880400D01*
X4636100Y9876200D01*
X4628000Y9867700D01*
X4621600Y9855000D01*
X4620000Y9840200D01*
X4621600Y9827500D01*
X4628000Y9814800D01*
X4637700Y9804200D01*
X4648900Y9800000D01*
X4661800Y9804200D01*
X4673100Y9816900D01*
X4679500Y9836000D01*
X4681100Y9857100D01*
X4677900Y9884700D01*
X4673100Y9899500D01*
X4665000Y9914300D01*
X4653800Y9924900D01*
X4642500Y9927000D01*
X4631200Y9922800D01*
X4623200Y9912200D01*
G01X5441700Y9800000D02*
Y9927000D01*
X5401500D01*
X5388600Y9920600D01*
X5380600Y9912200D01*
X5377400Y9895200D01*
X5380600Y9878300D01*
X5390200Y9867700D01*
X5401500Y9861400D01*
X5441700D01*
G01X5401500D02*
X5377400Y9800000D01*
G01X5280100D02*
Y9927000D01*
X5299400Y9901600D01*
G01Y9800000D02*
X5260800D01*
G01X5177900Y9814800D02*
X5166600Y9804200D01*
X5153800Y9800000D01*
X5140900Y9804200D01*
X5129600Y9816900D01*
X5121600Y9836000D01*
X5118400Y9855000D01*
Y9878300D01*
X5121600Y9897400D01*
X5129600Y9914300D01*
X5139300Y9922800D01*
X5150600Y9927000D01*
X5163400Y9922800D01*
X5173100Y9914300D01*
X5179500Y9901600D01*
X5182700Y9884700D01*
X5179500Y9869900D01*
X5171500Y9855000D01*
X5161800Y9846600D01*
X5150600Y9844400D01*
X5137700Y9848700D01*
X5128000Y9859300D01*
X5118400Y9878300D01*
G01X4941700Y10540000D02*
Y10667000D01*
X4901500D01*
X4888600Y10660600D01*
X4880600Y10652200D01*
X4877400Y10635200D01*
X4880600Y10618300D01*
X4890200Y10607700D01*
X4901500Y10601400D01*
X4941700D01*
G01X4901500D02*
X4877400Y10540000D01*
G01X4780100D02*
Y10667000D01*
X4799400Y10641600D01*
G01Y10540000D02*
X4760800D01*
G01X4685900Y10559000D02*
X4676300Y10548500D01*
X4665000Y10542100D01*
X4650600Y10540000D01*
X4636100Y10544200D01*
X4624800Y10552700D01*
X4616800Y10567500D01*
X4615200Y10584400D01*
X4618400Y10601400D01*
X4626400Y10612000D01*
X4637700Y10620400D01*
X4648900Y10622500D01*
X4660200Y10620400D01*
X4674700Y10612000D01*
X4669900Y10667000D01*
X4626400D01*
G01X5441700Y10540000D02*
Y10667000D01*
X5401500D01*
X5388600Y10660600D01*
X5380600Y10652200D01*
X5377400Y10635200D01*
X5380600Y10618300D01*
X5390200Y10607700D01*
X5401500Y10601400D01*
X5441700D01*
G01X5401500D02*
X5377400Y10540000D01*
G01X5280100D02*
Y10667000D01*
X5299400Y10641600D01*
G01Y10540000D02*
X5260800D01*
G01X5150600D02*
X5139300Y10542100D01*
X5126400Y10548500D01*
X5118400Y10559000D01*
X5115200Y10573900D01*
X5118400Y10588700D01*
X5128000Y10601400D01*
X5142500Y10607700D01*
X5158600D01*
X5168200Y10612000D01*
X5176300Y10622500D01*
X5179500Y10637400D01*
X5174700Y10652200D01*
X5163400Y10662800D01*
X5150600Y10667000D01*
X5137700Y10662800D01*
X5126400Y10652200D01*
X5121600Y10637400D01*
X5124800Y10622500D01*
X5132900Y10612000D01*
X5142500Y10607700D01*
X5158600D01*
X5173100Y10601400D01*
X5182700Y10588700D01*
X5185900Y10573900D01*
X5182700Y10559000D01*
X5174700Y10548500D01*
X5161800Y10542100D01*
X5150600Y10540000D01*
G01X5924900Y8927000D02*
Y8836000D01*
X5918500Y8816900D01*
X5905600Y8804200D01*
X5889600Y8800000D01*
X5873500Y8804200D01*
X5860600Y8816900D01*
X5854200Y8836000D01*
Y8927000D01*
G01X5760100Y8800000D02*
Y8927000D01*
X5779400Y8901600D01*
G01Y8800000D02*
X5740800D01*
G01X5665900Y8825400D02*
X5656300Y8810600D01*
X5643400Y8802100D01*
X5628900Y8800000D01*
X5616100Y8802100D01*
X5603200Y8812700D01*
X5595200Y8825400D01*
X5593600Y8838100D01*
X5596800Y8852900D01*
X5608000Y8863500D01*
X5619300Y8867700D01*
X5633800D01*
G01X5619300D02*
X5609600Y8874100D01*
X5601600Y8884700D01*
X5598400Y8897400D01*
X5601600Y8910100D01*
X5609600Y8920600D01*
X5624100Y8927000D01*
X5638600Y8924900D01*
X5653100Y8916400D01*
G01X5941700Y9800000D02*
Y9927000D01*
X5901500D01*
X5888600Y9920600D01*
X5880600Y9912200D01*
X5877400Y9895200D01*
X5880600Y9878300D01*
X5890200Y9867700D01*
X5901500Y9861400D01*
X5941700D01*
G01X5901500D02*
X5877400Y9800000D01*
G01X5810600Y9905800D02*
X5801000Y9918500D01*
X5789700Y9924900D01*
X5776800Y9927000D01*
X5760700Y9922800D01*
X5749500Y9912200D01*
X5746300Y9899500D01*
X5747900Y9886800D01*
X5754300Y9876200D01*
X5786500Y9855000D01*
X5801000Y9840200D01*
X5810600Y9819000D01*
X5813800Y9800000D01*
X5746300D01*
G01X5681100Y9905800D02*
X5671500Y9918500D01*
X5660200Y9924900D01*
X5647300Y9927000D01*
X5631200Y9922800D01*
X5620000Y9912200D01*
X5616800Y9899500D01*
X5618400Y9886800D01*
X5624800Y9876200D01*
X5657000Y9855000D01*
X5671500Y9840200D01*
X5681100Y9819000D01*
X5684300Y9800000D01*
X5616800D01*
G01X5941700Y10540000D02*
Y10667000D01*
X5901500D01*
X5888600Y10660600D01*
X5880600Y10652200D01*
X5877400Y10635200D01*
X5880600Y10618300D01*
X5890200Y10607700D01*
X5901500Y10601400D01*
X5941700D01*
G01X5901500D02*
X5877400Y10540000D01*
G01X5810600Y10645800D02*
X5801000Y10658500D01*
X5789700Y10664900D01*
X5776800Y10667000D01*
X5760700Y10662800D01*
X5749500Y10652200D01*
X5746300Y10639500D01*
X5747900Y10626800D01*
X5754300Y10616200D01*
X5786500Y10595000D01*
X5801000Y10580200D01*
X5810600Y10559000D01*
X5813800Y10540000D01*
X5746300D01*
G01X5650600D02*
Y10667000D01*
X5669900Y10641600D01*
G01Y10540000D02*
X5631300D01*
G01X5376900Y18000000D02*
Y18127000D01*
X5336700D01*
X5323800Y18120600D01*
X5315800Y18112200D01*
X5312600Y18095200D01*
X5315800Y18078300D01*
X5325400Y18067700D01*
X5336700Y18061400D01*
X5376900D01*
G01X5336700D02*
X5312600Y18000000D01*
G01X5250600Y18025400D02*
X5241000Y18010600D01*
X5228100Y18002100D01*
X5213600Y18000000D01*
X5200800Y18002100D01*
X5187900Y18012700D01*
X5179900Y18025400D01*
X5178300Y18038100D01*
X5181500Y18052900D01*
X5192700Y18063500D01*
X5204000Y18067700D01*
X5218500D01*
G01X5204000D02*
X5194300Y18074100D01*
X5186300Y18084700D01*
X5183100Y18097400D01*
X5186300Y18110100D01*
X5194300Y18120600D01*
X5208800Y18127000D01*
X5223300Y18124900D01*
X5237800Y18116400D01*
G01X6424900Y8927000D02*
Y8836000D01*
X6418500Y8816900D01*
X6405600Y8804200D01*
X6389600Y8800000D01*
X6373500Y8804200D01*
X6360600Y8816900D01*
X6354200Y8836000D01*
Y8927000D01*
G01X6260100Y8800000D02*
Y8927000D01*
X6279400Y8901600D01*
G01Y8800000D02*
X6240800D01*
G01X6111200D02*
Y8927000D01*
X6170800Y8836000D01*
X6090300D01*
G01X6441700Y9800000D02*
Y9927000D01*
X6401500D01*
X6388600Y9920600D01*
X6380600Y9912200D01*
X6377400Y9895200D01*
X6380600Y9878300D01*
X6390200Y9867700D01*
X6401500Y9861400D01*
X6441700D01*
G01X6401500D02*
X6377400Y9800000D01*
G01X6310600Y9905800D02*
X6301000Y9918500D01*
X6289700Y9924900D01*
X6276800Y9927000D01*
X6260700Y9922800D01*
X6249500Y9912200D01*
X6246300Y9899500D01*
X6247900Y9886800D01*
X6254300Y9876200D01*
X6286500Y9855000D01*
X6301000Y9840200D01*
X6310600Y9819000D01*
X6313800Y9800000D01*
X6246300D01*
G01X6185900Y9819000D02*
X6176300Y9808500D01*
X6165000Y9802100D01*
X6150600Y9800000D01*
X6136100Y9804200D01*
X6124800Y9812700D01*
X6116800Y9827500D01*
X6115200Y9844400D01*
X6118400Y9861400D01*
X6126400Y9872000D01*
X6137700Y9880400D01*
X6148900Y9882500D01*
X6160200Y9880400D01*
X6174700Y9872000D01*
X6169900Y9927000D01*
X6126400D01*
G01X6441700Y10540000D02*
Y10667000D01*
X6401500D01*
X6388600Y10660600D01*
X6380600Y10652200D01*
X6377400Y10635200D01*
X6380600Y10618300D01*
X6390200Y10607700D01*
X6401500Y10601400D01*
X6441700D01*
G01X6401500D02*
X6377400Y10540000D01*
G01X6310600Y10645800D02*
X6301000Y10658500D01*
X6289700Y10664900D01*
X6276800Y10667000D01*
X6260700Y10662800D01*
X6249500Y10652200D01*
X6246300Y10639500D01*
X6247900Y10626800D01*
X6254300Y10616200D01*
X6286500Y10595000D01*
X6301000Y10580200D01*
X6310600Y10559000D01*
X6313800Y10540000D01*
X6246300D01*
G01X6131200D02*
Y10667000D01*
X6190800Y10576000D01*
X6110300D01*
G01X6269400Y16236400D02*
X6279000Y16242800D01*
X6290300Y16247000D01*
X6303100D01*
X6317600Y16240600D01*
X6328900Y16230100D01*
X6336900Y16217400D01*
X6343400Y16196200D01*
X6345000Y16177100D01*
X6341700Y16158100D01*
X6336900Y16145400D01*
X6327300Y16132700D01*
X6316000Y16124200D01*
X6304800Y16120000D01*
X6293500D01*
X6282200Y16124200D01*
X6272600Y16130600D01*
X6264500Y16139000D01*
G01X6202600Y16134800D02*
X6191300Y16124200D01*
X6178500Y16120000D01*
X6165600Y16124200D01*
X6154300Y16136900D01*
X6146300Y16156000D01*
X6143100Y16175000D01*
Y16198300D01*
X6146300Y16217400D01*
X6154300Y16234300D01*
X6164000Y16242800D01*
X6175300Y16247000D01*
X6188100Y16242800D01*
X6197800Y16234300D01*
X6204200Y16221600D01*
X6207400Y16204700D01*
X6204200Y16189900D01*
X6196200Y16175000D01*
X6186500Y16166600D01*
X6175300Y16164400D01*
X6162400Y16168700D01*
X6152700Y16179300D01*
X6143100Y16198300D01*
G01X6249400Y16516400D02*
X6259000Y16522800D01*
X6270300Y16527000D01*
X6283100D01*
X6297600Y16520600D01*
X6308900Y16510100D01*
X6316900Y16497400D01*
X6323400Y16476200D01*
X6325000Y16457100D01*
X6321700Y16438100D01*
X6316900Y16425400D01*
X6307300Y16412700D01*
X6296000Y16404200D01*
X6284800Y16400000D01*
X6273500D01*
X6262200Y16404200D01*
X6252600Y16410600D01*
X6244500Y16419000D01*
G01X6158500Y16400000D02*
X6155300Y16427500D01*
X6150400Y16450800D01*
X6144000Y16472000D01*
X6135900Y16495200D01*
X6123100Y16527000D01*
X6187400D01*
G01X6234200Y16916400D02*
X6243800Y16922800D01*
X6255100Y16927000D01*
X6267900D01*
X6282400Y16920600D01*
X6293700Y16910100D01*
X6301700Y16897400D01*
X6308200Y16876200D01*
X6309800Y16857100D01*
X6306500Y16838100D01*
X6301700Y16825400D01*
X6292100Y16812700D01*
X6280800Y16804200D01*
X6269600Y16800000D01*
X6258300D01*
X6247000Y16804200D01*
X6237400Y16810600D01*
X6229300Y16819000D01*
G01X6170600Y16905800D02*
X6161000Y16918500D01*
X6149700Y16924900D01*
X6136800Y16927000D01*
X6120700Y16922800D01*
X6109500Y16912200D01*
X6106300Y16899500D01*
X6107900Y16886800D01*
X6114300Y16876200D01*
X6146500Y16855000D01*
X6161000Y16840200D01*
X6170600Y16819000D01*
X6173800Y16800000D01*
X6106300D01*
G01X6045900Y16825400D02*
X6036300Y16810600D01*
X6023400Y16802100D01*
X6008900Y16800000D01*
X5996100Y16802100D01*
X5983200Y16812700D01*
X5975200Y16825400D01*
X5973600Y16838100D01*
X5976800Y16852900D01*
X5988000Y16863500D01*
X5999300Y16867700D01*
X6013800D01*
G01X5999300D02*
X5989600Y16874100D01*
X5981600Y16884700D01*
X5978400Y16897400D01*
X5981600Y16910100D01*
X5989600Y16920600D01*
X6004100Y16927000D01*
X6018600Y16924900D01*
X6033100Y16916400D01*
G01X6274200Y17576400D02*
X6283800Y17582800D01*
X6295100Y17587000D01*
X6307900D01*
X6322400Y17580600D01*
X6333700Y17570100D01*
X6341700Y17557400D01*
X6348200Y17536200D01*
X6349800Y17517100D01*
X6346500Y17498100D01*
X6341700Y17485400D01*
X6332100Y17472700D01*
X6320800Y17464200D01*
X6309600Y17460000D01*
X6298300D01*
X6287000Y17464200D01*
X6277400Y17470600D01*
X6269300Y17479000D01*
G01X6180100Y17460000D02*
Y17587000D01*
X6199400Y17561600D01*
G01Y17460000D02*
X6160800D01*
G01X6031200D02*
Y17587000D01*
X6090800Y17496000D01*
X6010300D01*
G01X6924900Y8927000D02*
Y8836000D01*
X6918500Y8816900D01*
X6905600Y8804200D01*
X6889600Y8800000D01*
X6873500Y8804200D01*
X6860600Y8816900D01*
X6854200Y8836000D01*
Y8927000D01*
G01X6760100Y8800000D02*
Y8927000D01*
X6779400Y8901600D01*
G01Y8800000D02*
X6740800D01*
G01X6665900Y8819000D02*
X6656300Y8808500D01*
X6645000Y8802100D01*
X6630600Y8800000D01*
X6616100Y8804200D01*
X6604800Y8812700D01*
X6596800Y8827500D01*
X6595200Y8844400D01*
X6598400Y8861400D01*
X6606400Y8872000D01*
X6617700Y8880400D01*
X6628900Y8882500D01*
X6640200Y8880400D01*
X6654700Y8872000D01*
X6649900Y8927000D01*
X6606400D01*
G01X6941700Y9800000D02*
Y9927000D01*
X6901500D01*
X6888600Y9920600D01*
X6880600Y9912200D01*
X6877400Y9895200D01*
X6880600Y9878300D01*
X6890200Y9867700D01*
X6901500Y9861400D01*
X6941700D01*
G01X6901500D02*
X6877400Y9800000D01*
G01X6810600Y9905800D02*
X6801000Y9918500D01*
X6789700Y9924900D01*
X6776800Y9927000D01*
X6760700Y9922800D01*
X6749500Y9912200D01*
X6746300Y9899500D01*
X6747900Y9886800D01*
X6754300Y9876200D01*
X6786500Y9855000D01*
X6801000Y9840200D01*
X6810600Y9819000D01*
X6813800Y9800000D01*
X6746300D01*
G01X6650600D02*
X6639300Y9802100D01*
X6626400Y9808500D01*
X6618400Y9819000D01*
X6615200Y9833900D01*
X6618400Y9848700D01*
X6628000Y9861400D01*
X6642500Y9867700D01*
X6658600D01*
X6668200Y9872000D01*
X6676300Y9882500D01*
X6679500Y9897400D01*
X6674700Y9912200D01*
X6663400Y9922800D01*
X6650600Y9927000D01*
X6637700Y9922800D01*
X6626400Y9912200D01*
X6621600Y9897400D01*
X6624800Y9882500D01*
X6632900Y9872000D01*
X6642500Y9867700D01*
X6658600D01*
X6673100Y9861400D01*
X6682700Y9848700D01*
X6685900Y9833900D01*
X6682700Y9819000D01*
X6674700Y9808500D01*
X6661800Y9802100D01*
X6650600Y9800000D01*
G01X6941700Y10540000D02*
Y10667000D01*
X6901500D01*
X6888600Y10660600D01*
X6880600Y10652200D01*
X6877400Y10635200D01*
X6880600Y10618300D01*
X6890200Y10607700D01*
X6901500Y10601400D01*
X6941700D01*
G01X6901500D02*
X6877400Y10540000D01*
G01X6810600Y10645800D02*
X6801000Y10658500D01*
X6789700Y10664900D01*
X6776800Y10667000D01*
X6760700Y10662800D01*
X6749500Y10652200D01*
X6746300Y10639500D01*
X6747900Y10626800D01*
X6754300Y10616200D01*
X6786500Y10595000D01*
X6801000Y10580200D01*
X6810600Y10559000D01*
X6813800Y10540000D01*
X6746300D01*
G01X6653800D02*
X6650600Y10567500D01*
X6645700Y10590800D01*
X6639300Y10612000D01*
X6631200Y10635200D01*
X6618400Y10667000D01*
X6682700D01*
G01X6789400Y16136400D02*
X6799000Y16142800D01*
X6810300Y16147000D01*
X6823100D01*
X6837600Y16140600D01*
X6848900Y16130100D01*
X6856900Y16117400D01*
X6863400Y16096200D01*
X6865000Y16077100D01*
X6861700Y16058100D01*
X6856900Y16045400D01*
X6847300Y16032700D01*
X6836000Y16024200D01*
X6824800Y16020000D01*
X6813500D01*
X6802200Y16024200D01*
X6792600Y16030600D01*
X6784500Y16039000D01*
G01X6695300Y16020000D02*
X6684000Y16022100D01*
X6671100Y16028500D01*
X6663100Y16039000D01*
X6659900Y16053900D01*
X6663100Y16068700D01*
X6672700Y16081400D01*
X6687200Y16087700D01*
X6703300D01*
X6712900Y16092000D01*
X6721000Y16102500D01*
X6724200Y16117400D01*
X6719400Y16132200D01*
X6708100Y16142800D01*
X6695300Y16147000D01*
X6682400Y16142800D01*
X6671100Y16132200D01*
X6666300Y16117400D01*
X6669500Y16102500D01*
X6677600Y16092000D01*
X6687200Y16087700D01*
X6703300D01*
X6717800Y16081400D01*
X6727400Y16068700D01*
X6730600Y16053900D01*
X6727400Y16039000D01*
X6719400Y16028500D01*
X6706500Y16022100D01*
X6695300Y16020000D01*
G01X6974200Y16876400D02*
X6983800Y16882800D01*
X6995100Y16887000D01*
X7007900D01*
X7022400Y16880600D01*
X7033700Y16870100D01*
X7041700Y16857400D01*
X7048200Y16836200D01*
X7049800Y16817100D01*
X7046500Y16798100D01*
X7041700Y16785400D01*
X7032100Y16772700D01*
X7020800Y16764200D01*
X7009600Y16760000D01*
X6998300D01*
X6987000Y16764200D01*
X6977400Y16770600D01*
X6969300Y16779000D01*
G01X6880100Y16760000D02*
Y16887000D01*
X6899400Y16861600D01*
G01Y16760000D02*
X6860800D01*
G01X6750600D02*
X6739300Y16762100D01*
X6726400Y16768500D01*
X6718400Y16779000D01*
X6715200Y16793900D01*
X6718400Y16808700D01*
X6728000Y16821400D01*
X6742500Y16827700D01*
X6758600D01*
X6768200Y16832000D01*
X6776300Y16842500D01*
X6779500Y16857400D01*
X6774700Y16872200D01*
X6763400Y16882800D01*
X6750600Y16887000D01*
X6737700Y16882800D01*
X6726400Y16872200D01*
X6721600Y16857400D01*
X6724800Y16842500D01*
X6732900Y16832000D01*
X6742500Y16827700D01*
X6758600D01*
X6773100Y16821400D01*
X6782700Y16808700D01*
X6785900Y16793900D01*
X6782700Y16779000D01*
X6774700Y16768500D01*
X6761800Y16762100D01*
X6750600Y16760000D01*
G01X6974200Y17476400D02*
X6983800Y17482800D01*
X6995100Y17487000D01*
X7007900D01*
X7022400Y17480600D01*
X7033700Y17470100D01*
X7041700Y17457400D01*
X7048200Y17436200D01*
X7049800Y17417100D01*
X7046500Y17398100D01*
X7041700Y17385400D01*
X7032100Y17372700D01*
X7020800Y17364200D01*
X7009600Y17360000D01*
X6998300D01*
X6987000Y17364200D01*
X6977400Y17370600D01*
X6969300Y17379000D01*
G01X6880100Y17360000D02*
Y17487000D01*
X6899400Y17461600D01*
G01Y17360000D02*
X6860800D01*
G01X6777900Y17374800D02*
X6766600Y17364200D01*
X6753800Y17360000D01*
X6740900Y17364200D01*
X6729600Y17376900D01*
X6721600Y17396000D01*
X6718400Y17415000D01*
Y17438300D01*
X6721600Y17457400D01*
X6729600Y17474300D01*
X6739300Y17482800D01*
X6750600Y17487000D01*
X6763400Y17482800D01*
X6773100Y17474300D01*
X6779500Y17461600D01*
X6782700Y17444700D01*
X6779500Y17429900D01*
X6771500Y17415000D01*
X6761800Y17406600D01*
X6750600Y17404400D01*
X6737700Y17408700D01*
X6728000Y17419300D01*
X6718400Y17438300D01*
G01X6921500Y17870700D02*
X6931100Y17877100D01*
X6942400Y17881300D01*
X6955200D01*
X6969700Y17874900D01*
X6981000Y17864400D01*
X6989000Y17851700D01*
X6995500Y17830500D01*
X6997100Y17811400D01*
X6993800Y17792400D01*
X6989000Y17779700D01*
X6979400Y17767000D01*
X6968100Y17758500D01*
X6956900Y17754300D01*
X6945600D01*
X6934300Y17758500D01*
X6924700Y17764900D01*
X6916600Y17773300D01*
G01X6827400Y17754300D02*
Y17881300D01*
X6846700Y17855900D01*
G01Y17754300D02*
X6808100D01*
G01X6697900D02*
Y17881300D01*
X6717200Y17855900D01*
G01Y17754300D02*
X6678600D01*
G01X6516900Y18000000D02*
Y18127000D01*
X6476700D01*
X6463800Y18120600D01*
X6455800Y18112200D01*
X6452600Y18095200D01*
X6455800Y18078300D01*
X6465400Y18067700D01*
X6476700Y18061400D01*
X6516900D01*
G01X6476700D02*
X6452600Y18000000D01*
G01X6335900D02*
Y18127000D01*
X6395500Y18036000D01*
X6315000D01*
G01X7424900Y8927000D02*
Y8836000D01*
X7418500Y8816900D01*
X7405600Y8804200D01*
X7389600Y8800000D01*
X7373500Y8804200D01*
X7360600Y8816900D01*
X7354200Y8836000D01*
Y8927000D01*
G01X7260100Y8800000D02*
Y8927000D01*
X7279400Y8901600D01*
G01Y8800000D02*
X7240800D01*
G01X7161100Y8852900D02*
X7149900Y8867700D01*
X7140200Y8876200D01*
X7127300Y8880400D01*
X7116100Y8876200D01*
X7108000Y8867700D01*
X7101600Y8855000D01*
X7100000Y8840200D01*
X7101600Y8827500D01*
X7108000Y8814800D01*
X7117700Y8804200D01*
X7128900Y8800000D01*
X7141800Y8804200D01*
X7153100Y8816900D01*
X7159500Y8836000D01*
X7161100Y8857100D01*
X7157900Y8884700D01*
X7153100Y8899500D01*
X7145000Y8914300D01*
X7133800Y8924900D01*
X7122500Y8927000D01*
X7111200Y8922800D01*
X7103200Y8912200D01*
G01X7441700Y9800000D02*
Y9927000D01*
X7401500D01*
X7388600Y9920600D01*
X7380600Y9912200D01*
X7377400Y9895200D01*
X7380600Y9878300D01*
X7390200Y9867700D01*
X7401500Y9861400D01*
X7441700D01*
G01X7401500D02*
X7377400Y9800000D01*
G01X7315400Y9825400D02*
X7305800Y9810600D01*
X7292900Y9802100D01*
X7278400Y9800000D01*
X7265600Y9802100D01*
X7252700Y9812700D01*
X7244700Y9825400D01*
X7243100Y9838100D01*
X7246300Y9852900D01*
X7257500Y9863500D01*
X7268800Y9867700D01*
X7283300D01*
G01X7268800D02*
X7259100Y9874100D01*
X7251100Y9884700D01*
X7247900Y9897400D01*
X7251100Y9910100D01*
X7259100Y9920600D01*
X7273600Y9927000D01*
X7288100Y9924900D01*
X7302600Y9916400D01*
G01X7150600Y9800000D02*
Y9927000D01*
X7169900Y9901600D01*
G01Y9800000D02*
X7131300D01*
G01X7441700Y10540000D02*
Y10667000D01*
X7401500D01*
X7388600Y10660600D01*
X7380600Y10652200D01*
X7377400Y10635200D01*
X7380600Y10618300D01*
X7390200Y10607700D01*
X7401500Y10601400D01*
X7441700D01*
G01X7401500D02*
X7377400Y10540000D01*
G01X7315400Y10565400D02*
X7305800Y10550600D01*
X7292900Y10542100D01*
X7278400Y10540000D01*
X7265600Y10542100D01*
X7252700Y10552700D01*
X7244700Y10565400D01*
X7243100Y10578100D01*
X7246300Y10592900D01*
X7257500Y10603500D01*
X7268800Y10607700D01*
X7283300D01*
G01X7268800D02*
X7259100Y10614100D01*
X7251100Y10624700D01*
X7247900Y10637400D01*
X7251100Y10650100D01*
X7259100Y10660600D01*
X7273600Y10667000D01*
X7288100Y10664900D01*
X7302600Y10656400D01*
G01X7150600Y10667000D02*
X7163400Y10662800D01*
X7173100Y10652200D01*
X7179500Y10639500D01*
X7184300Y10622500D01*
X7185900Y10603500D01*
X7184300Y10584400D01*
X7179500Y10567500D01*
X7173100Y10554800D01*
X7163400Y10544200D01*
X7150600Y10540000D01*
X7137700Y10544200D01*
X7128000Y10554800D01*
X7121600Y10567500D01*
X7116800Y10584400D01*
X7115200Y10603500D01*
X7116800Y10622500D01*
X7121600Y10639500D01*
X7128000Y10652200D01*
X7137700Y10662800D01*
X7150600Y10667000D01*
G01X7194200Y16296400D02*
X7203800Y16302800D01*
X7215100Y16307000D01*
X7227900D01*
X7242400Y16300600D01*
X7253700Y16290100D01*
X7261700Y16277400D01*
X7268200Y16256200D01*
X7269800Y16237100D01*
X7266500Y16218100D01*
X7261700Y16205400D01*
X7252100Y16192700D01*
X7240800Y16184200D01*
X7229600Y16180000D01*
X7218300D01*
X7207000Y16184200D01*
X7197400Y16190600D01*
X7189300Y16199000D01*
G01X7100100Y16180000D02*
Y16307000D01*
X7119400Y16281600D01*
G01Y16180000D02*
X7080800D01*
G01X7005900Y16205400D02*
X6996300Y16190600D01*
X6983400Y16182100D01*
X6968900Y16180000D01*
X6956100Y16182100D01*
X6943200Y16192700D01*
X6935200Y16205400D01*
X6933600Y16218100D01*
X6936800Y16232900D01*
X6948000Y16243500D01*
X6959300Y16247700D01*
X6973800D01*
G01X6959300D02*
X6949600Y16254100D01*
X6941600Y16264700D01*
X6938400Y16277400D01*
X6941600Y16290100D01*
X6949600Y16300600D01*
X6964100Y16307000D01*
X6978600Y16304900D01*
X6993100Y16296400D01*
G01X7341500Y17750700D02*
X7351100Y17757100D01*
X7362400Y17761300D01*
X7375200D01*
X7389700Y17754900D01*
X7401000Y17744400D01*
X7409000Y17731700D01*
X7415500Y17710500D01*
X7417100Y17691400D01*
X7413800Y17672400D01*
X7409000Y17659700D01*
X7399400Y17647000D01*
X7388100Y17638500D01*
X7376900Y17634300D01*
X7365600D01*
X7354300Y17638500D01*
X7344700Y17644900D01*
X7336600Y17653300D01*
G01X7277900Y17740100D02*
X7268300Y17752800D01*
X7257000Y17759200D01*
X7244100Y17761300D01*
X7228000Y17757100D01*
X7216800Y17746500D01*
X7213600Y17733800D01*
X7215200Y17721100D01*
X7221600Y17710500D01*
X7253800Y17689300D01*
X7268300Y17674500D01*
X7277900Y17653300D01*
X7281100Y17634300D01*
X7213600D01*
G01X7098500D02*
Y17761300D01*
X7158100Y17670300D01*
X7077600D01*
G01X7924900Y8927000D02*
Y8836000D01*
X7918500Y8816900D01*
X7905600Y8804200D01*
X7889600Y8800000D01*
X7873500Y8804200D01*
X7860600Y8816900D01*
X7854200Y8836000D01*
Y8927000D01*
G01X7760100Y8800000D02*
Y8927000D01*
X7779400Y8901600D01*
G01Y8800000D02*
X7740800D01*
G01X7633800D02*
X7630600Y8827500D01*
X7625700Y8850800D01*
X7619300Y8872000D01*
X7611200Y8895200D01*
X7598400Y8927000D01*
X7662700D01*
G01X7941700Y9800000D02*
Y9927000D01*
X7901500D01*
X7888600Y9920600D01*
X7880600Y9912200D01*
X7877400Y9895200D01*
X7880600Y9878300D01*
X7890200Y9867700D01*
X7901500Y9861400D01*
X7941700D01*
G01X7901500D02*
X7877400Y9800000D01*
G01X7815400Y9825400D02*
X7805800Y9810600D01*
X7792900Y9802100D01*
X7778400Y9800000D01*
X7765600Y9802100D01*
X7752700Y9812700D01*
X7744700Y9825400D01*
X7743100Y9838100D01*
X7746300Y9852900D01*
X7757500Y9863500D01*
X7768800Y9867700D01*
X7783300D01*
G01X7768800D02*
X7759100Y9874100D01*
X7751100Y9884700D01*
X7747900Y9897400D01*
X7751100Y9910100D01*
X7759100Y9920600D01*
X7773600Y9927000D01*
X7788100Y9924900D01*
X7802600Y9916400D01*
G01X7631200Y9800000D02*
Y9927000D01*
X7690800Y9836000D01*
X7610300D01*
G01X7941700Y10540000D02*
Y10667000D01*
X7901500D01*
X7888600Y10660600D01*
X7880600Y10652200D01*
X7877400Y10635200D01*
X7880600Y10618300D01*
X7890200Y10607700D01*
X7901500Y10601400D01*
X7941700D01*
G01X7901500D02*
X7877400Y10540000D01*
G01X7815400Y10565400D02*
X7805800Y10550600D01*
X7792900Y10542100D01*
X7778400Y10540000D01*
X7765600Y10542100D01*
X7752700Y10552700D01*
X7744700Y10565400D01*
X7743100Y10578100D01*
X7746300Y10592900D01*
X7757500Y10603500D01*
X7768800Y10607700D01*
X7783300D01*
G01X7768800D02*
X7759100Y10614100D01*
X7751100Y10624700D01*
X7747900Y10637400D01*
X7751100Y10650100D01*
X7759100Y10660600D01*
X7773600Y10667000D01*
X7788100Y10664900D01*
X7802600Y10656400D01*
G01X7685900Y10565400D02*
X7676300Y10550600D01*
X7663400Y10542100D01*
X7648900Y10540000D01*
X7636100Y10542100D01*
X7623200Y10552700D01*
X7615200Y10565400D01*
X7613600Y10578100D01*
X7616800Y10592900D01*
X7628000Y10603500D01*
X7639300Y10607700D01*
X7653800D01*
G01X7639300D02*
X7629600Y10614100D01*
X7621600Y10624700D01*
X7618400Y10637400D01*
X7621600Y10650100D01*
X7629600Y10660600D01*
X7644100Y10667000D01*
X7658600Y10664900D01*
X7673100Y10656400D01*
G01X7734200Y15736400D02*
X7743800Y15742800D01*
X7755100Y15747000D01*
X7767900D01*
X7782400Y15740600D01*
X7793700Y15730100D01*
X7801700Y15717400D01*
X7808200Y15696200D01*
X7809800Y15677100D01*
X7806500Y15658100D01*
X7801700Y15645400D01*
X7792100Y15632700D01*
X7780800Y15624200D01*
X7769600Y15620000D01*
X7758300D01*
X7747000Y15624200D01*
X7737400Y15630600D01*
X7729300Y15639000D01*
G01X7640100Y15620000D02*
Y15747000D01*
X7659400Y15721600D01*
G01Y15620000D02*
X7620800D01*
G01X7545900Y15639000D02*
X7536300Y15628500D01*
X7525000Y15622100D01*
X7510600Y15620000D01*
X7496100Y15624200D01*
X7484800Y15632700D01*
X7476800Y15647500D01*
X7475200Y15664400D01*
X7478400Y15681400D01*
X7486400Y15692000D01*
X7497700Y15700400D01*
X7508900Y15702500D01*
X7520200Y15700400D01*
X7534700Y15692000D01*
X7529900Y15747000D01*
X7486400D01*
G01X7694200Y16336400D02*
X7703800Y16342800D01*
X7715100Y16347000D01*
X7727900D01*
X7742400Y16340600D01*
X7753700Y16330100D01*
X7761700Y16317400D01*
X7768200Y16296200D01*
X7769800Y16277100D01*
X7766500Y16258100D01*
X7761700Y16245400D01*
X7752100Y16232700D01*
X7740800Y16224200D01*
X7729600Y16220000D01*
X7718300D01*
X7707000Y16224200D01*
X7697400Y16230600D01*
X7689300Y16239000D01*
G01X7630600Y16325800D02*
X7621000Y16338500D01*
X7609700Y16344900D01*
X7596800Y16347000D01*
X7580700Y16342800D01*
X7569500Y16332200D01*
X7566300Y16319500D01*
X7567900Y16306800D01*
X7574300Y16296200D01*
X7606500Y16275000D01*
X7621000Y16260200D01*
X7630600Y16239000D01*
X7633800Y16220000D01*
X7566300D01*
G01X7501100Y16325800D02*
X7491500Y16338500D01*
X7480200Y16344900D01*
X7467300Y16347000D01*
X7451200Y16342800D01*
X7440000Y16332200D01*
X7436800Y16319500D01*
X7438400Y16306800D01*
X7444800Y16296200D01*
X7477000Y16275000D01*
X7491500Y16260200D01*
X7501100Y16239000D01*
X7504300Y16220000D01*
X7436800D01*
G01X7720100Y16827000D02*
Y16736000D01*
X7713700Y16716900D01*
X7700800Y16704200D01*
X7684800Y16700000D01*
X7668700Y16704200D01*
X7655800Y16716900D01*
X7649400Y16736000D01*
Y16827000D01*
G01X7590600Y16725400D02*
X7581000Y16710600D01*
X7568100Y16702100D01*
X7553600Y16700000D01*
X7540800Y16702100D01*
X7527900Y16712700D01*
X7519900Y16725400D01*
X7518300Y16738100D01*
X7521500Y16752900D01*
X7532700Y16763500D01*
X7544000Y16767700D01*
X7558500D01*
G01X7544000D02*
X7534300Y16774100D01*
X7526300Y16784700D01*
X7523100Y16797400D01*
X7526300Y16810100D01*
X7534300Y16820600D01*
X7548800Y16827000D01*
X7563300Y16824900D01*
X7577800Y16816400D01*
G01X7714200Y17276400D02*
X7723800Y17282800D01*
X7735100Y17287000D01*
X7747900D01*
X7762400Y17280600D01*
X7773700Y17270100D01*
X7781700Y17257400D01*
X7788200Y17236200D01*
X7789800Y17217100D01*
X7786500Y17198100D01*
X7781700Y17185400D01*
X7772100Y17172700D01*
X7760800Y17164200D01*
X7749600Y17160000D01*
X7738300D01*
X7727000Y17164200D01*
X7717400Y17170600D01*
X7709300Y17179000D01*
G01X7650600Y17265800D02*
X7641000Y17278500D01*
X7629700Y17284900D01*
X7616800Y17287000D01*
X7600700Y17282800D01*
X7589500Y17272200D01*
X7586300Y17259500D01*
X7587900Y17246800D01*
X7594300Y17236200D01*
X7626500Y17215000D01*
X7641000Y17200200D01*
X7650600Y17179000D01*
X7653800Y17160000D01*
X7586300D01*
G01X7490600Y17287000D02*
X7503400Y17282800D01*
X7513100Y17272200D01*
X7519500Y17259500D01*
X7524300Y17242500D01*
X7525900Y17223500D01*
X7524300Y17204400D01*
X7519500Y17187500D01*
X7513100Y17174800D01*
X7503400Y17164200D01*
X7490600Y17160000D01*
X7477700Y17164200D01*
X7468000Y17174800D01*
X7461600Y17187500D01*
X7456800Y17204400D01*
X7455200Y17223500D01*
X7456800Y17242500D01*
X7461600Y17259500D01*
X7468000Y17272200D01*
X7477700Y17282800D01*
X7490600Y17287000D01*
G01X7721500Y17870700D02*
X7731100Y17877100D01*
X7742400Y17881300D01*
X7755200D01*
X7769700Y17874900D01*
X7781000Y17864400D01*
X7789000Y17851700D01*
X7795500Y17830500D01*
X7797100Y17811400D01*
X7793800Y17792400D01*
X7789000Y17779700D01*
X7779400Y17767000D01*
X7768100Y17758500D01*
X7756900Y17754300D01*
X7745600D01*
X7734300Y17758500D01*
X7724700Y17764900D01*
X7716600Y17773300D01*
G01X7627400Y17754300D02*
Y17881300D01*
X7646700Y17855900D01*
G01Y17754300D02*
X7608100D01*
G01X7528400Y17860100D02*
X7518800Y17872800D01*
X7507500Y17879200D01*
X7494600Y17881300D01*
X7478500Y17877100D01*
X7467300Y17866500D01*
X7464100Y17853800D01*
X7465700Y17841100D01*
X7472100Y17830500D01*
X7504300Y17809300D01*
X7518800Y17794500D01*
X7528400Y17773300D01*
X7531600Y17754300D01*
X7464100D01*
G01X8424900Y8927000D02*
Y8836000D01*
X8418500Y8816900D01*
X8405600Y8804200D01*
X8389600Y8800000D01*
X8373500Y8804200D01*
X8360600Y8816900D01*
X8354200Y8836000D01*
Y8927000D01*
G01X8260100Y8800000D02*
Y8927000D01*
X8279400Y8901600D01*
G01Y8800000D02*
X8240800D01*
G01X8130600D02*
X8119300Y8802100D01*
X8106400Y8808500D01*
X8098400Y8819000D01*
X8095200Y8833900D01*
X8098400Y8848700D01*
X8108000Y8861400D01*
X8122500Y8867700D01*
X8138600D01*
X8148200Y8872000D01*
X8156300Y8882500D01*
X8159500Y8897400D01*
X8154700Y8912200D01*
X8143400Y8922800D01*
X8130600Y8927000D01*
X8117700Y8922800D01*
X8106400Y8912200D01*
X8101600Y8897400D01*
X8104800Y8882500D01*
X8112900Y8872000D01*
X8122500Y8867700D01*
X8138600D01*
X8153100Y8861400D01*
X8162700Y8848700D01*
X8165900Y8833900D01*
X8162700Y8819000D01*
X8154700Y8808500D01*
X8141800Y8802100D01*
X8130600Y8800000D01*
G01X8441700Y9800000D02*
Y9927000D01*
X8401500D01*
X8388600Y9920600D01*
X8380600Y9912200D01*
X8377400Y9895200D01*
X8380600Y9878300D01*
X8390200Y9867700D01*
X8401500Y9861400D01*
X8441700D01*
G01X8401500D02*
X8377400Y9800000D01*
G01X8315400Y9825400D02*
X8305800Y9810600D01*
X8292900Y9802100D01*
X8278400Y9800000D01*
X8265600Y9802100D01*
X8252700Y9812700D01*
X8244700Y9825400D01*
X8243100Y9838100D01*
X8246300Y9852900D01*
X8257500Y9863500D01*
X8268800Y9867700D01*
X8283300D01*
G01X8268800D02*
X8259100Y9874100D01*
X8251100Y9884700D01*
X8247900Y9897400D01*
X8251100Y9910100D01*
X8259100Y9920600D01*
X8273600Y9927000D01*
X8288100Y9924900D01*
X8302600Y9916400D01*
G01X8153800Y9800000D02*
X8150600Y9827500D01*
X8145700Y9850800D01*
X8139300Y9872000D01*
X8131200Y9895200D01*
X8118400Y9927000D01*
X8182700D01*
G01X8441700Y10540000D02*
Y10667000D01*
X8401500D01*
X8388600Y10660600D01*
X8380600Y10652200D01*
X8377400Y10635200D01*
X8380600Y10618300D01*
X8390200Y10607700D01*
X8401500Y10601400D01*
X8441700D01*
G01X8401500D02*
X8377400Y10540000D01*
G01X8315400Y10565400D02*
X8305800Y10550600D01*
X8292900Y10542100D01*
X8278400Y10540000D01*
X8265600Y10542100D01*
X8252700Y10552700D01*
X8244700Y10565400D01*
X8243100Y10578100D01*
X8246300Y10592900D01*
X8257500Y10603500D01*
X8268800Y10607700D01*
X8283300D01*
G01X8268800D02*
X8259100Y10614100D01*
X8251100Y10624700D01*
X8247900Y10637400D01*
X8251100Y10650100D01*
X8259100Y10660600D01*
X8273600Y10667000D01*
X8288100Y10664900D01*
X8302600Y10656400D01*
G01X8181100Y10592900D02*
X8169900Y10607700D01*
X8160200Y10616200D01*
X8147300Y10620400D01*
X8136100Y10616200D01*
X8128000Y10607700D01*
X8121600Y10595000D01*
X8120000Y10580200D01*
X8121600Y10567500D01*
X8128000Y10554800D01*
X8137700Y10544200D01*
X8148900Y10540000D01*
X8161800Y10544200D01*
X8173100Y10556900D01*
X8179500Y10576000D01*
X8181100Y10597100D01*
X8177900Y10624700D01*
X8173100Y10639500D01*
X8165000Y10654300D01*
X8153800Y10664900D01*
X8142500Y10667000D01*
X8131200Y10662800D01*
X8123200Y10652200D01*
G01X8356900Y15767000D02*
Y15640000D01*
X8292600D01*
G01X8195300D02*
Y15767000D01*
X8214600Y15741600D01*
G01Y15640000D02*
X8176000D01*
G01X8374200Y16816400D02*
X8383800Y16822800D01*
X8395100Y16827000D01*
X8407900D01*
X8422400Y16820600D01*
X8433700Y16810100D01*
X8441700Y16797400D01*
X8448200Y16776200D01*
X8449800Y16757100D01*
X8446500Y16738100D01*
X8441700Y16725400D01*
X8432100Y16712700D01*
X8420800Y16704200D01*
X8409600Y16700000D01*
X8398300D01*
X8387000Y16704200D01*
X8377400Y16710600D01*
X8369300Y16719000D01*
G01X8310600Y16805800D02*
X8301000Y16818500D01*
X8289700Y16824900D01*
X8276800Y16827000D01*
X8260700Y16822800D01*
X8249500Y16812200D01*
X8246300Y16799500D01*
X8247900Y16786800D01*
X8254300Y16776200D01*
X8286500Y16755000D01*
X8301000Y16740200D01*
X8310600Y16719000D01*
X8313800Y16700000D01*
X8246300D01*
G01X8150600D02*
Y16827000D01*
X8169900Y16801600D01*
G01Y16700000D02*
X8131300D01*
G01X8134200Y17876400D02*
X8143800Y17882800D01*
X8155100Y17887000D01*
X8167900D01*
X8182400Y17880600D01*
X8193700Y17870100D01*
X8201700Y17857400D01*
X8208200Y17836200D01*
X8209800Y17817100D01*
X8206500Y17798100D01*
X8201700Y17785400D01*
X8192100Y17772700D01*
X8180800Y17764200D01*
X8169600Y17760000D01*
X8158300D01*
X8147000Y17764200D01*
X8137400Y17770600D01*
X8129300Y17779000D01*
G01X8040100Y17760000D02*
Y17887000D01*
X8059400Y17861600D01*
G01Y17760000D02*
X8020800D01*
G01X7910600Y17887000D02*
X7923400Y17882800D01*
X7933100Y17872200D01*
X7939500Y17859500D01*
X7944300Y17842500D01*
X7945900Y17823500D01*
X7944300Y17804400D01*
X7939500Y17787500D01*
X7933100Y17774800D01*
X7923400Y17764200D01*
X7910600Y17760000D01*
X7897700Y17764200D01*
X7888000Y17774800D01*
X7881600Y17787500D01*
X7876800Y17804400D01*
X7875200Y17823500D01*
X7876800Y17842500D01*
X7881600Y17859500D01*
X7888000Y17872200D01*
X7897700Y17882800D01*
X7910600Y17887000D01*
G01X8924900Y8927000D02*
Y8836000D01*
X8918500Y8816900D01*
X8905600Y8804200D01*
X8889600Y8800000D01*
X8873500Y8804200D01*
X8860600Y8816900D01*
X8854200Y8836000D01*
Y8927000D01*
G01X8760100Y8800000D02*
Y8927000D01*
X8779400Y8901600D01*
G01Y8800000D02*
X8740800D01*
G01X8657900Y8814800D02*
X8646600Y8804200D01*
X8633800Y8800000D01*
X8620900Y8804200D01*
X8609600Y8816900D01*
X8601600Y8836000D01*
X8598400Y8855000D01*
Y8878300D01*
X8601600Y8897400D01*
X8609600Y8914300D01*
X8619300Y8922800D01*
X8630600Y8927000D01*
X8643400Y8922800D01*
X8653100Y8914300D01*
X8659500Y8901600D01*
X8662700Y8884700D01*
X8659500Y8869900D01*
X8651500Y8855000D01*
X8641800Y8846600D01*
X8630600Y8844400D01*
X8617700Y8848700D01*
X8608000Y8859300D01*
X8598400Y8878300D01*
G01X8941700Y9800000D02*
Y9927000D01*
X8901500D01*
X8888600Y9920600D01*
X8880600Y9912200D01*
X8877400Y9895200D01*
X8880600Y9878300D01*
X8890200Y9867700D01*
X8901500Y9861400D01*
X8941700D01*
G01X8901500D02*
X8877400Y9800000D01*
G01X8760700D02*
Y9927000D01*
X8820300Y9836000D01*
X8739800D01*
G01X8650600Y9927000D02*
X8663400Y9922800D01*
X8673100Y9912200D01*
X8679500Y9899500D01*
X8684300Y9882500D01*
X8685900Y9863500D01*
X8684300Y9844400D01*
X8679500Y9827500D01*
X8673100Y9814800D01*
X8663400Y9804200D01*
X8650600Y9800000D01*
X8637700Y9804200D01*
X8628000Y9814800D01*
X8621600Y9827500D01*
X8616800Y9844400D01*
X8615200Y9863500D01*
X8616800Y9882500D01*
X8621600Y9899500D01*
X8628000Y9912200D01*
X8637700Y9922800D01*
X8650600Y9927000D01*
G01X8941700Y10540000D02*
Y10667000D01*
X8901500D01*
X8888600Y10660600D01*
X8880600Y10652200D01*
X8877400Y10635200D01*
X8880600Y10618300D01*
X8890200Y10607700D01*
X8901500Y10601400D01*
X8941700D01*
G01X8901500D02*
X8877400Y10540000D01*
G01X8815400Y10565400D02*
X8805800Y10550600D01*
X8792900Y10542100D01*
X8778400Y10540000D01*
X8765600Y10542100D01*
X8752700Y10552700D01*
X8744700Y10565400D01*
X8743100Y10578100D01*
X8746300Y10592900D01*
X8757500Y10603500D01*
X8768800Y10607700D01*
X8783300D01*
G01X8768800D02*
X8759100Y10614100D01*
X8751100Y10624700D01*
X8747900Y10637400D01*
X8751100Y10650100D01*
X8759100Y10660600D01*
X8773600Y10667000D01*
X8788100Y10664900D01*
X8802600Y10656400D01*
G01X8677900Y10554800D02*
X8666600Y10544200D01*
X8653800Y10540000D01*
X8640900Y10544200D01*
X8629600Y10556900D01*
X8621600Y10576000D01*
X8618400Y10595000D01*
Y10618300D01*
X8621600Y10637400D01*
X8629600Y10654300D01*
X8639300Y10662800D01*
X8650600Y10667000D01*
X8663400Y10662800D01*
X8673100Y10654300D01*
X8679500Y10641600D01*
X8682700Y10624700D01*
X8679500Y10609900D01*
X8671500Y10595000D01*
X8661800Y10586600D01*
X8650600Y10584400D01*
X8637700Y10588700D01*
X8628000Y10599300D01*
X8618400Y10618300D01*
G01X8749400Y15196400D02*
X8759000Y15202800D01*
X8770300Y15207000D01*
X8783100D01*
X8797600Y15200600D01*
X8808900Y15190100D01*
X8816900Y15177400D01*
X8823400Y15156200D01*
X8825000Y15137100D01*
X8821700Y15118100D01*
X8816900Y15105400D01*
X8807300Y15092700D01*
X8796000Y15084200D01*
X8784800Y15080000D01*
X8773500D01*
X8762200Y15084200D01*
X8752600Y15090600D01*
X8744500Y15099000D01*
G01X8635900Y15080000D02*
Y15207000D01*
X8695500Y15116000D01*
X8615000D01*
G01X8749400Y15436400D02*
X8759000Y15442800D01*
X8770300Y15447000D01*
X8783100D01*
X8797600Y15440600D01*
X8808900Y15430100D01*
X8816900Y15417400D01*
X8823400Y15396200D01*
X8825000Y15377100D01*
X8821700Y15358100D01*
X8816900Y15345400D01*
X8807300Y15332700D01*
X8796000Y15324200D01*
X8784800Y15320000D01*
X8773500D01*
X8762200Y15324200D01*
X8752600Y15330600D01*
X8744500Y15339000D01*
G01X8690600Y15345400D02*
X8681000Y15330600D01*
X8668100Y15322100D01*
X8653600Y15320000D01*
X8640800Y15322100D01*
X8627900Y15332700D01*
X8619900Y15345400D01*
X8618300Y15358100D01*
X8621500Y15372900D01*
X8632700Y15383500D01*
X8644000Y15387700D01*
X8658500D01*
G01X8644000D02*
X8634300Y15394100D01*
X8626300Y15404700D01*
X8623100Y15417400D01*
X8626300Y15430100D01*
X8634300Y15440600D01*
X8648800Y15447000D01*
X8663300Y15444900D01*
X8677800Y15436400D01*
G01X8489400Y16116400D02*
X8499000Y16122800D01*
X8510300Y16127000D01*
X8523100D01*
X8537600Y16120600D01*
X8548900Y16110100D01*
X8556900Y16097400D01*
X8563400Y16076200D01*
X8565000Y16057100D01*
X8561700Y16038100D01*
X8556900Y16025400D01*
X8547300Y16012700D01*
X8536000Y16004200D01*
X8524800Y16000000D01*
X8513500D01*
X8502200Y16004200D01*
X8492600Y16010600D01*
X8484500Y16019000D01*
G01X8430600D02*
X8421000Y16008500D01*
X8409700Y16002100D01*
X8395300Y16000000D01*
X8380800Y16004200D01*
X8369500Y16012700D01*
X8361500Y16027500D01*
X8359900Y16044400D01*
X8363100Y16061400D01*
X8371100Y16072000D01*
X8382400Y16080400D01*
X8393600Y16082500D01*
X8404900Y16080400D01*
X8419400Y16072000D01*
X8414600Y16127000D01*
X8371100D01*
G01X8634200Y16536400D02*
X8643800Y16542800D01*
X8655100Y16547000D01*
X8667900D01*
X8682400Y16540600D01*
X8693700Y16530100D01*
X8701700Y16517400D01*
X8708200Y16496200D01*
X8709800Y16477100D01*
X8706500Y16458100D01*
X8701700Y16445400D01*
X8692100Y16432700D01*
X8680800Y16424200D01*
X8669600Y16420000D01*
X8658300D01*
X8647000Y16424200D01*
X8637400Y16430600D01*
X8629300Y16439000D01*
G01X8540100Y16420000D02*
Y16547000D01*
X8559400Y16521600D01*
G01Y16420000D02*
X8520800D01*
G01X8441100Y16472900D02*
X8429900Y16487700D01*
X8420200Y16496200D01*
X8407300Y16500400D01*
X8396100Y16496200D01*
X8388000Y16487700D01*
X8381600Y16475000D01*
X8380000Y16460200D01*
X8381600Y16447500D01*
X8388000Y16434800D01*
X8397700Y16424200D01*
X8408900Y16420000D01*
X8421800Y16424200D01*
X8433100Y16436900D01*
X8439500Y16456000D01*
X8441100Y16477100D01*
X8437900Y16504700D01*
X8433100Y16519500D01*
X8425000Y16534300D01*
X8413800Y16544900D01*
X8402500Y16547000D01*
X8391200Y16542800D01*
X8383200Y16532200D01*
G01X8634200Y17176400D02*
X8643800Y17182800D01*
X8655100Y17187000D01*
X8667900D01*
X8682400Y17180600D01*
X8693700Y17170100D01*
X8701700Y17157400D01*
X8708200Y17136200D01*
X8709800Y17117100D01*
X8706500Y17098100D01*
X8701700Y17085400D01*
X8692100Y17072700D01*
X8680800Y17064200D01*
X8669600Y17060000D01*
X8658300D01*
X8647000Y17064200D01*
X8637400Y17070600D01*
X8629300Y17079000D01*
G01X8540100Y17060000D02*
Y17187000D01*
X8559400Y17161600D01*
G01Y17060000D02*
X8520800D01*
G01X8413800D02*
X8410600Y17087500D01*
X8405700Y17110800D01*
X8399300Y17132000D01*
X8391200Y17155200D01*
X8378400Y17187000D01*
X8442700D01*
G01X8529400Y17436400D02*
X8539000Y17442800D01*
X8550300Y17447000D01*
X8563100D01*
X8577600Y17440600D01*
X8588900Y17430100D01*
X8596900Y17417400D01*
X8603400Y17396200D01*
X8605000Y17377100D01*
X8601700Y17358100D01*
X8596900Y17345400D01*
X8587300Y17332700D01*
X8576000Y17324200D01*
X8564800Y17320000D01*
X8553500D01*
X8542200Y17324200D01*
X8532600Y17330600D01*
X8524500Y17339000D01*
G01X8465800Y17372900D02*
X8454600Y17387700D01*
X8444900Y17396200D01*
X8432000Y17400400D01*
X8420800Y17396200D01*
X8412700Y17387700D01*
X8406300Y17375000D01*
X8404700Y17360200D01*
X8406300Y17347500D01*
X8412700Y17334800D01*
X8422400Y17324200D01*
X8433600Y17320000D01*
X8446500Y17324200D01*
X8457800Y17336900D01*
X8464200Y17356000D01*
X8465800Y17377100D01*
X8462600Y17404700D01*
X8457800Y17419500D01*
X8449700Y17434300D01*
X8438500Y17444900D01*
X8427200Y17447000D01*
X8415900Y17442800D01*
X8407900Y17432200D01*
G01X8740000Y19823600D02*
X8867000D01*
Y19863800D01*
X8860600Y19876700D01*
X8852200Y19884700D01*
X8835200Y19887900D01*
X8818300Y19884700D01*
X8807700Y19875100D01*
X8801400Y19863800D01*
Y19823600D01*
G01Y19863800D02*
X8740000Y19887900D01*
G01X8845800Y19954700D02*
X8858500Y19964300D01*
X8864900Y19975600D01*
X8867000Y19988500D01*
X8862800Y20004600D01*
X8852200Y20015800D01*
X8839500Y20019000D01*
X8826800Y20017400D01*
X8816200Y20011000D01*
X8795000Y19978800D01*
X8780200Y19964300D01*
X8759000Y19954700D01*
X8740000Y19951500D01*
Y20019000D01*
G01X8867000Y20114700D02*
X8862800Y20101900D01*
X8852200Y20092200D01*
X8839500Y20085800D01*
X8822500Y20081000D01*
X8803500Y20079400D01*
X8784400Y20081000D01*
X8767500Y20085800D01*
X8754800Y20092200D01*
X8744200Y20101900D01*
X8740000Y20114700D01*
X8744200Y20127600D01*
X8754800Y20137300D01*
X8767500Y20143700D01*
X8784400Y20148500D01*
X8803500Y20150100D01*
X8822500Y20148500D01*
X8839500Y20143700D01*
X8852200Y20137300D01*
X8862800Y20127600D01*
X8867000Y20114700D01*
G01X8740000Y20241000D02*
X8767500Y20244200D01*
X8790800Y20249100D01*
X8812000Y20255500D01*
X8835200Y20263600D01*
X8867000Y20276400D01*
Y20212100D01*
G01X8440000Y19823600D02*
X8567000D01*
Y19863800D01*
X8560600Y19876700D01*
X8552200Y19884700D01*
X8535200Y19887900D01*
X8518300Y19884700D01*
X8507700Y19875100D01*
X8501400Y19863800D01*
Y19823600D01*
G01Y19863800D02*
X8440000Y19887900D01*
G01X8545800Y19954700D02*
X8558500Y19964300D01*
X8564900Y19975600D01*
X8567000Y19988500D01*
X8562800Y20004600D01*
X8552200Y20015800D01*
X8539500Y20019000D01*
X8526800Y20017400D01*
X8516200Y20011000D01*
X8495000Y19978800D01*
X8480200Y19964300D01*
X8459000Y19954700D01*
X8440000Y19951500D01*
Y20019000D01*
G01X8567000Y20114700D02*
X8562800Y20101900D01*
X8552200Y20092200D01*
X8539500Y20085800D01*
X8522500Y20081000D01*
X8503500Y20079400D01*
X8484400Y20081000D01*
X8467500Y20085800D01*
X8454800Y20092200D01*
X8444200Y20101900D01*
X8440000Y20114700D01*
X8444200Y20127600D01*
X8454800Y20137300D01*
X8467500Y20143700D01*
X8484400Y20148500D01*
X8503500Y20150100D01*
X8522500Y20148500D01*
X8539500Y20143700D01*
X8552200Y20137300D01*
X8562800Y20127600D01*
X8567000Y20114700D01*
G01X8492900Y20213700D02*
X8507700Y20224900D01*
X8516200Y20234600D01*
X8520400Y20247500D01*
X8516200Y20258700D01*
X8507700Y20266800D01*
X8495000Y20273200D01*
X8480200Y20274800D01*
X8467500Y20273200D01*
X8454800Y20266800D01*
X8444200Y20257100D01*
X8440000Y20245900D01*
X8444200Y20233000D01*
X8456900Y20221700D01*
X8476000Y20215300D01*
X8497100Y20213700D01*
X8524700Y20216900D01*
X8539500Y20221700D01*
X8554300Y20229800D01*
X8564900Y20241000D01*
X8567000Y20252300D01*
X8562800Y20263600D01*
X8552200Y20271600D01*
G01X9424900Y8927000D02*
Y8836000D01*
X9418500Y8816900D01*
X9405600Y8804200D01*
X9389600Y8800000D01*
X9373500Y8804200D01*
X9360600Y8816900D01*
X9354200Y8836000D01*
Y8927000D01*
G01X9290600Y8905800D02*
X9281000Y8918500D01*
X9269700Y8924900D01*
X9256800Y8927000D01*
X9240700Y8922800D01*
X9229500Y8912200D01*
X9226300Y8899500D01*
X9227900Y8886800D01*
X9234300Y8876200D01*
X9266500Y8855000D01*
X9281000Y8840200D01*
X9290600Y8819000D01*
X9293800Y8800000D01*
X9226300D01*
G01X9130600Y8927000D02*
X9143400Y8922800D01*
X9153100Y8912200D01*
X9159500Y8899500D01*
X9164300Y8882500D01*
X9165900Y8863500D01*
X9164300Y8844400D01*
X9159500Y8827500D01*
X9153100Y8814800D01*
X9143400Y8804200D01*
X9130600Y8800000D01*
X9117700Y8804200D01*
X9108000Y8814800D01*
X9101600Y8827500D01*
X9096800Y8844400D01*
X9095200Y8863500D01*
X9096800Y8882500D01*
X9101600Y8899500D01*
X9108000Y8912200D01*
X9117700Y8922800D01*
X9130600Y8927000D01*
G01X9441700Y9800000D02*
Y9927000D01*
X9401500D01*
X9388600Y9920600D01*
X9380600Y9912200D01*
X9377400Y9895200D01*
X9380600Y9878300D01*
X9390200Y9867700D01*
X9401500Y9861400D01*
X9441700D01*
G01X9401500D02*
X9377400Y9800000D01*
G01X9260700D02*
Y9927000D01*
X9320300Y9836000D01*
X9239800D01*
G01X9185900Y9825400D02*
X9176300Y9810600D01*
X9163400Y9802100D01*
X9148900Y9800000D01*
X9136100Y9802100D01*
X9123200Y9812700D01*
X9115200Y9825400D01*
X9113600Y9838100D01*
X9116800Y9852900D01*
X9128000Y9863500D01*
X9139300Y9867700D01*
X9153800D01*
G01X9139300D02*
X9129600Y9874100D01*
X9121600Y9884700D01*
X9118400Y9897400D01*
X9121600Y9910100D01*
X9129600Y9920600D01*
X9144100Y9927000D01*
X9158600Y9924900D01*
X9173100Y9916400D01*
G01X9441700Y10540000D02*
Y10667000D01*
X9401500D01*
X9388600Y10660600D01*
X9380600Y10652200D01*
X9377400Y10635200D01*
X9380600Y10618300D01*
X9390200Y10607700D01*
X9401500Y10601400D01*
X9441700D01*
G01X9401500D02*
X9377400Y10540000D01*
G01X9260700D02*
Y10667000D01*
X9320300Y10576000D01*
X9239800D01*
G01X9181100Y10645800D02*
X9171500Y10658500D01*
X9160200Y10664900D01*
X9147300Y10667000D01*
X9131200Y10662800D01*
X9120000Y10652200D01*
X9116800Y10639500D01*
X9118400Y10626800D01*
X9124800Y10616200D01*
X9157000Y10595000D01*
X9171500Y10580200D01*
X9181100Y10559000D01*
X9184300Y10540000D01*
X9116800D01*
G01X9314200Y14576400D02*
X9323800Y14582800D01*
X9335100Y14587000D01*
X9347900D01*
X9362400Y14580600D01*
X9373700Y14570100D01*
X9381700Y14557400D01*
X9388200Y14536200D01*
X9389800Y14517100D01*
X9386500Y14498100D01*
X9381700Y14485400D01*
X9372100Y14472700D01*
X9360800Y14464200D01*
X9349600Y14460000D01*
X9338300D01*
X9327000Y14464200D01*
X9317400Y14470600D01*
X9309300Y14479000D01*
G01X9223300Y14460000D02*
X9220100Y14487500D01*
X9215200Y14510800D01*
X9208800Y14532000D01*
X9200700Y14555200D01*
X9187900Y14587000D01*
X9252200D01*
G01X9071200Y14460000D02*
Y14587000D01*
X9130800Y14496000D01*
X9050300D01*
G01X9040000Y19823600D02*
X9167000D01*
Y19863800D01*
X9160600Y19876700D01*
X9152200Y19884700D01*
X9135200Y19887900D01*
X9118300Y19884700D01*
X9107700Y19875100D01*
X9101400Y19863800D01*
Y19823600D01*
G01Y19863800D02*
X9040000Y19887900D01*
G01X9145800Y19954700D02*
X9158500Y19964300D01*
X9164900Y19975600D01*
X9167000Y19988500D01*
X9162800Y20004600D01*
X9152200Y20015800D01*
X9139500Y20019000D01*
X9126800Y20017400D01*
X9116200Y20011000D01*
X9095000Y19978800D01*
X9080200Y19964300D01*
X9059000Y19954700D01*
X9040000Y19951500D01*
Y20019000D01*
G01X9167000Y20114700D02*
X9162800Y20101900D01*
X9152200Y20092200D01*
X9139500Y20085800D01*
X9122500Y20081000D01*
X9103500Y20079400D01*
X9084400Y20081000D01*
X9067500Y20085800D01*
X9054800Y20092200D01*
X9044200Y20101900D01*
X9040000Y20114700D01*
X9044200Y20127600D01*
X9054800Y20137300D01*
X9067500Y20143700D01*
X9084400Y20148500D01*
X9103500Y20150100D01*
X9122500Y20148500D01*
X9139500Y20143700D01*
X9152200Y20137300D01*
X9162800Y20127600D01*
X9167000Y20114700D01*
G01X9040000Y20244200D02*
X9042100Y20255500D01*
X9048500Y20268400D01*
X9059000Y20276400D01*
X9073900Y20279600D01*
X9088700Y20276400D01*
X9101400Y20266800D01*
X9107700Y20252300D01*
Y20236200D01*
X9112000Y20226600D01*
X9122500Y20218500D01*
X9137400Y20215300D01*
X9152200Y20220100D01*
X9162800Y20231400D01*
X9167000Y20244200D01*
X9162800Y20257100D01*
X9152200Y20268400D01*
X9137400Y20273200D01*
X9122500Y20270000D01*
X9112000Y20261900D01*
X9107700Y20252300D01*
Y20236200D01*
X9101400Y20221700D01*
X9088700Y20212100D01*
X9073900Y20208900D01*
X9059000Y20212100D01*
X9048500Y20220100D01*
X9042100Y20233000D01*
X9040000Y20244200D01*
G01X9924900Y8927000D02*
Y8836000D01*
X9918500Y8816900D01*
X9905600Y8804200D01*
X9889600Y8800000D01*
X9873500Y8804200D01*
X9860600Y8816900D01*
X9854200Y8836000D01*
Y8927000D01*
G01X9790600Y8905800D02*
X9781000Y8918500D01*
X9769700Y8924900D01*
X9756800Y8927000D01*
X9740700Y8922800D01*
X9729500Y8912200D01*
X9726300Y8899500D01*
X9727900Y8886800D01*
X9734300Y8876200D01*
X9766500Y8855000D01*
X9781000Y8840200D01*
X9790600Y8819000D01*
X9793800Y8800000D01*
X9726300D01*
G01X9630600D02*
Y8927000D01*
X9649900Y8901600D01*
G01Y8800000D02*
X9611300D01*
G01X9941700Y9800000D02*
Y9927000D01*
X9901500D01*
X9888600Y9920600D01*
X9880600Y9912200D01*
X9877400Y9895200D01*
X9880600Y9878300D01*
X9890200Y9867700D01*
X9901500Y9861400D01*
X9941700D01*
G01X9901500D02*
X9877400Y9800000D01*
G01X9760700D02*
Y9927000D01*
X9820300Y9836000D01*
X9739800D01*
G01X9681100Y9852900D02*
X9669900Y9867700D01*
X9660200Y9876200D01*
X9647300Y9880400D01*
X9636100Y9876200D01*
X9628000Y9867700D01*
X9621600Y9855000D01*
X9620000Y9840200D01*
X9621600Y9827500D01*
X9628000Y9814800D01*
X9637700Y9804200D01*
X9648900Y9800000D01*
X9661800Y9804200D01*
X9673100Y9816900D01*
X9679500Y9836000D01*
X9681100Y9857100D01*
X9677900Y9884700D01*
X9673100Y9899500D01*
X9665000Y9914300D01*
X9653800Y9924900D01*
X9642500Y9927000D01*
X9631200Y9922800D01*
X9623200Y9912200D01*
G01X9941700Y10540000D02*
Y10667000D01*
X9901500D01*
X9888600Y10660600D01*
X9880600Y10652200D01*
X9877400Y10635200D01*
X9880600Y10618300D01*
X9890200Y10607700D01*
X9901500Y10601400D01*
X9941700D01*
G01X9901500D02*
X9877400Y10540000D01*
G01X9760700D02*
Y10667000D01*
X9820300Y10576000D01*
X9739800D01*
G01X9685900Y10559000D02*
X9676300Y10548500D01*
X9665000Y10542100D01*
X9650600Y10540000D01*
X9636100Y10544200D01*
X9624800Y10552700D01*
X9616800Y10567500D01*
X9615200Y10584400D01*
X9618400Y10601400D01*
X9626400Y10612000D01*
X9637700Y10620400D01*
X9648900Y10622500D01*
X9660200Y10620400D01*
X9674700Y10612000D01*
X9669900Y10667000D01*
X9626400D01*
G01X10424900Y8927000D02*
Y8836000D01*
X10418500Y8816900D01*
X10405600Y8804200D01*
X10389600Y8800000D01*
X10373500Y8804200D01*
X10360600Y8816900D01*
X10354200Y8836000D01*
Y8927000D01*
G01X10290600Y8905800D02*
X10281000Y8918500D01*
X10269700Y8924900D01*
X10256800Y8927000D01*
X10240700Y8922800D01*
X10229500Y8912200D01*
X10226300Y8899500D01*
X10227900Y8886800D01*
X10234300Y8876200D01*
X10266500Y8855000D01*
X10281000Y8840200D01*
X10290600Y8819000D01*
X10293800Y8800000D01*
X10226300D01*
G01X10161100Y8905800D02*
X10151500Y8918500D01*
X10140200Y8924900D01*
X10127300Y8927000D01*
X10111200Y8922800D01*
X10100000Y8912200D01*
X10096800Y8899500D01*
X10098400Y8886800D01*
X10104800Y8876200D01*
X10137000Y8855000D01*
X10151500Y8840200D01*
X10161100Y8819000D01*
X10164300Y8800000D01*
X10096800D01*
G01X10441700Y9800000D02*
Y9927000D01*
X10401500D01*
X10388600Y9920600D01*
X10380600Y9912200D01*
X10377400Y9895200D01*
X10380600Y9878300D01*
X10390200Y9867700D01*
X10401500Y9861400D01*
X10441700D01*
G01X10401500D02*
X10377400Y9800000D01*
G01X10260700D02*
Y9927000D01*
X10320300Y9836000D01*
X10239800D01*
G01X10177900Y9814800D02*
X10166600Y9804200D01*
X10153800Y9800000D01*
X10140900Y9804200D01*
X10129600Y9816900D01*
X10121600Y9836000D01*
X10118400Y9855000D01*
Y9878300D01*
X10121600Y9897400D01*
X10129600Y9914300D01*
X10139300Y9922800D01*
X10150600Y9927000D01*
X10163400Y9922800D01*
X10173100Y9914300D01*
X10179500Y9901600D01*
X10182700Y9884700D01*
X10179500Y9869900D01*
X10171500Y9855000D01*
X10161800Y9846600D01*
X10150600Y9844400D01*
X10137700Y9848700D01*
X10128000Y9859300D01*
X10118400Y9878300D01*
G01X10441700Y10540000D02*
Y10667000D01*
X10401500D01*
X10388600Y10660600D01*
X10380600Y10652200D01*
X10377400Y10635200D01*
X10380600Y10618300D01*
X10390200Y10607700D01*
X10401500Y10601400D01*
X10441700D01*
G01X10401500D02*
X10377400Y10540000D01*
G01X10260700D02*
Y10667000D01*
X10320300Y10576000D01*
X10239800D01*
G01X10150600Y10540000D02*
X10139300Y10542100D01*
X10126400Y10548500D01*
X10118400Y10559000D01*
X10115200Y10573900D01*
X10118400Y10588700D01*
X10128000Y10601400D01*
X10142500Y10607700D01*
X10158600D01*
X10168200Y10612000D01*
X10176300Y10622500D01*
X10179500Y10637400D01*
X10174700Y10652200D01*
X10163400Y10662800D01*
X10150600Y10667000D01*
X10137700Y10662800D01*
X10126400Y10652200D01*
X10121600Y10637400D01*
X10124800Y10622500D01*
X10132900Y10612000D01*
X10142500Y10607700D01*
X10158600D01*
X10173100Y10601400D01*
X10182700Y10588700D01*
X10185900Y10573900D01*
X10182700Y10559000D01*
X10174700Y10548500D01*
X10161800Y10542100D01*
X10150600Y10540000D01*
G01X10924900Y8927000D02*
Y8836000D01*
X10918500Y8816900D01*
X10905600Y8804200D01*
X10889600Y8800000D01*
X10873500Y8804200D01*
X10860600Y8816900D01*
X10854200Y8836000D01*
Y8927000D01*
G01X10790600Y8905800D02*
X10781000Y8918500D01*
X10769700Y8924900D01*
X10756800Y8927000D01*
X10740700Y8922800D01*
X10729500Y8912200D01*
X10726300Y8899500D01*
X10727900Y8886800D01*
X10734300Y8876200D01*
X10766500Y8855000D01*
X10781000Y8840200D01*
X10790600Y8819000D01*
X10793800Y8800000D01*
X10726300D01*
G01X10665900Y8825400D02*
X10656300Y8810600D01*
X10643400Y8802100D01*
X10628900Y8800000D01*
X10616100Y8802100D01*
X10603200Y8812700D01*
X10595200Y8825400D01*
X10593600Y8838100D01*
X10596800Y8852900D01*
X10608000Y8863500D01*
X10619300Y8867700D01*
X10633800D01*
G01X10619300D02*
X10609600Y8874100D01*
X10601600Y8884700D01*
X10598400Y8897400D01*
X10601600Y8910100D01*
X10609600Y8920600D01*
X10624100Y8927000D01*
X10638600Y8924900D01*
X10653100Y8916400D01*
G01X10941700Y9800000D02*
Y9927000D01*
X10901500D01*
X10888600Y9920600D01*
X10880600Y9912200D01*
X10877400Y9895200D01*
X10880600Y9878300D01*
X10890200Y9867700D01*
X10901500Y9861400D01*
X10941700D01*
G01X10901500D02*
X10877400Y9800000D01*
G01X10815400Y9819000D02*
X10805800Y9808500D01*
X10794500Y9802100D01*
X10780100Y9800000D01*
X10765600Y9804200D01*
X10754300Y9812700D01*
X10746300Y9827500D01*
X10744700Y9844400D01*
X10747900Y9861400D01*
X10755900Y9872000D01*
X10767200Y9880400D01*
X10778400Y9882500D01*
X10789700Y9880400D01*
X10804200Y9872000D01*
X10799400Y9927000D01*
X10755900D01*
G01X10681100Y9905800D02*
X10671500Y9918500D01*
X10660200Y9924900D01*
X10647300Y9927000D01*
X10631200Y9922800D01*
X10620000Y9912200D01*
X10616800Y9899500D01*
X10618400Y9886800D01*
X10624800Y9876200D01*
X10657000Y9855000D01*
X10671500Y9840200D01*
X10681100Y9819000D01*
X10684300Y9800000D01*
X10616800D01*
G01X10941700Y10540000D02*
Y10667000D01*
X10901500D01*
X10888600Y10660600D01*
X10880600Y10652200D01*
X10877400Y10635200D01*
X10880600Y10618300D01*
X10890200Y10607700D01*
X10901500Y10601400D01*
X10941700D01*
G01X10901500D02*
X10877400Y10540000D01*
G01X10815400Y10559000D02*
X10805800Y10548500D01*
X10794500Y10542100D01*
X10780100Y10540000D01*
X10765600Y10544200D01*
X10754300Y10552700D01*
X10746300Y10567500D01*
X10744700Y10584400D01*
X10747900Y10601400D01*
X10755900Y10612000D01*
X10767200Y10620400D01*
X10778400Y10622500D01*
X10789700Y10620400D01*
X10804200Y10612000D01*
X10799400Y10667000D01*
X10755900D01*
G01X10650600Y10540000D02*
Y10667000D01*
X10669900Y10641600D01*
G01Y10540000D02*
X10631300D01*
G01X10854200Y14496400D02*
X10863800Y14502800D01*
X10875100Y14507000D01*
X10887900D01*
X10902400Y14500600D01*
X10913700Y14490100D01*
X10921700Y14477400D01*
X10928200Y14456200D01*
X10929800Y14437100D01*
X10926500Y14418100D01*
X10921700Y14405400D01*
X10912100Y14392700D01*
X10900800Y14384200D01*
X10889600Y14380000D01*
X10878300D01*
X10867000Y14384200D01*
X10857400Y14390600D01*
X10849300Y14399000D01*
G01X10795400Y14405400D02*
X10785800Y14390600D01*
X10772900Y14382100D01*
X10758400Y14380000D01*
X10745600Y14382100D01*
X10732700Y14392700D01*
X10724700Y14405400D01*
X10723100Y14418100D01*
X10726300Y14432900D01*
X10737500Y14443500D01*
X10748800Y14447700D01*
X10763300D01*
G01X10748800D02*
X10739100Y14454100D01*
X10731100Y14464700D01*
X10727900Y14477400D01*
X10731100Y14490100D01*
X10739100Y14500600D01*
X10753600Y14507000D01*
X10768100Y14504900D01*
X10782600Y14496400D01*
G01X10633800Y14380000D02*
X10630600Y14407500D01*
X10625700Y14430800D01*
X10619300Y14452000D01*
X10611200Y14475200D01*
X10598400Y14507000D01*
X10662700D01*
G01X11424900Y8927000D02*
Y8836000D01*
X11418500Y8816900D01*
X11405600Y8804200D01*
X11389600Y8800000D01*
X11373500Y8804200D01*
X11360600Y8816900D01*
X11354200Y8836000D01*
Y8927000D01*
G01X11290600Y8905800D02*
X11281000Y8918500D01*
X11269700Y8924900D01*
X11256800Y8927000D01*
X11240700Y8922800D01*
X11229500Y8912200D01*
X11226300Y8899500D01*
X11227900Y8886800D01*
X11234300Y8876200D01*
X11266500Y8855000D01*
X11281000Y8840200D01*
X11290600Y8819000D01*
X11293800Y8800000D01*
X11226300D01*
G01X11111200D02*
Y8927000D01*
X11170800Y8836000D01*
X11090300D01*
G01X11441700Y9800000D02*
Y9927000D01*
X11401500D01*
X11388600Y9920600D01*
X11380600Y9912200D01*
X11377400Y9895200D01*
X11380600Y9878300D01*
X11390200Y9867700D01*
X11401500Y9861400D01*
X11441700D01*
G01X11401500D02*
X11377400Y9800000D01*
G01X11315400Y9819000D02*
X11305800Y9808500D01*
X11294500Y9802100D01*
X11280100Y9800000D01*
X11265600Y9804200D01*
X11254300Y9812700D01*
X11246300Y9827500D01*
X11244700Y9844400D01*
X11247900Y9861400D01*
X11255900Y9872000D01*
X11267200Y9880400D01*
X11278400Y9882500D01*
X11289700Y9880400D01*
X11304200Y9872000D01*
X11299400Y9927000D01*
X11255900D01*
G01X11185900Y9819000D02*
X11176300Y9808500D01*
X11165000Y9802100D01*
X11150600Y9800000D01*
X11136100Y9804200D01*
X11124800Y9812700D01*
X11116800Y9827500D01*
X11115200Y9844400D01*
X11118400Y9861400D01*
X11126400Y9872000D01*
X11137700Y9880400D01*
X11148900Y9882500D01*
X11160200Y9880400D01*
X11174700Y9872000D01*
X11169900Y9927000D01*
X11126400D01*
G01X11441700Y10540000D02*
Y10667000D01*
X11401500D01*
X11388600Y10660600D01*
X11380600Y10652200D01*
X11377400Y10635200D01*
X11380600Y10618300D01*
X11390200Y10607700D01*
X11401500Y10601400D01*
X11441700D01*
G01X11401500D02*
X11377400Y10540000D01*
G01X11315400Y10559000D02*
X11305800Y10548500D01*
X11294500Y10542100D01*
X11280100Y10540000D01*
X11265600Y10544200D01*
X11254300Y10552700D01*
X11246300Y10567500D01*
X11244700Y10584400D01*
X11247900Y10601400D01*
X11255900Y10612000D01*
X11267200Y10620400D01*
X11278400Y10622500D01*
X11289700Y10620400D01*
X11304200Y10612000D01*
X11299400Y10667000D01*
X11255900D01*
G01X11131200Y10540000D02*
Y10667000D01*
X11190800Y10576000D01*
X11110300D01*
G01X11794200Y8836400D02*
X11803800Y8842800D01*
X11815100Y8847000D01*
X11827900D01*
X11842400Y8840600D01*
X11853700Y8830100D01*
X11861700Y8817400D01*
X11868200Y8796200D01*
X11869800Y8777100D01*
X11866500Y8758100D01*
X11861700Y8745400D01*
X11852100Y8732700D01*
X11840800Y8724200D01*
X11829600Y8720000D01*
X11818300D01*
X11807000Y8724200D01*
X11797400Y8730600D01*
X11789300Y8739000D01*
G01X11700100Y8720000D02*
X11688800Y8722100D01*
X11675900Y8728500D01*
X11667900Y8739000D01*
X11664700Y8753900D01*
X11667900Y8768700D01*
X11677500Y8781400D01*
X11692000Y8787700D01*
X11708100D01*
X11717700Y8792000D01*
X11725800Y8802500D01*
X11729000Y8817400D01*
X11724200Y8832200D01*
X11712900Y8842800D01*
X11700100Y8847000D01*
X11687200Y8842800D01*
X11675900Y8832200D01*
X11671100Y8817400D01*
X11674300Y8802500D01*
X11682400Y8792000D01*
X11692000Y8787700D01*
X11708100D01*
X11722600Y8781400D01*
X11732200Y8768700D01*
X11735400Y8753900D01*
X11732200Y8739000D01*
X11724200Y8728500D01*
X11711300Y8722100D01*
X11700100Y8720000D01*
G01X11605900Y8745400D02*
X11596300Y8730600D01*
X11583400Y8722100D01*
X11568900Y8720000D01*
X11556100Y8722100D01*
X11543200Y8732700D01*
X11535200Y8745400D01*
X11533600Y8758100D01*
X11536800Y8772900D01*
X11548000Y8783500D01*
X11559300Y8787700D01*
X11573800D01*
G01X11559300D02*
X11549600Y8794100D01*
X11541600Y8804700D01*
X11538400Y8817400D01*
X11541600Y8830100D01*
X11549600Y8840600D01*
X11564100Y8847000D01*
X11578600Y8844900D01*
X11593100Y8836400D01*
G01X13134200Y8896400D02*
X13143800Y8902800D01*
X13155100Y8907000D01*
X13167900D01*
X13182400Y8900600D01*
X13193700Y8890100D01*
X13201700Y8877400D01*
X13208200Y8856200D01*
X13209800Y8837100D01*
X13206500Y8818100D01*
X13201700Y8805400D01*
X13192100Y8792700D01*
X13180800Y8784200D01*
X13169600Y8780000D01*
X13158300D01*
X13147000Y8784200D01*
X13137400Y8790600D01*
X13129300Y8799000D01*
G01X13075400Y8805400D02*
X13065800Y8790600D01*
X13052900Y8782100D01*
X13038400Y8780000D01*
X13025600Y8782100D01*
X13012700Y8792700D01*
X13004700Y8805400D01*
X13003100Y8818100D01*
X13006300Y8832900D01*
X13017500Y8843500D01*
X13028800Y8847700D01*
X13043300D01*
G01X13028800D02*
X13019100Y8854100D01*
X13011100Y8864700D01*
X13007900Y8877400D01*
X13011100Y8890100D01*
X13019100Y8900600D01*
X13033600Y8907000D01*
X13048100Y8904900D01*
X13062600Y8896400D01*
G01X12937900Y8794800D02*
X12926600Y8784200D01*
X12913800Y8780000D01*
X12900900Y8784200D01*
X12889600Y8796900D01*
X12881600Y8816000D01*
X12878400Y8835000D01*
Y8858300D01*
X12881600Y8877400D01*
X12889600Y8894300D01*
X12899300Y8902800D01*
X12910600Y8907000D01*
X12923400Y8902800D01*
X12933100Y8894300D01*
X12939500Y8881600D01*
X12942700Y8864700D01*
X12939500Y8849900D01*
X12931500Y8835000D01*
X12921800Y8826600D01*
X12910600Y8824400D01*
X12897700Y8828700D01*
X12888000Y8839300D01*
X12878400Y8858300D01*
G01X13136900Y10720000D02*
Y10847000D01*
X13096700D01*
X13083800Y10840600D01*
X13075800Y10832200D01*
X13072600Y10815200D01*
X13075800Y10798300D01*
X13085400Y10787700D01*
X13096700Y10781400D01*
X13136900D01*
G01X13096700D02*
X13072600Y10720000D01*
G01X12975300D02*
X12964000Y10722100D01*
X12951100Y10728500D01*
X12943100Y10739000D01*
X12939900Y10753900D01*
X12943100Y10768700D01*
X12952700Y10781400D01*
X12967200Y10787700D01*
X12983300D01*
X12992900Y10792000D01*
X13001000Y10802500D01*
X13004200Y10817400D01*
X12999400Y10832200D01*
X12988100Y10842800D01*
X12975300Y10847000D01*
X12962400Y10842800D01*
X12951100Y10832200D01*
X12946300Y10817400D01*
X12949500Y10802500D01*
X12957600Y10792000D01*
X12967200Y10787700D01*
X12983300D01*
X12997800Y10781400D01*
X13007400Y10768700D01*
X13010600Y10753900D01*
X13007400Y10739000D01*
X12999400Y10728500D01*
X12986500Y10722100D01*
X12975300Y10720000D01*
G01X13600100Y9427000D02*
Y9336000D01*
X13593700Y9316900D01*
X13580800Y9304200D01*
X13564800Y9300000D01*
X13548700Y9304200D01*
X13535800Y9316900D01*
X13529400Y9336000D01*
Y9427000D01*
G01X13435300Y9300000D02*
X13424000Y9302100D01*
X13411100Y9308500D01*
X13403100Y9319000D01*
X13399900Y9333900D01*
X13403100Y9348700D01*
X13412700Y9361400D01*
X13427200Y9367700D01*
X13443300D01*
X13452900Y9372000D01*
X13461000Y9382500D01*
X13464200Y9397400D01*
X13459400Y9412200D01*
X13448100Y9422800D01*
X13435300Y9427000D01*
X13422400Y9422800D01*
X13411100Y9412200D01*
X13406300Y9397400D01*
X13409500Y9382500D01*
X13417600Y9372000D01*
X13427200Y9367700D01*
X13443300D01*
X13457800Y9361400D01*
X13467400Y9348700D01*
X13470600Y9333900D01*
X13467400Y9319000D01*
X13459400Y9308500D01*
X13446500Y9302100D01*
X13435300Y9300000D01*
M02*
