G04 ================== begin FILE IDENTIFICATION RECORD ==================*
G04 Layout Name:  D:/BSK/02v4/pcb/BSK_02v4.brd*
G04 Film Name:    SILK_BOT*
G04 File Format:  Gerber RS274X*
G04 File Origin:  Cadence Allegro 16.6-2015-S105*
G04 Origin Date:  Tue Oct 16 14:00:44 2018*
G04 *
G04 Layer:  MANUFACTURING/AUTOSILK_BOTTOM*
G04 *
G04 Offset:    (0.000 0.000)*
G04 Mirror:    No*
G04 Mode:      Positive*
G04 Rotation:  0*
G04 FullContactRelief:  No*
G04 UndefLineWidth:     0.200*
G04 ================== end FILE IDENTIFICATION RECORD ====================*
%FSLAX35Y35*MOMM*%
%IR0*IPPOS*OFA0.00000B0.00000*MIA0B0*SFA1.00000B1.00000*%
%ADD10C,.2*%
%ADD11C,.3*%
%ADD12C,.4*%
%ADD13C,.15*%
G75*
%LPD*%
G75*
G54D10*
G01X-60000Y9525000D02*
X-420000D01*
Y9235000D01*
X-60000D01*
Y9525000D01*
G01Y10280000D02*
X-380000D01*
G01X-400000Y10300000D02*
Y10460000D01*
G01X-380000Y10480000D02*
X-60000D01*
G01X440000Y9525000D02*
X80000D01*
Y9235000D01*
X440000D01*
Y9525000D01*
G01X-40000Y10460000D02*
Y10300000D01*
G01X440000Y10280000D02*
X120000D01*
G01X100000Y10300000D02*
Y10460000D01*
G01X120000Y10480000D02*
X440000D01*
G01X335000Y13950000D02*
X280000D01*
Y13250000D01*
X335000D01*
G01X650000Y7310000D02*
X750000D01*
G01X700000Y7360000D02*
Y7260000D01*
G01X500000Y8100000D02*
Y7400000D01*
X555000D01*
G01X845000D02*
X900000D01*
Y8100000D01*
X845000D01*
G01X555000D02*
X500000D01*
G01X940000Y9525000D02*
X580000D01*
Y9235000D01*
X940000D01*
Y9525000D01*
G01Y10280000D02*
X620000D01*
G01X600000Y10300000D02*
Y10460000D01*
G01X620000Y10480000D02*
X940000D01*
G01X460000Y10460000D02*
Y10300000D01*
G01X680000Y13250000D02*
Y13950000D01*
X625000D01*
G01Y13250000D02*
X680000D01*
G01X530000Y14040000D02*
X430000D01*
G01X480000Y13990000D02*
Y14090000D01*
G01X832500Y16753500D02*
X802500D01*
G01Y16398600D02*
Y16393500D01*
G01D02*
X832500D01*
G01X802500Y16753500D02*
Y16748400D01*
G01X832500Y17261500D02*
X802500D01*
G01Y16906600D02*
Y16901500D01*
G01D02*
X832500D01*
G01X802500Y17261500D02*
Y17256400D01*
G01X832500Y17769500D02*
X802500D01*
G01Y17414600D02*
Y17409500D01*
G01D02*
X832500D01*
G01X802500Y17769500D02*
Y17764400D01*
G01Y18430600D02*
Y18425500D01*
G01D02*
X832500D01*
G01Y18277500D02*
X802500D01*
G01Y17922600D02*
Y17917500D01*
G01D02*
X832500D01*
G01X802500Y18277500D02*
Y18272400D01*
G01X832500Y18785500D02*
X802500D01*
G01D02*
Y18780400D01*
G01Y18938600D02*
Y18933500D01*
G01D02*
X832500D01*
G01X802500Y19446600D02*
Y19441500D01*
G01D02*
X832500D01*
G01Y19293500D02*
X802500D01*
G01D02*
Y19288400D01*
G01X832500Y19801500D02*
X802500D01*
G01D02*
Y19796400D01*
G01X1440000Y9525000D02*
X1080000D01*
Y9235000D01*
X1440000D01*
Y9525000D01*
G01X960000Y10460000D02*
Y10300000D01*
G01X1440000Y10280000D02*
X1120000D01*
G01X1100000Y10300000D02*
Y10460000D01*
G01X1120000Y10480000D02*
X1440000D01*
G01X1072500Y16753500D02*
X1102500D01*
G01Y16398600D02*
Y16393500D01*
G01D02*
X1072500D01*
G01X1102500Y16753500D02*
Y16748400D01*
G01X1211100Y16745100D02*
X1388900D01*
Y16414900D01*
X1211100D01*
Y16745100D01*
G01X1072500Y17261500D02*
X1102500D01*
G01Y16906600D02*
Y16901500D01*
G01D02*
X1072500D01*
G01X1102500Y17261500D02*
Y17256400D01*
G01X1388900Y16914900D02*
X1211100D01*
Y17245100D01*
X1388900D01*
Y16914900D01*
G01X1072500Y17769500D02*
X1102500D01*
G01Y17414600D02*
Y17409500D01*
G01D02*
X1072500D01*
G01X1102500Y17769500D02*
Y17764400D01*
G01X1211100Y17765100D02*
X1388900D01*
Y17434900D01*
X1211100D01*
Y17765100D01*
G01X1102500Y18430600D02*
Y18425500D01*
G01D02*
X1072500D01*
G01Y18277500D02*
X1102500D01*
G01Y17922600D02*
Y17917500D01*
G01D02*
X1072500D01*
G01X1102500Y18277500D02*
Y18272400D01*
G01X1211100Y18265100D02*
X1388900D01*
Y17934900D01*
X1211100D01*
Y18265100D01*
G01X1388900Y18434900D02*
X1211100D01*
Y18765100D01*
X1388900D01*
Y18434900D01*
G01X1072500Y18785500D02*
X1102500D01*
G01D02*
Y18780400D01*
G01Y18938600D02*
Y18933500D01*
G01D02*
X1072500D01*
G01X1211100Y19285100D02*
X1388900D01*
Y18954900D01*
X1211100D01*
Y19285100D01*
G01X1102500Y19446600D02*
Y19441500D01*
G01D02*
X1072500D01*
G01Y19293500D02*
X1102500D01*
G01D02*
Y19288400D01*
G01X1388900Y19454900D02*
X1211100D01*
Y19785100D01*
X1388900D01*
Y19454900D01*
G01X1072500Y19801500D02*
X1102500D01*
G01D02*
Y19796400D01*
G01X1990000Y21290000D02*
Y20710000D01*
X1410000D01*
Y21290000D01*
X1990000D01*
G01X1410000Y21070000D02*
X1990000D01*
G01X1410000Y21050000D02*
X1990000D01*
G01X1410000Y21030000D02*
X1990000D01*
G01X1410000Y21010000D02*
X1990000D01*
G01X1410000Y20990000D02*
X1990000D01*
G01X1410000Y20970000D02*
X1990000D01*
G01X1410000Y20950000D02*
X1990000D01*
G01X1410000Y20930000D02*
X1990000D01*
G01X1410000Y20910000D02*
X1990000D01*
G01X1410000Y20890000D02*
X1990000D01*
G01X1410000Y20870000D02*
X1990000D01*
G01X1410000Y20850000D02*
X1990000D01*
G01X1410000Y20830000D02*
X1990000D01*
G01X1410000Y20810000D02*
X1990000D01*
G01X1410000Y20790000D02*
X1990000D01*
G01X1410000Y20770000D02*
X1990000D01*
G01X1410000Y20750000D02*
X1990000D01*
G01X1410000Y20730000D02*
X1990000D01*
G01X1410000Y21270000D02*
X1990000D01*
G01X1410000Y21250000D02*
X1990000D01*
G01X1410000Y21230000D02*
X1990000D01*
G01X1410000Y21210000D02*
X1990000D01*
G01X1410000Y21190000D02*
X1990000D01*
G01X1410000Y21170000D02*
X1990000D01*
G01X1410000Y21150000D02*
X1990000D01*
G01X1410000Y21130000D02*
X1990000D01*
G01X1410000Y21110000D02*
X1990000D01*
G01X1410000Y21090000D02*
X1990000D01*
G01X1940000Y9525000D02*
X1580000D01*
Y9235000D01*
X1940000D01*
Y9525000D01*
G01Y10280000D02*
X1620000D01*
G01X1600000Y10300000D02*
Y10460000D01*
G01X1620000Y10480000D02*
X1940000D01*
G01X1960000Y10460000D02*
Y10300000D01*
G01X1460000Y10460000D02*
Y10300000D01*
G01X1820000Y18340000D02*
X1790000D01*
G01Y17985000D02*
Y17980000D01*
G01D02*
X1820000D01*
G01X1790000Y18340000D02*
Y18335000D01*
G01Y18425000D02*
Y18420000D01*
G01D02*
X1820000D01*
G01X1728900Y17994900D02*
X1551100D01*
Y18325100D01*
X1728900D01*
Y17994900D01*
G01X1820000Y18780000D02*
X1790000D01*
G01D02*
Y18775000D01*
G01Y18925000D02*
Y18920000D01*
G01D02*
X1820000D01*
G01X1551100Y18785100D02*
X1728900D01*
Y18454900D01*
X1551100D01*
Y18785100D01*
G01X1728900Y18934900D02*
X1551100D01*
Y19265100D01*
X1728900D01*
Y18934900D01*
G01X1790000Y19365000D02*
Y19360000D01*
G01D02*
X1820000D01*
G01Y19280000D02*
X1790000D01*
G01D02*
Y19275000D01*
G01X1551100Y19705100D02*
X1728900D01*
Y19374900D01*
X1551100D01*
Y19705100D01*
G01X1820000Y19720000D02*
X1790000D01*
G01D02*
Y19715000D01*
G01X2440000Y9525000D02*
X2080000D01*
Y9235000D01*
X2440000D01*
Y9525000D01*
G01Y10280000D02*
X2120000D01*
G01X2100000Y10300000D02*
Y10460000D01*
G01X2120000Y10480000D02*
X2440000D01*
G01X2460000Y10460000D02*
Y10300000D01*
G01X2060000Y18340000D02*
X2090000D01*
G01Y17985000D02*
Y17980000D01*
G01D02*
X2060000D01*
G01X2090000Y18340000D02*
Y18335000D01*
G01Y18425000D02*
Y18420000D01*
G01D02*
X2060000D01*
G01Y18780000D02*
X2090000D01*
G01D02*
Y18775000D01*
G01Y18925000D02*
Y18920000D01*
G01D02*
X2060000D01*
G01X2090000Y19365000D02*
Y19360000D01*
G01D02*
X2060000D01*
G01Y19280000D02*
X2090000D01*
G01D02*
Y19275000D01*
G01X2060000Y19720000D02*
X2090000D01*
G01D02*
Y19715000D01*
G01X2420000Y20180000D02*
Y19820000D01*
G01D02*
X2620000D01*
G01Y20180000D02*
X2420000D01*
G01X2940000Y9525000D02*
X2580000D01*
Y9235000D01*
X2940000D01*
Y9525000D01*
G01Y10280000D02*
X2620000D01*
G01X2600000Y10300000D02*
Y10460000D01*
G01X2620000Y10480000D02*
X2940000D01*
G01X2960000Y10460000D02*
Y10300000D01*
G01X2885100Y14548900D02*
Y14371100D01*
X2554900D01*
Y14548900D01*
X2885100D01*
G01X2620000Y19820000D02*
Y20180000D01*
G01X2991100Y20165100D02*
X3168900D01*
Y19834900D01*
X2991100D01*
Y20165100D01*
G01X3440000Y9525000D02*
X3080000D01*
Y9235000D01*
X3440000D01*
Y9525000D01*
G01Y10280000D02*
X3120000D01*
G01X3100000Y10300000D02*
Y10460000D01*
G01X3120000Y10480000D02*
X3440000D01*
G01X3460000Y10460000D02*
Y10300000D01*
G01X3140000Y15300000D02*
Y15100000D01*
G01D02*
X3500000D01*
G01D02*
Y15300000D01*
G01D02*
X3140000D01*
G01X3320000Y16040000D02*
Y16400000D01*
G01X3120000D02*
Y16040000D01*
G01D02*
X3320000D01*
G01Y16400000D02*
X3120000D01*
G01X3280000Y19000000D02*
Y18640000D01*
G01D02*
X3480000D01*
G01D02*
Y19000000D01*
G01D02*
X3280000D01*
G01X3680000Y20080000D02*
X3520000D01*
G01X3500000Y20100000D02*
Y20420000D01*
G01X3520000Y20440000D02*
X3680000D01*
G01X3580000Y9235000D02*
X3940000D01*
Y9525000D01*
X3580000D01*
Y9235000D01*
G01X3960000Y10160000D02*
Y10000000D01*
G01X3940000Y9980000D02*
X3620000D01*
G01X3600000Y10000000D02*
Y10160000D01*
G01X3940000Y10280000D02*
X3620000D01*
G01X3600000Y10300000D02*
Y10460000D01*
G01X3620000Y10480000D02*
X3940000D01*
G01X3960000Y10460000D02*
Y10300000D01*
G01X3620000Y10180000D02*
X3940000D01*
G01X3591100Y16385100D02*
X3768900D01*
Y16054900D01*
X3591100D01*
Y16385100D01*
G01X3928900Y18654900D02*
X3751100D01*
Y18985100D01*
X3928900D01*
Y18654900D01*
G01X3700000Y20420000D02*
Y20100000D01*
G01X4080000D02*
X3920000D01*
G01X3900000Y20120000D02*
Y20440000D01*
G01X3920000Y20460000D02*
X4080000D01*
G01Y9235000D02*
X4440000D01*
Y9525000D01*
X4080000D01*
Y9235000D01*
G01X4580000D02*
X4940000D01*
Y9525000D01*
X4580000D01*
Y9235000D01*
G01X4460000Y10160000D02*
Y10000000D01*
G01X4440000Y9980000D02*
X4120000D01*
G01X4100000Y10000000D02*
Y10160000D01*
G01X4440000Y10280000D02*
X4120000D01*
G01X4100000Y10300000D02*
Y10460000D01*
G01X4120000Y10480000D02*
X4440000D01*
G01X4460000Y10460000D02*
Y10300000D01*
G01X4120000Y10180000D02*
X4440000D01*
G01X4685100Y15288900D02*
Y15111100D01*
X4354900D01*
Y15288900D01*
X4685100D01*
G01X4100000Y20440000D02*
Y20120000D01*
G01X5080000Y9235000D02*
X5440000D01*
Y9525000D01*
X5080000D01*
Y9235000D01*
G01X4960000Y10160000D02*
Y10000000D01*
G01X4940000Y9980000D02*
X4620000D01*
G01X4600000Y10000000D02*
Y10160000D01*
G01X5440000Y9980000D02*
X5120000D01*
G01X5100000Y10000000D02*
Y10160000D01*
G01X4940000Y10280000D02*
X4620000D01*
G01X4600000Y10300000D02*
Y10460000D01*
G01X4620000Y10480000D02*
X4940000D01*
G01X4960000Y10460000D02*
Y10300000D01*
G01X4620000Y10180000D02*
X4940000D01*
G01X5440000Y10280000D02*
X5120000D01*
G01X5100000Y10300000D02*
Y10460000D01*
G01X5120000Y10480000D02*
X5440000D01*
G01X5120000Y10180000D02*
X5440000D01*
G01X4720000Y18380000D02*
Y18700000D01*
X4880000D01*
Y18380000D01*
X4720000D01*
G01X5580000Y9235000D02*
X5940000D01*
Y9525000D01*
X5580000D01*
Y9235000D01*
G01X5460000Y10160000D02*
Y10000000D01*
G01X5940000Y9980000D02*
X5620000D01*
G01X5600000Y10000000D02*
Y10160000D01*
G01X5460000Y10460000D02*
Y10300000D01*
G01X5940000Y10280000D02*
X5620000D01*
G01X5600000Y10300000D02*
Y10460000D01*
G01X5620000Y10480000D02*
X5940000D01*
G01X5620000Y10180000D02*
X5940000D01*
G01X5440000Y18140000D02*
X5760000D01*
Y17980000D01*
X5440000D01*
Y18140000D01*
G01X6080000Y9235000D02*
X6440000D01*
Y9525000D01*
X6080000D01*
Y9235000D01*
G01X5960000Y10160000D02*
Y10000000D01*
G01X6440000Y9980000D02*
X6120000D01*
G01X6100000Y10000000D02*
Y10160000D01*
G01X5960000Y10460000D02*
Y10300000D01*
G01X6440000Y10280000D02*
X6120000D01*
G01X6100000Y10300000D02*
Y10460000D01*
G01X6120000Y10480000D02*
X6440000D01*
G01X6120000Y10180000D02*
X6440000D01*
G01X5960000Y18140000D02*
X6280000D01*
Y17980000D01*
X5960000D01*
Y18140000D01*
G01X6580000Y9235000D02*
X6940000D01*
Y9525000D01*
X6580000D01*
Y9235000D01*
G01X6460000Y10160000D02*
Y10000000D01*
G01X6940000Y9980000D02*
X6620000D01*
G01X6600000Y10000000D02*
Y10160000D01*
G01X6460000Y10460000D02*
Y10300000D01*
G01X6940000Y10280000D02*
X6620000D01*
G01X6600000Y10300000D02*
Y10460000D01*
G01X6620000Y10480000D02*
X6940000D01*
G01X6620000Y10180000D02*
X6940000D01*
G01X6594900Y15791100D02*
Y15968900D01*
X6925100D01*
Y15791100D01*
X6594900D01*
G01X6568900Y15934900D02*
X6391100D01*
Y16265100D01*
X6568900D01*
Y15934900D01*
G01X6374900Y16371100D02*
Y16548900D01*
X6705100D01*
Y16371100D01*
X6374900D01*
G01X6548900Y16614900D02*
X6371100D01*
Y16945100D01*
X6548900D01*
Y16614900D01*
G01X6391100Y17585100D02*
X6568900D01*
Y17254900D01*
X6391100D01*
Y17585100D01*
G01X6674900Y17551100D02*
Y17728900D01*
X7005100D01*
Y17551100D01*
X6674900D01*
G01X7080000Y9235000D02*
X7440000D01*
Y9525000D01*
X7080000D01*
Y9235000D01*
G01X6960000Y10160000D02*
Y10000000D01*
G01X7440000Y9980000D02*
X7120000D01*
G01X7100000Y10000000D02*
Y10160000D01*
G01X6960000Y10460000D02*
Y10300000D01*
G01X7440000Y10280000D02*
X7120000D01*
G01X7100000Y10300000D02*
Y10460000D01*
G01X7120000Y10480000D02*
X7440000D01*
G01X7120000Y10180000D02*
X7440000D01*
G01X7188900Y15794900D02*
X7011100D01*
Y16125100D01*
X7188900D01*
Y15794900D01*
G01X7068900Y16394900D02*
X6891100D01*
Y16725100D01*
X7068900D01*
Y16394900D01*
G01X7410000Y16940000D02*
X7110000D01*
Y16860000D01*
X7410000D01*
Y16940000D01*
G01X6914900Y17131100D02*
Y17308900D01*
X7245100D01*
Y17131100D01*
X6914900D01*
G01X7094900Y17431100D02*
Y17608900D01*
X7425100D01*
Y17431100D01*
X7094900D01*
G01X7580000Y9235000D02*
X7940000D01*
Y9525000D01*
X7580000D01*
Y9235000D01*
G01X7460000Y10160000D02*
Y10000000D01*
G01X7940000Y9980000D02*
X7620000D01*
G01X7600000Y10000000D02*
Y10160000D01*
G01X7460000Y10460000D02*
Y10300000D01*
G01X7940000Y10280000D02*
X7620000D01*
G01X7600000Y10300000D02*
Y10460000D01*
G01X7620000Y10480000D02*
X7940000D01*
G01X7620000Y10180000D02*
X7940000D01*
G01X7474900Y15791100D02*
Y15968900D01*
X7805100D01*
Y15791100D01*
X7474900D01*
G01X7765100Y16188900D02*
Y16011100D01*
X7434900D01*
Y16188900D01*
X7765100D01*
G01X7785100Y17128900D02*
Y16951100D01*
X7454900D01*
Y17128900D01*
X7785100D01*
G01X7474900Y17551100D02*
Y17728900D01*
X7805100D01*
Y17551100D01*
X7474900D01*
G01X8080000Y9235000D02*
X8440000D01*
Y9525000D01*
X8080000D01*
Y9235000D01*
G01X7960000Y10160000D02*
Y10000000D01*
G01X8440000Y9980000D02*
X8120000D01*
G01X8100000Y10000000D02*
Y10160000D01*
G01X7960000Y10460000D02*
Y10300000D01*
G01X8440000Y10280000D02*
X8120000D01*
G01X8100000Y10300000D02*
Y10460000D01*
G01X8120000Y10480000D02*
X8440000D01*
G01X8120000Y10180000D02*
X8440000D01*
G01X8565100Y15228900D02*
Y15051100D01*
X8234900D01*
Y15228900D01*
X8565100D01*
G01Y15468900D02*
Y15291100D01*
X8234900D01*
Y15468900D01*
X8565100D01*
G01X8135000Y15605000D02*
Y15915000D01*
X7985000D01*
Y15605000D01*
X8135000D01*
G01X8151100Y16565100D02*
X8328900D01*
Y16234900D01*
X8151100D01*
Y16565100D01*
G01X8305100Y16148900D02*
Y15971100D01*
X7974900D01*
Y16148900D01*
X8305100D01*
G01X8088900Y16494900D02*
X7911100D01*
Y16825100D01*
X8088900D01*
Y16494900D01*
G01X8328900Y16874900D02*
X8151100D01*
Y17205100D01*
X8328900D01*
Y16874900D01*
G01X8365100Y17468900D02*
Y17291100D01*
X8034900D01*
Y17468900D01*
X8365100D01*
G01X8205100Y17728900D02*
Y17551100D01*
X7874900D01*
Y17728900D01*
X8205100D01*
G01X8580000Y9235000D02*
X8940000D01*
Y9525000D01*
X8580000D01*
Y9235000D01*
G01X8460000Y10160000D02*
Y10000000D01*
G01X8940000Y9980000D02*
X8620000D01*
G01X8600000Y10000000D02*
Y10160000D01*
G01X8460000Y10460000D02*
Y10300000D01*
G01X8940000Y10280000D02*
X8620000D01*
G01X8600000Y10300000D02*
Y10460000D01*
G01X8620000Y10480000D02*
X8940000D01*
G01X8620000Y10180000D02*
X8940000D01*
G01X8880000Y19740000D02*
Y19420000D01*
X8720000D01*
Y19740000D01*
X8880000D01*
G01X8580000D02*
Y19420000D01*
X8420000D01*
Y19740000D01*
X8580000D01*
G01X9080000Y9235000D02*
X9440000D01*
Y9525000D01*
X9080000D01*
Y9235000D01*
G01X8960000Y10160000D02*
Y10000000D01*
G01X9440000Y9980000D02*
X9120000D01*
G01X9100000Y10000000D02*
Y10160000D01*
G01X8960000Y10460000D02*
Y10300000D01*
G01X9440000Y10280000D02*
X9120000D01*
G01X9100000Y10300000D02*
Y10460000D01*
G01X9120000Y10480000D02*
X9440000D01*
G01X9120000Y10180000D02*
X9440000D01*
G01X8820000Y14600000D02*
Y14240000D01*
G01D02*
X9020000D01*
G01D02*
Y14600000D01*
G01D02*
X8820000D01*
G01X9480000Y19740000D02*
Y19420000D01*
X9320000D01*
Y19740000D01*
X9480000D01*
G01X9180000D02*
Y19420000D01*
X9020000D01*
Y19740000D01*
X9180000D01*
G01X9580000Y9235000D02*
X9940000D01*
Y9525000D01*
X9580000D01*
Y9235000D01*
G01X9460000Y10160000D02*
Y10000000D01*
G01X9940000Y9980000D02*
X9620000D01*
G01X9600000Y10000000D02*
Y10160000D01*
G01X9460000Y10460000D02*
Y10300000D01*
G01X9940000Y10280000D02*
X9620000D01*
G01X9600000Y10300000D02*
Y10460000D01*
G01X9620000Y10480000D02*
X9940000D01*
G01X9620000Y10180000D02*
X9940000D01*
G01X9780000Y19740000D02*
Y19420000D01*
X9620000D01*
Y19740000D01*
X9780000D01*
G01X10080000Y9235000D02*
X10440000D01*
Y9525000D01*
X10080000D01*
Y9235000D01*
G01X9960000Y10160000D02*
Y10000000D01*
G01X10440000Y9980000D02*
X10120000D01*
G01X10100000Y10000000D02*
Y10160000D01*
G01X9960000Y10460000D02*
Y10300000D01*
G01X10440000Y10280000D02*
X10120000D01*
G01X10100000Y10300000D02*
Y10460000D01*
G01X10120000Y10480000D02*
X10440000D01*
G01X10120000Y10180000D02*
X10440000D01*
G01X10371100Y14525100D02*
X10548900D01*
Y14194900D01*
X10371100D01*
Y14525100D01*
G01X10580000Y9235000D02*
X10940000D01*
Y9525000D01*
X10580000D01*
Y9235000D01*
G01X10460000Y10160000D02*
Y10000000D01*
G01X10940000Y9980000D02*
X10620000D01*
G01X10600000Y10000000D02*
Y10160000D01*
G01X10460000Y10460000D02*
Y10300000D01*
G01X10940000Y10280000D02*
X10620000D01*
G01X10600000Y10300000D02*
Y10460000D01*
G01X10620000Y10480000D02*
X10940000D01*
G01X10620000Y10180000D02*
X10940000D01*
G01X11080000Y9235000D02*
X11440000D01*
Y9525000D01*
X11080000D01*
Y9235000D01*
G01X10960000Y10160000D02*
Y10000000D01*
G01X11440000Y9980000D02*
X11120000D01*
G01X11100000Y10000000D02*
Y10160000D01*
G01X10960000Y10460000D02*
Y10300000D01*
G01X11440000Y10280000D02*
X11120000D01*
G01X11100000Y10300000D02*
Y10460000D01*
G01X11120000Y10480000D02*
X11440000D01*
G01X11120000Y10180000D02*
X11440000D01*
G01X11920000Y8700000D02*
X12280000D01*
G01Y8900000D02*
X11920000D01*
G01D02*
Y8700000D01*
G01X11460000Y10160000D02*
Y10000000D01*
G01Y10460000D02*
Y10300000D01*
G01X12280000Y8700000D02*
Y8900000D01*
G01X12494900Y8751100D02*
Y8928900D01*
X12825100D01*
Y8751100D01*
X12494900D01*
G01X13340400Y9452000D02*
X12819600D01*
Y9268000D01*
X13340400D01*
Y9452000D01*
G01X12860000Y10680000D02*
X12540000D01*
G01X12520000Y10700000D02*
Y10860000D01*
G01X12540000Y10880000D02*
X12860000D01*
G01X12880000Y10860000D02*
Y10700000D01*
G54D11*
G01X7470000Y16720000D02*
G03I-20000J0D01*
G54D12*
G01X-449000Y9688800D02*
G03X-469000Y9708800I-20000J0D01*
G01D02*
G03X-489000Y9688800I0J-20000D01*
G01D02*
G03X-469000Y9668700I20000J-100D01*
G01D02*
G03X-449000Y9688800I0J20000D01*
G01X51000D02*
G03X31000Y9708800I-20000J0D01*
G01D02*
G03X11000Y9688800I0J-20000D01*
G01D02*
G03X31000Y9668700I20000J-100D01*
G01D02*
G03X51000Y9688800I0J20000D01*
G01X551000D02*
G03X531000Y9708800I-20000J0D01*
G01D02*
G03X511000Y9688800I0J-20000D01*
G01D02*
G03X531000Y9668700I20000J-100D01*
G01D02*
G03X551000Y9688800I0J20000D01*
G01X1051000D02*
G03X1031000Y9708800I-20000J0D01*
G01D02*
G03X1011000Y9688800I0J-20000D01*
G01D02*
G03X1031000Y9668700I20000J-100D01*
G01D02*
G03X1051000Y9688800I0J20000D01*
G01X1551000D02*
G03X1531000Y9708800I-20000J0D01*
G01D02*
G03X1511000Y9688800I0J-20000D01*
G01D02*
G03X1531000Y9668700I20000J-100D01*
G01D02*
G03X1551000Y9688800I0J20000D01*
G01X2051000D02*
G03X2031000Y9708800I-20000J0D01*
G01D02*
G03X2011000Y9688800I0J-20000D01*
G01D02*
G03X2031000Y9668700I20000J-100D01*
G01D02*
G03X2051000Y9688800I0J20000D01*
G01X2551000D02*
G03X2531000Y9708800I-20000J0D01*
G01D02*
G03X2511000Y9688800I0J-20000D01*
G01D02*
G03X2531000Y9668700I20000J-100D01*
G01D02*
G03X2551000Y9688800I0J20000D01*
G01X3031000Y9708800D02*
G03X3011000Y9688800I0J-20000D01*
G01D02*
G03X3031000Y9668700I20000J-100D01*
G01X3051000Y9688800D02*
G03X3031000Y9708800I-20000J0D01*
G01Y9668700D02*
G03X3051000Y9688800I0J20000D01*
G01X4009000Y9071200D02*
G03X3989000Y9091300I-20000J100D01*
G01D02*
G03X3969000Y9071200I0J-20000D01*
G01D02*
G03X3989000Y9051200I20000J0D01*
G01D02*
G03X4009000Y9071200I0J20000D01*
G01X4509000D02*
G03X4489000Y9091300I-20000J100D01*
G01D02*
G03X4469000Y9071200I0J-20000D01*
G01D02*
G03X4489000Y9051200I20000J0D01*
G01D02*
G03X4509000Y9071200I0J20000D01*
G01X5009000D02*
G03X4989000Y9091300I-20000J100D01*
G01D02*
G03X4969000Y9071200I0J-20000D01*
G01D02*
G03X4989000Y9051200I20000J0D01*
G01D02*
G03X5009000Y9071200I0J20000D01*
G01X5509000D02*
G03X5489000Y9091300I-20000J100D01*
G01D02*
G03X5469000Y9071200I0J-20000D01*
G01D02*
G03X5489000Y9051200I20000J0D01*
G01D02*
G03X5509000Y9071200I0J20000D01*
G01X6009000D02*
G03X5989000Y9091300I-20000J100D01*
G01D02*
G03X5969000Y9071200I0J-20000D01*
G01D02*
G03X5989000Y9051200I20000J0D01*
G01D02*
G03X6009000Y9071200I0J20000D01*
G01X6509000D02*
G03X6489000Y9091300I-20000J100D01*
G01D02*
G03X6469000Y9071200I0J-20000D01*
G01D02*
G03X6489000Y9051200I20000J0D01*
G01D02*
G03X6509000Y9071200I0J20000D01*
G01X7009000D02*
G03X6989000Y9091300I-20000J100D01*
G01D02*
G03X6969000Y9071200I0J-20000D01*
G01D02*
G03X6989000Y9051200I20000J0D01*
G01D02*
G03X7009000Y9071200I0J20000D01*
G01X7509000D02*
G03X7489000Y9091300I-20000J100D01*
G01D02*
G03X7469000Y9071200I0J-20000D01*
G01D02*
G03X7489000Y9051200I20000J0D01*
G01D02*
G03X7509000Y9071200I0J20000D01*
G01X8009000D02*
G03X7989000Y9091300I-20000J100D01*
G01D02*
G03X7969000Y9071200I0J-20000D01*
G01D02*
G03X7989000Y9051200I20000J0D01*
G01D02*
G03X8009000Y9071200I0J20000D01*
G01X8509000D02*
G03X8489000Y9091300I-20000J100D01*
G01D02*
G03X8469000Y9071200I0J-20000D01*
G01D02*
G03X8489000Y9051200I20000J0D01*
G01D02*
G03X8509000Y9071200I0J20000D01*
G01X9009000D02*
G03X8989000Y9091300I-20000J100D01*
G01D02*
G03X8969000Y9071200I0J-20000D01*
G01D02*
G03X8989000Y9051200I20000J0D01*
G01D02*
G03X9009000Y9071200I0J20000D01*
G01X9509000D02*
G03X9489000Y9091300I-20000J100D01*
G01D02*
G03X9469000Y9071200I0J-20000D01*
G01D02*
G03X9489000Y9051200I20000J0D01*
G01D02*
G03X9509000Y9071200I0J20000D01*
G01X10009000D02*
G03X9989000Y9091300I-20000J100D01*
G01D02*
G03X9969000Y9071200I0J-20000D01*
G01D02*
G03X9989000Y9051200I20000J0D01*
G01D02*
G03X10009000Y9071200I0J20000D01*
G01X10509000D02*
G03X10489000Y9091300I-20000J100D01*
G01D02*
G03X10469000Y9071200I0J-20000D01*
G01D02*
G03X10489000Y9051200I20000J0D01*
G01D02*
G03X10509000Y9071200I0J20000D01*
G01X11009000D02*
G03X10989000Y9091300I-20000J100D01*
G01D02*
G03X10969000Y9071200I0J-20000D01*
G01D02*
G03X10989000Y9051200I20000J0D01*
G01D02*
G03X11009000Y9071200I0J20000D01*
G01X11509000D02*
G03X11489000Y9091300I-20000J100D01*
G01D02*
G03X11469000Y9071200I0J-20000D01*
G01D02*
G03X11489000Y9051200I20000J0D01*
G01D02*
G03X11509000Y9071200I0J20000D01*
G01X12812400Y9670800D02*
G03X12792500Y9690700I-19900J0D01*
G01D02*
G03X12772600Y9670800I0J-19900D01*
G01D02*
G03X12792500Y9650800I19900J-100D01*
G01D02*
G03X12812400Y9670800I0J19900D01*
G54D13*
G01X-75100Y8927000D02*
Y8836000D01*
X-81500Y8816900D01*
X-94400Y8804200D01*
X-110400Y8800000D01*
X-126500Y8804200D01*
X-139400Y8816900D01*
X-145800Y8836000D01*
Y8927000D01*
G01X-209400Y8905800D02*
X-219000Y8918500D01*
X-230300Y8924900D01*
X-243200Y8927000D01*
X-259300Y8922800D01*
X-270500Y8912200D01*
X-273700Y8899500D01*
X-272100Y8886800D01*
X-265700Y8876200D01*
X-233500Y8855000D01*
X-219000Y8840200D01*
X-209400Y8819000D01*
X-206200Y8800000D01*
X-273700D01*
G01X-338900Y8852900D02*
X-350100Y8867700D01*
X-359800Y8876200D01*
X-372700Y8880400D01*
X-383900Y8876200D01*
X-392000Y8867700D01*
X-398400Y8855000D01*
X-400000Y8840200D01*
X-398400Y8827500D01*
X-392000Y8814800D01*
X-382300Y8804200D01*
X-371100Y8800000D01*
X-358200Y8804200D01*
X-346900Y8816900D01*
X-340500Y8836000D01*
X-338900Y8857100D01*
X-342100Y8884700D01*
X-346900Y8899500D01*
X-355000Y8914300D01*
X-366200Y8924900D01*
X-377500Y8927000D01*
X-388800Y8922800D01*
X-396800Y8912200D01*
G01X-101700Y10540000D02*
Y10640000D01*
X-130800D01*
X-140200Y10635000D01*
X-146000Y10628300D01*
X-148300Y10615000D01*
X-146000Y10601700D01*
X-139000Y10593300D01*
X-130800Y10588300D01*
X-101700D01*
G01X-130800D02*
X-148300Y10540000D01*
G01X-194300Y10555000D02*
X-201300Y10546700D01*
X-209500Y10541700D01*
X-220000Y10540000D01*
X-230500Y10543300D01*
X-238700Y10550000D01*
X-244500Y10561700D01*
X-245700Y10575000D01*
X-243300Y10588300D01*
X-237500Y10596700D01*
X-229300Y10603300D01*
X-221200Y10605000D01*
X-213000Y10603300D01*
X-202500Y10596700D01*
X-206000Y10640000D01*
X-237500D01*
G01X-295200Y10551700D02*
X-303300Y10543300D01*
X-312700Y10540000D01*
X-322000Y10543300D01*
X-330200Y10553300D01*
X-336000Y10568300D01*
X-338300Y10583300D01*
Y10601700D01*
X-336000Y10616700D01*
X-330200Y10630000D01*
X-323200Y10636700D01*
X-315000Y10640000D01*
X-305700Y10636700D01*
X-298700Y10630000D01*
X-294000Y10620000D01*
X-291700Y10606700D01*
X-294000Y10595000D01*
X-299800Y10583300D01*
X-306800Y10576700D01*
X-315000Y10575000D01*
X-324300Y10578300D01*
X-331300Y10586700D01*
X-338300Y10601700D01*
G01X424900Y8927000D02*
Y8836000D01*
X418500Y8816900D01*
X405600Y8804200D01*
X389600Y8800000D01*
X373500Y8804200D01*
X360600Y8816900D01*
X354200Y8836000D01*
Y8927000D01*
G01X295400Y8825400D02*
X285800Y8810600D01*
X272900Y8802100D01*
X258400Y8800000D01*
X245600Y8802100D01*
X232700Y8812700D01*
X224700Y8825400D01*
X223100Y8838100D01*
X226300Y8852900D01*
X237500Y8863500D01*
X248800Y8867700D01*
X263300D01*
G01X248800D02*
X239100Y8874100D01*
X231100Y8884700D01*
X227900Y8897400D01*
X231100Y8910100D01*
X239100Y8920600D01*
X253600Y8927000D01*
X268100Y8924900D01*
X282600Y8916400D01*
G01X111200Y8800000D02*
Y8927000D01*
X170800Y8836000D01*
X90300D01*
G01X398300Y10540000D02*
Y10640000D01*
X369200D01*
X359800Y10635000D01*
X354000Y10628300D01*
X351700Y10615000D01*
X354000Y10601700D01*
X361000Y10593300D01*
X369200Y10588300D01*
X398300D01*
G01X369200D02*
X351700Y10540000D01*
G01X282300D02*
X280000Y10561700D01*
X276500Y10580000D01*
X271800Y10596700D01*
X266000Y10615000D01*
X256700Y10640000D01*
X303300D01*
G01X210700Y10555000D02*
X203700Y10546700D01*
X195500Y10541700D01*
X185000Y10540000D01*
X174500Y10543300D01*
X166300Y10550000D01*
X160500Y10561700D01*
X159300Y10575000D01*
X161700Y10588300D01*
X167500Y10596700D01*
X175700Y10603300D01*
X183800Y10605000D01*
X192000Y10603300D01*
X202500Y10596700D01*
X199000Y10640000D01*
X167500D01*
G01X869800Y8277000D02*
X829600Y8150000D01*
X789300Y8277000D01*
G01X735400Y8150000D02*
Y8277000D01*
X703300D01*
X690400Y8270600D01*
X680700Y8262200D01*
X672700Y8249500D01*
X666300Y8234700D01*
X664700Y8213500D01*
X666300Y8192300D01*
X672700Y8177500D01*
X680700Y8164800D01*
X690400Y8156300D01*
X703300Y8150000D01*
X735400D01*
G01X601100Y8202900D02*
X589900Y8217700D01*
X580200Y8226200D01*
X567300Y8230400D01*
X556100Y8226200D01*
X548000Y8217700D01*
X541600Y8205000D01*
X540000Y8190200D01*
X541600Y8177500D01*
X548000Y8164800D01*
X557700Y8154200D01*
X568900Y8150000D01*
X581800Y8154200D01*
X593100Y8166900D01*
X599500Y8186000D01*
X601100Y8207100D01*
X597900Y8234700D01*
X593100Y8249500D01*
X585000Y8264300D01*
X573800Y8274900D01*
X562500Y8277000D01*
X551200Y8272800D01*
X543200Y8262200D01*
G01X924900Y8927000D02*
Y8836000D01*
X918500Y8816900D01*
X905600Y8804200D01*
X889600Y8800000D01*
X873500Y8804200D01*
X860600Y8816900D01*
X854200Y8836000D01*
Y8927000D01*
G01X790600Y8905800D02*
X781000Y8918500D01*
X769700Y8924900D01*
X756800Y8927000D01*
X740700Y8922800D01*
X729500Y8912200D01*
X726300Y8899500D01*
X727900Y8886800D01*
X734300Y8876200D01*
X766500Y8855000D01*
X781000Y8840200D01*
X790600Y8819000D01*
X793800Y8800000D01*
X726300D01*
G01X633800D02*
X630600Y8827500D01*
X625700Y8850800D01*
X619300Y8872000D01*
X611200Y8895200D01*
X598400Y8927000D01*
X662700D01*
G01X898300Y10540000D02*
Y10640000D01*
X869200D01*
X859800Y10635000D01*
X854000Y10628300D01*
X851700Y10615000D01*
X854000Y10601700D01*
X861000Y10593300D01*
X869200Y10588300D01*
X898300D01*
G01X869200D02*
X851700Y10540000D01*
G01X802200Y10581700D02*
X794000Y10593300D01*
X787000Y10600000D01*
X777700Y10603300D01*
X769500Y10600000D01*
X763700Y10593300D01*
X759000Y10583300D01*
X757800Y10571700D01*
X759000Y10561700D01*
X763700Y10551700D01*
X770700Y10543300D01*
X778800Y10540000D01*
X788200Y10543300D01*
X796300Y10553300D01*
X801000Y10568300D01*
X802200Y10585000D01*
X799800Y10606700D01*
X796300Y10618300D01*
X790500Y10630000D01*
X782300Y10638300D01*
X774200Y10640000D01*
X766000Y10636700D01*
X760200Y10628300D01*
G01X685000Y10540000D02*
Y10640000D01*
X699000Y10620000D01*
G01Y10540000D02*
X671000D01*
G01X827000Y13460100D02*
X700000Y13500300D01*
X827000Y13540600D01*
G01X700000Y13594500D02*
X827000D01*
Y13626600D01*
X820600Y13639500D01*
X812200Y13649200D01*
X799500Y13657200D01*
X784700Y13663600D01*
X763500Y13665200D01*
X742300Y13663600D01*
X727500Y13657200D01*
X714800Y13649200D01*
X706300Y13639500D01*
X700000Y13626600D01*
Y13594500D01*
G01X719000Y13724000D02*
X708500Y13733600D01*
X702100Y13744900D01*
X700000Y13759300D01*
X704200Y13773800D01*
X712700Y13785100D01*
X727500Y13793100D01*
X744400Y13794700D01*
X761400Y13791500D01*
X772000Y13783500D01*
X780400Y13772200D01*
X782500Y13761000D01*
X780400Y13749700D01*
X772000Y13735200D01*
X827000Y13740000D01*
Y13783500D01*
G01X1082500Y16773500D02*
Y16853500D01*
X1057500D01*
X1049500Y16849500D01*
X1044500Y16844200D01*
X1042500Y16833500D01*
X1044500Y16822800D01*
X1050500Y16816200D01*
X1057500Y16812200D01*
X1082500D01*
G01X1057500D02*
X1042500Y16773500D01*
G01X1005500D02*
Y16853500D01*
X959500Y16773500D01*
Y16853500D01*
G01X902500Y16773500D02*
Y16853500D01*
X914500Y16837500D01*
G01Y16773500D02*
X890500D01*
G01X824500D02*
X822500Y16790800D01*
X819500Y16805500D01*
X815500Y16818800D01*
X810500Y16833500D01*
X802500Y16853500D01*
X842500D01*
G01X1082500Y17281500D02*
Y17361500D01*
X1057500D01*
X1049500Y17357500D01*
X1044500Y17352200D01*
X1042500Y17341500D01*
X1044500Y17330800D01*
X1050500Y17324200D01*
X1057500Y17320200D01*
X1082500D01*
G01X1057500D02*
X1042500Y17281500D01*
G01X1005500D02*
Y17361500D01*
X959500Y17281500D01*
Y17361500D01*
G01X902500Y17281500D02*
Y17361500D01*
X914500Y17345500D01*
G01Y17281500D02*
X890500D01*
G01X844500Y17293500D02*
X838500Y17286800D01*
X831500Y17282800D01*
X822500Y17281500D01*
X813500Y17284200D01*
X806500Y17289500D01*
X801500Y17298800D01*
X800500Y17309500D01*
X802500Y17320200D01*
X807500Y17326800D01*
X814500Y17332200D01*
X821500Y17333500D01*
X828500Y17332200D01*
X837500Y17326800D01*
X834500Y17361500D01*
X807500D01*
G01X1082500Y17789500D02*
Y17869500D01*
X1057500D01*
X1049500Y17865500D01*
X1044500Y17860200D01*
X1042500Y17849500D01*
X1044500Y17838800D01*
X1050500Y17832200D01*
X1057500Y17828200D01*
X1082500D01*
G01X1057500D02*
X1042500Y17789500D01*
G01X1005500D02*
Y17869500D01*
X959500Y17789500D01*
Y17869500D01*
G01X902500Y17789500D02*
Y17869500D01*
X914500Y17853500D01*
G01Y17789500D02*
X890500D01*
G01X844500Y17805500D02*
X838500Y17796200D01*
X830500Y17790800D01*
X821500Y17789500D01*
X813500Y17790800D01*
X805500Y17797500D01*
X800500Y17805500D01*
X799500Y17813500D01*
X801500Y17822800D01*
X808500Y17829500D01*
X815500Y17832200D01*
X824500D01*
G01X815500D02*
X809500Y17836200D01*
X804500Y17842800D01*
X802500Y17850800D01*
X804500Y17858800D01*
X809500Y17865500D01*
X818500Y17869500D01*
X827500Y17868200D01*
X836500Y17862800D01*
G01X1082500Y18297500D02*
Y18377500D01*
X1057500D01*
X1049500Y18373500D01*
X1044500Y18368200D01*
X1042500Y18357500D01*
X1044500Y18346800D01*
X1050500Y18340200D01*
X1057500Y18336200D01*
X1082500D01*
G01X1057500D02*
X1042500Y18297500D01*
G01X1005500D02*
Y18377500D01*
X959500Y18297500D01*
Y18377500D01*
G01X902500Y18297500D02*
Y18377500D01*
X914500Y18361500D01*
G01Y18297500D02*
X890500D01*
G01X822500Y18377500D02*
X830500Y18374800D01*
X836500Y18368200D01*
X840500Y18360200D01*
X843500Y18349500D01*
X844500Y18337500D01*
X843500Y18325500D01*
X840500Y18314800D01*
X836500Y18306800D01*
X830500Y18300200D01*
X822500Y18297500D01*
X814500Y18300200D01*
X808500Y18306800D01*
X804500Y18314800D01*
X801500Y18325500D01*
X800500Y18337500D01*
X801500Y18349500D01*
X804500Y18360200D01*
X808500Y18368200D01*
X814500Y18374800D01*
X822500Y18377500D01*
G01X1042500Y18805500D02*
Y18885500D01*
X1017500D01*
X1009500Y18881500D01*
X1004500Y18876200D01*
X1002500Y18865500D01*
X1004500Y18854800D01*
X1010500Y18848200D01*
X1017500Y18844200D01*
X1042500D01*
G01X1017500D02*
X1002500Y18805500D01*
G01X965500D02*
Y18885500D01*
X919500Y18805500D01*
Y18885500D01*
G01X864500Y18805500D02*
X862500Y18822800D01*
X859500Y18837500D01*
X855500Y18850800D01*
X850500Y18865500D01*
X842500Y18885500D01*
X882500D01*
G01X1042500Y19313500D02*
Y19393500D01*
X1017500D01*
X1009500Y19389500D01*
X1004500Y19384200D01*
X1002500Y19373500D01*
X1004500Y19362800D01*
X1010500Y19356200D01*
X1017500Y19352200D01*
X1042500D01*
G01X1017500D02*
X1002500Y19313500D01*
G01X965500D02*
Y19393500D01*
X919500Y19313500D01*
Y19393500D01*
G01X850500Y19313500D02*
Y19393500D01*
X887500Y19336200D01*
X837500D01*
G01X1042500Y19821500D02*
Y19901500D01*
X1017500D01*
X1009500Y19897500D01*
X1004500Y19892200D01*
X1002500Y19881500D01*
X1004500Y19870800D01*
X1010500Y19864200D01*
X1017500Y19860200D01*
X1042500D01*
G01X1017500D02*
X1002500Y19821500D01*
G01X965500D02*
Y19901500D01*
X919500Y19821500D01*
Y19901500D01*
G01X862500Y19821500D02*
Y19901500D01*
X874500Y19885500D01*
G01Y19821500D02*
X850500D01*
G01X1424900Y8927000D02*
Y8836000D01*
X1418500Y8816900D01*
X1405600Y8804200D01*
X1389600Y8800000D01*
X1373500Y8804200D01*
X1360600Y8816900D01*
X1354200Y8836000D01*
Y8927000D01*
G01X1295400Y8825400D02*
X1285800Y8810600D01*
X1272900Y8802100D01*
X1258400Y8800000D01*
X1245600Y8802100D01*
X1232700Y8812700D01*
X1224700Y8825400D01*
X1223100Y8838100D01*
X1226300Y8852900D01*
X1237500Y8863500D01*
X1248800Y8867700D01*
X1263300D01*
G01X1248800D02*
X1239100Y8874100D01*
X1231100Y8884700D01*
X1227900Y8897400D01*
X1231100Y8910100D01*
X1239100Y8920600D01*
X1253600Y8927000D01*
X1268100Y8924900D01*
X1282600Y8916400D01*
G01X1165900Y8819000D02*
X1156300Y8808500D01*
X1145000Y8802100D01*
X1130600Y8800000D01*
X1116100Y8804200D01*
X1104800Y8812700D01*
X1096800Y8827500D01*
X1095200Y8844400D01*
X1098400Y8861400D01*
X1106400Y8872000D01*
X1117700Y8880400D01*
X1128900Y8882500D01*
X1140200Y8880400D01*
X1154700Y8872000D01*
X1149900Y8927000D01*
X1106400D01*
G01X1398300Y10540000D02*
Y10640000D01*
X1369200D01*
X1359800Y10635000D01*
X1354000Y10628300D01*
X1351700Y10615000D01*
X1354000Y10601700D01*
X1361000Y10593300D01*
X1369200Y10588300D01*
X1398300D01*
G01X1369200D02*
X1351700Y10540000D01*
G01X1282300D02*
X1280000Y10561700D01*
X1276500Y10580000D01*
X1271800Y10596700D01*
X1266000Y10615000D01*
X1256700Y10640000D01*
X1303300D01*
G01X1187300Y10540000D02*
X1185000Y10561700D01*
X1181500Y10580000D01*
X1176800Y10596700D01*
X1171000Y10615000D01*
X1161700Y10640000D01*
X1208300D01*
G01X1357300Y16852100D02*
X1363100Y16856100D01*
X1369900Y16858700D01*
X1377700D01*
X1386500Y16854800D01*
X1393300Y16848200D01*
X1398200Y16840300D01*
X1402100Y16827200D01*
X1403000Y16815400D01*
X1401100Y16803600D01*
X1398200Y16795700D01*
X1392300Y16787900D01*
X1385500Y16782600D01*
X1378700Y16780000D01*
X1371900D01*
X1365100Y16782600D01*
X1359200Y16786600D01*
X1354400Y16791800D01*
G01X1318500Y16845600D02*
X1312700Y16853500D01*
X1305800Y16857400D01*
X1298100Y16858700D01*
X1288300Y16856100D01*
X1281500Y16849500D01*
X1279600Y16841600D01*
X1280500Y16833800D01*
X1284400Y16827200D01*
X1303900Y16814100D01*
X1312700Y16804900D01*
X1318500Y16791800D01*
X1320400Y16780000D01*
X1279600D01*
G01X1237800Y16789200D02*
X1231000Y16782600D01*
X1223200Y16780000D01*
X1215500Y16782600D01*
X1208600Y16790500D01*
X1203800Y16802300D01*
X1201800Y16814100D01*
Y16828500D01*
X1203800Y16840300D01*
X1208600Y16850800D01*
X1214500Y16856100D01*
X1221300Y16858700D01*
X1229100Y16856100D01*
X1234900Y16850800D01*
X1238800Y16843000D01*
X1240800Y16832500D01*
X1238800Y16823300D01*
X1234000Y16814100D01*
X1228100Y16808900D01*
X1221300Y16807500D01*
X1213500Y16810200D01*
X1207700Y16816700D01*
X1201800Y16828500D01*
G01X1357300Y17352100D02*
X1363100Y17356100D01*
X1369900Y17358700D01*
X1377700D01*
X1386500Y17354800D01*
X1393300Y17348200D01*
X1398200Y17340300D01*
X1402100Y17327200D01*
X1403000Y17315400D01*
X1401100Y17303600D01*
X1398200Y17295700D01*
X1392300Y17287900D01*
X1385500Y17282600D01*
X1378700Y17280000D01*
X1371900D01*
X1365100Y17282600D01*
X1359200Y17286600D01*
X1354400Y17291800D01*
G01X1321400Y17295700D02*
X1315600Y17286600D01*
X1307800Y17281300D01*
X1299000Y17280000D01*
X1291200Y17281300D01*
X1283500Y17287900D01*
X1278600Y17295700D01*
X1277600Y17303600D01*
X1279600Y17312800D01*
X1286400Y17319300D01*
X1293200Y17322000D01*
X1301900D01*
G01X1293200D02*
X1287300Y17325900D01*
X1282500Y17332500D01*
X1280500Y17340300D01*
X1282500Y17348200D01*
X1287300Y17354800D01*
X1296100Y17358700D01*
X1304900Y17357400D01*
X1313600Y17352100D01*
G01X1221300Y17280000D02*
Y17358700D01*
X1233000Y17343000D01*
G01Y17280000D02*
X1209600D01*
G01X1357300Y17872100D02*
X1363100Y17876100D01*
X1369900Y17878700D01*
X1377700D01*
X1386500Y17874800D01*
X1393300Y17868200D01*
X1398200Y17860300D01*
X1402100Y17847200D01*
X1403000Y17835400D01*
X1401100Y17823600D01*
X1398200Y17815700D01*
X1392300Y17807900D01*
X1385500Y17802600D01*
X1378700Y17800000D01*
X1371900D01*
X1365100Y17802600D01*
X1359200Y17806600D01*
X1354400Y17811800D01*
G01X1321400Y17815700D02*
X1315600Y17806600D01*
X1307800Y17801300D01*
X1299000Y17800000D01*
X1291200Y17801300D01*
X1283500Y17807900D01*
X1278600Y17815700D01*
X1277600Y17823600D01*
X1279600Y17832800D01*
X1286400Y17839300D01*
X1293200Y17842000D01*
X1301900D01*
G01X1293200D02*
X1287300Y17845900D01*
X1282500Y17852500D01*
X1280500Y17860300D01*
X1282500Y17868200D01*
X1287300Y17874800D01*
X1296100Y17878700D01*
X1304900Y17877400D01*
X1313600Y17872100D01*
G01X1221300Y17878700D02*
X1229100Y17876100D01*
X1234900Y17869500D01*
X1238800Y17861600D01*
X1241700Y17851200D01*
X1242700Y17839300D01*
X1241700Y17827500D01*
X1238800Y17817100D01*
X1234900Y17809200D01*
X1229100Y17802600D01*
X1221300Y17800000D01*
X1213500Y17802600D01*
X1207700Y17809200D01*
X1203800Y17817100D01*
X1200900Y17827500D01*
X1199900Y17839300D01*
X1200900Y17851200D01*
X1203800Y17861600D01*
X1207700Y17869500D01*
X1213500Y17876100D01*
X1221300Y17878700D01*
G01X1357300Y18372100D02*
X1363100Y18376100D01*
X1369900Y18378700D01*
X1377700D01*
X1386500Y18374800D01*
X1393300Y18368200D01*
X1398200Y18360300D01*
X1402100Y18347200D01*
X1403000Y18335400D01*
X1401100Y18323600D01*
X1398200Y18315700D01*
X1392300Y18307900D01*
X1385500Y18302600D01*
X1378700Y18300000D01*
X1371900D01*
X1365100Y18302600D01*
X1359200Y18306600D01*
X1354400Y18311800D01*
G01X1318500Y18365600D02*
X1312700Y18373500D01*
X1305800Y18377400D01*
X1298100Y18378700D01*
X1288300Y18376100D01*
X1281500Y18369500D01*
X1279600Y18361600D01*
X1280500Y18353800D01*
X1284400Y18347200D01*
X1303900Y18334100D01*
X1312700Y18324900D01*
X1318500Y18311800D01*
X1320400Y18300000D01*
X1279600D01*
G01X1221300D02*
X1214500Y18301300D01*
X1206700Y18305200D01*
X1201800Y18311800D01*
X1199900Y18321000D01*
X1201800Y18330200D01*
X1207700Y18338000D01*
X1216400Y18342000D01*
X1226200D01*
X1232000Y18344600D01*
X1236900Y18351200D01*
X1238800Y18360300D01*
X1235900Y18369500D01*
X1229100Y18376100D01*
X1221300Y18378700D01*
X1213500Y18376100D01*
X1206700Y18369500D01*
X1203800Y18360300D01*
X1205700Y18351200D01*
X1210600Y18344600D01*
X1216400Y18342000D01*
X1226200D01*
X1234900Y18338000D01*
X1240800Y18330200D01*
X1242700Y18321000D01*
X1240800Y18311800D01*
X1235900Y18305200D01*
X1228100Y18301300D01*
X1221300Y18300000D01*
G01X1497100Y18992700D02*
X1501100Y18986900D01*
X1503700Y18980100D01*
Y18972300D01*
X1499800Y18963500D01*
X1493200Y18956700D01*
X1485300Y18951800D01*
X1472200Y18947900D01*
X1460400Y18947000D01*
X1448600Y18948900D01*
X1440700Y18951800D01*
X1432900Y18957700D01*
X1427600Y18964500D01*
X1425000Y18971300D01*
Y18978100D01*
X1427600Y18984900D01*
X1431600Y18990800D01*
X1436800Y18995600D01*
G01Y19028600D02*
X1430200Y19034400D01*
X1426300Y19041200D01*
X1425000Y19050000D01*
X1427600Y19058800D01*
X1432900Y19065600D01*
X1442100Y19070400D01*
X1452500Y19071400D01*
X1463000Y19069500D01*
X1469600Y19064600D01*
X1474800Y19057800D01*
X1476200Y19051000D01*
X1474800Y19044200D01*
X1469600Y19035400D01*
X1503700Y19038300D01*
Y19064600D01*
G01Y19128700D02*
X1501100Y19120900D01*
X1494500Y19115100D01*
X1486600Y19111200D01*
X1476200Y19108300D01*
X1464300Y19107300D01*
X1452500Y19108300D01*
X1442100Y19111200D01*
X1434200Y19115100D01*
X1427600Y19120900D01*
X1425000Y19128700D01*
X1427600Y19136500D01*
X1434200Y19142300D01*
X1442100Y19146200D01*
X1452500Y19149100D01*
X1464300Y19150100D01*
X1476200Y19149100D01*
X1486600Y19146200D01*
X1494500Y19142300D01*
X1501100Y19136500D01*
X1503700Y19128700D01*
G01X1357300Y18872100D02*
X1363100Y18876100D01*
X1369900Y18878700D01*
X1377700D01*
X1386500Y18874800D01*
X1393300Y18868200D01*
X1398200Y18860300D01*
X1402100Y18847200D01*
X1403000Y18835400D01*
X1401100Y18823600D01*
X1398200Y18815700D01*
X1392300Y18807900D01*
X1385500Y18802600D01*
X1378700Y18800000D01*
X1371900D01*
X1365100Y18802600D01*
X1359200Y18806600D01*
X1354400Y18811800D01*
G01X1318500Y18865600D02*
X1312700Y18873500D01*
X1305800Y18877400D01*
X1298100Y18878700D01*
X1288300Y18876100D01*
X1281500Y18869500D01*
X1279600Y18861600D01*
X1280500Y18853800D01*
X1284400Y18847200D01*
X1303900Y18834100D01*
X1312700Y18824900D01*
X1318500Y18811800D01*
X1320400Y18800000D01*
X1279600D01*
G01X1223200D02*
X1221300Y18817100D01*
X1218400Y18831500D01*
X1214500Y18844600D01*
X1209600Y18859000D01*
X1201800Y18878700D01*
X1240800D01*
G01X1357300Y19392100D02*
X1363100Y19396100D01*
X1369900Y19398700D01*
X1377700D01*
X1386500Y19394800D01*
X1393300Y19388200D01*
X1398200Y19380300D01*
X1402100Y19367200D01*
X1403000Y19355400D01*
X1401100Y19343600D01*
X1398200Y19335700D01*
X1392300Y19327900D01*
X1385500Y19322600D01*
X1378700Y19320000D01*
X1371900D01*
X1365100Y19322600D01*
X1359200Y19326600D01*
X1354400Y19331800D01*
G01X1318500Y19385600D02*
X1312700Y19393500D01*
X1305800Y19397400D01*
X1298100Y19398700D01*
X1288300Y19396100D01*
X1281500Y19389500D01*
X1279600Y19381600D01*
X1280500Y19373800D01*
X1284400Y19367200D01*
X1303900Y19354100D01*
X1312700Y19344900D01*
X1318500Y19331800D01*
X1320400Y19320000D01*
X1279600D01*
G01X1239800Y19352800D02*
X1233000Y19362000D01*
X1227100Y19367200D01*
X1219400Y19369800D01*
X1212500Y19367200D01*
X1207700Y19362000D01*
X1203800Y19354100D01*
X1202800Y19344900D01*
X1203800Y19337100D01*
X1207700Y19329200D01*
X1213500Y19322600D01*
X1220300Y19320000D01*
X1228100Y19322600D01*
X1234900Y19330500D01*
X1238800Y19342300D01*
X1239800Y19355400D01*
X1237800Y19372500D01*
X1234900Y19381600D01*
X1230100Y19390800D01*
X1223200Y19397400D01*
X1216400Y19398700D01*
X1209600Y19396100D01*
X1204800Y19389500D01*
G01X1357300Y19892100D02*
X1363100Y19896100D01*
X1369900Y19898700D01*
X1377700D01*
X1386500Y19894800D01*
X1393300Y19888200D01*
X1398200Y19880300D01*
X1402100Y19867200D01*
X1403000Y19855400D01*
X1401100Y19843600D01*
X1398200Y19835700D01*
X1392300Y19827900D01*
X1385500Y19822600D01*
X1378700Y19820000D01*
X1371900D01*
X1365100Y19822600D01*
X1359200Y19826600D01*
X1354400Y19831800D01*
G01X1318500Y19885600D02*
X1312700Y19893500D01*
X1305800Y19897400D01*
X1298100Y19898700D01*
X1288300Y19896100D01*
X1281500Y19889500D01*
X1279600Y19881600D01*
X1280500Y19873800D01*
X1284400Y19867200D01*
X1303900Y19854100D01*
X1312700Y19844900D01*
X1318500Y19831800D01*
X1320400Y19820000D01*
X1279600D01*
G01X1242700Y19831800D02*
X1236900Y19825200D01*
X1230100Y19821300D01*
X1221300Y19820000D01*
X1212500Y19822600D01*
X1205700Y19827900D01*
X1200900Y19837100D01*
X1199900Y19847500D01*
X1201800Y19858000D01*
X1206700Y19864600D01*
X1213500Y19869800D01*
X1220300Y19871200D01*
X1227100Y19869800D01*
X1235900Y19864600D01*
X1233000Y19898700D01*
X1206700D01*
G01X1924900Y8927000D02*
Y8836000D01*
X1918500Y8816900D01*
X1905600Y8804200D01*
X1889600Y8800000D01*
X1873500Y8804200D01*
X1860600Y8816900D01*
X1854200Y8836000D01*
Y8927000D01*
G01X1790600Y8905800D02*
X1781000Y8918500D01*
X1769700Y8924900D01*
X1756800Y8927000D01*
X1740700Y8922800D01*
X1729500Y8912200D01*
X1726300Y8899500D01*
X1727900Y8886800D01*
X1734300Y8876200D01*
X1766500Y8855000D01*
X1781000Y8840200D01*
X1790600Y8819000D01*
X1793800Y8800000D01*
X1726300D01*
G01X1630600D02*
X1619300Y8802100D01*
X1606400Y8808500D01*
X1598400Y8819000D01*
X1595200Y8833900D01*
X1598400Y8848700D01*
X1608000Y8861400D01*
X1622500Y8867700D01*
X1638600D01*
X1648200Y8872000D01*
X1656300Y8882500D01*
X1659500Y8897400D01*
X1654700Y8912200D01*
X1643400Y8922800D01*
X1630600Y8927000D01*
X1617700Y8922800D01*
X1606400Y8912200D01*
X1601600Y8897400D01*
X1604800Y8882500D01*
X1612900Y8872000D01*
X1622500Y8867700D01*
X1638600D01*
X1653100Y8861400D01*
X1662700Y8848700D01*
X1665900Y8833900D01*
X1662700Y8819000D01*
X1654700Y8808500D01*
X1641800Y8802100D01*
X1630600Y8800000D01*
G01X1898300Y10540000D02*
Y10640000D01*
X1869200D01*
X1859800Y10635000D01*
X1854000Y10628300D01*
X1851700Y10615000D01*
X1854000Y10601700D01*
X1861000Y10593300D01*
X1869200Y10588300D01*
X1898300D01*
G01X1869200D02*
X1851700Y10540000D01*
G01X1802200Y10581700D02*
X1794000Y10593300D01*
X1787000Y10600000D01*
X1777700Y10603300D01*
X1769500Y10600000D01*
X1763700Y10593300D01*
X1759000Y10583300D01*
X1757800Y10571700D01*
X1759000Y10561700D01*
X1763700Y10551700D01*
X1770700Y10543300D01*
X1778800Y10540000D01*
X1788200Y10543300D01*
X1796300Y10553300D01*
X1801000Y10568300D01*
X1802200Y10585000D01*
X1799800Y10606700D01*
X1796300Y10618300D01*
X1790500Y10630000D01*
X1782300Y10638300D01*
X1774200Y10640000D01*
X1766000Y10636700D01*
X1760200Y10628300D01*
G01X1710700Y10560000D02*
X1703700Y10548300D01*
X1694300Y10541700D01*
X1683800Y10540000D01*
X1674500Y10541700D01*
X1665200Y10550000D01*
X1659300Y10560000D01*
X1658200Y10570000D01*
X1660500Y10581700D01*
X1668700Y10590000D01*
X1676800Y10593300D01*
X1687300D01*
G01X1676800D02*
X1669800Y10598300D01*
X1664000Y10606700D01*
X1661700Y10616700D01*
X1664000Y10626700D01*
X1669800Y10635000D01*
X1680300Y10640000D01*
X1690800Y10638300D01*
X1701300Y10631700D01*
G01X1707300Y17947100D02*
X1713100Y17951100D01*
X1719900Y17953700D01*
X1727700D01*
X1736500Y17949800D01*
X1743300Y17943200D01*
X1748200Y17935300D01*
X1752100Y17922200D01*
X1753000Y17910400D01*
X1751100Y17898600D01*
X1748200Y17890700D01*
X1742300Y17882900D01*
X1735500Y17877600D01*
X1728700Y17875000D01*
X1721900D01*
X1715100Y17877600D01*
X1709200Y17881600D01*
X1704400Y17886800D01*
G01X1671400D02*
X1665600Y17880200D01*
X1658800Y17876300D01*
X1650000Y17875000D01*
X1641200Y17877600D01*
X1634400Y17882900D01*
X1629600Y17892100D01*
X1628600Y17902500D01*
X1630500Y17913000D01*
X1635400Y17919600D01*
X1642200Y17924800D01*
X1649000Y17926200D01*
X1655800Y17924800D01*
X1664600Y17919600D01*
X1661700Y17953700D01*
X1635400D01*
G01X1589800Y17940600D02*
X1584000Y17948500D01*
X1577100Y17952400D01*
X1569400Y17953700D01*
X1559600Y17951100D01*
X1552800Y17944500D01*
X1550900Y17936600D01*
X1551800Y17928800D01*
X1555700Y17922200D01*
X1575200Y17909100D01*
X1584000Y17899900D01*
X1589800Y17886800D01*
X1591700Y17875000D01*
X1550900D01*
G01X1697300Y18892100D02*
X1703100Y18896100D01*
X1709900Y18898700D01*
X1717700D01*
X1726500Y18894800D01*
X1733300Y18888200D01*
X1738200Y18880300D01*
X1742100Y18867200D01*
X1743000Y18855400D01*
X1741100Y18843600D01*
X1738200Y18835700D01*
X1732300Y18827900D01*
X1725500Y18822600D01*
X1718700Y18820000D01*
X1711900D01*
X1705100Y18822600D01*
X1699200Y18826600D01*
X1694400Y18831800D01*
G01X1661400D02*
X1655600Y18825200D01*
X1648800Y18821300D01*
X1640000Y18820000D01*
X1631200Y18822600D01*
X1624400Y18827900D01*
X1619600Y18837100D01*
X1618600Y18847500D01*
X1620500Y18858000D01*
X1625400Y18864600D01*
X1632200Y18869800D01*
X1639000Y18871200D01*
X1645800Y18869800D01*
X1654600Y18864600D01*
X1651700Y18898700D01*
X1625400D01*
G01X1561300Y18820000D02*
Y18898700D01*
X1573000Y18883000D01*
G01Y18820000D02*
X1549600D01*
G01X1500000Y19225000D02*
X1475000Y19200000D01*
G01X1450000Y19175000D02*
Y19200000D01*
G02X1475000Y19225000I25000J0D01*
G01X1500000D01*
X1475000Y19250000D01*
G01X1697300Y19812100D02*
X1703100Y19816100D01*
X1709900Y19818700D01*
X1717700D01*
X1726500Y19814800D01*
X1733300Y19808200D01*
X1738200Y19800300D01*
X1742100Y19787200D01*
X1743000Y19775400D01*
X1741100Y19763600D01*
X1738200Y19755700D01*
X1732300Y19747900D01*
X1725500Y19742600D01*
X1718700Y19740000D01*
X1711900D01*
X1705100Y19742600D01*
X1699200Y19746600D01*
X1694400Y19751800D01*
G01X1661400D02*
X1655600Y19745200D01*
X1648800Y19741300D01*
X1640000Y19740000D01*
X1631200Y19742600D01*
X1624400Y19747900D01*
X1619600Y19757100D01*
X1618600Y19767500D01*
X1620500Y19778000D01*
X1625400Y19784600D01*
X1632200Y19789800D01*
X1639000Y19791200D01*
X1645800Y19789800D01*
X1654600Y19784600D01*
X1651700Y19818700D01*
X1625400D01*
G01X1582700Y19755700D02*
X1576900Y19746600D01*
X1569100Y19741300D01*
X1560300Y19740000D01*
X1552500Y19741300D01*
X1544800Y19747900D01*
X1539900Y19755700D01*
X1538900Y19763600D01*
X1540900Y19772800D01*
X1547700Y19779300D01*
X1554500Y19782000D01*
X1563200D01*
G01X1554500D02*
X1548600Y19785900D01*
X1543800Y19792500D01*
X1541800Y19800300D01*
X1543800Y19808200D01*
X1548600Y19814800D01*
X1557400Y19818700D01*
X1566200Y19817400D01*
X1574900Y19812100D01*
G01X2424900Y8927000D02*
Y8836000D01*
X2418500Y8816900D01*
X2405600Y8804200D01*
X2389600Y8800000D01*
X2373500Y8804200D01*
X2360600Y8816900D01*
X2354200Y8836000D01*
Y8927000D01*
G01X2295400Y8825400D02*
X2285800Y8810600D01*
X2272900Y8802100D01*
X2258400Y8800000D01*
X2245600Y8802100D01*
X2232700Y8812700D01*
X2224700Y8825400D01*
X2223100Y8838100D01*
X2226300Y8852900D01*
X2237500Y8863500D01*
X2248800Y8867700D01*
X2263300D01*
G01X2248800D02*
X2239100Y8874100D01*
X2231100Y8884700D01*
X2227900Y8897400D01*
X2231100Y8910100D01*
X2239100Y8920600D01*
X2253600Y8927000D01*
X2268100Y8924900D01*
X2282600Y8916400D01*
G01X2161100Y8852900D02*
X2149900Y8867700D01*
X2140200Y8876200D01*
X2127300Y8880400D01*
X2116100Y8876200D01*
X2108000Y8867700D01*
X2101600Y8855000D01*
X2100000Y8840200D01*
X2101600Y8827500D01*
X2108000Y8814800D01*
X2117700Y8804200D01*
X2128900Y8800000D01*
X2141800Y8804200D01*
X2153100Y8816900D01*
X2159500Y8836000D01*
X2161100Y8857100D01*
X2157900Y8884700D01*
X2153100Y8899500D01*
X2145000Y8914300D01*
X2133800Y8924900D01*
X2122500Y8927000D01*
X2111200Y8922800D01*
X2103200Y8912200D01*
G01X2398300Y10540000D02*
Y10640000D01*
X2369200D01*
X2359800Y10635000D01*
X2354000Y10628300D01*
X2351700Y10615000D01*
X2354000Y10601700D01*
X2361000Y10593300D01*
X2369200Y10588300D01*
X2398300D01*
G01X2369200D02*
X2351700Y10540000D01*
G01X2282300D02*
X2280000Y10561700D01*
X2276500Y10580000D01*
X2271800Y10596700D01*
X2266000Y10615000D01*
X2256700Y10640000D01*
X2303300D01*
G01X2204800Y10551700D02*
X2196700Y10543300D01*
X2187300Y10540000D01*
X2178000Y10543300D01*
X2169800Y10553300D01*
X2164000Y10568300D01*
X2161700Y10583300D01*
Y10601700D01*
X2164000Y10616700D01*
X2169800Y10630000D01*
X2176800Y10636700D01*
X2185000Y10640000D01*
X2194300Y10636700D01*
X2201300Y10630000D01*
X2206000Y10620000D01*
X2208300Y10606700D01*
X2206000Y10595000D01*
X2200200Y10583300D01*
X2193200Y10576700D01*
X2185000Y10575000D01*
X2175700Y10578300D01*
X2168700Y10586700D01*
X2161700Y10601700D01*
G01X2140000Y18020000D02*
X2220000D01*
Y18045000D01*
X2216000Y18053000D01*
X2210700Y18058000D01*
X2200000Y18060000D01*
X2189300Y18058000D01*
X2182700Y18052000D01*
X2178700Y18045000D01*
Y18020000D01*
G01Y18045000D02*
X2140000Y18060000D01*
G01Y18097000D02*
X2220000D01*
X2140000Y18143000D01*
X2220000D01*
G01X2140000Y18200000D02*
X2220000D01*
X2204000Y18188000D01*
G01X2140000D02*
Y18212000D01*
G01X2206700Y18261000D02*
X2214700Y18267000D01*
X2218700Y18274000D01*
X2220000Y18282000D01*
X2217300Y18292000D01*
X2210700Y18299000D01*
X2202700Y18301000D01*
X2194700Y18300000D01*
X2188000Y18296000D01*
X2174700Y18276000D01*
X2165300Y18267000D01*
X2152000Y18261000D01*
X2140000Y18259000D01*
Y18301000D01*
G01Y18500000D02*
X2220000D01*
Y18525000D01*
X2216000Y18533000D01*
X2210700Y18538000D01*
X2200000Y18540000D01*
X2189300Y18538000D01*
X2182700Y18532000D01*
X2178700Y18525000D01*
Y18500000D01*
G01Y18525000D02*
X2140000Y18540000D01*
G01Y18577000D02*
X2220000D01*
X2140000Y18623000D01*
X2220000D01*
G01X2149300Y18663000D02*
X2142700Y18670000D01*
X2140000Y18678000D01*
X2142700Y18686000D01*
X2150700Y18693000D01*
X2162700Y18698000D01*
X2174700Y18700000D01*
X2189300D01*
X2201300Y18698000D01*
X2212000Y18693000D01*
X2217300Y18687000D01*
X2220000Y18680000D01*
X2217300Y18672000D01*
X2212000Y18666000D01*
X2204000Y18662000D01*
X2193300Y18660000D01*
X2184000Y18662000D01*
X2174700Y18667000D01*
X2169300Y18673000D01*
X2168000Y18680000D01*
X2170700Y18688000D01*
X2177300Y18694000D01*
X2189300Y18700000D01*
G01X2140000Y19440000D02*
X2220000D01*
Y19465000D01*
X2216000Y19473000D01*
X2210700Y19478000D01*
X2200000Y19480000D01*
X2189300Y19478000D01*
X2182700Y19472000D01*
X2178700Y19465000D01*
Y19440000D01*
G01Y19465000D02*
X2140000Y19480000D01*
G01Y19517000D02*
X2220000D01*
X2140000Y19563000D01*
X2220000D01*
G01X2156000Y19598000D02*
X2146700Y19604000D01*
X2141300Y19612000D01*
X2140000Y19621000D01*
X2141300Y19629000D01*
X2148000Y19637000D01*
X2156000Y19642000D01*
X2164000Y19643000D01*
X2173300Y19641000D01*
X2180000Y19634000D01*
X2182700Y19627000D01*
Y19618000D01*
G01Y19627000D02*
X2186700Y19633000D01*
X2193300Y19638000D01*
X2201300Y19640000D01*
X2209300Y19638000D01*
X2216000Y19633000D01*
X2220000Y19624000D01*
X2218700Y19615000D01*
X2213300Y19606000D01*
G01X2140000Y19000000D02*
X2220000D01*
Y19025000D01*
X2216000Y19033000D01*
X2210700Y19038000D01*
X2200000Y19040000D01*
X2189300Y19038000D01*
X2182700Y19032000D01*
X2178700Y19025000D01*
Y19000000D01*
G01Y19025000D02*
X2140000Y19040000D01*
G01Y19077000D02*
X2220000D01*
X2140000Y19123000D01*
X2220000D01*
G01X2173300Y19161000D02*
X2182700Y19168000D01*
X2188000Y19174000D01*
X2190700Y19182000D01*
X2188000Y19189000D01*
X2182700Y19194000D01*
X2174700Y19198000D01*
X2165300Y19199000D01*
X2157300Y19198000D01*
X2149300Y19194000D01*
X2142700Y19188000D01*
X2140000Y19181000D01*
X2142700Y19173000D01*
X2150700Y19166000D01*
X2162700Y19162000D01*
X2176000Y19161000D01*
X2193300Y19163000D01*
X2202700Y19166000D01*
X2212000Y19171000D01*
X2218700Y19178000D01*
X2220000Y19185000D01*
X2217300Y19192000D01*
X2210700Y19197000D01*
G01X2589300Y20311700D02*
X2596300Y20316700D01*
X2604500Y20320000D01*
X2613800D01*
X2624300Y20315000D01*
X2632500Y20306700D01*
X2638300Y20296700D01*
X2643000Y20280000D01*
X2644200Y20265000D01*
X2641800Y20250000D01*
X2638300Y20240000D01*
X2631300Y20230000D01*
X2623200Y20223300D01*
X2615000Y20220000D01*
X2606800D01*
X2598700Y20223300D01*
X2591700Y20228300D01*
X2585800Y20235000D01*
G01X2522300Y20220000D02*
X2520000Y20241700D01*
X2516500Y20260000D01*
X2511800Y20276700D01*
X2506000Y20295000D01*
X2496700Y20320000D01*
X2543300D01*
G01X2425000D02*
X2434300Y20316700D01*
X2441300Y20308300D01*
X2446000Y20298300D01*
X2449500Y20285000D01*
X2450700Y20270000D01*
X2449500Y20255000D01*
X2446000Y20241700D01*
X2441300Y20231700D01*
X2434300Y20223300D01*
X2425000Y20220000D01*
X2415700Y20223300D01*
X2408700Y20231700D01*
X2404000Y20241700D01*
X2400500Y20255000D01*
X2399300Y20270000D01*
X2400500Y20285000D01*
X2404000Y20298300D01*
X2408700Y20308300D01*
X2415700Y20316700D01*
X2425000Y20320000D01*
G01X2924900Y8927000D02*
Y8836000D01*
X2918500Y8816900D01*
X2905600Y8804200D01*
X2889600Y8800000D01*
X2873500Y8804200D01*
X2860600Y8816900D01*
X2854200Y8836000D01*
Y8927000D01*
G01X2790600Y8905800D02*
X2781000Y8918500D01*
X2769700Y8924900D01*
X2756800Y8927000D01*
X2740700Y8922800D01*
X2729500Y8912200D01*
X2726300Y8899500D01*
X2727900Y8886800D01*
X2734300Y8876200D01*
X2766500Y8855000D01*
X2781000Y8840200D01*
X2790600Y8819000D01*
X2793800Y8800000D01*
X2726300D01*
G01X2657900Y8814800D02*
X2646600Y8804200D01*
X2633800Y8800000D01*
X2620900Y8804200D01*
X2609600Y8816900D01*
X2601600Y8836000D01*
X2598400Y8855000D01*
Y8878300D01*
X2601600Y8897400D01*
X2609600Y8914300D01*
X2619300Y8922800D01*
X2630600Y8927000D01*
X2643400Y8922800D01*
X2653100Y8914300D01*
X2659500Y8901600D01*
X2662700Y8884700D01*
X2659500Y8869900D01*
X2651500Y8855000D01*
X2641800Y8846600D01*
X2630600Y8844400D01*
X2617700Y8848700D01*
X2608000Y8859300D01*
X2598400Y8878300D01*
G01X2898300Y10540000D02*
Y10640000D01*
X2869200D01*
X2859800Y10635000D01*
X2854000Y10628300D01*
X2851700Y10615000D01*
X2854000Y10601700D01*
X2861000Y10593300D01*
X2869200Y10588300D01*
X2898300D01*
G01X2869200D02*
X2851700Y10540000D01*
G01X2802200Y10581700D02*
X2794000Y10593300D01*
X2787000Y10600000D01*
X2777700Y10603300D01*
X2769500Y10600000D01*
X2763700Y10593300D01*
X2759000Y10583300D01*
X2757800Y10571700D01*
X2759000Y10561700D01*
X2763700Y10551700D01*
X2770700Y10543300D01*
X2778800Y10540000D01*
X2788200Y10543300D01*
X2796300Y10553300D01*
X2801000Y10568300D01*
X2802200Y10585000D01*
X2799800Y10606700D01*
X2796300Y10618300D01*
X2790500Y10630000D01*
X2782300Y10638300D01*
X2774200Y10640000D01*
X2766000Y10636700D01*
X2760200Y10628300D01*
G01X2710700Y10555000D02*
X2703700Y10546700D01*
X2695500Y10541700D01*
X2685000Y10540000D01*
X2674500Y10543300D01*
X2666300Y10550000D01*
X2660500Y10561700D01*
X2659300Y10575000D01*
X2661700Y10588300D01*
X2667500Y10596700D01*
X2675700Y10603300D01*
X2683800Y10605000D01*
X2692000Y10603300D01*
X2702500Y10596700D01*
X2699000Y10640000D01*
X2667500D01*
G01X2814200Y14696400D02*
X2823800Y14702800D01*
X2835100Y14707000D01*
X2847900D01*
X2862400Y14700600D01*
X2873700Y14690100D01*
X2881700Y14677400D01*
X2888200Y14656200D01*
X2889800Y14637100D01*
X2886500Y14618100D01*
X2881700Y14605400D01*
X2872100Y14592700D01*
X2860800Y14584200D01*
X2849600Y14580000D01*
X2838300D01*
X2827000Y14584200D01*
X2817400Y14590600D01*
X2809300Y14599000D01*
G01X2755400Y14605400D02*
X2745800Y14590600D01*
X2732900Y14582100D01*
X2718400Y14580000D01*
X2705600Y14582100D01*
X2692700Y14592700D01*
X2684700Y14605400D01*
X2683100Y14618100D01*
X2686300Y14632900D01*
X2697500Y14643500D01*
X2708800Y14647700D01*
X2723300D01*
G01X2708800D02*
X2699100Y14654100D01*
X2691100Y14664700D01*
X2687900Y14677400D01*
X2691100Y14690100D01*
X2699100Y14700600D01*
X2713600Y14707000D01*
X2728100Y14704900D01*
X2742600Y14696400D01*
G01X2590600Y14580000D02*
X2579300Y14582100D01*
X2566400Y14588500D01*
X2558400Y14599000D01*
X2555200Y14613900D01*
X2558400Y14628700D01*
X2568000Y14641400D01*
X2582500Y14647700D01*
X2598600D01*
X2608200Y14652000D01*
X2616300Y14662500D01*
X2619500Y14677400D01*
X2614700Y14692200D01*
X2603400Y14702800D01*
X2590600Y14707000D01*
X2577700Y14702800D01*
X2566400Y14692200D01*
X2561600Y14677400D01*
X2564800Y14662500D01*
X2572900Y14652000D01*
X2582500Y14647700D01*
X2598600D01*
X2613100Y14641400D01*
X2622700Y14628700D01*
X2625900Y14613900D01*
X2622700Y14599000D01*
X2614700Y14588500D01*
X2601800Y14582100D01*
X2590600Y14580000D01*
G01X3149300Y20291700D02*
X3156300Y20296700D01*
X3164500Y20300000D01*
X3173800D01*
X3184300Y20295000D01*
X3192500Y20286700D01*
X3198300Y20276700D01*
X3203000Y20260000D01*
X3204200Y20245000D01*
X3201800Y20230000D01*
X3198300Y20220000D01*
X3191300Y20210000D01*
X3183200Y20203300D01*
X3175000Y20200000D01*
X3166800D01*
X3158700Y20203300D01*
X3151700Y20208300D01*
X3145800Y20215000D01*
G01X3105700Y20220000D02*
X3098700Y20208300D01*
X3089300Y20201700D01*
X3078800Y20200000D01*
X3069500Y20201700D01*
X3060200Y20210000D01*
X3054300Y20220000D01*
X3053200Y20230000D01*
X3055500Y20241700D01*
X3063700Y20250000D01*
X3071800Y20253300D01*
X3082300D01*
G01X3071800D02*
X3064800Y20258300D01*
X3059000Y20266700D01*
X3056700Y20276700D01*
X3059000Y20286700D01*
X3064800Y20295000D01*
X3075300Y20300000D01*
X3085800Y20298300D01*
X3096300Y20291700D01*
G01X3010700Y20220000D02*
X3003700Y20208300D01*
X2994300Y20201700D01*
X2983800Y20200000D01*
X2974500Y20201700D01*
X2965200Y20210000D01*
X2959300Y20220000D01*
X2958200Y20230000D01*
X2960500Y20241700D01*
X2968700Y20250000D01*
X2976800Y20253300D01*
X2987300D01*
G01X2976800D02*
X2969800Y20258300D01*
X2964000Y20266700D01*
X2961700Y20276700D01*
X2964000Y20286700D01*
X2969800Y20295000D01*
X2980300Y20300000D01*
X2990800Y20298300D01*
X3001300Y20291700D01*
G01X3424900Y8927000D02*
Y8836000D01*
X3418500Y8816900D01*
X3405600Y8804200D01*
X3389600Y8800000D01*
X3373500Y8804200D01*
X3360600Y8816900D01*
X3354200Y8836000D01*
Y8927000D01*
G01X3295400Y8825400D02*
X3285800Y8810600D01*
X3272900Y8802100D01*
X3258400Y8800000D01*
X3245600Y8802100D01*
X3232700Y8812700D01*
X3224700Y8825400D01*
X3223100Y8838100D01*
X3226300Y8852900D01*
X3237500Y8863500D01*
X3248800Y8867700D01*
X3263300D01*
G01X3248800D02*
X3239100Y8874100D01*
X3231100Y8884700D01*
X3227900Y8897400D01*
X3231100Y8910100D01*
X3239100Y8920600D01*
X3253600Y8927000D01*
X3268100Y8924900D01*
X3282600Y8916400D01*
G01X3133800Y8800000D02*
X3130600Y8827500D01*
X3125700Y8850800D01*
X3119300Y8872000D01*
X3111200Y8895200D01*
X3098400Y8927000D01*
X3162700D01*
G01X3398300Y10540000D02*
Y10640000D01*
X3369200D01*
X3359800Y10635000D01*
X3354000Y10628300D01*
X3351700Y10615000D01*
X3354000Y10601700D01*
X3361000Y10593300D01*
X3369200Y10588300D01*
X3398300D01*
G01X3369200D02*
X3351700Y10540000D01*
G01X3280000D02*
X3271800Y10541700D01*
X3262500Y10546700D01*
X3256700Y10555000D01*
X3254300Y10566700D01*
X3256700Y10578300D01*
X3263700Y10588300D01*
X3274200Y10593300D01*
X3285800D01*
X3292800Y10596700D01*
X3298700Y10605000D01*
X3301000Y10616700D01*
X3297500Y10628300D01*
X3289300Y10636700D01*
X3280000Y10640000D01*
X3270700Y10636700D01*
X3262500Y10628300D01*
X3259000Y10616700D01*
X3261300Y10605000D01*
X3267200Y10596700D01*
X3274200Y10593300D01*
X3285800D01*
X3296300Y10588300D01*
X3303300Y10578300D01*
X3305700Y10566700D01*
X3303300Y10555000D01*
X3297500Y10546700D01*
X3288200Y10541700D01*
X3280000Y10540000D01*
G01X3185000D02*
Y10640000D01*
X3199000Y10620000D01*
G01Y10540000D02*
X3171000D01*
G01X3394200Y15446400D02*
X3403800Y15452800D01*
X3415100Y15457000D01*
X3427900D01*
X3442400Y15450600D01*
X3453700Y15440100D01*
X3461700Y15427400D01*
X3468200Y15406200D01*
X3469800Y15387100D01*
X3466500Y15368100D01*
X3461700Y15355400D01*
X3452100Y15342700D01*
X3440800Y15334200D01*
X3429600Y15330000D01*
X3418300D01*
X3407000Y15334200D01*
X3397400Y15340600D01*
X3389300Y15349000D01*
G01X3303300Y15330000D02*
X3300100Y15357500D01*
X3295200Y15380800D01*
X3288800Y15402000D01*
X3280700Y15425200D01*
X3267900Y15457000D01*
X3332200D01*
G01X3205900Y15355400D02*
X3196300Y15340600D01*
X3183400Y15332100D01*
X3168900Y15330000D01*
X3156100Y15332100D01*
X3143200Y15342700D01*
X3135200Y15355400D01*
X3133600Y15368100D01*
X3136800Y15382900D01*
X3148000Y15393500D01*
X3159300Y15397700D01*
X3173800D01*
G01X3159300D02*
X3149600Y15404100D01*
X3141600Y15414700D01*
X3138400Y15427400D01*
X3141600Y15440100D01*
X3149600Y15450600D01*
X3164100Y15457000D01*
X3178600Y15454900D01*
X3193100Y15446400D01*
G01X3314200Y16556400D02*
X3323800Y16562800D01*
X3335100Y16567000D01*
X3347900D01*
X3362400Y16560600D01*
X3373700Y16550100D01*
X3381700Y16537400D01*
X3388200Y16516200D01*
X3389800Y16497100D01*
X3386500Y16478100D01*
X3381700Y16465400D01*
X3372100Y16452700D01*
X3360800Y16444200D01*
X3349600Y16440000D01*
X3338300D01*
X3327000Y16444200D01*
X3317400Y16450600D01*
X3309300Y16459000D01*
G01X3223300Y16440000D02*
X3220100Y16467500D01*
X3215200Y16490800D01*
X3208800Y16512000D01*
X3200700Y16535200D01*
X3187900Y16567000D01*
X3252200D01*
G01X3121100Y16545800D02*
X3111500Y16558500D01*
X3100200Y16564900D01*
X3087300Y16567000D01*
X3071200Y16562800D01*
X3060000Y16552200D01*
X3056800Y16539500D01*
X3058400Y16526800D01*
X3064800Y16516200D01*
X3097000Y16495000D01*
X3111500Y16480200D01*
X3121100Y16459000D01*
X3124300Y16440000D01*
X3056800D01*
G01X3774200Y16536400D02*
X3783800Y16542800D01*
X3795100Y16547000D01*
X3807900D01*
X3822400Y16540600D01*
X3833700Y16530100D01*
X3841700Y16517400D01*
X3848200Y16496200D01*
X3849800Y16477100D01*
X3846500Y16458100D01*
X3841700Y16445400D01*
X3832100Y16432700D01*
X3820800Y16424200D01*
X3809600Y16420000D01*
X3798300D01*
X3787000Y16424200D01*
X3777400Y16430600D01*
X3769300Y16439000D01*
G01X3715400Y16445400D02*
X3705800Y16430600D01*
X3692900Y16422100D01*
X3678400Y16420000D01*
X3665600Y16422100D01*
X3652700Y16432700D01*
X3644700Y16445400D01*
X3643100Y16458100D01*
X3646300Y16472900D01*
X3657500Y16483500D01*
X3668800Y16487700D01*
X3683300D01*
G01X3668800D02*
X3659100Y16494100D01*
X3651100Y16504700D01*
X3647900Y16517400D01*
X3651100Y16530100D01*
X3659100Y16540600D01*
X3673600Y16547000D01*
X3688100Y16544900D01*
X3702600Y16536400D01*
G01X3585900Y16439000D02*
X3576300Y16428500D01*
X3565000Y16422100D01*
X3550600Y16420000D01*
X3536100Y16424200D01*
X3524800Y16432700D01*
X3516800Y16447500D01*
X3515200Y16464400D01*
X3518400Y16481400D01*
X3526400Y16492000D01*
X3537700Y16500400D01*
X3548900Y16502500D01*
X3560200Y16500400D01*
X3574700Y16492000D01*
X3569900Y16547000D01*
X3526400D01*
G01X3474200Y19156400D02*
X3483800Y19162800D01*
X3495100Y19167000D01*
X3507900D01*
X3522400Y19160600D01*
X3533700Y19150100D01*
X3541700Y19137400D01*
X3548200Y19116200D01*
X3549800Y19097100D01*
X3546500Y19078100D01*
X3541700Y19065400D01*
X3532100Y19052700D01*
X3520800Y19044200D01*
X3509600Y19040000D01*
X3498300D01*
X3487000Y19044200D01*
X3477400Y19050600D01*
X3469300Y19059000D01*
G01X3383300Y19040000D02*
X3380100Y19067500D01*
X3375200Y19090800D01*
X3368800Y19112000D01*
X3360700Y19135200D01*
X3347900Y19167000D01*
X3412200D01*
G01X3250600Y19040000D02*
Y19167000D01*
X3269900Y19141600D01*
G01Y19040000D02*
X3231300D01*
G01X3740000Y20560000D02*
Y20640000D01*
X3715000D01*
X3707000Y20636000D01*
X3702000Y20630700D01*
X3700000Y20620000D01*
X3702000Y20609300D01*
X3708000Y20602700D01*
X3715000Y20598700D01*
X3740000D01*
G01X3715000D02*
X3700000Y20560000D01*
G01X3640000D02*
Y20640000D01*
X3652000Y20624000D01*
G01Y20560000D02*
X3628000D01*
G01X3548000D02*
Y20640000D01*
X3585000Y20582700D01*
X3535000D01*
G01X3480000Y20560000D02*
X3473000Y20561300D01*
X3465000Y20565300D01*
X3460000Y20572000D01*
X3458000Y20581300D01*
X3460000Y20590700D01*
X3466000Y20598700D01*
X3475000Y20602700D01*
X3485000D01*
X3491000Y20605300D01*
X3496000Y20612000D01*
X3498000Y20621300D01*
X3495000Y20630700D01*
X3488000Y20637300D01*
X3480000Y20640000D01*
X3472000Y20637300D01*
X3465000Y20630700D01*
X3462000Y20621300D01*
X3464000Y20612000D01*
X3469000Y20605300D01*
X3475000Y20602700D01*
X3485000D01*
X3494000Y20598700D01*
X3500000Y20590700D01*
X3502000Y20581300D01*
X3500000Y20572000D01*
X3495000Y20565300D01*
X3487000Y20561300D01*
X3480000Y20560000D01*
G01X3840100Y8927000D02*
Y8836000D01*
X3833700Y8816900D01*
X3820800Y8804200D01*
X3804800Y8800000D01*
X3788700Y8804200D01*
X3775800Y8816900D01*
X3769400Y8836000D01*
Y8927000D01*
G01X3702600Y8814800D02*
X3691300Y8804200D01*
X3678500Y8800000D01*
X3665600Y8804200D01*
X3654300Y8816900D01*
X3646300Y8836000D01*
X3643100Y8855000D01*
Y8878300D01*
X3646300Y8897400D01*
X3654300Y8914300D01*
X3664000Y8922800D01*
X3675300Y8927000D01*
X3688100Y8922800D01*
X3697800Y8914300D01*
X3704200Y8901600D01*
X3707400Y8884700D01*
X3704200Y8869900D01*
X3696200Y8855000D01*
X3686500Y8846600D01*
X3675300Y8844400D01*
X3662400Y8848700D01*
X3652700Y8859300D01*
X3643100Y8878300D01*
G01X3898300Y9840000D02*
Y9940000D01*
X3869200D01*
X3859800Y9935000D01*
X3854000Y9928300D01*
X3851700Y9915000D01*
X3854000Y9901700D01*
X3861000Y9893300D01*
X3869200Y9888300D01*
X3898300D01*
G01X3869200D02*
X3851700Y9840000D01*
G01X3780000D02*
Y9940000D01*
X3794000Y9920000D01*
G01Y9840000D02*
X3766000D01*
G01X3685000Y9940000D02*
X3694300Y9936700D01*
X3701300Y9928300D01*
X3706000Y9918300D01*
X3709500Y9905000D01*
X3710700Y9890000D01*
X3709500Y9875000D01*
X3706000Y9861700D01*
X3701300Y9851700D01*
X3694300Y9843300D01*
X3685000Y9840000D01*
X3675700Y9843300D01*
X3668700Y9851700D01*
X3664000Y9861700D01*
X3660500Y9875000D01*
X3659300Y9890000D01*
X3660500Y9905000D01*
X3664000Y9918300D01*
X3668700Y9928300D01*
X3675700Y9936700D01*
X3685000Y9940000D01*
G01X3850800Y10540000D02*
Y10640000D01*
X3821700D01*
X3812300Y10635000D01*
X3806500Y10628300D01*
X3804200Y10615000D01*
X3806500Y10601700D01*
X3813500Y10593300D01*
X3821700Y10588300D01*
X3850800D01*
G01X3821700D02*
X3804200Y10540000D01*
G01X3752300Y10551700D02*
X3744200Y10543300D01*
X3734800Y10540000D01*
X3725500Y10543300D01*
X3717300Y10553300D01*
X3711500Y10568300D01*
X3709200Y10583300D01*
Y10601700D01*
X3711500Y10616700D01*
X3717300Y10630000D01*
X3724300Y10636700D01*
X3732500Y10640000D01*
X3741800Y10636700D01*
X3748800Y10630000D01*
X3753500Y10620000D01*
X3755800Y10606700D01*
X3753500Y10595000D01*
X3747700Y10583300D01*
X3740700Y10576700D01*
X3732500Y10575000D01*
X3723200Y10578300D01*
X3716200Y10586700D01*
X3709200Y10601700D01*
G01X3934200Y19136400D02*
X3943800Y19142800D01*
X3955100Y19147000D01*
X3967900D01*
X3982400Y19140600D01*
X3993700Y19130100D01*
X4001700Y19117400D01*
X4008200Y19096200D01*
X4009800Y19077100D01*
X4006500Y19058100D01*
X4001700Y19045400D01*
X3992100Y19032700D01*
X3980800Y19024200D01*
X3969600Y19020000D01*
X3958300D01*
X3947000Y19024200D01*
X3937400Y19030600D01*
X3929300Y19039000D01*
G01X3875400Y19045400D02*
X3865800Y19030600D01*
X3852900Y19022100D01*
X3838400Y19020000D01*
X3825600Y19022100D01*
X3812700Y19032700D01*
X3804700Y19045400D01*
X3803100Y19058100D01*
X3806300Y19072900D01*
X3817500Y19083500D01*
X3828800Y19087700D01*
X3843300D01*
G01X3828800D02*
X3819100Y19094100D01*
X3811100Y19104700D01*
X3807900Y19117400D01*
X3811100Y19130100D01*
X3819100Y19140600D01*
X3833600Y19147000D01*
X3848100Y19144900D01*
X3862600Y19136400D01*
G01X3691200Y19020000D02*
Y19147000D01*
X3750800Y19056000D01*
X3670300D01*
G01X4137600Y20560000D02*
Y20638700D01*
X4113200D01*
X4105400Y20634800D01*
X4100600Y20629500D01*
X4098600Y20619000D01*
X4100600Y20608500D01*
X4106400Y20602000D01*
X4113200Y20598000D01*
X4137600D01*
G01X4113200D02*
X4098600Y20560000D01*
G01X4039400D02*
Y20638700D01*
X4051100Y20623000D01*
G01Y20560000D02*
X4027700D01*
G01X3949000D02*
Y20638700D01*
X3985000Y20582300D01*
X3936400D01*
G01X3883900Y20560000D02*
X3882000Y20577100D01*
X3879100Y20591500D01*
X3875200Y20604600D01*
X3870300Y20619000D01*
X3862500Y20638700D01*
X3901500D01*
G01X4424900Y8927000D02*
Y8836000D01*
X4418500Y8816900D01*
X4405600Y8804200D01*
X4389600Y8800000D01*
X4373500Y8804200D01*
X4360600Y8816900D01*
X4354200Y8836000D01*
Y8927000D01*
G01X4260100Y8800000D02*
Y8927000D01*
X4279400Y8901600D01*
G01Y8800000D02*
X4240800D01*
G01X4130600Y8927000D02*
X4143400Y8922800D01*
X4153100Y8912200D01*
X4159500Y8899500D01*
X4164300Y8882500D01*
X4165900Y8863500D01*
X4164300Y8844400D01*
X4159500Y8827500D01*
X4153100Y8814800D01*
X4143400Y8804200D01*
X4130600Y8800000D01*
X4117700Y8804200D01*
X4108000Y8814800D01*
X4101600Y8827500D01*
X4096800Y8844400D01*
X4095200Y8863500D01*
X4096800Y8882500D01*
X4101600Y8899500D01*
X4108000Y8912200D01*
X4117700Y8922800D01*
X4130600Y8927000D01*
G01X4924900D02*
Y8836000D01*
X4918500Y8816900D01*
X4905600Y8804200D01*
X4889600Y8800000D01*
X4873500Y8804200D01*
X4860600Y8816900D01*
X4854200Y8836000D01*
Y8927000D01*
G01X4760100Y8800000D02*
Y8927000D01*
X4779400Y8901600D01*
G01Y8800000D02*
X4740800D01*
G01X4630600D02*
Y8927000D01*
X4649900Y8901600D01*
G01Y8800000D02*
X4611300D01*
G01X4398300Y9840000D02*
Y9940000D01*
X4369200D01*
X4359800Y9935000D01*
X4354000Y9928300D01*
X4351700Y9915000D01*
X4354000Y9901700D01*
X4361000Y9893300D01*
X4369200Y9888300D01*
X4398300D01*
G01X4369200D02*
X4351700Y9840000D01*
G01X4280000D02*
Y9940000D01*
X4294000Y9920000D01*
G01Y9840000D02*
X4266000D01*
G01X4210700Y9860000D02*
X4203700Y9848300D01*
X4194300Y9841700D01*
X4183800Y9840000D01*
X4174500Y9841700D01*
X4165200Y9850000D01*
X4159300Y9860000D01*
X4158200Y9870000D01*
X4160500Y9881700D01*
X4168700Y9890000D01*
X4176800Y9893300D01*
X4187300D01*
G01X4176800D02*
X4169800Y9898300D01*
X4164000Y9906700D01*
X4161700Y9916700D01*
X4164000Y9926700D01*
X4169800Y9935000D01*
X4180300Y9940000D01*
X4190800Y9938300D01*
X4201300Y9931700D01*
G01X4398300Y10540000D02*
Y10640000D01*
X4369200D01*
X4359800Y10635000D01*
X4354000Y10628300D01*
X4351700Y10615000D01*
X4354000Y10601700D01*
X4361000Y10593300D01*
X4369200Y10588300D01*
X4398300D01*
G01X4369200D02*
X4351700Y10540000D01*
G01X4280000D02*
Y10640000D01*
X4294000Y10620000D01*
G01Y10540000D02*
X4266000D01*
G01X4207200Y10623300D02*
X4200200Y10633300D01*
X4192000Y10638300D01*
X4182700Y10640000D01*
X4171000Y10636700D01*
X4162800Y10628300D01*
X4160500Y10618300D01*
X4161700Y10608300D01*
X4166300Y10600000D01*
X4189700Y10583300D01*
X4200200Y10571700D01*
X4207200Y10555000D01*
X4209500Y10540000D01*
X4160500D01*
G01X4614200Y15436400D02*
X4623800Y15442800D01*
X4635100Y15447000D01*
X4647900D01*
X4662400Y15440600D01*
X4673700Y15430100D01*
X4681700Y15417400D01*
X4688200Y15396200D01*
X4689800Y15377100D01*
X4686500Y15358100D01*
X4681700Y15345400D01*
X4672100Y15332700D01*
X4660800Y15324200D01*
X4649600Y15320000D01*
X4638300D01*
X4627000Y15324200D01*
X4617400Y15330600D01*
X4609300Y15339000D01*
G01X4555400Y15345400D02*
X4545800Y15330600D01*
X4532900Y15322100D01*
X4518400Y15320000D01*
X4505600Y15322100D01*
X4492700Y15332700D01*
X4484700Y15345400D01*
X4483100Y15358100D01*
X4486300Y15372900D01*
X4497500Y15383500D01*
X4508800Y15387700D01*
X4523300D01*
G01X4508800D02*
X4499100Y15394100D01*
X4491100Y15404700D01*
X4487900Y15417400D01*
X4491100Y15430100D01*
X4499100Y15440600D01*
X4513600Y15447000D01*
X4528100Y15444900D01*
X4542600Y15436400D01*
G01X4421100Y15372900D02*
X4409900Y15387700D01*
X4400200Y15396200D01*
X4387300Y15400400D01*
X4376100Y15396200D01*
X4368000Y15387700D01*
X4361600Y15375000D01*
X4360000Y15360200D01*
X4361600Y15347500D01*
X4368000Y15334800D01*
X4377700Y15324200D01*
X4388900Y15320000D01*
X4401800Y15324200D01*
X4413100Y15336900D01*
X4419500Y15356000D01*
X4421100Y15377100D01*
X4417900Y15404700D01*
X4413100Y15419500D01*
X4405000Y15434300D01*
X4393800Y15444900D01*
X4382500Y15447000D01*
X4371200Y15442800D01*
X4363200Y15432200D01*
G01X5424900Y8927000D02*
Y8836000D01*
X5418500Y8816900D01*
X5405600Y8804200D01*
X5389600Y8800000D01*
X5373500Y8804200D01*
X5360600Y8816900D01*
X5354200Y8836000D01*
Y8927000D01*
G01X5260100Y8800000D02*
Y8927000D01*
X5279400Y8901600D01*
G01Y8800000D02*
X5240800D01*
G01X5161100Y8905800D02*
X5151500Y8918500D01*
X5140200Y8924900D01*
X5127300Y8927000D01*
X5111200Y8922800D01*
X5100000Y8912200D01*
X5096800Y8899500D01*
X5098400Y8886800D01*
X5104800Y8876200D01*
X5137000Y8855000D01*
X5151500Y8840200D01*
X5161100Y8819000D01*
X5164300Y8800000D01*
X5096800D01*
G01X4898300Y9840000D02*
Y9940000D01*
X4869200D01*
X4859800Y9935000D01*
X4854000Y9928300D01*
X4851700Y9915000D01*
X4854000Y9901700D01*
X4861000Y9893300D01*
X4869200Y9888300D01*
X4898300D01*
G01X4869200D02*
X4851700Y9840000D01*
G01X4780000D02*
Y9940000D01*
X4794000Y9920000D01*
G01Y9840000D02*
X4766000D01*
G01X4707200Y9881700D02*
X4699000Y9893300D01*
X4692000Y9900000D01*
X4682700Y9903300D01*
X4674500Y9900000D01*
X4668700Y9893300D01*
X4664000Y9883300D01*
X4662800Y9871700D01*
X4664000Y9861700D01*
X4668700Y9851700D01*
X4675700Y9843300D01*
X4683800Y9840000D01*
X4693200Y9843300D01*
X4701300Y9853300D01*
X4706000Y9868300D01*
X4707200Y9885000D01*
X4704800Y9906700D01*
X4701300Y9918300D01*
X4695500Y9930000D01*
X4687300Y9938300D01*
X4679200Y9940000D01*
X4671000Y9936700D01*
X4665200Y9928300D01*
G01X4898300Y10540000D02*
Y10640000D01*
X4869200D01*
X4859800Y10635000D01*
X4854000Y10628300D01*
X4851700Y10615000D01*
X4854000Y10601700D01*
X4861000Y10593300D01*
X4869200Y10588300D01*
X4898300D01*
G01X4869200D02*
X4851700Y10540000D01*
G01X4780000D02*
Y10640000D01*
X4794000Y10620000D01*
G01Y10540000D02*
X4766000D01*
G01X4710700Y10555000D02*
X4703700Y10546700D01*
X4695500Y10541700D01*
X4685000Y10540000D01*
X4674500Y10543300D01*
X4666300Y10550000D01*
X4660500Y10561700D01*
X4659300Y10575000D01*
X4661700Y10588300D01*
X4667500Y10596700D01*
X4675700Y10603300D01*
X4683800Y10605000D01*
X4692000Y10603300D01*
X4702500Y10596700D01*
X4699000Y10640000D01*
X4667500D01*
G01X4896900Y18740000D02*
Y18867000D01*
X4856700D01*
X4843800Y18860600D01*
X4835800Y18852200D01*
X4832600Y18835200D01*
X4835800Y18818300D01*
X4845400Y18807700D01*
X4856700Y18801400D01*
X4896900D01*
G01X4856700D02*
X4832600Y18740000D01*
G01X4770600Y18759000D02*
X4761000Y18748500D01*
X4749700Y18742100D01*
X4735300Y18740000D01*
X4720800Y18744200D01*
X4709500Y18752700D01*
X4701500Y18767500D01*
X4699900Y18784400D01*
X4703100Y18801400D01*
X4711100Y18812000D01*
X4722400Y18820400D01*
X4733600Y18822500D01*
X4744900Y18820400D01*
X4759400Y18812000D01*
X4754600Y18867000D01*
X4711100D01*
G01X5924900Y8927000D02*
Y8836000D01*
X5918500Y8816900D01*
X5905600Y8804200D01*
X5889600Y8800000D01*
X5873500Y8804200D01*
X5860600Y8816900D01*
X5854200Y8836000D01*
Y8927000D01*
G01X5760100Y8800000D02*
Y8927000D01*
X5779400Y8901600D01*
G01Y8800000D02*
X5740800D01*
G01X5665900Y8825400D02*
X5656300Y8810600D01*
X5643400Y8802100D01*
X5628900Y8800000D01*
X5616100Y8802100D01*
X5603200Y8812700D01*
X5595200Y8825400D01*
X5593600Y8838100D01*
X5596800Y8852900D01*
X5608000Y8863500D01*
X5619300Y8867700D01*
X5633800D01*
G01X5619300D02*
X5609600Y8874100D01*
X5601600Y8884700D01*
X5598400Y8897400D01*
X5601600Y8910100D01*
X5609600Y8920600D01*
X5624100Y8927000D01*
X5638600Y8924900D01*
X5653100Y8916400D01*
G01X5398300Y9840000D02*
Y9940000D01*
X5369200D01*
X5359800Y9935000D01*
X5354000Y9928300D01*
X5351700Y9915000D01*
X5354000Y9901700D01*
X5361000Y9893300D01*
X5369200Y9888300D01*
X5398300D01*
G01X5369200D02*
X5351700Y9840000D01*
G01X5280000D02*
Y9940000D01*
X5294000Y9920000D01*
G01Y9840000D02*
X5266000D01*
G01X5204800Y9851700D02*
X5196700Y9843300D01*
X5187300Y9840000D01*
X5178000Y9843300D01*
X5169800Y9853300D01*
X5164000Y9868300D01*
X5161700Y9883300D01*
Y9901700D01*
X5164000Y9916700D01*
X5169800Y9930000D01*
X5176800Y9936700D01*
X5185000Y9940000D01*
X5194300Y9936700D01*
X5201300Y9930000D01*
X5206000Y9920000D01*
X5208300Y9906700D01*
X5206000Y9895000D01*
X5200200Y9883300D01*
X5193200Y9876700D01*
X5185000Y9875000D01*
X5175700Y9878300D01*
X5168700Y9886700D01*
X5161700Y9901700D01*
G01X5898300Y9840000D02*
Y9940000D01*
X5869200D01*
X5859800Y9935000D01*
X5854000Y9928300D01*
X5851700Y9915000D01*
X5854000Y9901700D01*
X5861000Y9893300D01*
X5869200Y9888300D01*
X5898300D01*
G01X5869200D02*
X5851700Y9840000D01*
G01X5802200Y9923300D02*
X5795200Y9933300D01*
X5787000Y9938300D01*
X5777700Y9940000D01*
X5766000Y9936700D01*
X5757800Y9928300D01*
X5755500Y9918300D01*
X5756700Y9908300D01*
X5761300Y9900000D01*
X5784700Y9883300D01*
X5795200Y9871700D01*
X5802200Y9855000D01*
X5804500Y9840000D01*
X5755500D01*
G01X5707200Y9923300D02*
X5700200Y9933300D01*
X5692000Y9938300D01*
X5682700Y9940000D01*
X5671000Y9936700D01*
X5662800Y9928300D01*
X5660500Y9918300D01*
X5661700Y9908300D01*
X5666300Y9900000D01*
X5689700Y9883300D01*
X5700200Y9871700D01*
X5707200Y9855000D01*
X5709500Y9840000D01*
X5660500D01*
G01X5398300Y10540000D02*
Y10640000D01*
X5369200D01*
X5359800Y10635000D01*
X5354000Y10628300D01*
X5351700Y10615000D01*
X5354000Y10601700D01*
X5361000Y10593300D01*
X5369200Y10588300D01*
X5398300D01*
G01X5369200D02*
X5351700Y10540000D01*
G01X5280000D02*
Y10640000D01*
X5294000Y10620000D01*
G01Y10540000D02*
X5266000D01*
G01X5185000D02*
X5176800Y10541700D01*
X5167500Y10546700D01*
X5161700Y10555000D01*
X5159300Y10566700D01*
X5161700Y10578300D01*
X5168700Y10588300D01*
X5179200Y10593300D01*
X5190800D01*
X5197800Y10596700D01*
X5203700Y10605000D01*
X5206000Y10616700D01*
X5202500Y10628300D01*
X5194300Y10636700D01*
X5185000Y10640000D01*
X5175700Y10636700D01*
X5167500Y10628300D01*
X5164000Y10616700D01*
X5166300Y10605000D01*
X5172200Y10596700D01*
X5179200Y10593300D01*
X5190800D01*
X5201300Y10588300D01*
X5208300Y10578300D01*
X5210700Y10566700D01*
X5208300Y10555000D01*
X5202500Y10546700D01*
X5193200Y10541700D01*
X5185000Y10540000D01*
G01X5898300D02*
Y10640000D01*
X5869200D01*
X5859800Y10635000D01*
X5854000Y10628300D01*
X5851700Y10615000D01*
X5854000Y10601700D01*
X5861000Y10593300D01*
X5869200Y10588300D01*
X5898300D01*
G01X5869200D02*
X5851700Y10540000D01*
G01X5802200Y10623300D02*
X5795200Y10633300D01*
X5787000Y10638300D01*
X5777700Y10640000D01*
X5766000Y10636700D01*
X5757800Y10628300D01*
X5755500Y10618300D01*
X5756700Y10608300D01*
X5761300Y10600000D01*
X5784700Y10583300D01*
X5795200Y10571700D01*
X5802200Y10555000D01*
X5804500Y10540000D01*
X5755500D01*
G01X5685000D02*
Y10640000D01*
X5699000Y10620000D01*
G01Y10540000D02*
X5671000D01*
G01X5660000Y18180000D02*
Y18260000D01*
X5635000D01*
X5627000Y18256000D01*
X5622000Y18250700D01*
X5620000Y18240000D01*
X5622000Y18229300D01*
X5628000Y18222700D01*
X5635000Y18218700D01*
X5660000D01*
G01X5635000D02*
X5620000Y18180000D01*
G01X5582000Y18196000D02*
X5576000Y18186700D01*
X5568000Y18181300D01*
X5559000Y18180000D01*
X5551000Y18181300D01*
X5543000Y18188000D01*
X5538000Y18196000D01*
X5537000Y18204000D01*
X5539000Y18213300D01*
X5546000Y18220000D01*
X5553000Y18222700D01*
X5562000D01*
G01X5553000D02*
X5547000Y18226700D01*
X5542000Y18233300D01*
X5540000Y18241300D01*
X5542000Y18249300D01*
X5547000Y18256000D01*
X5556000Y18260000D01*
X5565000Y18258700D01*
X5574000Y18253300D01*
G01X6424900Y8927000D02*
Y8836000D01*
X6418500Y8816900D01*
X6405600Y8804200D01*
X6389600Y8800000D01*
X6373500Y8804200D01*
X6360600Y8816900D01*
X6354200Y8836000D01*
Y8927000D01*
G01X6260100Y8800000D02*
Y8927000D01*
X6279400Y8901600D01*
G01Y8800000D02*
X6240800D01*
G01X6111200D02*
Y8927000D01*
X6170800Y8836000D01*
X6090300D01*
G01X6398300Y9840000D02*
Y9940000D01*
X6369200D01*
X6359800Y9935000D01*
X6354000Y9928300D01*
X6351700Y9915000D01*
X6354000Y9901700D01*
X6361000Y9893300D01*
X6369200Y9888300D01*
X6398300D01*
G01X6369200D02*
X6351700Y9840000D01*
G01X6302200Y9923300D02*
X6295200Y9933300D01*
X6287000Y9938300D01*
X6277700Y9940000D01*
X6266000Y9936700D01*
X6257800Y9928300D01*
X6255500Y9918300D01*
X6256700Y9908300D01*
X6261300Y9900000D01*
X6284700Y9883300D01*
X6295200Y9871700D01*
X6302200Y9855000D01*
X6304500Y9840000D01*
X6255500D01*
G01X6210700Y9855000D02*
X6203700Y9846700D01*
X6195500Y9841700D01*
X6185000Y9840000D01*
X6174500Y9843300D01*
X6166300Y9850000D01*
X6160500Y9861700D01*
X6159300Y9875000D01*
X6161700Y9888300D01*
X6167500Y9896700D01*
X6175700Y9903300D01*
X6183800Y9905000D01*
X6192000Y9903300D01*
X6202500Y9896700D01*
X6199000Y9940000D01*
X6167500D01*
G01X6398300Y10540000D02*
Y10640000D01*
X6369200D01*
X6359800Y10635000D01*
X6354000Y10628300D01*
X6351700Y10615000D01*
X6354000Y10601700D01*
X6361000Y10593300D01*
X6369200Y10588300D01*
X6398300D01*
G01X6369200D02*
X6351700Y10540000D01*
G01X6302200Y10623300D02*
X6295200Y10633300D01*
X6287000Y10638300D01*
X6277700Y10640000D01*
X6266000Y10636700D01*
X6257800Y10628300D01*
X6255500Y10618300D01*
X6256700Y10608300D01*
X6261300Y10600000D01*
X6284700Y10583300D01*
X6295200Y10571700D01*
X6302200Y10555000D01*
X6304500Y10540000D01*
X6255500D01*
G01X6171000D02*
Y10640000D01*
X6214200Y10568300D01*
X6155800D01*
G01X6180000Y18180000D02*
Y18260000D01*
X6155000D01*
X6147000Y18256000D01*
X6142000Y18250700D01*
X6140000Y18240000D01*
X6142000Y18229300D01*
X6148000Y18222700D01*
X6155000Y18218700D01*
X6180000D01*
G01X6155000D02*
X6140000Y18180000D01*
G01X6068000D02*
Y18260000D01*
X6105000Y18202700D01*
X6055000D01*
G01X6924900Y8927000D02*
Y8836000D01*
X6918500Y8816900D01*
X6905600Y8804200D01*
X6889600Y8800000D01*
X6873500Y8804200D01*
X6860600Y8816900D01*
X6854200Y8836000D01*
Y8927000D01*
G01X6760100Y8800000D02*
Y8927000D01*
X6779400Y8901600D01*
G01Y8800000D02*
X6740800D01*
G01X6665900Y8819000D02*
X6656300Y8808500D01*
X6645000Y8802100D01*
X6630600Y8800000D01*
X6616100Y8804200D01*
X6604800Y8812700D01*
X6596800Y8827500D01*
X6595200Y8844400D01*
X6598400Y8861400D01*
X6606400Y8872000D01*
X6617700Y8880400D01*
X6628900Y8882500D01*
X6640200Y8880400D01*
X6654700Y8872000D01*
X6649900Y8927000D01*
X6606400D01*
G01X6898300Y9840000D02*
Y9940000D01*
X6869200D01*
X6859800Y9935000D01*
X6854000Y9928300D01*
X6851700Y9915000D01*
X6854000Y9901700D01*
X6861000Y9893300D01*
X6869200Y9888300D01*
X6898300D01*
G01X6869200D02*
X6851700Y9840000D01*
G01X6802200Y9923300D02*
X6795200Y9933300D01*
X6787000Y9938300D01*
X6777700Y9940000D01*
X6766000Y9936700D01*
X6757800Y9928300D01*
X6755500Y9918300D01*
X6756700Y9908300D01*
X6761300Y9900000D01*
X6784700Y9883300D01*
X6795200Y9871700D01*
X6802200Y9855000D01*
X6804500Y9840000D01*
X6755500D01*
G01X6685000D02*
X6676800Y9841700D01*
X6667500Y9846700D01*
X6661700Y9855000D01*
X6659300Y9866700D01*
X6661700Y9878300D01*
X6668700Y9888300D01*
X6679200Y9893300D01*
X6690800D01*
X6697800Y9896700D01*
X6703700Y9905000D01*
X6706000Y9916700D01*
X6702500Y9928300D01*
X6694300Y9936700D01*
X6685000Y9940000D01*
X6675700Y9936700D01*
X6667500Y9928300D01*
X6664000Y9916700D01*
X6666300Y9905000D01*
X6672200Y9896700D01*
X6679200Y9893300D01*
X6690800D01*
X6701300Y9888300D01*
X6708300Y9878300D01*
X6710700Y9866700D01*
X6708300Y9855000D01*
X6702500Y9846700D01*
X6693200Y9841700D01*
X6685000Y9840000D01*
G01X6898300Y10540000D02*
Y10640000D01*
X6869200D01*
X6859800Y10635000D01*
X6854000Y10628300D01*
X6851700Y10615000D01*
X6854000Y10601700D01*
X6861000Y10593300D01*
X6869200Y10588300D01*
X6898300D01*
G01X6869200D02*
X6851700Y10540000D01*
G01X6802200Y10623300D02*
X6795200Y10633300D01*
X6787000Y10638300D01*
X6777700Y10640000D01*
X6766000Y10636700D01*
X6757800Y10628300D01*
X6755500Y10618300D01*
X6756700Y10608300D01*
X6761300Y10600000D01*
X6784700Y10583300D01*
X6795200Y10571700D01*
X6802200Y10555000D01*
X6804500Y10540000D01*
X6755500D01*
G01X6687300D02*
X6685000Y10561700D01*
X6681500Y10580000D01*
X6676800Y10596700D01*
X6671000Y10615000D01*
X6661700Y10640000D01*
X6708300D01*
G01X6673300Y16182000D02*
X6677300Y16176000D01*
X6680000Y16169000D01*
Y16161000D01*
X6676000Y16152000D01*
X6669300Y16145000D01*
X6661300Y16140000D01*
X6648000Y16136000D01*
X6636000Y16135000D01*
X6624000Y16137000D01*
X6616000Y16140000D01*
X6608000Y16146000D01*
X6602700Y16153000D01*
X6600000Y16160000D01*
Y16167000D01*
X6602700Y16174000D01*
X6606700Y16180000D01*
X6612000Y16185000D01*
G01X6609300Y16223000D02*
X6602700Y16230000D01*
X6600000Y16238000D01*
X6602700Y16246000D01*
X6610700Y16253000D01*
X6622700Y16258000D01*
X6634700Y16260000D01*
X6649300D01*
X6661300Y16258000D01*
X6672000Y16253000D01*
X6677300Y16247000D01*
X6680000Y16240000D01*
X6677300Y16232000D01*
X6672000Y16226000D01*
X6664000Y16222000D01*
X6653300Y16220000D01*
X6644000Y16222000D01*
X6634700Y16227000D01*
X6629300Y16233000D01*
X6628000Y16240000D01*
X6630700Y16248000D01*
X6637300Y16254000D01*
X6649300Y16260000D01*
G01X6778000Y16073300D02*
X6784000Y16077300D01*
X6791000Y16080000D01*
X6799000D01*
X6808000Y16076000D01*
X6815000Y16069300D01*
X6820000Y16061300D01*
X6824000Y16048000D01*
X6825000Y16036000D01*
X6823000Y16024000D01*
X6820000Y16016000D01*
X6814000Y16008000D01*
X6807000Y16002700D01*
X6800000Y16000000D01*
X6793000D01*
X6786000Y16002700D01*
X6780000Y16006700D01*
X6775000Y16012000D01*
G01X6720000Y16000000D02*
X6713000Y16001300D01*
X6705000Y16005300D01*
X6700000Y16012000D01*
X6698000Y16021300D01*
X6700000Y16030700D01*
X6706000Y16038700D01*
X6715000Y16042700D01*
X6725000D01*
X6731000Y16045300D01*
X6736000Y16052000D01*
X6738000Y16061300D01*
X6735000Y16070700D01*
X6728000Y16077300D01*
X6720000Y16080000D01*
X6712000Y16077300D01*
X6705000Y16070700D01*
X6702000Y16061300D01*
X6704000Y16052000D01*
X6709000Y16045300D01*
X6715000Y16042700D01*
X6725000D01*
X6734000Y16038700D01*
X6740000Y16030700D01*
X6742000Y16021300D01*
X6740000Y16012000D01*
X6735000Y16005300D01*
X6727000Y16001300D01*
X6720000Y16000000D01*
G01X6658000Y16653300D02*
X6664000Y16657300D01*
X6671000Y16660000D01*
X6679000D01*
X6688000Y16656000D01*
X6695000Y16649300D01*
X6700000Y16641300D01*
X6704000Y16628000D01*
X6705000Y16616000D01*
X6703000Y16604000D01*
X6700000Y16596000D01*
X6694000Y16588000D01*
X6687000Y16582700D01*
X6680000Y16580000D01*
X6673000D01*
X6666000Y16582700D01*
X6660000Y16586700D01*
X6655000Y16592000D01*
G01X6602000Y16580000D02*
X6600000Y16597300D01*
X6597000Y16612000D01*
X6593000Y16625300D01*
X6588000Y16640000D01*
X6580000Y16660000D01*
X6620000D01*
G01X6518000Y17053300D02*
X6524000Y17057300D01*
X6531000Y17060000D01*
X6539000D01*
X6548000Y17056000D01*
X6555000Y17049300D01*
X6560000Y17041300D01*
X6564000Y17028000D01*
X6565000Y17016000D01*
X6563000Y17004000D01*
X6560000Y16996000D01*
X6554000Y16988000D01*
X6547000Y16982700D01*
X6540000Y16980000D01*
X6533000D01*
X6526000Y16982700D01*
X6520000Y16986700D01*
X6515000Y16992000D01*
G01X6479000Y17046700D02*
X6473000Y17054700D01*
X6466000Y17058700D01*
X6458000Y17060000D01*
X6448000Y17057300D01*
X6441000Y17050700D01*
X6439000Y17042700D01*
X6440000Y17034700D01*
X6444000Y17028000D01*
X6464000Y17014700D01*
X6473000Y17005300D01*
X6479000Y16992000D01*
X6481000Y16980000D01*
X6439000D01*
G01X6402000Y16996000D02*
X6396000Y16986700D01*
X6388000Y16981300D01*
X6379000Y16980000D01*
X6371000Y16981300D01*
X6363000Y16988000D01*
X6358000Y16996000D01*
X6357000Y17004000D01*
X6359000Y17013300D01*
X6366000Y17020000D01*
X6373000Y17022700D01*
X6382000D01*
G01X6373000D02*
X6367000Y17026700D01*
X6362000Y17033300D01*
X6360000Y17041300D01*
X6362000Y17049300D01*
X6367000Y17056000D01*
X6376000Y17060000D01*
X6385000Y17058700D01*
X6394000Y17053300D01*
G01X6538000Y17693300D02*
X6544000Y17697300D01*
X6551000Y17700000D01*
X6559000D01*
X6568000Y17696000D01*
X6575000Y17689300D01*
X6580000Y17681300D01*
X6584000Y17668000D01*
X6585000Y17656000D01*
X6583000Y17644000D01*
X6580000Y17636000D01*
X6574000Y17628000D01*
X6567000Y17622700D01*
X6560000Y17620000D01*
X6553000D01*
X6546000Y17622700D01*
X6540000Y17626700D01*
X6535000Y17632000D01*
G01X6480000Y17620000D02*
Y17700000D01*
X6492000Y17684000D01*
G01Y17620000D02*
X6468000D01*
G01X6388000D02*
Y17700000D01*
X6425000Y17642700D01*
X6375000D01*
G01X7424900Y8927000D02*
Y8836000D01*
X7418500Y8816900D01*
X7405600Y8804200D01*
X7389600Y8800000D01*
X7373500Y8804200D01*
X7360600Y8816900D01*
X7354200Y8836000D01*
Y8927000D01*
G01X7260100Y8800000D02*
Y8927000D01*
X7279400Y8901600D01*
G01Y8800000D02*
X7240800D01*
G01X7161100Y8852900D02*
X7149900Y8867700D01*
X7140200Y8876200D01*
X7127300Y8880400D01*
X7116100Y8876200D01*
X7108000Y8867700D01*
X7101600Y8855000D01*
X7100000Y8840200D01*
X7101600Y8827500D01*
X7108000Y8814800D01*
X7117700Y8804200D01*
X7128900Y8800000D01*
X7141800Y8804200D01*
X7153100Y8816900D01*
X7159500Y8836000D01*
X7161100Y8857100D01*
X7157900Y8884700D01*
X7153100Y8899500D01*
X7145000Y8914300D01*
X7133800Y8924900D01*
X7122500Y8927000D01*
X7111200Y8922800D01*
X7103200Y8912200D01*
G01X7398300Y9840000D02*
Y9940000D01*
X7369200D01*
X7359800Y9935000D01*
X7354000Y9928300D01*
X7351700Y9915000D01*
X7354000Y9901700D01*
X7361000Y9893300D01*
X7369200Y9888300D01*
X7398300D01*
G01X7369200D02*
X7351700Y9840000D01*
G01X7305700Y9860000D02*
X7298700Y9848300D01*
X7289300Y9841700D01*
X7278800Y9840000D01*
X7269500Y9841700D01*
X7260200Y9850000D01*
X7254300Y9860000D01*
X7253200Y9870000D01*
X7255500Y9881700D01*
X7263700Y9890000D01*
X7271800Y9893300D01*
X7282300D01*
G01X7271800D02*
X7264800Y9898300D01*
X7259000Y9906700D01*
X7256700Y9916700D01*
X7259000Y9926700D01*
X7264800Y9935000D01*
X7275300Y9940000D01*
X7285800Y9938300D01*
X7296300Y9931700D01*
G01X7185000Y9840000D02*
Y9940000D01*
X7199000Y9920000D01*
G01Y9840000D02*
X7171000D01*
G01X7398300Y10540000D02*
Y10640000D01*
X7369200D01*
X7359800Y10635000D01*
X7354000Y10628300D01*
X7351700Y10615000D01*
X7354000Y10601700D01*
X7361000Y10593300D01*
X7369200Y10588300D01*
X7398300D01*
G01X7369200D02*
X7351700Y10540000D01*
G01X7305700Y10560000D02*
X7298700Y10548300D01*
X7289300Y10541700D01*
X7278800Y10540000D01*
X7269500Y10541700D01*
X7260200Y10550000D01*
X7254300Y10560000D01*
X7253200Y10570000D01*
X7255500Y10581700D01*
X7263700Y10590000D01*
X7271800Y10593300D01*
X7282300D01*
G01X7271800D02*
X7264800Y10598300D01*
X7259000Y10606700D01*
X7256700Y10616700D01*
X7259000Y10626700D01*
X7264800Y10635000D01*
X7275300Y10640000D01*
X7285800Y10638300D01*
X7296300Y10631700D01*
G01X7185000Y10640000D02*
X7194300Y10636700D01*
X7201300Y10628300D01*
X7206000Y10618300D01*
X7209500Y10605000D01*
X7210700Y10590000D01*
X7209500Y10575000D01*
X7206000Y10561700D01*
X7201300Y10551700D01*
X7194300Y10543300D01*
X7185000Y10540000D01*
X7175700Y10543300D01*
X7168700Y10551700D01*
X7164000Y10561700D01*
X7160500Y10575000D01*
X7159300Y10590000D01*
X7160500Y10605000D01*
X7164000Y10618300D01*
X7168700Y10628300D01*
X7175700Y10636700D01*
X7185000Y10640000D01*
G01X7158000Y16233300D02*
X7164000Y16237300D01*
X7171000Y16240000D01*
X7179000D01*
X7188000Y16236000D01*
X7195000Y16229300D01*
X7200000Y16221300D01*
X7204000Y16208000D01*
X7205000Y16196000D01*
X7203000Y16184000D01*
X7200000Y16176000D01*
X7194000Y16168000D01*
X7187000Y16162700D01*
X7180000Y16160000D01*
X7173000D01*
X7166000Y16162700D01*
X7160000Y16166700D01*
X7155000Y16172000D01*
G01X7100000Y16160000D02*
Y16240000D01*
X7112000Y16224000D01*
G01Y16160000D02*
X7088000D01*
G01X7042000Y16176000D02*
X7036000Y16166700D01*
X7028000Y16161300D01*
X7019000Y16160000D01*
X7011000Y16161300D01*
X7003000Y16168000D01*
X6998000Y16176000D01*
X6997000Y16184000D01*
X6999000Y16193300D01*
X7006000Y16200000D01*
X7013000Y16202700D01*
X7022000D01*
G01X7013000D02*
X7007000Y16206700D01*
X7002000Y16213300D01*
X7000000Y16221300D01*
X7002000Y16229300D01*
X7007000Y16236000D01*
X7016000Y16240000D01*
X7025000Y16238700D01*
X7034000Y16233300D01*
G01X7038000Y16833300D02*
X7044000Y16837300D01*
X7051000Y16840000D01*
X7059000D01*
X7068000Y16836000D01*
X7075000Y16829300D01*
X7080000Y16821300D01*
X7084000Y16808000D01*
X7085000Y16796000D01*
X7083000Y16784000D01*
X7080000Y16776000D01*
X7074000Y16768000D01*
X7067000Y16762700D01*
X7060000Y16760000D01*
X7053000D01*
X7046000Y16762700D01*
X7040000Y16766700D01*
X7035000Y16772000D01*
G01X6980000Y16760000D02*
Y16840000D01*
X6992000Y16824000D01*
G01Y16760000D02*
X6968000D01*
G01X6900000D02*
X6893000Y16761300D01*
X6885000Y16765300D01*
X6880000Y16772000D01*
X6878000Y16781300D01*
X6880000Y16790700D01*
X6886000Y16798700D01*
X6895000Y16802700D01*
X6905000D01*
X6911000Y16805300D01*
X6916000Y16812000D01*
X6918000Y16821300D01*
X6915000Y16830700D01*
X6908000Y16837300D01*
X6900000Y16840000D01*
X6892000Y16837300D01*
X6885000Y16830700D01*
X6882000Y16821300D01*
X6884000Y16812000D01*
X6889000Y16805300D01*
X6895000Y16802700D01*
X6905000D01*
X6914000Y16798700D01*
X6920000Y16790700D01*
X6922000Y16781300D01*
X6920000Y16772000D01*
X6915000Y16765300D01*
X6907000Y16761300D01*
X6900000Y16760000D01*
G01X7038000Y17413300D02*
X7044000Y17417300D01*
X7051000Y17420000D01*
X7059000D01*
X7068000Y17416000D01*
X7075000Y17409300D01*
X7080000Y17401300D01*
X7084000Y17388000D01*
X7085000Y17376000D01*
X7083000Y17364000D01*
X7080000Y17356000D01*
X7074000Y17348000D01*
X7067000Y17342700D01*
X7060000Y17340000D01*
X7053000D01*
X7046000Y17342700D01*
X7040000Y17346700D01*
X7035000Y17352000D01*
G01X6980000Y17340000D02*
Y17420000D01*
X6992000Y17404000D01*
G01Y17340000D02*
X6968000D01*
G01X6917000Y17349300D02*
X6910000Y17342700D01*
X6902000Y17340000D01*
X6894000Y17342700D01*
X6887000Y17350700D01*
X6882000Y17362700D01*
X6880000Y17374700D01*
Y17389300D01*
X6882000Y17401300D01*
X6887000Y17412000D01*
X6893000Y17417300D01*
X6900000Y17420000D01*
X6908000Y17417300D01*
X6914000Y17412000D01*
X6918000Y17404000D01*
X6920000Y17393300D01*
X6918000Y17384000D01*
X6913000Y17374700D01*
X6907000Y17369300D01*
X6900000Y17368000D01*
X6892000Y17370700D01*
X6886000Y17377300D01*
X6880000Y17389300D01*
G01X6885300Y17827600D02*
X6891300Y17831600D01*
X6898300Y17834300D01*
X6906300D01*
X6915300Y17830300D01*
X6922300Y17823600D01*
X6927300Y17815600D01*
X6931300Y17802300D01*
X6932300Y17790300D01*
X6930300Y17778300D01*
X6927300Y17770300D01*
X6921300Y17762300D01*
X6914300Y17757000D01*
X6907300Y17754300D01*
X6900300D01*
X6893300Y17757000D01*
X6887300Y17761000D01*
X6882300Y17766300D01*
G01X6827300Y17754300D02*
Y17834300D01*
X6839300Y17818300D01*
G01Y17754300D02*
X6815300D01*
G01X6747300D02*
Y17834300D01*
X6759300Y17818300D01*
G01Y17754300D02*
X6735300D01*
G01X7305300Y17707600D02*
X7311300Y17711600D01*
X7318300Y17714300D01*
X7326300D01*
X7335300Y17710300D01*
X7342300Y17703600D01*
X7347300Y17695600D01*
X7351300Y17682300D01*
X7352300Y17670300D01*
X7350300Y17658300D01*
X7347300Y17650300D01*
X7341300Y17642300D01*
X7334300Y17637000D01*
X7327300Y17634300D01*
X7320300D01*
X7313300Y17637000D01*
X7307300Y17641000D01*
X7302300Y17646300D01*
G01X7266300Y17701000D02*
X7260300Y17709000D01*
X7253300Y17713000D01*
X7245300Y17714300D01*
X7235300Y17711600D01*
X7228300Y17705000D01*
X7226300Y17697000D01*
X7227300Y17689000D01*
X7231300Y17682300D01*
X7251300Y17669000D01*
X7260300Y17659600D01*
X7266300Y17646300D01*
X7268300Y17634300D01*
X7226300D01*
G01X7155300D02*
Y17714300D01*
X7192300Y17657000D01*
X7142300D01*
G01X7924900Y8927000D02*
Y8836000D01*
X7918500Y8816900D01*
X7905600Y8804200D01*
X7889600Y8800000D01*
X7873500Y8804200D01*
X7860600Y8816900D01*
X7854200Y8836000D01*
Y8927000D01*
G01X7760100Y8800000D02*
Y8927000D01*
X7779400Y8901600D01*
G01Y8800000D02*
X7740800D01*
G01X7633800D02*
X7630600Y8827500D01*
X7625700Y8850800D01*
X7619300Y8872000D01*
X7611200Y8895200D01*
X7598400Y8927000D01*
X7662700D01*
G01X7898300Y9840000D02*
Y9940000D01*
X7869200D01*
X7859800Y9935000D01*
X7854000Y9928300D01*
X7851700Y9915000D01*
X7854000Y9901700D01*
X7861000Y9893300D01*
X7869200Y9888300D01*
X7898300D01*
G01X7869200D02*
X7851700Y9840000D01*
G01X7805700Y9860000D02*
X7798700Y9848300D01*
X7789300Y9841700D01*
X7778800Y9840000D01*
X7769500Y9841700D01*
X7760200Y9850000D01*
X7754300Y9860000D01*
X7753200Y9870000D01*
X7755500Y9881700D01*
X7763700Y9890000D01*
X7771800Y9893300D01*
X7782300D01*
G01X7771800D02*
X7764800Y9898300D01*
X7759000Y9906700D01*
X7756700Y9916700D01*
X7759000Y9926700D01*
X7764800Y9935000D01*
X7775300Y9940000D01*
X7785800Y9938300D01*
X7796300Y9931700D01*
G01X7671000Y9840000D02*
Y9940000D01*
X7714200Y9868300D01*
X7655800D01*
G01X7898300Y10540000D02*
Y10640000D01*
X7869200D01*
X7859800Y10635000D01*
X7854000Y10628300D01*
X7851700Y10615000D01*
X7854000Y10601700D01*
X7861000Y10593300D01*
X7869200Y10588300D01*
X7898300D01*
G01X7869200D02*
X7851700Y10540000D01*
G01X7805700Y10560000D02*
X7798700Y10548300D01*
X7789300Y10541700D01*
X7778800Y10540000D01*
X7769500Y10541700D01*
X7760200Y10550000D01*
X7754300Y10560000D01*
X7753200Y10570000D01*
X7755500Y10581700D01*
X7763700Y10590000D01*
X7771800Y10593300D01*
X7782300D01*
G01X7771800D02*
X7764800Y10598300D01*
X7759000Y10606700D01*
X7756700Y10616700D01*
X7759000Y10626700D01*
X7764800Y10635000D01*
X7775300Y10640000D01*
X7785800Y10638300D01*
X7796300Y10631700D01*
G01X7710700Y10560000D02*
X7703700Y10548300D01*
X7694300Y10541700D01*
X7683800Y10540000D01*
X7674500Y10541700D01*
X7665200Y10550000D01*
X7659300Y10560000D01*
X7658200Y10570000D01*
X7660500Y10581700D01*
X7668700Y10590000D01*
X7676800Y10593300D01*
X7687300D01*
G01X7676800D02*
X7669800Y10598300D01*
X7664000Y10606700D01*
X7661700Y10616700D01*
X7664000Y10626700D01*
X7669800Y10635000D01*
X7680300Y10640000D01*
X7690800Y10638300D01*
X7701300Y10631700D01*
G01X7758000Y15753300D02*
X7764000Y15757300D01*
X7771000Y15760000D01*
X7779000D01*
X7788000Y15756000D01*
X7795000Y15749300D01*
X7800000Y15741300D01*
X7804000Y15728000D01*
X7805000Y15716000D01*
X7803000Y15704000D01*
X7800000Y15696000D01*
X7794000Y15688000D01*
X7787000Y15682700D01*
X7780000Y15680000D01*
X7773000D01*
X7766000Y15682700D01*
X7760000Y15686700D01*
X7755000Y15692000D01*
G01X7700000Y15680000D02*
Y15760000D01*
X7712000Y15744000D01*
G01Y15680000D02*
X7688000D01*
G01X7642000Y15692000D02*
X7636000Y15685300D01*
X7629000Y15681300D01*
X7620000Y15680000D01*
X7611000Y15682700D01*
X7604000Y15688000D01*
X7599000Y15697300D01*
X7598000Y15708000D01*
X7600000Y15718700D01*
X7605000Y15725300D01*
X7612000Y15730700D01*
X7619000Y15732000D01*
X7626000Y15730700D01*
X7635000Y15725300D01*
X7632000Y15760000D01*
X7605000D01*
G01X7658000Y16293300D02*
X7664000Y16297300D01*
X7671000Y16300000D01*
X7679000D01*
X7688000Y16296000D01*
X7695000Y16289300D01*
X7700000Y16281300D01*
X7704000Y16268000D01*
X7705000Y16256000D01*
X7703000Y16244000D01*
X7700000Y16236000D01*
X7694000Y16228000D01*
X7687000Y16222700D01*
X7680000Y16220000D01*
X7673000D01*
X7666000Y16222700D01*
X7660000Y16226700D01*
X7655000Y16232000D01*
G01X7619000Y16286700D02*
X7613000Y16294700D01*
X7606000Y16298700D01*
X7598000Y16300000D01*
X7588000Y16297300D01*
X7581000Y16290700D01*
X7579000Y16282700D01*
X7580000Y16274700D01*
X7584000Y16268000D01*
X7604000Y16254700D01*
X7613000Y16245300D01*
X7619000Y16232000D01*
X7621000Y16220000D01*
X7579000D01*
G01X7539000Y16286700D02*
X7533000Y16294700D01*
X7526000Y16298700D01*
X7518000Y16300000D01*
X7508000Y16297300D01*
X7501000Y16290700D01*
X7499000Y16282700D01*
X7500000Y16274700D01*
X7504000Y16268000D01*
X7524000Y16254700D01*
X7533000Y16245300D01*
X7539000Y16232000D01*
X7541000Y16220000D01*
X7499000D01*
G01X7402000Y16680000D02*
Y16622700D01*
X7398000Y16610700D01*
X7390000Y16602700D01*
X7380000Y16600000D01*
X7370000Y16602700D01*
X7362000Y16610700D01*
X7358000Y16622700D01*
Y16680000D01*
G01X7322000Y16616000D02*
X7316000Y16606700D01*
X7308000Y16601300D01*
X7299000Y16600000D01*
X7291000Y16601300D01*
X7283000Y16608000D01*
X7278000Y16616000D01*
X7277000Y16624000D01*
X7279000Y16633300D01*
X7286000Y16640000D01*
X7293000Y16642700D01*
X7302000D01*
G01X7293000D02*
X7287000Y16646700D01*
X7282000Y16653300D01*
X7280000Y16661300D01*
X7282000Y16669300D01*
X7287000Y16676000D01*
X7296000Y16680000D01*
X7305000Y16678700D01*
X7314000Y16673300D01*
G01X7678000Y17233300D02*
X7684000Y17237300D01*
X7691000Y17240000D01*
X7699000D01*
X7708000Y17236000D01*
X7715000Y17229300D01*
X7720000Y17221300D01*
X7724000Y17208000D01*
X7725000Y17196000D01*
X7723000Y17184000D01*
X7720000Y17176000D01*
X7714000Y17168000D01*
X7707000Y17162700D01*
X7700000Y17160000D01*
X7693000D01*
X7686000Y17162700D01*
X7680000Y17166700D01*
X7675000Y17172000D01*
G01X7639000Y17226700D02*
X7633000Y17234700D01*
X7626000Y17238700D01*
X7618000Y17240000D01*
X7608000Y17237300D01*
X7601000Y17230700D01*
X7599000Y17222700D01*
X7600000Y17214700D01*
X7604000Y17208000D01*
X7624000Y17194700D01*
X7633000Y17185300D01*
X7639000Y17172000D01*
X7641000Y17160000D01*
X7599000D01*
G01X7540000Y17240000D02*
X7548000Y17237300D01*
X7554000Y17230700D01*
X7558000Y17222700D01*
X7561000Y17212000D01*
X7562000Y17200000D01*
X7561000Y17188000D01*
X7558000Y17177300D01*
X7554000Y17169300D01*
X7548000Y17162700D01*
X7540000Y17160000D01*
X7532000Y17162700D01*
X7526000Y17169300D01*
X7522000Y17177300D01*
X7519000Y17188000D01*
X7518000Y17200000D01*
X7519000Y17212000D01*
X7522000Y17222700D01*
X7526000Y17230700D01*
X7532000Y17237300D01*
X7540000Y17240000D01*
G01X7685300Y17827600D02*
X7691300Y17831600D01*
X7698300Y17834300D01*
X7706300D01*
X7715300Y17830300D01*
X7722300Y17823600D01*
X7727300Y17815600D01*
X7731300Y17802300D01*
X7732300Y17790300D01*
X7730300Y17778300D01*
X7727300Y17770300D01*
X7721300Y17762300D01*
X7714300Y17757000D01*
X7707300Y17754300D01*
X7700300D01*
X7693300Y17757000D01*
X7687300Y17761000D01*
X7682300Y17766300D01*
G01X7627300Y17754300D02*
Y17834300D01*
X7639300Y17818300D01*
G01Y17754300D02*
X7615300D01*
G01X7566300Y17821000D02*
X7560300Y17829000D01*
X7553300Y17833000D01*
X7545300Y17834300D01*
X7535300Y17831600D01*
X7528300Y17825000D01*
X7526300Y17817000D01*
X7527300Y17809000D01*
X7531300Y17802300D01*
X7551300Y17789000D01*
X7560300Y17779600D01*
X7566300Y17766300D01*
X7568300Y17754300D01*
X7526300D01*
G01X8424900Y8927000D02*
Y8836000D01*
X8418500Y8816900D01*
X8405600Y8804200D01*
X8389600Y8800000D01*
X8373500Y8804200D01*
X8360600Y8816900D01*
X8354200Y8836000D01*
Y8927000D01*
G01X8260100Y8800000D02*
Y8927000D01*
X8279400Y8901600D01*
G01Y8800000D02*
X8240800D01*
G01X8130600D02*
X8119300Y8802100D01*
X8106400Y8808500D01*
X8098400Y8819000D01*
X8095200Y8833900D01*
X8098400Y8848700D01*
X8108000Y8861400D01*
X8122500Y8867700D01*
X8138600D01*
X8148200Y8872000D01*
X8156300Y8882500D01*
X8159500Y8897400D01*
X8154700Y8912200D01*
X8143400Y8922800D01*
X8130600Y8927000D01*
X8117700Y8922800D01*
X8106400Y8912200D01*
X8101600Y8897400D01*
X8104800Y8882500D01*
X8112900Y8872000D01*
X8122500Y8867700D01*
X8138600D01*
X8153100Y8861400D01*
X8162700Y8848700D01*
X8165900Y8833900D01*
X8162700Y8819000D01*
X8154700Y8808500D01*
X8141800Y8802100D01*
X8130600Y8800000D01*
G01X8398300Y9840000D02*
Y9940000D01*
X8369200D01*
X8359800Y9935000D01*
X8354000Y9928300D01*
X8351700Y9915000D01*
X8354000Y9901700D01*
X8361000Y9893300D01*
X8369200Y9888300D01*
X8398300D01*
G01X8369200D02*
X8351700Y9840000D01*
G01X8305700Y9860000D02*
X8298700Y9848300D01*
X8289300Y9841700D01*
X8278800Y9840000D01*
X8269500Y9841700D01*
X8260200Y9850000D01*
X8254300Y9860000D01*
X8253200Y9870000D01*
X8255500Y9881700D01*
X8263700Y9890000D01*
X8271800Y9893300D01*
X8282300D01*
G01X8271800D02*
X8264800Y9898300D01*
X8259000Y9906700D01*
X8256700Y9916700D01*
X8259000Y9926700D01*
X8264800Y9935000D01*
X8275300Y9940000D01*
X8285800Y9938300D01*
X8296300Y9931700D01*
G01X8187300Y9840000D02*
X8185000Y9861700D01*
X8181500Y9880000D01*
X8176800Y9896700D01*
X8171000Y9915000D01*
X8161700Y9940000D01*
X8208300D01*
G01X8398300Y10540000D02*
Y10640000D01*
X8369200D01*
X8359800Y10635000D01*
X8354000Y10628300D01*
X8351700Y10615000D01*
X8354000Y10601700D01*
X8361000Y10593300D01*
X8369200Y10588300D01*
X8398300D01*
G01X8369200D02*
X8351700Y10540000D01*
G01X8305700Y10560000D02*
X8298700Y10548300D01*
X8289300Y10541700D01*
X8278800Y10540000D01*
X8269500Y10541700D01*
X8260200Y10550000D01*
X8254300Y10560000D01*
X8253200Y10570000D01*
X8255500Y10581700D01*
X8263700Y10590000D01*
X8271800Y10593300D01*
X8282300D01*
G01X8271800D02*
X8264800Y10598300D01*
X8259000Y10606700D01*
X8256700Y10616700D01*
X8259000Y10626700D01*
X8264800Y10635000D01*
X8275300Y10640000D01*
X8285800Y10638300D01*
X8296300Y10631700D01*
G01X8207200Y10581700D02*
X8199000Y10593300D01*
X8192000Y10600000D01*
X8182700Y10603300D01*
X8174500Y10600000D01*
X8168700Y10593300D01*
X8164000Y10583300D01*
X8162800Y10571700D01*
X8164000Y10561700D01*
X8168700Y10551700D01*
X8175700Y10543300D01*
X8183800Y10540000D01*
X8193200Y10543300D01*
X8201300Y10553300D01*
X8206000Y10568300D01*
X8207200Y10585000D01*
X8204800Y10606700D01*
X8201300Y10618300D01*
X8195500Y10630000D01*
X8187300Y10638300D01*
X8179200Y10640000D01*
X8171000Y10636700D01*
X8165200Y10628300D01*
G01X8240000Y15710000D02*
X8160000D01*
Y15750000D01*
G01Y15810000D02*
X8240000D01*
X8224000Y15798000D01*
G01X8160000D02*
Y15822000D01*
G01X8058000Y16253300D02*
X8064000Y16257300D01*
X8071000Y16260000D01*
X8079000D01*
X8088000Y16256000D01*
X8095000Y16249300D01*
X8100000Y16241300D01*
X8104000Y16228000D01*
X8105000Y16216000D01*
X8103000Y16204000D01*
X8100000Y16196000D01*
X8094000Y16188000D01*
X8087000Y16182700D01*
X8080000Y16180000D01*
X8073000D01*
X8066000Y16182700D01*
X8060000Y16186700D01*
X8055000Y16192000D01*
G01X8022000D02*
X8016000Y16185300D01*
X8009000Y16181300D01*
X8000000Y16180000D01*
X7991000Y16182700D01*
X7984000Y16188000D01*
X7979000Y16197300D01*
X7978000Y16208000D01*
X7980000Y16218700D01*
X7985000Y16225300D01*
X7992000Y16230700D01*
X7999000Y16232000D01*
X8006000Y16230700D01*
X8015000Y16225300D01*
X8012000Y16260000D01*
X7985000D01*
G01X8058000Y16933300D02*
X8064000Y16937300D01*
X8071000Y16940000D01*
X8079000D01*
X8088000Y16936000D01*
X8095000Y16929300D01*
X8100000Y16921300D01*
X8104000Y16908000D01*
X8105000Y16896000D01*
X8103000Y16884000D01*
X8100000Y16876000D01*
X8094000Y16868000D01*
X8087000Y16862700D01*
X8080000Y16860000D01*
X8073000D01*
X8066000Y16862700D01*
X8060000Y16866700D01*
X8055000Y16872000D01*
G01X8019000Y16926700D02*
X8013000Y16934700D01*
X8006000Y16938700D01*
X7998000Y16940000D01*
X7988000Y16937300D01*
X7981000Y16930700D01*
X7979000Y16922700D01*
X7980000Y16914700D01*
X7984000Y16908000D01*
X8004000Y16894700D01*
X8013000Y16885300D01*
X8019000Y16872000D01*
X8021000Y16860000D01*
X7979000D01*
G01X7920000D02*
Y16940000D01*
X7932000Y16924000D01*
G01Y16860000D02*
X7908000D01*
G01X8098000Y17833300D02*
X8104000Y17837300D01*
X8111000Y17840000D01*
X8119000D01*
X8128000Y17836000D01*
X8135000Y17829300D01*
X8140000Y17821300D01*
X8144000Y17808000D01*
X8145000Y17796000D01*
X8143000Y17784000D01*
X8140000Y17776000D01*
X8134000Y17768000D01*
X8127000Y17762700D01*
X8120000Y17760000D01*
X8113000D01*
X8106000Y17762700D01*
X8100000Y17766700D01*
X8095000Y17772000D01*
G01X8040000Y17760000D02*
Y17840000D01*
X8052000Y17824000D01*
G01Y17760000D02*
X8028000D01*
G01X7960000Y17840000D02*
X7968000Y17837300D01*
X7974000Y17830700D01*
X7978000Y17822700D01*
X7981000Y17812000D01*
X7982000Y17800000D01*
X7981000Y17788000D01*
X7978000Y17777300D01*
X7974000Y17769300D01*
X7968000Y17762700D01*
X7960000Y17760000D01*
X7952000Y17762700D01*
X7946000Y17769300D01*
X7942000Y17777300D01*
X7939000Y17788000D01*
X7938000Y17800000D01*
X7939000Y17812000D01*
X7942000Y17822700D01*
X7946000Y17830700D01*
X7952000Y17837300D01*
X7960000Y17840000D01*
G01X8318000Y17573300D02*
X8324000Y17577300D01*
X8331000Y17580000D01*
X8339000D01*
X8348000Y17576000D01*
X8355000Y17569300D01*
X8360000Y17561300D01*
X8364000Y17548000D01*
X8365000Y17536000D01*
X8363000Y17524000D01*
X8360000Y17516000D01*
X8354000Y17508000D01*
X8347000Y17502700D01*
X8340000Y17500000D01*
X8333000D01*
X8326000Y17502700D01*
X8320000Y17506700D01*
X8315000Y17512000D01*
G01X8279000Y17533300D02*
X8272000Y17542700D01*
X8266000Y17548000D01*
X8258000Y17550700D01*
X8251000Y17548000D01*
X8246000Y17542700D01*
X8242000Y17534700D01*
X8241000Y17525300D01*
X8242000Y17517300D01*
X8246000Y17509300D01*
X8252000Y17502700D01*
X8259000Y17500000D01*
X8267000Y17502700D01*
X8274000Y17510700D01*
X8278000Y17522700D01*
X8279000Y17536000D01*
X8277000Y17553300D01*
X8274000Y17562700D01*
X8269000Y17572000D01*
X8262000Y17578700D01*
X8255000Y17580000D01*
X8248000Y17577300D01*
X8243000Y17570700D01*
G01X8924900Y8927000D02*
Y8836000D01*
X8918500Y8816900D01*
X8905600Y8804200D01*
X8889600Y8800000D01*
X8873500Y8804200D01*
X8860600Y8816900D01*
X8854200Y8836000D01*
Y8927000D01*
G01X8760100Y8800000D02*
Y8927000D01*
X8779400Y8901600D01*
G01Y8800000D02*
X8740800D01*
G01X8657900Y8814800D02*
X8646600Y8804200D01*
X8633800Y8800000D01*
X8620900Y8804200D01*
X8609600Y8816900D01*
X8601600Y8836000D01*
X8598400Y8855000D01*
Y8878300D01*
X8601600Y8897400D01*
X8609600Y8914300D01*
X8619300Y8922800D01*
X8630600Y8927000D01*
X8643400Y8922800D01*
X8653100Y8914300D01*
X8659500Y8901600D01*
X8662700Y8884700D01*
X8659500Y8869900D01*
X8651500Y8855000D01*
X8641800Y8846600D01*
X8630600Y8844400D01*
X8617700Y8848700D01*
X8608000Y8859300D01*
X8598400Y8878300D01*
G01X8898300Y9840000D02*
Y9940000D01*
X8869200D01*
X8859800Y9935000D01*
X8854000Y9928300D01*
X8851700Y9915000D01*
X8854000Y9901700D01*
X8861000Y9893300D01*
X8869200Y9888300D01*
X8898300D01*
G01X8869200D02*
X8851700Y9840000D01*
G01X8766000D02*
Y9940000D01*
X8809200Y9868300D01*
X8750800D01*
G01X8685000Y9940000D02*
X8694300Y9936700D01*
X8701300Y9928300D01*
X8706000Y9918300D01*
X8709500Y9905000D01*
X8710700Y9890000D01*
X8709500Y9875000D01*
X8706000Y9861700D01*
X8701300Y9851700D01*
X8694300Y9843300D01*
X8685000Y9840000D01*
X8675700Y9843300D01*
X8668700Y9851700D01*
X8664000Y9861700D01*
X8660500Y9875000D01*
X8659300Y9890000D01*
X8660500Y9905000D01*
X8664000Y9918300D01*
X8668700Y9928300D01*
X8675700Y9936700D01*
X8685000Y9940000D01*
G01X8898300Y10540000D02*
Y10640000D01*
X8869200D01*
X8859800Y10635000D01*
X8854000Y10628300D01*
X8851700Y10615000D01*
X8854000Y10601700D01*
X8861000Y10593300D01*
X8869200Y10588300D01*
X8898300D01*
G01X8869200D02*
X8851700Y10540000D01*
G01X8805700Y10560000D02*
X8798700Y10548300D01*
X8789300Y10541700D01*
X8778800Y10540000D01*
X8769500Y10541700D01*
X8760200Y10550000D01*
X8754300Y10560000D01*
X8753200Y10570000D01*
X8755500Y10581700D01*
X8763700Y10590000D01*
X8771800Y10593300D01*
X8782300D01*
G01X8771800D02*
X8764800Y10598300D01*
X8759000Y10606700D01*
X8756700Y10616700D01*
X8759000Y10626700D01*
X8764800Y10635000D01*
X8775300Y10640000D01*
X8785800Y10638300D01*
X8796300Y10631700D01*
G01X8704800Y10551700D02*
X8696700Y10543300D01*
X8687300Y10540000D01*
X8678000Y10543300D01*
X8669800Y10553300D01*
X8664000Y10568300D01*
X8661700Y10583300D01*
Y10601700D01*
X8664000Y10616700D01*
X8669800Y10630000D01*
X8676800Y10636700D01*
X8685000Y10640000D01*
X8694300Y10636700D01*
X8701300Y10630000D01*
X8706000Y10620000D01*
X8708300Y10606700D01*
X8706000Y10595000D01*
X8700200Y10583300D01*
X8693200Y10576700D01*
X8685000Y10575000D01*
X8675700Y10578300D01*
X8668700Y10586700D01*
X8661700Y10601700D01*
G01X8989300Y14731700D02*
X8996300Y14736700D01*
X9004500Y14740000D01*
X9013800D01*
X9024300Y14735000D01*
X9032500Y14726700D01*
X9038300Y14716700D01*
X9043000Y14700000D01*
X9044200Y14685000D01*
X9041800Y14670000D01*
X9038300Y14660000D01*
X9031300Y14650000D01*
X9023200Y14643300D01*
X9015000Y14640000D01*
X9006800D01*
X8998700Y14643300D01*
X8991700Y14648300D01*
X8985800Y14655000D01*
G01X8922300Y14640000D02*
X8920000Y14661700D01*
X8916500Y14680000D01*
X8911800Y14696700D01*
X8906000Y14715000D01*
X8896700Y14740000D01*
X8943300D01*
G01X8811000Y14640000D02*
Y14740000D01*
X8854200Y14668300D01*
X8795800D01*
G01X8421800Y15011700D02*
X8428800Y15016700D01*
X8437000Y15020000D01*
X8446300D01*
X8456800Y15015000D01*
X8465000Y15006700D01*
X8470800Y14996700D01*
X8475500Y14980000D01*
X8476700Y14965000D01*
X8474300Y14950000D01*
X8470800Y14940000D01*
X8463800Y14930000D01*
X8455700Y14923300D01*
X8447500Y14920000D01*
X8439300D01*
X8431200Y14923300D01*
X8424200Y14928300D01*
X8418300Y14935000D01*
G01X8338500Y14920000D02*
Y15020000D01*
X8381700Y14948300D01*
X8323300D01*
G01X8421800Y15591700D02*
X8428800Y15596700D01*
X8437000Y15600000D01*
X8446300D01*
X8456800Y15595000D01*
X8465000Y15586700D01*
X8470800Y15576700D01*
X8475500Y15560000D01*
X8476700Y15545000D01*
X8474300Y15530000D01*
X8470800Y15520000D01*
X8463800Y15510000D01*
X8455700Y15503300D01*
X8447500Y15500000D01*
X8439300D01*
X8431200Y15503300D01*
X8424200Y15508300D01*
X8418300Y15515000D01*
G01X8378200Y15520000D02*
X8371200Y15508300D01*
X8361800Y15501700D01*
X8351300Y15500000D01*
X8342000Y15501700D01*
X8332700Y15510000D01*
X8326800Y15520000D01*
X8325700Y15530000D01*
X8328000Y15541700D01*
X8336200Y15550000D01*
X8344300Y15553300D01*
X8354800D01*
G01X8344300D02*
X8337300Y15558300D01*
X8331500Y15566700D01*
X8329200Y15576700D01*
X8331500Y15586700D01*
X8337300Y15595000D01*
X8347800Y15600000D01*
X8358300Y15598300D01*
X8368800Y15591700D01*
G01X8427600Y16354700D02*
X8431600Y16348700D01*
X8434300Y16341700D01*
Y16333700D01*
X8430300Y16324700D01*
X8423600Y16317700D01*
X8415600Y16312700D01*
X8402300Y16308700D01*
X8390300Y16307700D01*
X8378300Y16309700D01*
X8370300Y16312700D01*
X8362300Y16318700D01*
X8357000Y16325700D01*
X8354300Y16332700D01*
Y16339700D01*
X8357000Y16346700D01*
X8361000Y16352700D01*
X8366300Y16357700D01*
G01X8354300Y16412700D02*
X8434300D01*
X8418300Y16400700D01*
G01X8354300D02*
Y16424700D01*
G01X8387600Y16473700D02*
X8397000Y16480700D01*
X8402300Y16486700D01*
X8405000Y16494700D01*
X8402300Y16501700D01*
X8397000Y16506700D01*
X8389000Y16510700D01*
X8379600Y16511700D01*
X8371600Y16510700D01*
X8363600Y16506700D01*
X8357000Y16500700D01*
X8354300Y16493700D01*
X8357000Y16485700D01*
X8365000Y16478700D01*
X8377000Y16474700D01*
X8390300Y16473700D01*
X8407600Y16475700D01*
X8417000Y16478700D01*
X8426300Y16483700D01*
X8433000Y16490700D01*
X8434300Y16497700D01*
X8431600Y16504700D01*
X8425000Y16509700D01*
G01X8433300Y16982000D02*
X8437300Y16976000D01*
X8440000Y16969000D01*
Y16961000D01*
X8436000Y16952000D01*
X8429300Y16945000D01*
X8421300Y16940000D01*
X8408000Y16936000D01*
X8396000Y16935000D01*
X8384000Y16937000D01*
X8376000Y16940000D01*
X8368000Y16946000D01*
X8362700Y16953000D01*
X8360000Y16960000D01*
Y16967000D01*
X8362700Y16974000D01*
X8366700Y16980000D01*
X8372000Y16985000D01*
G01X8360000Y17040000D02*
X8440000D01*
X8424000Y17028000D01*
G01X8360000D02*
Y17052000D01*
G01Y17118000D02*
X8377300Y17120000D01*
X8392000Y17123000D01*
X8405300Y17127000D01*
X8420000Y17132000D01*
X8440000Y17140000D01*
Y17100000D01*
G01X8600000Y19450000D02*
X8680000D01*
Y19475000D01*
X8676000Y19483000D01*
X8670700Y19488000D01*
X8660000Y19490000D01*
X8649300Y19488000D01*
X8642700Y19482000D01*
X8638700Y19475000D01*
Y19450000D01*
G01Y19475000D02*
X8600000Y19490000D01*
G01X8666700Y19531000D02*
X8674700Y19537000D01*
X8678700Y19544000D01*
X8680000Y19552000D01*
X8677300Y19562000D01*
X8670700Y19569000D01*
X8662700Y19571000D01*
X8654700Y19570000D01*
X8648000Y19566000D01*
X8634700Y19546000D01*
X8625300Y19537000D01*
X8612000Y19531000D01*
X8600000Y19529000D01*
Y19571000D01*
G01X8680000Y19630000D02*
X8677300Y19622000D01*
X8670700Y19616000D01*
X8662700Y19612000D01*
X8652000Y19609000D01*
X8640000Y19608000D01*
X8628000Y19609000D01*
X8617300Y19612000D01*
X8609300Y19616000D01*
X8602700Y19622000D01*
X8600000Y19630000D01*
X8602700Y19638000D01*
X8609300Y19644000D01*
X8617300Y19648000D01*
X8628000Y19651000D01*
X8640000Y19652000D01*
X8652000Y19651000D01*
X8662700Y19648000D01*
X8670700Y19644000D01*
X8677300Y19638000D01*
X8680000Y19630000D01*
G01X8633300Y19691000D02*
X8642700Y19698000D01*
X8648000Y19704000D01*
X8650700Y19712000D01*
X8648000Y19719000D01*
X8642700Y19724000D01*
X8634700Y19728000D01*
X8625300Y19729000D01*
X8617300Y19728000D01*
X8609300Y19724000D01*
X8602700Y19718000D01*
X8600000Y19711000D01*
X8602700Y19703000D01*
X8610700Y19696000D01*
X8622700Y19692000D01*
X8636000Y19691000D01*
X8653300Y19693000D01*
X8662700Y19696000D01*
X8672000Y19701000D01*
X8678700Y19708000D01*
X8680000Y19715000D01*
X8677300Y19722000D01*
X8670700Y19727000D01*
G01X9424900Y8927000D02*
Y8836000D01*
X9418500Y8816900D01*
X9405600Y8804200D01*
X9389600Y8800000D01*
X9373500Y8804200D01*
X9360600Y8816900D01*
X9354200Y8836000D01*
Y8927000D01*
G01X9290600Y8905800D02*
X9281000Y8918500D01*
X9269700Y8924900D01*
X9256800Y8927000D01*
X9240700Y8922800D01*
X9229500Y8912200D01*
X9226300Y8899500D01*
X9227900Y8886800D01*
X9234300Y8876200D01*
X9266500Y8855000D01*
X9281000Y8840200D01*
X9290600Y8819000D01*
X9293800Y8800000D01*
X9226300D01*
G01X9130600Y8927000D02*
X9143400Y8922800D01*
X9153100Y8912200D01*
X9159500Y8899500D01*
X9164300Y8882500D01*
X9165900Y8863500D01*
X9164300Y8844400D01*
X9159500Y8827500D01*
X9153100Y8814800D01*
X9143400Y8804200D01*
X9130600Y8800000D01*
X9117700Y8804200D01*
X9108000Y8814800D01*
X9101600Y8827500D01*
X9096800Y8844400D01*
X9095200Y8863500D01*
X9096800Y8882500D01*
X9101600Y8899500D01*
X9108000Y8912200D01*
X9117700Y8922800D01*
X9130600Y8927000D01*
G01X9398300Y9840000D02*
Y9940000D01*
X9369200D01*
X9359800Y9935000D01*
X9354000Y9928300D01*
X9351700Y9915000D01*
X9354000Y9901700D01*
X9361000Y9893300D01*
X9369200Y9888300D01*
X9398300D01*
G01X9369200D02*
X9351700Y9840000D01*
G01X9266000D02*
Y9940000D01*
X9309200Y9868300D01*
X9250800D01*
G01X9210700Y9860000D02*
X9203700Y9848300D01*
X9194300Y9841700D01*
X9183800Y9840000D01*
X9174500Y9841700D01*
X9165200Y9850000D01*
X9159300Y9860000D01*
X9158200Y9870000D01*
X9160500Y9881700D01*
X9168700Y9890000D01*
X9176800Y9893300D01*
X9187300D01*
G01X9176800D02*
X9169800Y9898300D01*
X9164000Y9906700D01*
X9161700Y9916700D01*
X9164000Y9926700D01*
X9169800Y9935000D01*
X9180300Y9940000D01*
X9190800Y9938300D01*
X9201300Y9931700D01*
G01X9398300Y10540000D02*
Y10640000D01*
X9369200D01*
X9359800Y10635000D01*
X9354000Y10628300D01*
X9351700Y10615000D01*
X9354000Y10601700D01*
X9361000Y10593300D01*
X9369200Y10588300D01*
X9398300D01*
G01X9369200D02*
X9351700Y10540000D01*
G01X9266000D02*
Y10640000D01*
X9309200Y10568300D01*
X9250800D01*
G01X9207200Y10623300D02*
X9200200Y10633300D01*
X9192000Y10638300D01*
X9182700Y10640000D01*
X9171000Y10636700D01*
X9162800Y10628300D01*
X9160500Y10618300D01*
X9161700Y10608300D01*
X9166300Y10600000D01*
X9189700Y10583300D01*
X9200200Y10571700D01*
X9207200Y10555000D01*
X9209500Y10540000D01*
X9160500D01*
G01X9200000Y19450000D02*
X9280000D01*
Y19475000D01*
X9276000Y19483000D01*
X9270700Y19488000D01*
X9260000Y19490000D01*
X9249300Y19488000D01*
X9242700Y19482000D01*
X9238700Y19475000D01*
Y19450000D01*
G01Y19475000D02*
X9200000Y19490000D01*
G01X9266700Y19531000D02*
X9274700Y19537000D01*
X9278700Y19544000D01*
X9280000Y19552000D01*
X9277300Y19562000D01*
X9270700Y19569000D01*
X9262700Y19571000D01*
X9254700Y19570000D01*
X9248000Y19566000D01*
X9234700Y19546000D01*
X9225300Y19537000D01*
X9212000Y19531000D01*
X9200000Y19529000D01*
Y19571000D01*
G01X9280000Y19630000D02*
X9277300Y19622000D01*
X9270700Y19616000D01*
X9262700Y19612000D01*
X9252000Y19609000D01*
X9240000Y19608000D01*
X9228000Y19609000D01*
X9217300Y19612000D01*
X9209300Y19616000D01*
X9202700Y19622000D01*
X9200000Y19630000D01*
X9202700Y19638000D01*
X9209300Y19644000D01*
X9217300Y19648000D01*
X9228000Y19651000D01*
X9240000Y19652000D01*
X9252000Y19651000D01*
X9262700Y19648000D01*
X9270700Y19644000D01*
X9277300Y19638000D01*
X9280000Y19630000D01*
G01X9200000Y19710000D02*
X9201300Y19717000D01*
X9205300Y19725000D01*
X9212000Y19730000D01*
X9221300Y19732000D01*
X9230700Y19730000D01*
X9238700Y19724000D01*
X9242700Y19715000D01*
Y19705000D01*
X9245300Y19699000D01*
X9252000Y19694000D01*
X9261300Y19692000D01*
X9270700Y19695000D01*
X9277300Y19702000D01*
X9280000Y19710000D01*
X9277300Y19718000D01*
X9270700Y19725000D01*
X9261300Y19728000D01*
X9252000Y19726000D01*
X9245300Y19721000D01*
X9242700Y19715000D01*
Y19705000D01*
X9238700Y19696000D01*
X9230700Y19690000D01*
X9221300Y19688000D01*
X9212000Y19690000D01*
X9205300Y19695000D01*
X9201300Y19703000D01*
X9200000Y19710000D01*
G01X8900000Y19450000D02*
X8980000D01*
Y19475000D01*
X8976000Y19483000D01*
X8970700Y19488000D01*
X8960000Y19490000D01*
X8949300Y19488000D01*
X8942700Y19482000D01*
X8938700Y19475000D01*
Y19450000D01*
G01Y19475000D02*
X8900000Y19490000D01*
G01X8966700Y19531000D02*
X8974700Y19537000D01*
X8978700Y19544000D01*
X8980000Y19552000D01*
X8977300Y19562000D01*
X8970700Y19569000D01*
X8962700Y19571000D01*
X8954700Y19570000D01*
X8948000Y19566000D01*
X8934700Y19546000D01*
X8925300Y19537000D01*
X8912000Y19531000D01*
X8900000Y19529000D01*
Y19571000D01*
G01X8980000Y19630000D02*
X8977300Y19622000D01*
X8970700Y19616000D01*
X8962700Y19612000D01*
X8952000Y19609000D01*
X8940000Y19608000D01*
X8928000Y19609000D01*
X8917300Y19612000D01*
X8909300Y19616000D01*
X8902700Y19622000D01*
X8900000Y19630000D01*
X8902700Y19638000D01*
X8909300Y19644000D01*
X8917300Y19648000D01*
X8928000Y19651000D01*
X8940000Y19652000D01*
X8952000Y19651000D01*
X8962700Y19648000D01*
X8970700Y19644000D01*
X8977300Y19638000D01*
X8980000Y19630000D01*
G01X8900000Y19708000D02*
X8917300Y19710000D01*
X8932000Y19713000D01*
X8945300Y19717000D01*
X8960000Y19722000D01*
X8980000Y19730000D01*
Y19690000D01*
G01X9924900Y8927000D02*
Y8836000D01*
X9918500Y8816900D01*
X9905600Y8804200D01*
X9889600Y8800000D01*
X9873500Y8804200D01*
X9860600Y8816900D01*
X9854200Y8836000D01*
Y8927000D01*
G01X9790600Y8905800D02*
X9781000Y8918500D01*
X9769700Y8924900D01*
X9756800Y8927000D01*
X9740700Y8922800D01*
X9729500Y8912200D01*
X9726300Y8899500D01*
X9727900Y8886800D01*
X9734300Y8876200D01*
X9766500Y8855000D01*
X9781000Y8840200D01*
X9790600Y8819000D01*
X9793800Y8800000D01*
X9726300D01*
G01X9630600D02*
Y8927000D01*
X9649900Y8901600D01*
G01Y8800000D02*
X9611300D01*
G01X9898300Y9840000D02*
Y9940000D01*
X9869200D01*
X9859800Y9935000D01*
X9854000Y9928300D01*
X9851700Y9915000D01*
X9854000Y9901700D01*
X9861000Y9893300D01*
X9869200Y9888300D01*
X9898300D01*
G01X9869200D02*
X9851700Y9840000D01*
G01X9766000D02*
Y9940000D01*
X9809200Y9868300D01*
X9750800D01*
G01X9707200Y9881700D02*
X9699000Y9893300D01*
X9692000Y9900000D01*
X9682700Y9903300D01*
X9674500Y9900000D01*
X9668700Y9893300D01*
X9664000Y9883300D01*
X9662800Y9871700D01*
X9664000Y9861700D01*
X9668700Y9851700D01*
X9675700Y9843300D01*
X9683800Y9840000D01*
X9693200Y9843300D01*
X9701300Y9853300D01*
X9706000Y9868300D01*
X9707200Y9885000D01*
X9704800Y9906700D01*
X9701300Y9918300D01*
X9695500Y9930000D01*
X9687300Y9938300D01*
X9679200Y9940000D01*
X9671000Y9936700D01*
X9665200Y9928300D01*
G01X9898300Y10540000D02*
Y10640000D01*
X9869200D01*
X9859800Y10635000D01*
X9854000Y10628300D01*
X9851700Y10615000D01*
X9854000Y10601700D01*
X9861000Y10593300D01*
X9869200Y10588300D01*
X9898300D01*
G01X9869200D02*
X9851700Y10540000D01*
G01X9766000D02*
Y10640000D01*
X9809200Y10568300D01*
X9750800D01*
G01X9710700Y10555000D02*
X9703700Y10546700D01*
X9695500Y10541700D01*
X9685000Y10540000D01*
X9674500Y10543300D01*
X9666300Y10550000D01*
X9660500Y10561700D01*
X9659300Y10575000D01*
X9661700Y10588300D01*
X9667500Y10596700D01*
X9675700Y10603300D01*
X9683800Y10605000D01*
X9692000Y10603300D01*
X9702500Y10596700D01*
X9699000Y10640000D01*
X9667500D01*
G01X9800000Y19450000D02*
X9880000D01*
Y19475000D01*
X9876000Y19483000D01*
X9870700Y19488000D01*
X9860000Y19490000D01*
X9849300Y19488000D01*
X9842700Y19482000D01*
X9838700Y19475000D01*
Y19450000D01*
G01Y19475000D02*
X9800000Y19490000D01*
G01X9866700Y19531000D02*
X9874700Y19537000D01*
X9878700Y19544000D01*
X9880000Y19552000D01*
X9877300Y19562000D01*
X9870700Y19569000D01*
X9862700Y19571000D01*
X9854700Y19570000D01*
X9848000Y19566000D01*
X9834700Y19546000D01*
X9825300Y19537000D01*
X9812000Y19531000D01*
X9800000Y19529000D01*
Y19571000D01*
G01Y19630000D02*
X9880000D01*
X9864000Y19618000D01*
G01X9800000D02*
Y19642000D01*
G01X9880000Y19710000D02*
X9877300Y19702000D01*
X9870700Y19696000D01*
X9862700Y19692000D01*
X9852000Y19689000D01*
X9840000Y19688000D01*
X9828000Y19689000D01*
X9817300Y19692000D01*
X9809300Y19696000D01*
X9802700Y19702000D01*
X9800000Y19710000D01*
X9802700Y19718000D01*
X9809300Y19724000D01*
X9817300Y19728000D01*
X9828000Y19731000D01*
X9840000Y19732000D01*
X9852000Y19731000D01*
X9862700Y19728000D01*
X9870700Y19724000D01*
X9877300Y19718000D01*
X9880000Y19710000D01*
G01X9500000Y19450000D02*
X9580000D01*
Y19475000D01*
X9576000Y19483000D01*
X9570700Y19488000D01*
X9560000Y19490000D01*
X9549300Y19488000D01*
X9542700Y19482000D01*
X9538700Y19475000D01*
Y19450000D01*
G01Y19475000D02*
X9500000Y19490000D01*
G01X9566700Y19531000D02*
X9574700Y19537000D01*
X9578700Y19544000D01*
X9580000Y19552000D01*
X9577300Y19562000D01*
X9570700Y19569000D01*
X9562700Y19571000D01*
X9554700Y19570000D01*
X9548000Y19566000D01*
X9534700Y19546000D01*
X9525300Y19537000D01*
X9512000Y19531000D01*
X9500000Y19529000D01*
Y19571000D01*
G01X9580000Y19630000D02*
X9577300Y19622000D01*
X9570700Y19616000D01*
X9562700Y19612000D01*
X9552000Y19609000D01*
X9540000Y19608000D01*
X9528000Y19609000D01*
X9517300Y19612000D01*
X9509300Y19616000D01*
X9502700Y19622000D01*
X9500000Y19630000D01*
X9502700Y19638000D01*
X9509300Y19644000D01*
X9517300Y19648000D01*
X9528000Y19651000D01*
X9540000Y19652000D01*
X9552000Y19651000D01*
X9562700Y19648000D01*
X9570700Y19644000D01*
X9577300Y19638000D01*
X9580000Y19630000D01*
G01X9509300Y19693000D02*
X9502700Y19700000D01*
X9500000Y19708000D01*
X9502700Y19716000D01*
X9510700Y19723000D01*
X9522700Y19728000D01*
X9534700Y19730000D01*
X9549300D01*
X9561300Y19728000D01*
X9572000Y19723000D01*
X9577300Y19717000D01*
X9580000Y19710000D01*
X9577300Y19702000D01*
X9572000Y19696000D01*
X9564000Y19692000D01*
X9553300Y19690000D01*
X9544000Y19692000D01*
X9534700Y19697000D01*
X9529300Y19703000D01*
X9528000Y19710000D01*
X9530700Y19718000D01*
X9537300Y19724000D01*
X9549300Y19730000D01*
G01X10424900Y8927000D02*
Y8836000D01*
X10418500Y8816900D01*
X10405600Y8804200D01*
X10389600Y8800000D01*
X10373500Y8804200D01*
X10360600Y8816900D01*
X10354200Y8836000D01*
Y8927000D01*
G01X10290600Y8905800D02*
X10281000Y8918500D01*
X10269700Y8924900D01*
X10256800Y8927000D01*
X10240700Y8922800D01*
X10229500Y8912200D01*
X10226300Y8899500D01*
X10227900Y8886800D01*
X10234300Y8876200D01*
X10266500Y8855000D01*
X10281000Y8840200D01*
X10290600Y8819000D01*
X10293800Y8800000D01*
X10226300D01*
G01X10161100Y8905800D02*
X10151500Y8918500D01*
X10140200Y8924900D01*
X10127300Y8927000D01*
X10111200Y8922800D01*
X10100000Y8912200D01*
X10096800Y8899500D01*
X10098400Y8886800D01*
X10104800Y8876200D01*
X10137000Y8855000D01*
X10151500Y8840200D01*
X10161100Y8819000D01*
X10164300Y8800000D01*
X10096800D01*
G01X10398300Y9840000D02*
Y9940000D01*
X10369200D01*
X10359800Y9935000D01*
X10354000Y9928300D01*
X10351700Y9915000D01*
X10354000Y9901700D01*
X10361000Y9893300D01*
X10369200Y9888300D01*
X10398300D01*
G01X10369200D02*
X10351700Y9840000D01*
G01X10266000D02*
Y9940000D01*
X10309200Y9868300D01*
X10250800D01*
G01X10204800Y9851700D02*
X10196700Y9843300D01*
X10187300Y9840000D01*
X10178000Y9843300D01*
X10169800Y9853300D01*
X10164000Y9868300D01*
X10161700Y9883300D01*
Y9901700D01*
X10164000Y9916700D01*
X10169800Y9930000D01*
X10176800Y9936700D01*
X10185000Y9940000D01*
X10194300Y9936700D01*
X10201300Y9930000D01*
X10206000Y9920000D01*
X10208300Y9906700D01*
X10206000Y9895000D01*
X10200200Y9883300D01*
X10193200Y9876700D01*
X10185000Y9875000D01*
X10175700Y9878300D01*
X10168700Y9886700D01*
X10161700Y9901700D01*
G01X10398300Y10540000D02*
Y10640000D01*
X10369200D01*
X10359800Y10635000D01*
X10354000Y10628300D01*
X10351700Y10615000D01*
X10354000Y10601700D01*
X10361000Y10593300D01*
X10369200Y10588300D01*
X10398300D01*
G01X10369200D02*
X10351700Y10540000D01*
G01X10266000D02*
Y10640000D01*
X10309200Y10568300D01*
X10250800D01*
G01X10185000Y10540000D02*
X10176800Y10541700D01*
X10167500Y10546700D01*
X10161700Y10555000D01*
X10159300Y10566700D01*
X10161700Y10578300D01*
X10168700Y10588300D01*
X10179200Y10593300D01*
X10190800D01*
X10197800Y10596700D01*
X10203700Y10605000D01*
X10206000Y10616700D01*
X10202500Y10628300D01*
X10194300Y10636700D01*
X10185000Y10640000D01*
X10175700Y10636700D01*
X10167500Y10628300D01*
X10164000Y10616700D01*
X10166300Y10605000D01*
X10172200Y10596700D01*
X10179200Y10593300D01*
X10190800D01*
X10201300Y10588300D01*
X10208300Y10578300D01*
X10210700Y10566700D01*
X10208300Y10555000D01*
X10202500Y10546700D01*
X10193200Y10541700D01*
X10185000Y10540000D01*
G01X10529300Y14651700D02*
X10536300Y14656700D01*
X10544500Y14660000D01*
X10553800D01*
X10564300Y14655000D01*
X10572500Y14646700D01*
X10578300Y14636700D01*
X10583000Y14620000D01*
X10584200Y14605000D01*
X10581800Y14590000D01*
X10578300Y14580000D01*
X10571300Y14570000D01*
X10563200Y14563300D01*
X10555000Y14560000D01*
X10546800D01*
X10538700Y14563300D01*
X10531700Y14568300D01*
X10525800Y14575000D01*
G01X10485700Y14580000D02*
X10478700Y14568300D01*
X10469300Y14561700D01*
X10458800Y14560000D01*
X10449500Y14561700D01*
X10440200Y14570000D01*
X10434300Y14580000D01*
X10433200Y14590000D01*
X10435500Y14601700D01*
X10443700Y14610000D01*
X10451800Y14613300D01*
X10462300D01*
G01X10451800D02*
X10444800Y14618300D01*
X10439000Y14626700D01*
X10436700Y14636700D01*
X10439000Y14646700D01*
X10444800Y14655000D01*
X10455300Y14660000D01*
X10465800Y14658300D01*
X10476300Y14651700D01*
G01X10367300Y14560000D02*
X10365000Y14581700D01*
X10361500Y14600000D01*
X10356800Y14616700D01*
X10351000Y14635000D01*
X10341700Y14660000D01*
X10388300D01*
G01X10924900Y8927000D02*
Y8836000D01*
X10918500Y8816900D01*
X10905600Y8804200D01*
X10889600Y8800000D01*
X10873500Y8804200D01*
X10860600Y8816900D01*
X10854200Y8836000D01*
Y8927000D01*
G01X10790600Y8905800D02*
X10781000Y8918500D01*
X10769700Y8924900D01*
X10756800Y8927000D01*
X10740700Y8922800D01*
X10729500Y8912200D01*
X10726300Y8899500D01*
X10727900Y8886800D01*
X10734300Y8876200D01*
X10766500Y8855000D01*
X10781000Y8840200D01*
X10790600Y8819000D01*
X10793800Y8800000D01*
X10726300D01*
G01X10665900Y8825400D02*
X10656300Y8810600D01*
X10643400Y8802100D01*
X10628900Y8800000D01*
X10616100Y8802100D01*
X10603200Y8812700D01*
X10595200Y8825400D01*
X10593600Y8838100D01*
X10596800Y8852900D01*
X10608000Y8863500D01*
X10619300Y8867700D01*
X10633800D01*
G01X10619300D02*
X10609600Y8874100D01*
X10601600Y8884700D01*
X10598400Y8897400D01*
X10601600Y8910100D01*
X10609600Y8920600D01*
X10624100Y8927000D01*
X10638600Y8924900D01*
X10653100Y8916400D01*
G01X10898300Y9840000D02*
Y9940000D01*
X10869200D01*
X10859800Y9935000D01*
X10854000Y9928300D01*
X10851700Y9915000D01*
X10854000Y9901700D01*
X10861000Y9893300D01*
X10869200Y9888300D01*
X10898300D01*
G01X10869200D02*
X10851700Y9840000D01*
G01X10805700Y9855000D02*
X10798700Y9846700D01*
X10790500Y9841700D01*
X10780000Y9840000D01*
X10769500Y9843300D01*
X10761300Y9850000D01*
X10755500Y9861700D01*
X10754300Y9875000D01*
X10756700Y9888300D01*
X10762500Y9896700D01*
X10770700Y9903300D01*
X10778800Y9905000D01*
X10787000Y9903300D01*
X10797500Y9896700D01*
X10794000Y9940000D01*
X10762500D01*
G01X10707200Y9923300D02*
X10700200Y9933300D01*
X10692000Y9938300D01*
X10682700Y9940000D01*
X10671000Y9936700D01*
X10662800Y9928300D01*
X10660500Y9918300D01*
X10661700Y9908300D01*
X10666300Y9900000D01*
X10689700Y9883300D01*
X10700200Y9871700D01*
X10707200Y9855000D01*
X10709500Y9840000D01*
X10660500D01*
G01X10898300Y10540000D02*
Y10640000D01*
X10869200D01*
X10859800Y10635000D01*
X10854000Y10628300D01*
X10851700Y10615000D01*
X10854000Y10601700D01*
X10861000Y10593300D01*
X10869200Y10588300D01*
X10898300D01*
G01X10869200D02*
X10851700Y10540000D01*
G01X10805700Y10555000D02*
X10798700Y10546700D01*
X10790500Y10541700D01*
X10780000Y10540000D01*
X10769500Y10543300D01*
X10761300Y10550000D01*
X10755500Y10561700D01*
X10754300Y10575000D01*
X10756700Y10588300D01*
X10762500Y10596700D01*
X10770700Y10603300D01*
X10778800Y10605000D01*
X10787000Y10603300D01*
X10797500Y10596700D01*
X10794000Y10640000D01*
X10762500D01*
G01X10685000Y10540000D02*
Y10640000D01*
X10699000Y10620000D01*
G01Y10540000D02*
X10671000D01*
G01X11424900Y8927000D02*
Y8836000D01*
X11418500Y8816900D01*
X11405600Y8804200D01*
X11389600Y8800000D01*
X11373500Y8804200D01*
X11360600Y8816900D01*
X11354200Y8836000D01*
Y8927000D01*
G01X11290600Y8905800D02*
X11281000Y8918500D01*
X11269700Y8924900D01*
X11256800Y8927000D01*
X11240700Y8922800D01*
X11229500Y8912200D01*
X11226300Y8899500D01*
X11227900Y8886800D01*
X11234300Y8876200D01*
X11266500Y8855000D01*
X11281000Y8840200D01*
X11290600Y8819000D01*
X11293800Y8800000D01*
X11226300D01*
G01X11111200D02*
Y8927000D01*
X11170800Y8836000D01*
X11090300D01*
G01X11398300Y9840000D02*
Y9940000D01*
X11369200D01*
X11359800Y9935000D01*
X11354000Y9928300D01*
X11351700Y9915000D01*
X11354000Y9901700D01*
X11361000Y9893300D01*
X11369200Y9888300D01*
X11398300D01*
G01X11369200D02*
X11351700Y9840000D01*
G01X11305700Y9855000D02*
X11298700Y9846700D01*
X11290500Y9841700D01*
X11280000Y9840000D01*
X11269500Y9843300D01*
X11261300Y9850000D01*
X11255500Y9861700D01*
X11254300Y9875000D01*
X11256700Y9888300D01*
X11262500Y9896700D01*
X11270700Y9903300D01*
X11278800Y9905000D01*
X11287000Y9903300D01*
X11297500Y9896700D01*
X11294000Y9940000D01*
X11262500D01*
G01X11210700Y9855000D02*
X11203700Y9846700D01*
X11195500Y9841700D01*
X11185000Y9840000D01*
X11174500Y9843300D01*
X11166300Y9850000D01*
X11160500Y9861700D01*
X11159300Y9875000D01*
X11161700Y9888300D01*
X11167500Y9896700D01*
X11175700Y9903300D01*
X11183800Y9905000D01*
X11192000Y9903300D01*
X11202500Y9896700D01*
X11199000Y9940000D01*
X11167500D01*
G01X11398300Y10540000D02*
Y10640000D01*
X11369200D01*
X11359800Y10635000D01*
X11354000Y10628300D01*
X11351700Y10615000D01*
X11354000Y10601700D01*
X11361000Y10593300D01*
X11369200Y10588300D01*
X11398300D01*
G01X11369200D02*
X11351700Y10540000D01*
G01X11305700Y10555000D02*
X11298700Y10546700D01*
X11290500Y10541700D01*
X11280000Y10540000D01*
X11269500Y10543300D01*
X11261300Y10550000D01*
X11255500Y10561700D01*
X11254300Y10575000D01*
X11256700Y10588300D01*
X11262500Y10596700D01*
X11270700Y10603300D01*
X11278800Y10605000D01*
X11287000Y10603300D01*
X11297500Y10596700D01*
X11294000Y10640000D01*
X11262500D01*
G01X11171000Y10540000D02*
Y10640000D01*
X11214200Y10568300D01*
X11155800D01*
G01X12062000Y8596700D02*
X12056000Y8592700D01*
X12049000Y8590000D01*
X12041000D01*
X12032000Y8594000D01*
X12025000Y8600700D01*
X12020000Y8608700D01*
X12016000Y8622000D01*
X12015000Y8634000D01*
X12017000Y8646000D01*
X12020000Y8654000D01*
X12026000Y8662000D01*
X12033000Y8667300D01*
X12040000Y8670000D01*
X12047000D01*
X12054000Y8667300D01*
X12060000Y8663300D01*
X12065000Y8658000D01*
G01X12120000Y8670000D02*
X12127000Y8668700D01*
X12135000Y8664700D01*
X12140000Y8658000D01*
X12142000Y8648700D01*
X12140000Y8639300D01*
X12134000Y8631300D01*
X12125000Y8627300D01*
X12115000D01*
X12109000Y8624700D01*
X12104000Y8618000D01*
X12102000Y8608700D01*
X12105000Y8599300D01*
X12112000Y8592700D01*
X12120000Y8590000D01*
X12128000Y8592700D01*
X12135000Y8599300D01*
X12138000Y8608700D01*
X12136000Y8618000D01*
X12131000Y8624700D01*
X12125000Y8627300D01*
X12115000D01*
X12106000Y8631300D01*
X12100000Y8639300D01*
X12098000Y8648700D01*
X12100000Y8658000D01*
X12105000Y8664700D01*
X12113000Y8668700D01*
X12120000Y8670000D01*
G01X12178000Y8654000D02*
X12184000Y8663300D01*
X12192000Y8668700D01*
X12201000Y8670000D01*
X12209000Y8668700D01*
X12217000Y8662000D01*
X12222000Y8654000D01*
X12223000Y8646000D01*
X12221000Y8636700D01*
X12214000Y8630000D01*
X12207000Y8627300D01*
X12198000D01*
G01X12207000D02*
X12213000Y8623300D01*
X12218000Y8616700D01*
X12220000Y8608700D01*
X12218000Y8600700D01*
X12213000Y8594000D01*
X12204000Y8590000D01*
X12195000Y8591300D01*
X12186000Y8596700D01*
G01X12754200Y9076400D02*
X12763800Y9082800D01*
X12775100Y9087000D01*
X12787900D01*
X12802400Y9080600D01*
X12813700Y9070100D01*
X12821700Y9057400D01*
X12828200Y9036200D01*
X12829800Y9017100D01*
X12826500Y8998100D01*
X12821700Y8985400D01*
X12812100Y8972700D01*
X12800800Y8964200D01*
X12789600Y8960000D01*
X12778300D01*
X12767000Y8964200D01*
X12757400Y8970600D01*
X12749300Y8979000D01*
G01X12695400Y8985400D02*
X12685800Y8970600D01*
X12672900Y8962100D01*
X12658400Y8960000D01*
X12645600Y8962100D01*
X12632700Y8972700D01*
X12624700Y8985400D01*
X12623100Y8998100D01*
X12626300Y9012900D01*
X12637500Y9023500D01*
X12648800Y9027700D01*
X12663300D01*
G01X12648800D02*
X12639100Y9034100D01*
X12631100Y9044700D01*
X12627900Y9057400D01*
X12631100Y9070100D01*
X12639100Y9080600D01*
X12653600Y9087000D01*
X12668100Y9084900D01*
X12682600Y9076400D01*
G01X12557900Y8974800D02*
X12546600Y8964200D01*
X12533800Y8960000D01*
X12520900Y8964200D01*
X12509600Y8976900D01*
X12501600Y8996000D01*
X12498400Y9015000D01*
Y9038300D01*
X12501600Y9057400D01*
X12509600Y9074300D01*
X12519300Y9082800D01*
X12530600Y9087000D01*
X12543400Y9082800D01*
X12553100Y9074300D01*
X12559500Y9061600D01*
X12562700Y9044700D01*
X12559500Y9029900D01*
X12551500Y9015000D01*
X12541800Y9006600D01*
X12530600Y9004400D01*
X12517700Y9008700D01*
X12508000Y9019300D01*
X12498400Y9038300D01*
G01X13175100Y9877000D02*
Y9786000D01*
X13168700Y9766900D01*
X13155800Y9754200D01*
X13139800Y9750000D01*
X13123700Y9754200D01*
X13110800Y9766900D01*
X13104400Y9786000D01*
Y9877000D01*
G01X13010300Y9750000D02*
X12999000Y9752100D01*
X12986100Y9758500D01*
X12978100Y9769000D01*
X12974900Y9783900D01*
X12978100Y9798700D01*
X12987700Y9811400D01*
X13002200Y9817700D01*
X13018300D01*
X13027900Y9822000D01*
X13036000Y9832500D01*
X13039200Y9847400D01*
X13034400Y9862200D01*
X13023100Y9872800D01*
X13010300Y9877000D01*
X12997400Y9872800D01*
X12986100Y9862200D01*
X12981300Y9847400D01*
X12984500Y9832500D01*
X12992600Y9822000D01*
X13002200Y9817700D01*
X13018300D01*
X13032800Y9811400D01*
X13042400Y9798700D01*
X13045600Y9783900D01*
X13042400Y9769000D01*
X13034400Y9758500D01*
X13021500Y9752100D01*
X13010300Y9750000D01*
G01X12796900Y10920000D02*
Y11047000D01*
X12756700D01*
X12743800Y11040600D01*
X12735800Y11032200D01*
X12732600Y11015200D01*
X12735800Y10998300D01*
X12745400Y10987700D01*
X12756700Y10981400D01*
X12796900D01*
G01X12756700D02*
X12732600Y10920000D01*
G01X12635300D02*
X12624000Y10922100D01*
X12611100Y10928500D01*
X12603100Y10939000D01*
X12599900Y10953900D01*
X12603100Y10968700D01*
X12612700Y10981400D01*
X12627200Y10987700D01*
X12643300D01*
X12652900Y10992000D01*
X12661000Y11002500D01*
X12664200Y11017400D01*
X12659400Y11032200D01*
X12648100Y11042800D01*
X12635300Y11047000D01*
X12622400Y11042800D01*
X12611100Y11032200D01*
X12606300Y11017400D01*
X12609500Y11002500D01*
X12617600Y10992000D01*
X12627200Y10987700D01*
X12643300D01*
X12657800Y10981400D01*
X12667400Y10968700D01*
X12670600Y10953900D01*
X12667400Y10939000D01*
X12659400Y10928500D01*
X12646500Y10922100D01*
X12635300Y10920000D01*
M02*
